%TF.GenerationSoftware,KiCad,Pcbnew,(5.0.0)*%
%TF.CreationDate,2019-02-05T01:12:51-08:00*%
%TF.ProjectId,Voyager20,566F796167657232302E6B696361645F,rev?*%
%TF.SameCoordinates,Original*%
%TF.FileFunction,Copper,L2,Bot,Signal*%
%TF.FilePolarity,Positive*%
%FSLAX46Y46*%
G04 Gerber Fmt 4.6, Leading zero omitted, Abs format (unit mm)*
G04 Created by KiCad (PCBNEW (5.0.0)) date 02/05/19 01:12:51*
%MOMM*%
%LPD*%
G01*
G04 APERTURE LIST*
%ADD10C,0.500000*%
%ADD11C,0.010000*%
%ADD12R,1.905000X1.905000*%
%ADD13C,1.905000*%
%ADD14C,2.250000*%
%ADD15C,2.250000*%
%ADD16R,0.800000X0.750000*%
%ADD17R,1.200000X0.900000*%
%ADD18R,2.030000X1.140000*%
%ADD19R,1.300000X0.700000*%
%ADD20R,0.700000X1.300000*%
%ADD21R,1.800000X1.100000*%
%ADD22R,0.700000X1.000000*%
%ADD23R,0.700000X0.600000*%
%ADD24R,1.200000X1.400000*%
%ADD25R,0.900000X0.800000*%
%ADD26O,1.700000X1.700000*%
%ADD27R,1.700000X1.700000*%
%ADD28R,0.550000X1.600000*%
%ADD29R,1.600000X0.550000*%
%ADD30R,1.500000X1.500000*%
%ADD31C,5.000000*%
%ADD32C,0.600000*%
%ADD33C,0.254000*%
%ADD34C,0.381000*%
%ADD35C,0.203200*%
G04 APERTURE END LIST*
D10*
X106091666Y10207738D02*
X106091666Y12207738D01*
X105901190Y10969642D02*
X105329761Y10207738D01*
X105329761Y11541071D02*
X106091666Y10779166D01*
X104472619Y10207738D02*
X104472619Y12207738D01*
X104472619Y11445833D02*
X104282142Y11541071D01*
X103901190Y11541071D01*
X103710714Y11445833D01*
X103615476Y11350595D01*
X103520238Y11160119D01*
X103520238Y10588690D01*
X103615476Y10398214D01*
X103710714Y10302976D01*
X103901190Y10207738D01*
X104282142Y10207738D01*
X104472619Y10302976D01*
X102663095Y10398214D02*
X102567857Y10302976D01*
X102663095Y10207738D01*
X102758333Y10302976D01*
X102663095Y10398214D01*
X102663095Y10207738D01*
X100853571Y10207738D02*
X100853571Y11255357D01*
X100948809Y11445833D01*
X101139285Y11541071D01*
X101520238Y11541071D01*
X101710714Y11445833D01*
X100853571Y10302976D02*
X101044047Y10207738D01*
X101520238Y10207738D01*
X101710714Y10302976D01*
X101805952Y10493452D01*
X101805952Y10683928D01*
X101710714Y10874404D01*
X101520238Y10969642D01*
X101044047Y10969642D01*
X100853571Y11064880D01*
X99901190Y10207738D02*
X99901190Y11541071D01*
X99901190Y12207738D02*
X99996428Y12112500D01*
X99901190Y12017261D01*
X99805952Y12112500D01*
X99901190Y12207738D01*
X99901190Y12017261D01*
X98567857Y12207738D02*
X98377380Y12207738D01*
X98186904Y12112500D01*
X98091666Y12017261D01*
X97996428Y11826785D01*
X97901190Y11445833D01*
X97901190Y10969642D01*
X97996428Y10588690D01*
X98091666Y10398214D01*
X98186904Y10302976D01*
X98377380Y10207738D01*
X98567857Y10207738D01*
X98758333Y10302976D01*
X98853571Y10398214D01*
X98948809Y10588690D01*
X99044047Y10969642D01*
X99044047Y11445833D01*
X98948809Y11826785D01*
X98853571Y12017261D01*
X98758333Y12112500D01*
X98567857Y12207738D01*
X97234523Y12207738D02*
X95996428Y12207738D01*
X96663095Y11445833D01*
X96377380Y11445833D01*
X96186904Y11350595D01*
X96091666Y11255357D01*
X95996428Y11064880D01*
X95996428Y10588690D01*
X96091666Y10398214D01*
X96186904Y10302976D01*
X96377380Y10207738D01*
X96948809Y10207738D01*
X97139285Y10302976D01*
X97234523Y10398214D01*
X95139285Y10398214D02*
X95044047Y10302976D01*
X95139285Y10207738D01*
X95234523Y10302976D01*
X95139285Y10398214D01*
X95139285Y10207738D01*
X94186904Y10207738D02*
X94186904Y11541071D01*
X94186904Y11350595D02*
X94091666Y11445833D01*
X93901190Y11541071D01*
X93615476Y11541071D01*
X93425000Y11445833D01*
X93329761Y11255357D01*
X93329761Y10207738D01*
X93329761Y11255357D02*
X93234523Y11445833D01*
X93044047Y11541071D01*
X92758333Y11541071D01*
X92567857Y11445833D01*
X92472619Y11255357D01*
X92472619Y10207738D01*
X90758333Y10302976D02*
X90948809Y10207738D01*
X91329761Y10207738D01*
X91520238Y10302976D01*
X91615476Y10493452D01*
X91615476Y11255357D01*
X91520238Y11445833D01*
X91329761Y11541071D01*
X90948809Y11541071D01*
X90758333Y11445833D01*
X90663095Y11255357D01*
X90663095Y11064880D01*
X91615476Y10874404D01*
D11*
G36*
X113185407Y12930605D02*
X113867197Y12930605D01*
X113867197Y13612394D01*
X113185407Y13612394D01*
X113185407Y12930605D01*
X113185407Y12930605D01*
G37*
X113185407Y12930605D02*
X113867197Y12930605D01*
X113867197Y13612394D01*
X113185407Y13612394D01*
X113185407Y12930605D01*
G36*
X112503618Y11607131D02*
X113185407Y11607131D01*
X113185407Y12248815D01*
X112503618Y12248815D01*
X112503618Y11607131D01*
X112503618Y11607131D01*
G37*
X112503618Y11607131D02*
X113185407Y11607131D01*
X113185407Y12248815D01*
X112503618Y12248815D01*
X112503618Y11607131D01*
G36*
X113867197Y11607131D02*
X114508881Y11607131D01*
X114508881Y12248815D01*
X113867197Y12248815D01*
X113867197Y11607131D01*
X113867197Y11607131D01*
G37*
X113867197Y11607131D02*
X114508881Y11607131D01*
X114508881Y12248815D01*
X113867197Y12248815D01*
X113867197Y11607131D01*
G36*
X111861934Y10243552D02*
X112503618Y10243552D01*
X112503618Y10925342D01*
X111861934Y10925342D01*
X111861934Y10243552D01*
X111861934Y10243552D01*
G37*
X111861934Y10243552D02*
X112503618Y10243552D01*
X112503618Y10925342D01*
X111861934Y10925342D01*
X111861934Y10243552D01*
G36*
X113185407Y10243552D02*
X113867197Y10243552D01*
X113867197Y10925342D01*
X113185407Y10925342D01*
X113185407Y10243552D01*
X113185407Y10243552D01*
G37*
X113185407Y10243552D02*
X113867197Y10243552D01*
X113867197Y10925342D01*
X113185407Y10925342D01*
X113185407Y10243552D01*
G36*
X114508881Y10243552D02*
X115190671Y10243552D01*
X115190671Y10925342D01*
X114508881Y10925342D01*
X114508881Y10243552D01*
X114508881Y10243552D01*
G37*
X114508881Y10243552D02*
X115190671Y10243552D01*
X115190671Y10925342D01*
X114508881Y10925342D01*
X114508881Y10243552D01*
G36*
X111180144Y8920079D02*
X111861934Y8920079D01*
X111861934Y9601868D01*
X111180144Y9601868D01*
X111180144Y8920079D01*
X111180144Y8920079D01*
G37*
X111180144Y8920079D02*
X111861934Y8920079D01*
X111861934Y9601868D01*
X111180144Y9601868D01*
X111180144Y8920079D01*
G36*
X115190671Y8920079D02*
X115872460Y8920079D01*
X115872460Y9601868D01*
X115190671Y9601868D01*
X115190671Y8920079D01*
X115190671Y8920079D01*
G37*
X115190671Y8920079D02*
X115872460Y8920079D01*
X115872460Y9601868D01*
X115190671Y9601868D01*
X115190671Y8920079D01*
G36*
X113499565Y16117898D02*
X113290524Y16115590D01*
X113102378Y16108589D01*
X112929589Y16096215D01*
X112766619Y16077789D01*
X112607929Y16052630D01*
X112447981Y16020059D01*
X112281237Y15979395D01*
X112204979Y15958953D01*
X111853741Y15849078D01*
X111513382Y15715461D01*
X111185192Y15558769D01*
X110870461Y15379669D01*
X110570478Y15178830D01*
X110314234Y14980093D01*
X110048686Y14743082D01*
X109800540Y14488016D01*
X109570947Y14216694D01*
X109361057Y13930913D01*
X109172023Y13632472D01*
X109004995Y13323168D01*
X108861126Y13004799D01*
X108741567Y12679164D01*
X108659455Y12396199D01*
X108603758Y12160434D01*
X108561046Y11938226D01*
X108530069Y11720505D01*
X108509576Y11498195D01*
X108498316Y11262226D01*
X108497215Y11219447D01*
X108501795Y10851789D01*
X108532439Y10490049D01*
X108589137Y10134275D01*
X108671881Y9784519D01*
X108780660Y9440828D01*
X108888782Y9164732D01*
X108936078Y9054812D01*
X108976604Y8963599D01*
X109013436Y8884941D01*
X109049649Y8812688D01*
X109088319Y8740688D01*
X109132523Y8662790D01*
X109181576Y8579184D01*
X109382365Y8265464D01*
X109601489Y7971190D01*
X109839170Y7696138D01*
X110095631Y7440085D01*
X110371096Y7202807D01*
X110665788Y6984082D01*
X110972934Y6787826D01*
X111061910Y6735667D01*
X111139237Y6691917D01*
X111211067Y6653500D01*
X111283550Y6617340D01*
X111362837Y6580362D01*
X111455081Y6539489D01*
X111558482Y6495032D01*
X111720559Y6428425D01*
X111869978Y6372781D01*
X112016697Y6324802D01*
X112170674Y6281192D01*
X112309776Y6246273D01*
X112586857Y6186392D01*
X112851437Y6143147D01*
X113111189Y6115628D01*
X113373788Y6102924D01*
X113526302Y6101952D01*
X113612565Y6102819D01*
X113693611Y6104007D01*
X113764147Y6105409D01*
X113818877Y6106920D01*
X113852507Y6108432D01*
X113853829Y6108527D01*
X114217911Y6148867D01*
X114576238Y6214528D01*
X114927364Y6304977D01*
X115269841Y6419678D01*
X115602222Y6558097D01*
X115923061Y6719699D01*
X116230911Y6903950D01*
X116485152Y7080844D01*
X116776399Y7313849D01*
X117047024Y7563720D01*
X117296649Y7829907D01*
X117524896Y8111856D01*
X117731388Y8409016D01*
X117915747Y8720833D01*
X118077595Y9046756D01*
X118216555Y9386232D01*
X118332249Y9738710D01*
X118352703Y9811229D01*
X118397109Y9982671D01*
X118433126Y10144902D01*
X118461434Y10303460D01*
X118482713Y10463882D01*
X118497643Y10631708D01*
X118506903Y10812475D01*
X118511175Y11011723D01*
X118511648Y11105815D01*
X118510511Y11199055D01*
X117614386Y11199055D01*
X117614212Y11064086D01*
X117611407Y10929914D01*
X117606024Y10803385D01*
X117598113Y10691346D01*
X117591848Y10631236D01*
X117538166Y10298946D01*
X117459595Y9976225D01*
X117356437Y9663705D01*
X117228996Y9362018D01*
X117077573Y9071793D01*
X116902471Y8793663D01*
X116703991Y8528258D01*
X116482438Y8276210D01*
X116444820Y8237114D01*
X116218741Y8023094D01*
X115973348Y7824466D01*
X115713187Y7644559D01*
X115442807Y7486704D01*
X115365689Y7446809D01*
X115240370Y7385084D01*
X115130490Y7334189D01*
X115028600Y7291128D01*
X114927255Y7252906D01*
X114819006Y7216528D01*
X114709407Y7182853D01*
X114390733Y7099632D01*
X114077890Y7041609D01*
X113768435Y7008560D01*
X113459929Y7000260D01*
X113149931Y7016481D01*
X113037860Y7028237D01*
X112722354Y7076984D01*
X112419902Y7147399D01*
X112126280Y7240746D01*
X111837267Y7358287D01*
X111673970Y7436094D01*
X111386590Y7593431D01*
X111118100Y7768143D01*
X110867223Y7961386D01*
X110632684Y8174310D01*
X110413207Y8408071D01*
X110207514Y8663820D01*
X110025168Y8925957D01*
X109982852Y8995333D01*
X109933465Y9083127D01*
X109880075Y9183243D01*
X109825747Y9289584D01*
X109773545Y9396053D01*
X109726535Y9496556D01*
X109687782Y9584994D01*
X109665150Y9641973D01*
X109559268Y9964569D01*
X109479443Y10289181D01*
X109425745Y10614900D01*
X109398240Y10940811D01*
X109396998Y11266004D01*
X109422086Y11589567D01*
X109473572Y11910586D01*
X109490083Y11988131D01*
X109546755Y12217677D01*
X109611273Y12430196D01*
X109686958Y12635014D01*
X109777133Y12841456D01*
X109840559Y12971939D01*
X109998378Y13256315D01*
X110178293Y13526524D01*
X110379011Y13781354D01*
X110599239Y14019592D01*
X110837685Y14240026D01*
X111093055Y14441443D01*
X111364056Y14622630D01*
X111649396Y14782376D01*
X111892228Y14896113D01*
X112181287Y15007936D01*
X112471904Y15095511D01*
X112767461Y15159525D01*
X113071343Y15200666D01*
X113386931Y15219621D01*
X113492881Y15221119D01*
X113826514Y15210390D01*
X114149255Y15175621D01*
X114462409Y15116418D01*
X114767278Y15032388D01*
X115065166Y14923135D01*
X115357376Y14788266D01*
X115645211Y14627388D01*
X115814806Y14519246D01*
X116049641Y14348252D01*
X116275659Y14155400D01*
X116490096Y13943929D01*
X116690190Y13717079D01*
X116873178Y13478090D01*
X117036296Y13230200D01*
X117176781Y12976649D01*
X117235384Y12853838D01*
X117338800Y12609865D01*
X117423400Y12375358D01*
X117491201Y12143024D01*
X117544219Y11905571D01*
X117584471Y11655706D01*
X117598620Y11540289D01*
X117606642Y11444003D01*
X117611880Y11327976D01*
X117614386Y11199055D01*
X118510511Y11199055D01*
X118508709Y11346650D01*
X118498816Y11567057D01*
X118481007Y11772668D01*
X118454317Y11969114D01*
X118417782Y12162025D01*
X118370440Y12357031D01*
X118311326Y12559764D01*
X118239476Y12775854D01*
X118213043Y12850394D01*
X118081027Y13178342D01*
X117924664Y13495536D01*
X117744276Y13801535D01*
X117540182Y14095896D01*
X117312706Y14378178D01*
X117062167Y14647939D01*
X116788888Y14904736D01*
X116608951Y15056619D01*
X116464398Y15166923D01*
X116300121Y15280314D01*
X116122253Y15393068D01*
X115936925Y15501459D01*
X115750269Y15601763D01*
X115568416Y15690255D01*
X115558302Y15694875D01*
X115440474Y15745187D01*
X115303748Y15798047D01*
X115155484Y15850965D01*
X115003043Y15901448D01*
X114853784Y15947007D01*
X114715068Y15985150D01*
X114661365Y15998444D01*
X114504356Y16033421D01*
X114354504Y16061480D01*
X114206286Y16083190D01*
X114054175Y16099119D01*
X113892645Y16109835D01*
X113716170Y16115906D01*
X113519226Y16117900D01*
X113499565Y16117898D01*
X113499565Y16117898D01*
G37*
X113499565Y16117898D02*
X113290524Y16115590D01*
X113102378Y16108589D01*
X112929589Y16096215D01*
X112766619Y16077789D01*
X112607929Y16052630D01*
X112447981Y16020059D01*
X112281237Y15979395D01*
X112204979Y15958953D01*
X111853741Y15849078D01*
X111513382Y15715461D01*
X111185192Y15558769D01*
X110870461Y15379669D01*
X110570478Y15178830D01*
X110314234Y14980093D01*
X110048686Y14743082D01*
X109800540Y14488016D01*
X109570947Y14216694D01*
X109361057Y13930913D01*
X109172023Y13632472D01*
X109004995Y13323168D01*
X108861126Y13004799D01*
X108741567Y12679164D01*
X108659455Y12396199D01*
X108603758Y12160434D01*
X108561046Y11938226D01*
X108530069Y11720505D01*
X108509576Y11498195D01*
X108498316Y11262226D01*
X108497215Y11219447D01*
X108501795Y10851789D01*
X108532439Y10490049D01*
X108589137Y10134275D01*
X108671881Y9784519D01*
X108780660Y9440828D01*
X108888782Y9164732D01*
X108936078Y9054812D01*
X108976604Y8963599D01*
X109013436Y8884941D01*
X109049649Y8812688D01*
X109088319Y8740688D01*
X109132523Y8662790D01*
X109181576Y8579184D01*
X109382365Y8265464D01*
X109601489Y7971190D01*
X109839170Y7696138D01*
X110095631Y7440085D01*
X110371096Y7202807D01*
X110665788Y6984082D01*
X110972934Y6787826D01*
X111061910Y6735667D01*
X111139237Y6691917D01*
X111211067Y6653500D01*
X111283550Y6617340D01*
X111362837Y6580362D01*
X111455081Y6539489D01*
X111558482Y6495032D01*
X111720559Y6428425D01*
X111869978Y6372781D01*
X112016697Y6324802D01*
X112170674Y6281192D01*
X112309776Y6246273D01*
X112586857Y6186392D01*
X112851437Y6143147D01*
X113111189Y6115628D01*
X113373788Y6102924D01*
X113526302Y6101952D01*
X113612565Y6102819D01*
X113693611Y6104007D01*
X113764147Y6105409D01*
X113818877Y6106920D01*
X113852507Y6108432D01*
X113853829Y6108527D01*
X114217911Y6148867D01*
X114576238Y6214528D01*
X114927364Y6304977D01*
X115269841Y6419678D01*
X115602222Y6558097D01*
X115923061Y6719699D01*
X116230911Y6903950D01*
X116485152Y7080844D01*
X116776399Y7313849D01*
X117047024Y7563720D01*
X117296649Y7829907D01*
X117524896Y8111856D01*
X117731388Y8409016D01*
X117915747Y8720833D01*
X118077595Y9046756D01*
X118216555Y9386232D01*
X118332249Y9738710D01*
X118352703Y9811229D01*
X118397109Y9982671D01*
X118433126Y10144902D01*
X118461434Y10303460D01*
X118482713Y10463882D01*
X118497643Y10631708D01*
X118506903Y10812475D01*
X118511175Y11011723D01*
X118511648Y11105815D01*
X118510511Y11199055D01*
X117614386Y11199055D01*
X117614212Y11064086D01*
X117611407Y10929914D01*
X117606024Y10803385D01*
X117598113Y10691346D01*
X117591848Y10631236D01*
X117538166Y10298946D01*
X117459595Y9976225D01*
X117356437Y9663705D01*
X117228996Y9362018D01*
X117077573Y9071793D01*
X116902471Y8793663D01*
X116703991Y8528258D01*
X116482438Y8276210D01*
X116444820Y8237114D01*
X116218741Y8023094D01*
X115973348Y7824466D01*
X115713187Y7644559D01*
X115442807Y7486704D01*
X115365689Y7446809D01*
X115240370Y7385084D01*
X115130490Y7334189D01*
X115028600Y7291128D01*
X114927255Y7252906D01*
X114819006Y7216528D01*
X114709407Y7182853D01*
X114390733Y7099632D01*
X114077890Y7041609D01*
X113768435Y7008560D01*
X113459929Y7000260D01*
X113149931Y7016481D01*
X113037860Y7028237D01*
X112722354Y7076984D01*
X112419902Y7147399D01*
X112126280Y7240746D01*
X111837267Y7358287D01*
X111673970Y7436094D01*
X111386590Y7593431D01*
X111118100Y7768143D01*
X110867223Y7961386D01*
X110632684Y8174310D01*
X110413207Y8408071D01*
X110207514Y8663820D01*
X110025168Y8925957D01*
X109982852Y8995333D01*
X109933465Y9083127D01*
X109880075Y9183243D01*
X109825747Y9289584D01*
X109773545Y9396053D01*
X109726535Y9496556D01*
X109687782Y9584994D01*
X109665150Y9641973D01*
X109559268Y9964569D01*
X109479443Y10289181D01*
X109425745Y10614900D01*
X109398240Y10940811D01*
X109396998Y11266004D01*
X109422086Y11589567D01*
X109473572Y11910586D01*
X109490083Y11988131D01*
X109546755Y12217677D01*
X109611273Y12430196D01*
X109686958Y12635014D01*
X109777133Y12841456D01*
X109840559Y12971939D01*
X109998378Y13256315D01*
X110178293Y13526524D01*
X110379011Y13781354D01*
X110599239Y14019592D01*
X110837685Y14240026D01*
X111093055Y14441443D01*
X111364056Y14622630D01*
X111649396Y14782376D01*
X111892228Y14896113D01*
X112181287Y15007936D01*
X112471904Y15095511D01*
X112767461Y15159525D01*
X113071343Y15200666D01*
X113386931Y15219621D01*
X113492881Y15221119D01*
X113826514Y15210390D01*
X114149255Y15175621D01*
X114462409Y15116418D01*
X114767278Y15032388D01*
X115065166Y14923135D01*
X115357376Y14788266D01*
X115645211Y14627388D01*
X115814806Y14519246D01*
X116049641Y14348252D01*
X116275659Y14155400D01*
X116490096Y13943929D01*
X116690190Y13717079D01*
X116873178Y13478090D01*
X117036296Y13230200D01*
X117176781Y12976649D01*
X117235384Y12853838D01*
X117338800Y12609865D01*
X117423400Y12375358D01*
X117491201Y12143024D01*
X117544219Y11905571D01*
X117584471Y11655706D01*
X117598620Y11540289D01*
X117606642Y11444003D01*
X117611880Y11327976D01*
X117614386Y11199055D01*
X118510511Y11199055D01*
X118508709Y11346650D01*
X118498816Y11567057D01*
X118481007Y11772668D01*
X118454317Y11969114D01*
X118417782Y12162025D01*
X118370440Y12357031D01*
X118311326Y12559764D01*
X118239476Y12775854D01*
X118213043Y12850394D01*
X118081027Y13178342D01*
X117924664Y13495536D01*
X117744276Y13801535D01*
X117540182Y14095896D01*
X117312706Y14378178D01*
X117062167Y14647939D01*
X116788888Y14904736D01*
X116608951Y15056619D01*
X116464398Y15166923D01*
X116300121Y15280314D01*
X116122253Y15393068D01*
X115936925Y15501459D01*
X115750269Y15601763D01*
X115568416Y15690255D01*
X115558302Y15694875D01*
X115440474Y15745187D01*
X115303748Y15798047D01*
X115155484Y15850965D01*
X115003043Y15901448D01*
X114853784Y15947007D01*
X114715068Y15985150D01*
X114661365Y15998444D01*
X114504356Y16033421D01*
X114354504Y16061480D01*
X114206286Y16083190D01*
X114054175Y16099119D01*
X113892645Y16109835D01*
X113716170Y16115906D01*
X113519226Y16117900D01*
X113499565Y16117898D01*
D12*
X86995000Y-101917500D03*
D13*
X84455000Y-101917500D03*
D14*
X83225000Y-92837500D03*
X82570001Y-93567500D03*
D15*
X81915000Y-94297500D02*
X83225002Y-92837500D01*
D14*
X88265000Y-91757500D03*
X88245000Y-92047500D03*
D15*
X88225000Y-92337500D02*
X88265000Y-91757500D01*
D16*
X42437750Y-22923500D03*
X40937750Y-22923500D03*
X40937750Y-20383500D03*
X42437750Y-20383500D03*
X58693750Y-26987500D03*
X57193750Y-26987500D03*
X46787500Y-16668750D03*
X45287500Y-16668750D03*
X49256250Y-25400000D03*
X50756250Y-25400000D03*
X49256250Y-27781250D03*
X50756250Y-27781250D03*
D17*
X42068750Y-42006250D03*
X42068750Y-45306250D03*
X74612500Y-39750000D03*
X74612500Y-36450000D03*
X77787500Y-36450000D03*
X77787500Y-39750000D03*
X96837500Y-39750000D03*
X96837500Y-36450000D03*
X55562500Y-58800000D03*
X55562500Y-55500000D03*
X74612500Y-55500000D03*
X74612500Y-58800000D03*
X77787500Y-58800000D03*
X77787500Y-55500000D03*
X95250000Y-61056250D03*
X95250000Y-64356250D03*
X55562500Y-77850000D03*
X55562500Y-74550000D03*
X74612500Y-74550000D03*
X74612500Y-77850000D03*
X77787500Y-74550000D03*
X77787500Y-77850000D03*
X95250000Y-76262500D03*
X95250000Y-72962500D03*
X55562500Y-96900000D03*
X55562500Y-93600000D03*
X58737500Y-93600000D03*
X58737500Y-96900000D03*
X93662500Y-98362500D03*
X93662500Y-101662500D03*
X74612500Y-96900000D03*
X74612500Y-93600000D03*
X78581250Y-99156250D03*
X78581250Y-102456250D03*
X74612500Y-115950000D03*
X74612500Y-112650000D03*
X77787500Y-112650000D03*
X77787500Y-115950000D03*
X94456250Y-114362500D03*
X94456250Y-111062500D03*
D18*
X87312500Y-20231250D03*
X87312500Y-22631250D03*
D12*
X48895000Y-44767500D03*
D13*
X46355000Y-44767500D03*
D14*
X45125000Y-35687500D03*
X44470001Y-36417500D03*
D15*
X43815000Y-37147500D02*
X45125002Y-35687500D01*
D14*
X50165000Y-34607500D03*
X50145000Y-34897500D03*
D15*
X50125000Y-35187500D02*
X50165000Y-34607500D01*
D12*
X67945000Y-44767500D03*
D13*
X65405000Y-44767500D03*
D14*
X64175000Y-35687500D03*
X63520001Y-36417500D03*
D15*
X62865000Y-37147500D02*
X64175002Y-35687500D01*
D14*
X69215000Y-34607500D03*
X69195000Y-34897500D03*
D15*
X69175000Y-35187500D02*
X69215000Y-34607500D01*
D14*
X88245000Y-34897500D03*
D15*
X88225000Y-35187500D02*
X88265000Y-34607500D01*
D14*
X88265000Y-34607500D03*
X82570001Y-36417500D03*
D15*
X81915000Y-37147500D02*
X83225002Y-35687500D01*
D14*
X83225000Y-35687500D03*
D13*
X84455000Y-44767500D03*
D12*
X86995000Y-44767500D03*
D14*
X107295000Y-34897500D03*
D15*
X107275000Y-35187500D02*
X107315000Y-34607500D01*
D14*
X107315000Y-34607500D03*
X101620001Y-36417500D03*
D15*
X100965000Y-37147500D02*
X102275002Y-35687500D01*
D14*
X102275000Y-35687500D03*
D13*
X103505000Y-44767500D03*
D12*
X106045000Y-44767500D03*
X48895000Y-63817500D03*
D13*
X46355000Y-63817500D03*
D14*
X45125000Y-54737500D03*
X44470001Y-55467500D03*
D15*
X43815000Y-56197500D02*
X45125002Y-54737500D01*
D14*
X50165000Y-53657500D03*
X50145000Y-53947500D03*
D15*
X50125000Y-54237500D02*
X50165000Y-53657500D01*
D14*
X69195000Y-53947500D03*
D15*
X69175000Y-54237500D02*
X69215000Y-53657500D01*
D14*
X69215000Y-53657500D03*
X63520001Y-55467500D03*
D15*
X62865000Y-56197500D02*
X64175002Y-54737500D01*
D14*
X64175000Y-54737500D03*
D13*
X65405000Y-63817500D03*
D12*
X67945000Y-63817500D03*
D14*
X88245000Y-53947500D03*
D15*
X88225000Y-54237500D02*
X88265000Y-53657500D01*
D14*
X88265000Y-53657500D03*
X82570001Y-55467500D03*
D15*
X81915000Y-56197500D02*
X83225002Y-54737500D01*
D14*
X83225000Y-54737500D03*
D13*
X84455000Y-63817500D03*
D12*
X86995000Y-63817500D03*
D14*
X107295000Y-53947500D03*
D15*
X107275000Y-54237500D02*
X107315000Y-53657500D01*
D14*
X107315000Y-53657500D03*
X101620001Y-55467500D03*
D15*
X100965000Y-56197500D02*
X102275002Y-54737500D01*
D14*
X102275000Y-54737500D03*
D13*
X103505000Y-63817500D03*
D12*
X106045000Y-63817500D03*
X48895000Y-82867500D03*
D13*
X46355000Y-82867500D03*
D14*
X45125000Y-73787500D03*
X44470001Y-74517500D03*
D15*
X43815000Y-75247500D02*
X45125002Y-73787500D01*
D14*
X50165000Y-72707500D03*
X50145000Y-72997500D03*
D15*
X50125000Y-73287500D02*
X50165000Y-72707500D01*
D14*
X69195000Y-72997500D03*
D15*
X69175000Y-73287500D02*
X69215000Y-72707500D01*
D14*
X69215000Y-72707500D03*
X63520001Y-74517500D03*
D15*
X62865000Y-75247500D02*
X64175002Y-73787500D01*
D14*
X64175000Y-73787500D03*
D13*
X65405000Y-82867500D03*
D12*
X67945000Y-82867500D03*
X86995000Y-82867500D03*
D13*
X84455000Y-82867500D03*
D14*
X83225000Y-73787500D03*
X82570001Y-74517500D03*
D15*
X81915000Y-75247500D02*
X83225002Y-73787500D01*
D14*
X88265000Y-72707500D03*
X88245000Y-72997500D03*
D15*
X88225000Y-73287500D02*
X88265000Y-72707500D01*
D12*
X106045000Y-82867500D03*
D13*
X103505000Y-82867500D03*
D14*
X102275000Y-73787500D03*
X101620001Y-74517500D03*
D15*
X100965000Y-75247500D02*
X102275002Y-73787500D01*
D14*
X107315000Y-72707500D03*
X107295000Y-72997500D03*
D15*
X107275000Y-73287500D02*
X107315000Y-72707500D01*
D12*
X48895000Y-101917500D03*
D13*
X46355000Y-101917500D03*
D14*
X45125000Y-92837500D03*
X44470001Y-93567500D03*
D15*
X43815000Y-94297500D02*
X45125002Y-92837500D01*
D14*
X50165000Y-91757500D03*
X50145000Y-92047500D03*
D15*
X50125000Y-92337500D02*
X50165000Y-91757500D01*
D14*
X69195000Y-92047500D03*
D15*
X69175000Y-92337500D02*
X69215000Y-91757500D01*
D14*
X69215000Y-91757500D03*
X63520001Y-93567500D03*
D15*
X62865000Y-94297500D02*
X64175002Y-92837500D01*
D14*
X64175000Y-92837500D03*
D13*
X65405000Y-101917500D03*
D12*
X67945000Y-101917500D03*
D14*
X107295000Y-92047500D03*
D15*
X107275000Y-92337500D02*
X107315000Y-91757500D01*
D14*
X107315000Y-91757500D03*
X101620001Y-93567500D03*
D15*
X100965000Y-94297500D02*
X102275002Y-92837500D01*
D14*
X102275000Y-92837500D03*
D13*
X103505000Y-101917500D03*
D12*
X106045000Y-101917500D03*
D14*
X50145000Y-111097500D03*
D15*
X50125000Y-111387500D02*
X50165000Y-110807500D01*
D14*
X50165000Y-110807500D03*
X44470001Y-112617500D03*
D15*
X43815000Y-113347500D02*
X45125002Y-111887500D01*
D14*
X45125000Y-111887500D03*
D13*
X46355000Y-120967500D03*
D12*
X48895000Y-120967500D03*
X67945000Y-120967500D03*
D13*
X65405000Y-120967500D03*
D14*
X64175000Y-111887500D03*
X63520001Y-112617500D03*
D15*
X62865000Y-113347500D02*
X64175002Y-111887500D01*
D14*
X69215000Y-110807500D03*
X69195000Y-111097500D03*
D15*
X69175000Y-111387500D02*
X69215000Y-110807500D01*
D14*
X88245000Y-111097500D03*
D15*
X88225000Y-111387500D02*
X88265000Y-110807500D01*
D14*
X88265000Y-110807500D03*
X82570001Y-112617500D03*
D15*
X81915000Y-113347500D02*
X83225002Y-111887500D01*
D14*
X83225000Y-111887500D03*
D13*
X84455000Y-120967500D03*
D12*
X86995000Y-120967500D03*
X106045000Y-120967500D03*
D13*
X103505000Y-120967500D03*
D14*
X102275000Y-111887500D03*
X101620001Y-112617500D03*
D15*
X100965000Y-113347500D02*
X102275002Y-111887500D01*
D14*
X107315000Y-110807500D03*
X107295000Y-111097500D03*
D15*
X107275000Y-111387500D02*
X107315000Y-110807500D01*
D19*
X64897000Y-27112000D03*
X64897000Y-25212000D03*
D20*
X77150000Y-30956250D03*
X75250000Y-30956250D03*
X77150000Y-27781250D03*
X75250000Y-27781250D03*
D19*
X54768750Y-9368750D03*
X54768750Y-11268750D03*
D20*
X43812500Y-49212500D03*
X41912500Y-49212500D03*
D19*
X74612500Y-44606250D03*
X74612500Y-42706250D03*
X77787500Y-42706250D03*
X77787500Y-44606250D03*
X96837500Y-44606250D03*
X96837500Y-42706250D03*
X55562500Y-63656250D03*
X55562500Y-61756250D03*
X74612500Y-63656250D03*
X74612500Y-61756250D03*
X77787500Y-63656250D03*
X77787500Y-61756250D03*
X92075000Y-62550000D03*
X92075000Y-64450000D03*
X55562500Y-80806250D03*
X55562500Y-82706250D03*
X74612500Y-82706250D03*
X74612500Y-80806250D03*
X77787500Y-80806250D03*
X77787500Y-82706250D03*
X91281250Y-82706250D03*
X91281250Y-80806250D03*
X55562500Y-99856250D03*
X55562500Y-101756250D03*
X58737500Y-99856250D03*
X58737500Y-101756250D03*
X96837500Y-98268750D03*
X96837500Y-100168750D03*
X74612500Y-99856250D03*
X74612500Y-101756250D03*
X52387500Y-120012500D03*
X52387500Y-118112500D03*
X61912500Y-118112500D03*
X61912500Y-120012500D03*
X77787500Y-120806250D03*
X77787500Y-118906250D03*
X74612500Y-118906250D03*
X74612500Y-120806250D03*
D21*
X98350000Y-47362500D03*
X92150000Y-51062500D03*
X98350000Y-51062500D03*
X92150000Y-47362500D03*
D22*
X81550000Y-19800000D03*
D23*
X83550000Y-20000000D03*
X81550000Y-18100000D03*
X83550000Y-18100000D03*
D24*
X46760500Y-22753500D03*
X46760500Y-20553500D03*
X45060500Y-20553500D03*
X45060500Y-22753500D03*
D14*
X99985000Y-65742500D03*
D15*
X100275000Y-65762500D02*
X99695000Y-65722500D01*
D14*
X99695000Y-65722500D03*
X101505000Y-71417499D03*
D15*
X102235000Y-72072500D02*
X100775000Y-70762498D01*
D14*
X100775000Y-70762500D03*
D13*
X109855000Y-69532500D03*
D12*
X109855000Y-66992500D03*
X109855000Y-105092500D03*
D13*
X109855000Y-107632500D03*
D14*
X100775000Y-108862500D03*
X101505000Y-109517499D03*
D15*
X102235000Y-110172500D02*
X100775000Y-108862498D01*
D14*
X99695000Y-103822500D03*
X99985000Y-103842500D03*
D15*
X100275000Y-103862500D02*
X99695000Y-103822500D01*
D14*
X59670000Y-111097500D03*
D15*
X59650000Y-111387500D02*
X59690000Y-110807500D01*
D14*
X59690000Y-110807500D03*
X53995001Y-112617500D03*
D15*
X53340000Y-113347500D02*
X54650002Y-111887500D01*
D14*
X54650000Y-111887500D03*
D13*
X55880000Y-120967500D03*
D12*
X58420000Y-120967500D03*
D25*
X65960750Y-16383000D03*
X67960750Y-17333000D03*
X67960750Y-15433000D03*
D20*
X66010750Y-12414250D03*
X67910750Y-12414250D03*
D17*
X42068750Y-8000000D03*
X42068750Y-4700000D03*
X58737500Y856250D03*
X58737500Y-2443750D03*
X93662500Y-3237500D03*
X93662500Y62500D03*
X96837500Y62500D03*
X96837500Y-3237500D03*
D14*
X50145000Y2808800D03*
D15*
X50125000Y2518800D02*
X50165000Y3098800D01*
D14*
X50165000Y3098800D03*
X44470001Y1288800D03*
D15*
X43815000Y558800D02*
X45125002Y2018800D01*
D14*
X45125000Y2018800D03*
D13*
X46355000Y-7061200D03*
D12*
X48895000Y-7061200D03*
X67945000Y-7061200D03*
D13*
X65405000Y-7061200D03*
D14*
X64175000Y2018800D03*
X63520001Y1288800D03*
D15*
X62865000Y558800D02*
X64175002Y2018800D01*
D14*
X69215000Y3098800D03*
X69195000Y2808800D03*
D15*
X69175000Y2518800D02*
X69215000Y3098800D01*
D14*
X88245000Y2808800D03*
D15*
X88225000Y2518800D02*
X88265000Y3098800D01*
D14*
X88265000Y3098800D03*
X82570001Y1288800D03*
D15*
X81915000Y558800D02*
X83225002Y2018800D01*
D14*
X83225000Y2018800D03*
D13*
X84455000Y-7061200D03*
D12*
X86995000Y-7061200D03*
X106045000Y-7061200D03*
D13*
X103505000Y-7061200D03*
D14*
X102275000Y2018800D03*
X101620001Y1288800D03*
D15*
X100965000Y558800D02*
X102275002Y2018800D01*
D14*
X107315000Y3098800D03*
X107295000Y2808800D03*
D15*
X107275000Y2518800D02*
X107315000Y3098800D01*
D19*
X42068750Y-12856250D03*
X42068750Y-10956250D03*
X58737500Y-5400000D03*
X58737500Y-7300000D03*
X93662500Y-8093750D03*
X93662500Y-6193750D03*
X96837500Y-6193750D03*
X96837500Y-8093750D03*
D26*
X79851250Y-13493750D03*
X77311250Y-13493750D03*
X74771250Y-13493750D03*
D27*
X72231250Y-13493750D03*
D28*
X53016500Y-23236500D03*
X53816500Y-23236500D03*
X54616500Y-23236500D03*
X55416500Y-23236500D03*
X56216500Y-23236500D03*
X57016500Y-23236500D03*
X57816500Y-23236500D03*
X58616500Y-23236500D03*
D29*
X60066500Y-21786500D03*
X60066500Y-20986500D03*
X60066500Y-20186500D03*
X60066500Y-19386500D03*
X60066500Y-18586500D03*
X60066500Y-17786500D03*
X60066500Y-16986500D03*
X60066500Y-16186500D03*
D28*
X58616500Y-14736500D03*
X57816500Y-14736500D03*
X57016500Y-14736500D03*
X56216500Y-14736500D03*
X55416500Y-14736500D03*
X54616500Y-14736500D03*
X53816500Y-14736500D03*
X53016500Y-14736500D03*
D29*
X51566500Y-16186500D03*
X51566500Y-16986500D03*
X51566500Y-17786500D03*
X51566500Y-18586500D03*
X51566500Y-19386500D03*
X51566500Y-20186500D03*
X51566500Y-20986500D03*
X51566500Y-21786500D03*
D30*
X53975000Y-48362500D03*
X53975000Y-50062500D03*
X57150000Y-50062500D03*
X57150000Y-48362500D03*
D31*
X80168750Y13493750D03*
X72231250Y13493750D03*
D32*
X55816500Y-18986500D03*
X49276000Y-28829000D03*
X100076000Y-47371000D03*
X95885000Y-11430000D03*
X56642000Y-8890000D03*
X97155000Y-64770000D03*
X50419000Y-26543000D03*
X46736000Y-15494000D03*
X62357000Y-27051000D03*
X50673000Y-28956000D03*
X88519000Y-24257000D03*
X60452000Y-6096000D03*
X62484000Y-32766000D03*
X38608000Y-14859000D03*
X38989000Y-30226000D03*
X37719000Y-14859000D03*
X38989000Y-31115000D03*
X66167000Y-21209000D03*
X73152000Y-78994000D03*
X67056000Y-21209000D03*
X74549000Y-98044000D03*
X59817000Y-27940000D03*
X57912000Y-32893000D03*
X63119000Y-26162000D03*
X65151000Y-14732000D03*
X64262000Y-14732000D03*
X101219000Y-10668000D03*
X81153000Y-10414000D03*
X73152000Y-51054000D03*
X65786000Y-23749000D03*
X72517000Y-99314000D03*
X72390000Y-105029000D03*
X67945000Y-21209000D03*
X74549000Y-117221000D03*
X80137000Y-102489000D03*
X77724000Y-117221000D03*
X76200000Y-99822000D03*
X76200000Y-80391000D03*
X76200000Y-61341000D03*
X76200000Y-42291000D03*
X76200000Y-118491000D03*
X76581000Y-92710000D03*
X61976000Y-12446000D03*
X60833000Y-4826000D03*
X96774000Y-41656000D03*
X96774000Y-5080000D03*
X61722000Y-19685000D03*
X62865000Y-12446000D03*
X52959000Y-5969000D03*
X52959000Y-4191000D03*
X61976000Y-7300000D03*
X53975000Y-52070000D03*
X53848000Y-13081000D03*
D33*
X44890500Y-22923500D02*
X45060500Y-22753500D01*
X42437750Y-22923500D02*
X44890500Y-22923500D01*
X45060500Y-23216500D02*
X45060500Y-22753500D01*
X45847000Y-24003000D02*
X45060500Y-23216500D01*
X47752000Y-24003000D02*
X45847000Y-24003000D01*
X49968500Y-21786500D02*
X47752000Y-24003000D01*
X51566500Y-21786500D02*
X49968500Y-21786500D01*
D34*
X72231250Y-13493750D02*
X72675750Y-13493750D01*
X72675750Y-13493750D02*
X75946000Y-16764000D01*
X75946000Y-16764000D02*
X78486000Y-16764000D01*
X81522000Y-19800000D02*
X81550000Y-19800000D01*
X78486000Y-16764000D02*
X81522000Y-19800000D01*
X56216500Y-23236500D02*
X56216500Y-25355500D01*
X57193750Y-26332750D02*
X57193750Y-26987500D01*
X56216500Y-25355500D02*
X57193750Y-26332750D01*
X46760500Y-22753500D02*
X46760500Y-22503500D01*
X45060500Y-20803500D02*
X45060500Y-20553500D01*
D35*
X46760500Y-22503500D02*
X45060500Y-20803500D01*
D34*
X45060500Y-20553500D02*
X44216500Y-20553500D01*
X43180000Y-21590000D02*
X40937750Y-21590000D01*
X44216500Y-20553500D02*
X43180000Y-21590000D01*
X40937750Y-20383500D02*
X40937750Y-21590000D01*
X40937750Y-21590000D02*
X40937750Y-22923500D01*
X40937750Y-20383500D02*
X40937750Y-19641250D01*
X40937750Y-19641250D02*
X41910000Y-18669000D01*
X41910000Y-18669000D02*
X47371000Y-18669000D01*
X48888500Y-20186500D02*
X51566500Y-20186500D01*
X47371000Y-18669000D02*
X48888500Y-20186500D01*
X45287500Y-16668750D02*
X45287500Y-17347500D01*
X46609000Y-18669000D02*
X47371000Y-18669000D01*
X45287500Y-17347500D02*
X46609000Y-18669000D01*
X51566500Y-20186500D02*
X54857500Y-20186500D01*
X56216500Y-21545500D02*
X56216500Y-23236500D01*
X54857500Y-20186500D02*
X56216500Y-21545500D01*
X54857500Y-19945500D02*
X55816500Y-18986500D01*
X54857500Y-20186500D02*
X54857500Y-19945500D01*
X49256250Y-27781250D02*
X49256250Y-25400000D01*
X49256250Y-27781250D02*
X49256250Y-28809250D01*
X49256250Y-28809250D02*
X49276000Y-28829000D01*
X68392000Y-17333000D02*
X72231250Y-13493750D01*
X67960750Y-17333000D02*
X68392000Y-17333000D01*
X98350000Y-47362500D02*
X100067500Y-47362500D01*
X100067500Y-47362500D02*
X100076000Y-47371000D01*
X74422000Y-11303000D02*
X72231250Y-13493750D01*
X95885000Y-11430000D02*
X95758000Y-11303000D01*
X95758000Y-11303000D02*
X74422000Y-11303000D01*
X55782250Y-9368750D02*
X54768750Y-9368750D01*
X56576000Y-8575000D02*
X55782250Y-9368750D01*
X56576000Y-8824000D02*
X56576000Y-8575000D01*
X56642000Y-8890000D02*
X56576000Y-8824000D01*
X56642000Y-8509000D02*
X56576000Y-8575000D01*
X64008000Y-8509000D02*
X56642000Y-8509000D01*
X65278000Y-9779000D02*
X64008000Y-8509000D01*
X68516500Y-9779000D02*
X65278000Y-9779000D01*
X72231250Y-13493750D02*
X68516500Y-9779000D01*
D33*
X47193500Y-20986500D02*
X46760500Y-20553500D01*
X51566500Y-20986500D02*
X47193500Y-20986500D01*
X42437750Y-20383500D02*
X42862500Y-20383500D01*
X42862500Y-20383500D02*
X43942000Y-19304000D01*
X43942000Y-19304000D02*
X46101000Y-19304000D01*
X46760500Y-19963500D02*
X46760500Y-20553500D01*
X46101000Y-19304000D02*
X46760500Y-19963500D01*
X57016500Y-23236500D02*
X57016500Y-24885500D01*
X58693750Y-26562750D02*
X58693750Y-26987500D01*
X57016500Y-24885500D02*
X58693750Y-26562750D01*
D34*
X65405000Y-7061200D02*
X65405000Y-7683500D01*
X65405000Y-7683500D02*
X66865500Y-9144000D01*
X82372200Y-9144000D02*
X84455000Y-7061200D01*
X66865500Y-9144000D02*
X82372200Y-9144000D01*
X46355000Y-64389000D02*
X46355000Y-63817500D01*
X47371000Y-65405000D02*
X46355000Y-64389000D01*
X65024000Y-65405000D02*
X47371000Y-65405000D01*
X65405000Y-65024000D02*
X65024000Y-65405000D01*
X65405000Y-63817500D02*
X65405000Y-65024000D01*
X84455000Y-65024000D02*
X84455000Y-63817500D01*
X84074000Y-65405000D02*
X84455000Y-65024000D01*
X65405000Y-65024000D02*
X65786000Y-65405000D01*
X65786000Y-65405000D02*
X84074000Y-65405000D01*
X103505000Y-63817500D02*
X101790500Y-63817500D01*
X101790500Y-63817500D02*
X101346000Y-63373000D01*
X101346000Y-63373000D02*
X98679000Y-63373000D01*
X98679000Y-63373000D02*
X97282000Y-64770000D01*
X97282000Y-64770000D02*
X97155000Y-64770000D01*
X65405000Y-120967500D02*
X65214500Y-120967500D01*
X65214500Y-120967500D02*
X63627000Y-122555000D01*
X63627000Y-122555000D02*
X56896000Y-122555000D01*
X55880000Y-121539000D02*
X55880000Y-120967500D01*
X56896000Y-122555000D02*
X55880000Y-121539000D01*
X51566500Y-19386500D02*
X49104500Y-19386500D01*
X46787500Y-17069500D02*
X46787500Y-16668750D01*
X49104500Y-19386500D02*
X46787500Y-17069500D01*
X53016500Y-23236500D02*
X53016500Y-24453500D01*
X52070000Y-25400000D02*
X50756250Y-25400000D01*
X53016500Y-24453500D02*
X52070000Y-25400000D01*
X53816500Y-23236500D02*
X53816500Y-24669500D01*
X50756250Y-27729750D02*
X50756250Y-27781250D01*
X53816500Y-24669500D02*
X50756250Y-27729750D01*
X50756250Y-26543000D02*
X50419000Y-26543000D01*
X50756250Y-26543000D02*
X50756250Y-27781250D01*
X50756250Y-25400000D02*
X50756250Y-26543000D01*
X46787500Y-15545500D02*
X46787500Y-16668750D01*
X46736000Y-15494000D02*
X46787500Y-15545500D01*
X64312800Y-5969000D02*
X65405000Y-7061200D01*
X64897000Y-27112000D02*
X62418000Y-27112000D01*
X62418000Y-27112000D02*
X62357000Y-27051000D01*
X50673000Y-27864500D02*
X50756250Y-27781250D01*
X50673000Y-28956000D02*
X50673000Y-27864500D01*
X87312500Y-22631250D02*
X87782250Y-22631250D01*
X87782250Y-22631250D02*
X88519000Y-23368000D01*
X88519000Y-23368000D02*
X88519000Y-24257000D01*
X62103000Y-5969000D02*
X64312800Y-5969000D01*
X62103000Y-5969000D02*
X60579000Y-5969000D01*
X60579000Y-5969000D02*
X60452000Y-6096000D01*
X87312500Y-22631250D02*
X87312500Y-23558500D01*
X87312500Y-23558500D02*
X78105000Y-32766000D01*
X78105000Y-32766000D02*
X62484000Y-32766000D01*
D33*
X77787500Y-39750000D02*
X78612000Y-39750000D01*
X78612000Y-39750000D02*
X81153000Y-42291000D01*
X96837500Y-39750000D02*
X96013000Y-39750000D01*
X93472000Y-42291000D02*
X81153000Y-42291000D01*
X96013000Y-39750000D02*
X93472000Y-42291000D01*
X77787500Y-39750000D02*
X74612500Y-39750000D01*
X73788000Y-39750000D02*
X74612500Y-39750000D01*
X71247000Y-42291000D02*
X73788000Y-39750000D01*
X45212000Y-42291000D02*
X71247000Y-42291000D01*
X42068750Y-45306250D02*
X42196750Y-45306250D01*
X42196750Y-45306250D02*
X45212000Y-42291000D01*
X51566500Y-16986500D02*
X50514500Y-16986500D01*
X50514500Y-16986500D02*
X48133000Y-14605000D01*
X38862000Y-14605000D02*
X38608000Y-14859000D01*
X38989000Y-14605000D02*
X38862000Y-14605000D01*
X48133000Y-14605000D02*
X38989000Y-14605000D01*
X38989000Y-30226000D02*
X39116000Y-30226000D01*
X39116000Y-30226000D02*
X39624000Y-30734000D01*
X39624000Y-30734000D02*
X39624000Y-43688000D01*
X41242250Y-45306250D02*
X42068750Y-45306250D01*
X39624000Y-43688000D02*
X41242250Y-45306250D01*
X74612500Y-58800000D02*
X73788000Y-58800000D01*
X73788000Y-58800000D02*
X71247000Y-61341000D01*
X56387000Y-58800000D02*
X55562500Y-58800000D01*
X58928000Y-61341000D02*
X56387000Y-58800000D01*
X74612500Y-58800000D02*
X77787500Y-58800000D01*
X71247000Y-61341000D02*
X58928000Y-61341000D01*
X77787500Y-58800000D02*
X78612000Y-58800000D01*
X78612000Y-58800000D02*
X81026000Y-61214000D01*
X92837000Y-61214000D02*
X93726000Y-62103000D01*
X94328250Y-64356250D02*
X95250000Y-64356250D01*
X93726000Y-62103000D02*
X93726000Y-63754000D01*
X81026000Y-61214000D02*
X92837000Y-61214000D01*
X93726000Y-63754000D02*
X94328250Y-64356250D01*
X51566500Y-16186500D02*
X50476500Y-16186500D01*
X50476500Y-16186500D02*
X48387000Y-14097000D01*
X48387000Y-14097000D02*
X38989000Y-14097000D01*
X38989000Y-14097000D02*
X38227000Y-14097000D01*
X38227000Y-14097000D02*
X37719000Y-14605000D01*
X37719000Y-14605000D02*
X37719000Y-14859000D01*
X38989000Y-31242000D02*
X38989000Y-31115000D01*
X54738000Y-58800000D02*
X52197000Y-61341000D01*
X55562500Y-58800000D02*
X54738000Y-58800000D01*
X52197000Y-61341000D02*
X43053000Y-61341000D01*
X43053000Y-61341000D02*
X39116000Y-57404000D01*
X39116000Y-57404000D02*
X39116000Y-31369000D01*
X39116000Y-31369000D02*
X38989000Y-31242000D01*
X55562500Y-77850000D02*
X56387000Y-77850000D01*
X56387000Y-77850000D02*
X58928000Y-80391000D01*
X58928000Y-80391000D02*
X71247000Y-80391000D01*
X73788000Y-77850000D02*
X74612500Y-77850000D01*
X74612500Y-77850000D02*
X77787500Y-77850000D01*
X94552500Y-76262500D02*
X95250000Y-76262500D01*
X77787500Y-77850000D02*
X78612000Y-77850000D01*
X78612000Y-77850000D02*
X81153000Y-80391000D01*
X81153000Y-80391000D02*
X89662000Y-80391000D01*
X89662000Y-80391000D02*
X90805000Y-79248000D01*
X90805000Y-79248000D02*
X91567000Y-79248000D01*
X91567000Y-79248000D02*
X94552500Y-76262500D01*
X60066500Y-20986500D02*
X65944500Y-20986500D01*
X65944500Y-20986500D02*
X66167000Y-21209000D01*
X73152000Y-78994000D02*
X72898000Y-78740000D01*
X71247000Y-80391000D02*
X72898000Y-78740000D01*
X72898000Y-78740000D02*
X73788000Y-77850000D01*
X93662500Y-101662500D02*
X92772500Y-101662500D01*
X92772500Y-101662500D02*
X90551000Y-99441000D01*
X90551000Y-99441000D02*
X81153000Y-99441000D01*
X78612000Y-96900000D02*
X74612500Y-96900000D01*
X81153000Y-99441000D02*
X78612000Y-96900000D01*
X74612500Y-96900000D02*
X73788000Y-96900000D01*
X73788000Y-96900000D02*
X71247000Y-99441000D01*
X71247000Y-99441000D02*
X62103000Y-99441000D01*
X59562000Y-96900000D02*
X58737500Y-96900000D01*
X62103000Y-99441000D02*
X59562000Y-96900000D01*
X58737500Y-96900000D02*
X55562500Y-96900000D01*
X60066500Y-20186500D02*
X61207500Y-20186500D01*
X61207500Y-20186500D02*
X61468000Y-20447000D01*
X61468000Y-20447000D02*
X66548000Y-20447000D01*
X66548000Y-20447000D02*
X67056000Y-20955000D01*
X67056000Y-20955000D02*
X67056000Y-21209000D01*
X74612500Y-97980500D02*
X74612500Y-96900000D01*
X74549000Y-98044000D02*
X74612500Y-97980500D01*
D34*
X83550000Y-20000000D02*
X83550000Y-20431000D01*
X83550000Y-20431000D02*
X83947000Y-20828000D01*
X83947000Y-20828000D02*
X84836000Y-20828000D01*
X85432750Y-20231250D02*
X87312500Y-20231250D01*
X84836000Y-20828000D02*
X85432750Y-20231250D01*
X83550000Y-19828000D02*
X83550000Y-20000000D01*
X84582000Y-18796000D02*
X83550000Y-19828000D01*
X84582000Y-17272000D02*
X84582000Y-18796000D01*
X79851250Y-13493750D02*
X80803750Y-13493750D01*
X80803750Y-13493750D02*
X84582000Y-17272000D01*
D33*
X53340000Y-113347500D02*
X43815000Y-113347500D01*
X59944000Y-27813000D02*
X59817000Y-27940000D01*
X59944000Y-26416000D02*
X59944000Y-27813000D01*
X57816500Y-23236500D02*
X57816500Y-24288500D01*
X57816500Y-24288500D02*
X59944000Y-26416000D01*
X47538500Y-33274000D02*
X45125000Y-35687500D01*
X47919500Y-32893000D02*
X47538500Y-33274000D01*
X57912000Y-32893000D02*
X47919500Y-32893000D01*
X58616500Y-23236500D02*
X58616500Y-24326500D01*
X62992000Y-26035000D02*
X63119000Y-26162000D01*
X60325000Y-26035000D02*
X62992000Y-26035000D01*
X58616500Y-24326500D02*
X60325000Y-26035000D01*
X65151000Y-14859000D02*
X65151000Y-14732000D01*
X64516000Y-15494000D02*
X65151000Y-14859000D01*
X61906500Y-15494000D02*
X64516000Y-15494000D01*
X60066500Y-16186500D02*
X61214000Y-16186500D01*
X61214000Y-16186500D02*
X61906500Y-15494000D01*
X83566000Y-10668000D02*
X101219000Y-10668000D01*
X58616500Y-14736500D02*
X59186500Y-14736500D01*
X59186500Y-14736500D02*
X59436000Y-14986000D01*
X64008000Y-14986000D02*
X64262000Y-14732000D01*
X59436000Y-14986000D02*
X64008000Y-14986000D01*
X81407000Y-10668000D02*
X81153000Y-10414000D01*
X81915000Y-10668000D02*
X81407000Y-10668000D01*
X81915000Y-10668000D02*
X83566000Y-10668000D01*
X64897000Y-25212000D02*
X62169000Y-25212000D01*
X60066500Y-23109500D02*
X60066500Y-21786500D01*
X62169000Y-25212000D02*
X60066500Y-23109500D01*
X92150000Y-51062500D02*
X73160500Y-51062500D01*
X73160500Y-51062500D02*
X73152000Y-51054000D01*
X64897000Y-24638000D02*
X64897000Y-25212000D01*
X65786000Y-23749000D02*
X64897000Y-24638000D01*
X54768750Y-11887250D02*
X56216500Y-13335000D01*
X54768750Y-11268750D02*
X54768750Y-11887250D01*
X56216500Y-14736500D02*
X56216500Y-13335000D01*
X48378500Y-35187500D02*
X50125000Y-35187500D01*
X44069000Y-39497000D02*
X48378500Y-35187500D01*
X44069000Y-40259000D02*
X44069000Y-39497000D01*
X42068750Y-42006250D02*
X42321750Y-42006250D01*
X42321750Y-42006250D02*
X44069000Y-40259000D01*
X69175000Y-35187500D02*
X73350000Y-35187500D01*
X73350000Y-35187500D02*
X74612500Y-36450000D01*
X88225000Y-35187500D02*
X88225000Y-34758000D01*
X88225000Y-34758000D02*
X87376000Y-33909000D01*
X87376000Y-33909000D02*
X80328500Y-33909000D01*
X80328500Y-33909000D02*
X77787500Y-36450000D01*
X107275000Y-35187500D02*
X107275000Y-34377000D01*
X107275000Y-34377000D02*
X106807000Y-33909000D01*
X106807000Y-33909000D02*
X99378500Y-33909000D01*
X99378500Y-33909000D02*
X96837500Y-36450000D01*
X54300000Y-54237500D02*
X55562500Y-55500000D01*
X50125000Y-54237500D02*
X54300000Y-54237500D01*
X73350000Y-54237500D02*
X74612500Y-55500000D01*
X69175000Y-54237500D02*
X73350000Y-54237500D01*
X88225000Y-53697500D02*
X88265000Y-53657500D01*
X88225000Y-54237500D02*
X88225000Y-53697500D01*
X88225000Y-54237500D02*
X88225000Y-53173000D01*
X88225000Y-53173000D02*
X88011000Y-52959000D01*
X80328500Y-52959000D02*
X77787500Y-55500000D01*
X88011000Y-52959000D02*
X80328500Y-52959000D01*
X107275000Y-54237500D02*
X105401500Y-54237500D01*
X105401500Y-54237500D02*
X101219000Y-58420000D01*
X101219000Y-58420000D02*
X101219000Y-59309000D01*
X99471750Y-61056250D02*
X95250000Y-61056250D01*
X101219000Y-59309000D02*
X99471750Y-61056250D01*
X54300000Y-73287500D02*
X55562500Y-74550000D01*
X50125000Y-73287500D02*
X54300000Y-73287500D01*
X73350000Y-73287500D02*
X74612500Y-74550000D01*
X69175000Y-73287500D02*
X73350000Y-73287500D01*
X88225000Y-73287500D02*
X88225000Y-72223000D01*
X88225000Y-72223000D02*
X88011000Y-72009000D01*
X80328500Y-72009000D02*
X77787500Y-74550000D01*
X88011000Y-72009000D02*
X80328500Y-72009000D01*
X107275000Y-73287500D02*
X107275000Y-73239000D01*
X107275000Y-73239000D02*
X105918000Y-71882000D01*
X105918000Y-71882000D02*
X104521000Y-71882000D01*
X104521000Y-71882000D02*
X101528000Y-68889000D01*
X100275000Y-65762500D02*
X100275000Y-68889000D01*
X96201500Y-72962500D02*
X100275000Y-68889000D01*
X95250000Y-72962500D02*
X96201500Y-72962500D01*
X100275000Y-68889000D02*
X101528000Y-68889000D01*
X54300000Y-92337500D02*
X55562500Y-93600000D01*
X50125000Y-92337500D02*
X54300000Y-92337500D01*
X69175000Y-92337500D02*
X69175000Y-92035000D01*
X69175000Y-92035000D02*
X68199000Y-91059000D01*
X61278500Y-91059000D02*
X58737500Y-93600000D01*
X68199000Y-91059000D02*
X61278500Y-91059000D01*
X93662500Y-98362500D02*
X93662500Y-96202500D01*
X89797500Y-92337500D02*
X88225000Y-92337500D01*
X93662500Y-96202500D02*
X89797500Y-92337500D01*
X78931500Y-89281000D02*
X74612500Y-93600000D01*
X105410000Y-89281000D02*
X78931500Y-89281000D01*
X107275000Y-91146000D02*
X105410000Y-89281000D01*
X107275000Y-92337500D02*
X107275000Y-91146000D01*
X50125000Y-111387500D02*
X50125000Y-110657000D01*
X50125000Y-110657000D02*
X50673000Y-110109000D01*
X58991500Y-110109000D02*
X59690000Y-110807500D01*
X50673000Y-110109000D02*
X58991500Y-110109000D01*
X78581250Y-99156250D02*
X77947250Y-99156250D01*
X77947250Y-99156250D02*
X77597000Y-98806000D01*
X77597000Y-98806000D02*
X73025000Y-98806000D01*
X73025000Y-98806000D02*
X72517000Y-99314000D01*
X59650000Y-110022000D02*
X59650000Y-111387500D01*
X59737000Y-110109000D02*
X59650000Y-110022000D01*
X62865000Y-110109000D02*
X59737000Y-110109000D01*
X72390000Y-105029000D02*
X67945000Y-105029000D01*
X67945000Y-105029000D02*
X62865000Y-110109000D01*
X73350000Y-111387500D02*
X74612500Y-112650000D01*
X69175000Y-111387500D02*
X73350000Y-111387500D01*
X88225000Y-111387500D02*
X88225000Y-110069000D01*
X88225000Y-110069000D02*
X88185000Y-110109000D01*
X80328500Y-110109000D02*
X77787500Y-112650000D01*
X88185000Y-110109000D02*
X80328500Y-110109000D01*
X100275000Y-103862500D02*
X100275000Y-106862000D01*
X94456250Y-111062500D02*
X96074500Y-111062500D01*
X96074500Y-111062500D02*
X100275000Y-106862000D01*
X106815500Y-111387500D02*
X107275000Y-111387500D01*
X105410000Y-109982000D02*
X106815500Y-111387500D01*
X104648000Y-109982000D02*
X105410000Y-109982000D01*
X100275000Y-106862000D02*
X101528000Y-106862000D01*
X101528000Y-106862000D02*
X104648000Y-109982000D01*
X74615000Y-30956250D02*
X75250000Y-30956250D01*
X54616500Y-23236500D02*
X54616500Y-24390500D01*
X54616500Y-24390500D02*
X54737000Y-24511000D01*
X54737000Y-24511000D02*
X54737000Y-27178000D01*
X54737000Y-27178000D02*
X57179250Y-29620250D01*
X57179250Y-29620250D02*
X73279000Y-29620250D01*
X73279000Y-29620250D02*
X74615000Y-30956250D01*
X55416500Y-24384000D02*
X55416500Y-23236500D01*
X73279000Y-29083000D02*
X57404000Y-29083000D01*
X75250000Y-27781250D02*
X74580750Y-27781250D01*
X57404000Y-29083000D02*
X55245000Y-26924000D01*
X55245000Y-26924000D02*
X55245000Y-24555500D01*
X74580750Y-27781250D02*
X73279000Y-29083000D01*
X55245000Y-24555500D02*
X55416500Y-24384000D01*
X77787500Y-115950000D02*
X78612000Y-115950000D01*
X81153000Y-118491000D02*
X91059000Y-118491000D01*
X94456250Y-115093750D02*
X94456250Y-114362500D01*
X91059000Y-118491000D02*
X94456250Y-115093750D01*
X77787500Y-115950000D02*
X74612500Y-115950000D01*
X78612000Y-115950000D02*
X79375000Y-116713000D01*
X79375000Y-116713000D02*
X81153000Y-118491000D01*
X60066500Y-18586500D02*
X61639500Y-18586500D01*
X61639500Y-18586500D02*
X62992000Y-19939000D01*
X62992000Y-19939000D02*
X66929000Y-19939000D01*
X66929000Y-19939000D02*
X67945000Y-20955000D01*
X67945000Y-20955000D02*
X67945000Y-21209000D01*
X74612500Y-117157500D02*
X74612500Y-115950000D01*
X74549000Y-117221000D02*
X74612500Y-117157500D01*
X78581250Y-102456250D02*
X80104250Y-102456250D01*
X80104250Y-102456250D02*
X80137000Y-102489000D01*
X77724000Y-116013500D02*
X77787500Y-115950000D01*
X77724000Y-117221000D02*
X77724000Y-116013500D01*
X68106250Y-44606250D02*
X67945000Y-44767500D01*
X74612500Y-44606250D02*
X68106250Y-44606250D01*
X85568750Y-46193750D02*
X86995000Y-44767500D01*
X78041500Y-44606250D02*
X79629000Y-46193750D01*
X77787500Y-44606250D02*
X78041500Y-44606250D01*
X79629000Y-46193750D02*
X85568750Y-46193750D01*
X96837500Y-44606250D02*
X97184250Y-44606250D01*
X97184250Y-44606250D02*
X98806000Y-46228000D01*
X104584500Y-46228000D02*
X106045000Y-44767500D01*
X98806000Y-46228000D02*
X104584500Y-46228000D01*
X49056250Y-63656250D02*
X48895000Y-63817500D01*
X55562500Y-63656250D02*
X49056250Y-63656250D01*
X68106250Y-63656250D02*
X67945000Y-63817500D01*
X74612500Y-63656250D02*
X68106250Y-63656250D01*
X77787500Y-63656250D02*
X78710750Y-63656250D01*
X78710750Y-63656250D02*
X80010000Y-62357000D01*
X85534500Y-62357000D02*
X86995000Y-63817500D01*
X80010000Y-62357000D02*
X85534500Y-62357000D01*
X106045000Y-63817500D02*
X105981500Y-63817500D01*
X105981500Y-63817500D02*
X104394000Y-65405000D01*
X104394000Y-65405000D02*
X102489000Y-65405000D01*
X102489000Y-65405000D02*
X101092000Y-64008000D01*
X101092000Y-64008000D02*
X98933000Y-64008000D01*
X98933000Y-64008000D02*
X97536000Y-65405000D01*
X93030000Y-65405000D02*
X92075000Y-64450000D01*
X97536000Y-65405000D02*
X93030000Y-65405000D01*
X49056250Y-82706250D02*
X48895000Y-82867500D01*
X55562500Y-82706250D02*
X49056250Y-82706250D01*
X68106250Y-82706250D02*
X67945000Y-82867500D01*
X74612500Y-82706250D02*
X68106250Y-82706250D01*
X77787500Y-82706250D02*
X78134250Y-82706250D01*
X78134250Y-82706250D02*
X79756000Y-84328000D01*
X85534500Y-84328000D02*
X86995000Y-82867500D01*
X79756000Y-84328000D02*
X85534500Y-84328000D01*
X49056250Y-101756250D02*
X48895000Y-101917500D01*
X55562500Y-101756250D02*
X49056250Y-101756250D01*
X58737500Y-101756250D02*
X59084250Y-101756250D01*
X59084250Y-101756250D02*
X60833000Y-103505000D01*
X66357500Y-103505000D02*
X67945000Y-101917500D01*
X60833000Y-103505000D02*
X66357500Y-103505000D01*
X88074500Y-102997000D02*
X86995000Y-101917500D01*
X94361000Y-102997000D02*
X88074500Y-102997000D01*
X96837500Y-100168750D02*
X96837500Y-100520500D01*
X96837500Y-100520500D02*
X94361000Y-102997000D01*
X74832250Y-101756250D02*
X74612500Y-101756250D01*
X76581000Y-103505000D02*
X74832250Y-101756250D01*
X94615000Y-103505000D02*
X76581000Y-103505000D01*
X106045000Y-101917500D02*
X106045000Y-101981000D01*
X106045000Y-101981000D02*
X104648000Y-103378000D01*
X104648000Y-103378000D02*
X102616000Y-103378000D01*
X102616000Y-103378000D02*
X101346000Y-102108000D01*
X101346000Y-102108000D02*
X96012000Y-102108000D01*
X96012000Y-102108000D02*
X94615000Y-103505000D01*
X61912500Y-120012500D02*
X62867500Y-120012500D01*
X62867500Y-120012500D02*
X63627000Y-119253000D01*
X66230500Y-119253000D02*
X67945000Y-120967500D01*
X63627000Y-119253000D02*
X66230500Y-119253000D01*
X77787500Y-120806250D02*
X78075750Y-120806250D01*
X78075750Y-120806250D02*
X79697500Y-122428000D01*
X85534500Y-122428000D02*
X86995000Y-120967500D01*
X79697500Y-122428000D02*
X85534500Y-122428000D01*
D34*
X96837500Y-6193750D02*
X93662500Y-6193750D01*
X42383750Y-10956250D02*
X42068750Y-10956250D01*
X43434000Y-9906000D02*
X42383750Y-10956250D01*
X43434000Y-7747000D02*
X43434000Y-9906000D01*
X52705000Y-5207000D02*
X45974000Y-5207000D01*
X45974000Y-5207000D02*
X43434000Y-7747000D01*
X95631000Y-42926000D02*
X78994000Y-42926000D01*
X73406000Y-42926000D02*
X62357000Y-42926000D01*
X57150000Y-50062500D02*
X58395500Y-50062500D01*
X60325000Y-48133000D02*
X60325000Y-44958000D01*
X58395500Y-50062500D02*
X60325000Y-48133000D01*
X62357000Y-42926000D02*
X60325000Y-44958000D01*
X91281250Y-80806250D02*
X90262750Y-80806250D01*
X90262750Y-80806250D02*
X90043000Y-81026000D01*
X78647250Y-80806250D02*
X78867000Y-81026000D01*
X77787500Y-80806250D02*
X78647250Y-80806250D01*
X90043000Y-81026000D02*
X78867000Y-81026000D01*
X74612500Y-80806250D02*
X73752750Y-80806250D01*
X73752750Y-80806250D02*
X73533000Y-81026000D01*
X73533000Y-81026000D02*
X58674000Y-81026000D01*
X58454250Y-80806250D02*
X55562500Y-80806250D01*
X58674000Y-81026000D02*
X58454250Y-80806250D01*
X74612500Y-61756250D02*
X73625750Y-61756250D01*
X73625750Y-61756250D02*
X73406000Y-61976000D01*
X73406000Y-61976000D02*
X56769000Y-61976000D01*
X56549250Y-61756250D02*
X55562500Y-61756250D01*
X56769000Y-61976000D02*
X56549250Y-61756250D01*
X53342500Y-118112500D02*
X52387500Y-118112500D01*
X53848000Y-118618000D02*
X53342500Y-118112500D01*
X60452000Y-118618000D02*
X53848000Y-118618000D01*
X61912500Y-118112500D02*
X60957500Y-118112500D01*
X60957500Y-118112500D02*
X60452000Y-118618000D01*
X61912500Y-118112500D02*
X62867500Y-118112500D01*
X62867500Y-118112500D02*
X63373000Y-118618000D01*
X63373000Y-118618000D02*
X73279000Y-118618000D01*
X73567250Y-118906250D02*
X74612500Y-118906250D01*
X73279000Y-118618000D02*
X73567250Y-118906250D01*
X55562500Y-99856250D02*
X58737500Y-99856250D01*
X58737500Y-99856250D02*
X59724250Y-99856250D01*
X59724250Y-99856250D02*
X59944000Y-100076000D01*
X59944000Y-100076000D02*
X73406000Y-100076000D01*
X73625750Y-99856250D02*
X74612500Y-99856250D01*
X73406000Y-100076000D02*
X73625750Y-99856250D01*
X74612500Y-42706250D02*
X73625750Y-42706250D01*
X73625750Y-42706250D02*
X73406000Y-42926000D01*
X77787500Y-42706250D02*
X78774250Y-42706250D01*
X78774250Y-42706250D02*
X78994000Y-42926000D01*
X96837500Y-42706250D02*
X95850750Y-42706250D01*
X95850750Y-42706250D02*
X95631000Y-42926000D01*
X74612500Y-99856250D02*
X76165750Y-99856250D01*
X76165750Y-99856250D02*
X76200000Y-99822000D01*
X76200000Y-80391000D02*
X76200000Y-80806250D01*
X77787500Y-80806250D02*
X76200000Y-80806250D01*
X76200000Y-80806250D02*
X74612500Y-80806250D01*
X76200000Y-61341000D02*
X76200000Y-61756250D01*
X77787500Y-61756250D02*
X76200000Y-61756250D01*
X76200000Y-61756250D02*
X74612500Y-61756250D01*
X76200000Y-42291000D02*
X76200000Y-42706250D01*
X77787500Y-42706250D02*
X76200000Y-42706250D01*
X76200000Y-42706250D02*
X74612500Y-42706250D01*
X76200000Y-118491000D02*
X76200000Y-118906250D01*
X74612500Y-118906250D02*
X76200000Y-118906250D01*
X76200000Y-118906250D02*
X77787500Y-118906250D01*
X77816750Y-61785500D02*
X77787500Y-61756250D01*
X90995500Y-61785500D02*
X77816750Y-61785500D01*
X91760000Y-62550000D02*
X90995500Y-61785500D01*
X92075000Y-62550000D02*
X91760000Y-62550000D01*
X96837500Y-98268750D02*
X96617750Y-98268750D01*
X96617750Y-98268750D02*
X90043000Y-91694000D01*
X90043000Y-91694000D02*
X90043000Y-90932000D01*
X90043000Y-90932000D02*
X89027000Y-89916000D01*
X89027000Y-89916000D02*
X79248000Y-89916000D01*
X79248000Y-89916000D02*
X76581000Y-92583000D01*
X76581000Y-92583000D02*
X76581000Y-92710000D01*
X57724000Y-5400000D02*
X57531000Y-5207000D01*
X58737500Y-5400000D02*
X57724000Y-5400000D01*
X52705000Y-5207000D02*
X57531000Y-5207000D01*
X59690000Y-5400000D02*
X58737500Y-5400000D01*
X59883000Y-5207000D02*
X59690000Y-5400000D01*
X92807750Y-6193750D02*
X91821000Y-5207000D01*
X93662500Y-6193750D02*
X92807750Y-6193750D01*
X65960750Y-16383000D02*
X65960750Y-14398750D01*
X65960750Y-14398750D02*
X65405000Y-13843000D01*
X65405000Y-13843000D02*
X62865000Y-13843000D01*
X62865000Y-13843000D02*
X61976000Y-12954000D01*
X61976000Y-12954000D02*
X61976000Y-12446000D01*
X60833000Y-4826000D02*
X60833000Y-5207000D01*
X91821000Y-5207000D02*
X60833000Y-5207000D01*
X60833000Y-5207000D02*
X59883000Y-5207000D01*
X96837500Y-42706250D02*
X96837500Y-41719500D01*
X96837500Y-41719500D02*
X96774000Y-41656000D01*
X96774000Y-6130250D02*
X96837500Y-6193750D01*
X96774000Y-5080000D02*
X96774000Y-6130250D01*
D33*
X91281250Y-82706250D02*
X91596250Y-82706250D01*
X91596250Y-82706250D02*
X93218000Y-84328000D01*
X104584500Y-84328000D02*
X106045000Y-82867500D01*
X93218000Y-84328000D02*
X104584500Y-84328000D01*
X74612500Y-120806250D02*
X74959250Y-120806250D01*
X74959250Y-120806250D02*
X77089000Y-122936000D01*
X104076500Y-122936000D02*
X106045000Y-120967500D01*
X77089000Y-122936000D02*
X104076500Y-122936000D01*
X48895000Y-120967500D02*
X51117500Y-120967500D01*
X52072500Y-120012500D02*
X52387500Y-120012500D01*
X51117500Y-120967500D02*
X52072500Y-120012500D01*
X52387500Y-120012500D02*
X53342500Y-120012500D01*
X53342500Y-120012500D02*
X54102000Y-119253000D01*
X56705500Y-119253000D02*
X58420000Y-120967500D01*
X54102000Y-119253000D02*
X56705500Y-119253000D01*
X67960750Y-12464250D02*
X67910750Y-12414250D01*
X67960750Y-15433000D02*
X67960750Y-12464250D01*
X60066500Y-19386500D02*
X61423500Y-19386500D01*
X61423500Y-19386500D02*
X61722000Y-19685000D01*
X62896750Y-12414250D02*
X66010750Y-12414250D01*
X62865000Y-12446000D02*
X62896750Y-12414250D01*
X93662500Y-3237500D02*
X96837500Y-3237500D01*
X93662500Y-3237500D02*
X92774500Y-3237500D01*
X92774500Y-3237500D02*
X91440000Y-4572000D01*
X54102000Y-4572000D02*
X53721000Y-4572000D01*
X42292000Y-8000000D02*
X42068750Y-8000000D01*
X45720000Y-4572000D02*
X42292000Y-8000000D01*
X53213000Y-4572000D02*
X53721000Y-4572000D01*
X53016500Y-14736500D02*
X53016500Y-6026500D01*
X53016500Y-6026500D02*
X52959000Y-5969000D01*
X52959000Y-4191000D02*
X52959000Y-4572000D01*
X53213000Y-4572000D02*
X52959000Y-4572000D01*
X52959000Y-4572000D02*
X45720000Y-4572000D01*
X58737500Y-2443750D02*
X57881250Y-2443750D01*
X55753000Y-4572000D02*
X54991000Y-4572000D01*
X57881250Y-2443750D02*
X55753000Y-4572000D01*
X54991000Y-4572000D02*
X54102000Y-4572000D01*
X58737500Y-2443750D02*
X59593750Y-2443750D01*
X61722000Y-4572000D02*
X62484000Y-4572000D01*
X59593750Y-2443750D02*
X61722000Y-4572000D01*
X91440000Y-4572000D02*
X62484000Y-4572000D01*
X62484000Y-4572000D02*
X61849000Y-4572000D01*
X50125000Y2518800D02*
X48365800Y2518800D01*
X48365800Y2518800D02*
X44069000Y-1778000D01*
X44069000Y-2699750D02*
X42068750Y-4700000D01*
X44069000Y-1778000D02*
X44069000Y-2699750D01*
X69175000Y2518800D02*
X69175000Y3469000D01*
X69175000Y3469000D02*
X68834000Y3810000D01*
X61691250Y3810000D02*
X58737500Y856250D01*
X68834000Y3810000D02*
X61691250Y3810000D01*
X91206200Y2518800D02*
X93662500Y62500D01*
X88225000Y2518800D02*
X91206200Y2518800D01*
X107275000Y2518800D02*
X107275000Y2961000D01*
X107275000Y2961000D02*
X106426000Y3810000D01*
X100585000Y3810000D02*
X96837500Y62500D01*
X106426000Y3810000D02*
X100585000Y3810000D01*
X42068750Y-12856250D02*
X42896750Y-12856250D01*
X48691800Y-7061200D02*
X48895000Y-7061200D01*
X42896750Y-12856250D02*
X48691800Y-7061200D01*
X61468000Y-7300000D02*
X61976000Y-7300000D01*
X58737500Y-7300000D02*
X61468000Y-7300000D01*
X88027550Y-8093750D02*
X86995000Y-7061200D01*
X93662500Y-8093750D02*
X88027550Y-8093750D01*
X106045000Y-7061200D02*
X104597200Y-8509000D01*
X97120750Y-8093750D02*
X97536000Y-8509000D01*
X96837500Y-8093750D02*
X97120750Y-8093750D01*
X104597200Y-8509000D02*
X97536000Y-8509000D01*
X77150000Y-30673000D02*
X77150000Y-30956250D01*
X82804000Y-25019000D02*
X77150000Y-30673000D01*
X82804000Y-18796000D02*
X82804000Y-25019000D01*
X83500000Y-18100000D02*
X82804000Y-18796000D01*
X83550000Y-18100000D02*
X83500000Y-18100000D01*
X81071000Y-15621000D02*
X83550000Y-18100000D01*
X77311250Y-13493750D02*
X77311250Y-14827250D01*
X80817000Y-15367000D02*
X81071000Y-15621000D01*
X77851000Y-15367000D02*
X80817000Y-15367000D01*
X77311250Y-14827250D02*
X77851000Y-15367000D01*
X81600000Y-18100000D02*
X81550000Y-18100000D01*
X82296000Y-18796000D02*
X81600000Y-18100000D01*
X82296000Y-24765000D02*
X82296000Y-18796000D01*
X77150000Y-27781250D02*
X79279750Y-27781250D01*
X79279750Y-27781250D02*
X82296000Y-24765000D01*
X81550000Y-16907000D02*
X81550000Y-18100000D01*
X80518000Y-15875000D02*
X81550000Y-16907000D01*
X77597000Y-15875000D02*
X80518000Y-15875000D01*
X75215750Y-13493750D02*
X77597000Y-15875000D01*
X74771250Y-13493750D02*
X75215750Y-13493750D01*
X57150000Y-48362500D02*
X53975000Y-48362500D01*
X43812500Y-48897500D02*
X43812500Y-49212500D01*
X44450000Y-48260000D02*
X43812500Y-48897500D01*
X53975000Y-48362500D02*
X53872500Y-48260000D01*
X53872500Y-48260000D02*
X44450000Y-48260000D01*
X53975000Y-50062500D02*
X53975000Y-52070000D01*
X53816500Y-14736500D02*
X53816500Y-13112500D01*
X53816500Y-13112500D02*
X53848000Y-13081000D01*
X48895000Y-44831000D02*
X48895000Y-44767500D01*
X45974000Y-47752000D02*
X48895000Y-44831000D01*
X42418000Y-47752000D02*
X45974000Y-47752000D01*
X41912500Y-48257500D02*
X42418000Y-47752000D01*
X41912500Y-49212500D02*
X41912500Y-48257500D01*
G36*
X58217018Y-16162312D02*
X58341500Y-16174572D01*
X58628428Y-16174572D01*
X58628428Y-16461500D01*
X58640688Y-16585982D01*
X58640845Y-16586500D01*
X58640688Y-16587018D01*
X58628428Y-16711500D01*
X58628428Y-17261500D01*
X58640688Y-17385982D01*
X58640845Y-17386500D01*
X58640688Y-17387018D01*
X58628428Y-17511500D01*
X58628428Y-18061500D01*
X58640688Y-18185982D01*
X58640845Y-18186500D01*
X58640688Y-18187018D01*
X58628428Y-18311500D01*
X58628428Y-18861500D01*
X58640688Y-18985982D01*
X58640845Y-18986500D01*
X58640688Y-18987018D01*
X58628428Y-19111500D01*
X58628428Y-19661500D01*
X58640688Y-19785982D01*
X58640845Y-19786500D01*
X58640688Y-19787018D01*
X58628428Y-19911500D01*
X58628428Y-20461500D01*
X58640688Y-20585982D01*
X58640845Y-20586500D01*
X58640688Y-20587018D01*
X58628428Y-20711500D01*
X58628428Y-21261500D01*
X58640688Y-21385982D01*
X58640845Y-21386500D01*
X58640688Y-21387018D01*
X58628428Y-21511500D01*
X58628428Y-21798428D01*
X58341500Y-21798428D01*
X58217018Y-21810688D01*
X58216500Y-21810845D01*
X58215982Y-21810688D01*
X58091500Y-21798428D01*
X57541500Y-21798428D01*
X57417018Y-21810688D01*
X57416500Y-21810845D01*
X57415982Y-21810688D01*
X57291500Y-21798428D01*
X56741500Y-21798428D01*
X56617018Y-21810688D01*
X56610370Y-21812705D01*
X56554042Y-21801500D01*
X56502250Y-21801500D01*
X56410167Y-21893583D01*
X56387006Y-21905963D01*
X56290315Y-21985315D01*
X56216500Y-22075259D01*
X56142685Y-21985315D01*
X56045994Y-21905963D01*
X56022833Y-21893583D01*
X55930750Y-21801500D01*
X55878958Y-21801500D01*
X55822630Y-21812705D01*
X55815982Y-21810688D01*
X55691500Y-21798428D01*
X55141500Y-21798428D01*
X55017018Y-21810688D01*
X55016500Y-21810845D01*
X55015982Y-21810688D01*
X54891500Y-21798428D01*
X54341500Y-21798428D01*
X54217018Y-21810688D01*
X54216500Y-21810845D01*
X54215982Y-21810688D01*
X54091500Y-21798428D01*
X53541500Y-21798428D01*
X53417018Y-21810688D01*
X53416500Y-21810845D01*
X53415982Y-21810688D01*
X53291500Y-21798428D01*
X53004572Y-21798428D01*
X53004572Y-21511500D01*
X52992312Y-21387018D01*
X52992155Y-21386500D01*
X52992312Y-21385982D01*
X53004572Y-21261500D01*
X53004572Y-20711500D01*
X52992312Y-20587018D01*
X52990295Y-20580370D01*
X53001500Y-20524042D01*
X53001500Y-20472250D01*
X52909417Y-20380167D01*
X52897037Y-20357006D01*
X52817685Y-20260315D01*
X52727741Y-20186500D01*
X52817685Y-20112685D01*
X52897037Y-20015994D01*
X52909417Y-19992833D01*
X53001500Y-19900750D01*
X53001500Y-19848958D01*
X52990295Y-19792630D01*
X52992312Y-19785982D01*
X53004572Y-19661500D01*
X53004572Y-19111500D01*
X52992312Y-18987018D01*
X52992155Y-18986500D01*
X52992312Y-18985982D01*
X53004572Y-18861500D01*
X53004572Y-18311500D01*
X52992312Y-18187018D01*
X52992155Y-18186500D01*
X52992312Y-18185982D01*
X53004572Y-18061500D01*
X53004572Y-17511500D01*
X52992312Y-17387018D01*
X52992155Y-17386500D01*
X52992312Y-17385982D01*
X53004572Y-17261500D01*
X53004572Y-16711500D01*
X52992312Y-16587018D01*
X52992155Y-16586500D01*
X52992312Y-16585982D01*
X53004572Y-16461500D01*
X53004572Y-16174572D01*
X53291500Y-16174572D01*
X53415982Y-16162312D01*
X53416500Y-16162155D01*
X53417018Y-16162312D01*
X53541500Y-16174572D01*
X54091500Y-16174572D01*
X54215982Y-16162312D01*
X54216500Y-16162155D01*
X54217018Y-16162312D01*
X54341500Y-16174572D01*
X54891500Y-16174572D01*
X55015982Y-16162312D01*
X55016500Y-16162155D01*
X55017018Y-16162312D01*
X55141500Y-16174572D01*
X55691500Y-16174572D01*
X55815982Y-16162312D01*
X55816500Y-16162155D01*
X55817018Y-16162312D01*
X55941500Y-16174572D01*
X56491500Y-16174572D01*
X56615982Y-16162312D01*
X56616500Y-16162155D01*
X56617018Y-16162312D01*
X56741500Y-16174572D01*
X57291500Y-16174572D01*
X57415982Y-16162312D01*
X57416500Y-16162155D01*
X57417018Y-16162312D01*
X57541500Y-16174572D01*
X58091500Y-16174572D01*
X58215982Y-16162312D01*
X58216500Y-16162155D01*
X58217018Y-16162312D01*
X58217018Y-16162312D01*
G37*
X58217018Y-16162312D02*
X58341500Y-16174572D01*
X58628428Y-16174572D01*
X58628428Y-16461500D01*
X58640688Y-16585982D01*
X58640845Y-16586500D01*
X58640688Y-16587018D01*
X58628428Y-16711500D01*
X58628428Y-17261500D01*
X58640688Y-17385982D01*
X58640845Y-17386500D01*
X58640688Y-17387018D01*
X58628428Y-17511500D01*
X58628428Y-18061500D01*
X58640688Y-18185982D01*
X58640845Y-18186500D01*
X58640688Y-18187018D01*
X58628428Y-18311500D01*
X58628428Y-18861500D01*
X58640688Y-18985982D01*
X58640845Y-18986500D01*
X58640688Y-18987018D01*
X58628428Y-19111500D01*
X58628428Y-19661500D01*
X58640688Y-19785982D01*
X58640845Y-19786500D01*
X58640688Y-19787018D01*
X58628428Y-19911500D01*
X58628428Y-20461500D01*
X58640688Y-20585982D01*
X58640845Y-20586500D01*
X58640688Y-20587018D01*
X58628428Y-20711500D01*
X58628428Y-21261500D01*
X58640688Y-21385982D01*
X58640845Y-21386500D01*
X58640688Y-21387018D01*
X58628428Y-21511500D01*
X58628428Y-21798428D01*
X58341500Y-21798428D01*
X58217018Y-21810688D01*
X58216500Y-21810845D01*
X58215982Y-21810688D01*
X58091500Y-21798428D01*
X57541500Y-21798428D01*
X57417018Y-21810688D01*
X57416500Y-21810845D01*
X57415982Y-21810688D01*
X57291500Y-21798428D01*
X56741500Y-21798428D01*
X56617018Y-21810688D01*
X56610370Y-21812705D01*
X56554042Y-21801500D01*
X56502250Y-21801500D01*
X56410167Y-21893583D01*
X56387006Y-21905963D01*
X56290315Y-21985315D01*
X56216500Y-22075259D01*
X56142685Y-21985315D01*
X56045994Y-21905963D01*
X56022833Y-21893583D01*
X55930750Y-21801500D01*
X55878958Y-21801500D01*
X55822630Y-21812705D01*
X55815982Y-21810688D01*
X55691500Y-21798428D01*
X55141500Y-21798428D01*
X55017018Y-21810688D01*
X55016500Y-21810845D01*
X55015982Y-21810688D01*
X54891500Y-21798428D01*
X54341500Y-21798428D01*
X54217018Y-21810688D01*
X54216500Y-21810845D01*
X54215982Y-21810688D01*
X54091500Y-21798428D01*
X53541500Y-21798428D01*
X53417018Y-21810688D01*
X53416500Y-21810845D01*
X53415982Y-21810688D01*
X53291500Y-21798428D01*
X53004572Y-21798428D01*
X53004572Y-21511500D01*
X52992312Y-21387018D01*
X52992155Y-21386500D01*
X52992312Y-21385982D01*
X53004572Y-21261500D01*
X53004572Y-20711500D01*
X52992312Y-20587018D01*
X52990295Y-20580370D01*
X53001500Y-20524042D01*
X53001500Y-20472250D01*
X52909417Y-20380167D01*
X52897037Y-20357006D01*
X52817685Y-20260315D01*
X52727741Y-20186500D01*
X52817685Y-20112685D01*
X52897037Y-20015994D01*
X52909417Y-19992833D01*
X53001500Y-19900750D01*
X53001500Y-19848958D01*
X52990295Y-19792630D01*
X52992312Y-19785982D01*
X53004572Y-19661500D01*
X53004572Y-19111500D01*
X52992312Y-18987018D01*
X52992155Y-18986500D01*
X52992312Y-18985982D01*
X53004572Y-18861500D01*
X53004572Y-18311500D01*
X52992312Y-18187018D01*
X52992155Y-18186500D01*
X52992312Y-18185982D01*
X53004572Y-18061500D01*
X53004572Y-17511500D01*
X52992312Y-17387018D01*
X52992155Y-17386500D01*
X52992312Y-17385982D01*
X53004572Y-17261500D01*
X53004572Y-16711500D01*
X52992312Y-16587018D01*
X52992155Y-16586500D01*
X52992312Y-16585982D01*
X53004572Y-16461500D01*
X53004572Y-16174572D01*
X53291500Y-16174572D01*
X53415982Y-16162312D01*
X53416500Y-16162155D01*
X53417018Y-16162312D01*
X53541500Y-16174572D01*
X54091500Y-16174572D01*
X54215982Y-16162312D01*
X54216500Y-16162155D01*
X54217018Y-16162312D01*
X54341500Y-16174572D01*
X54891500Y-16174572D01*
X55015982Y-16162312D01*
X55016500Y-16162155D01*
X55017018Y-16162312D01*
X55141500Y-16174572D01*
X55691500Y-16174572D01*
X55815982Y-16162312D01*
X55816500Y-16162155D01*
X55817018Y-16162312D01*
X55941500Y-16174572D01*
X56491500Y-16174572D01*
X56615982Y-16162312D01*
X56616500Y-16162155D01*
X56617018Y-16162312D01*
X56741500Y-16174572D01*
X57291500Y-16174572D01*
X57415982Y-16162312D01*
X57416500Y-16162155D01*
X57417018Y-16162312D01*
X57541500Y-16174572D01*
X58091500Y-16174572D01*
X58215982Y-16162312D01*
X58216500Y-16162155D01*
X58217018Y-16162312D01*
G36*
X44586715Y-17606480D02*
X44702277Y-17654347D01*
X44824958Y-17678750D01*
X45001750Y-17678750D01*
X45091000Y-17589500D01*
X45484000Y-17589500D01*
X45573250Y-17678750D01*
X45750042Y-17678750D01*
X45872723Y-17654347D01*
X45988285Y-17606480D01*
X46013697Y-17589500D01*
X46061468Y-17589500D01*
X46143320Y-17633252D01*
X46195163Y-17648978D01*
X46200959Y-17656041D01*
X46232466Y-17681898D01*
X48492111Y-19941545D01*
X48517959Y-19973041D01*
X48549455Y-19998889D01*
X48549458Y-19998892D01*
X48643657Y-20076199D01*
X48729341Y-20121998D01*
X48787066Y-20152853D01*
X48942674Y-20200056D01*
X49063947Y-20212000D01*
X49063949Y-20212000D01*
X49104500Y-20215994D01*
X49145050Y-20212000D01*
X50131500Y-20212000D01*
X50131500Y-20224500D01*
X47998572Y-20224500D01*
X47998572Y-19853500D01*
X47986312Y-19729018D01*
X47950002Y-19609320D01*
X47891037Y-19499006D01*
X47811685Y-19402315D01*
X47714994Y-19322963D01*
X47604680Y-19263998D01*
X47484982Y-19227688D01*
X47360500Y-19215428D01*
X47090059Y-19215428D01*
X46666283Y-18791653D01*
X46642422Y-18762578D01*
X46526392Y-18667355D01*
X46394015Y-18596598D01*
X46250378Y-18553026D01*
X46138426Y-18542000D01*
X46138423Y-18542000D01*
X46101000Y-18538314D01*
X46063577Y-18542000D01*
X43979423Y-18542000D01*
X43942000Y-18538314D01*
X43904577Y-18542000D01*
X43904574Y-18542000D01*
X43792622Y-18553026D01*
X43648985Y-18596598D01*
X43604928Y-18620147D01*
X43516607Y-18667355D01*
X43492290Y-18687312D01*
X43400578Y-18762578D01*
X43376716Y-18791654D01*
X42797942Y-19370428D01*
X42037750Y-19370428D01*
X41913268Y-19382688D01*
X41793570Y-19418998D01*
X41685178Y-19476936D01*
X41638535Y-19445770D01*
X41522973Y-19397903D01*
X41400292Y-19373500D01*
X41223500Y-19373500D01*
X41064750Y-19532250D01*
X41064750Y-20256500D01*
X41084750Y-20256500D01*
X41084750Y-20510500D01*
X41064750Y-20510500D01*
X41064750Y-21234750D01*
X41223500Y-21393500D01*
X41400292Y-21393500D01*
X41522973Y-21369097D01*
X41638535Y-21321230D01*
X41685178Y-21290064D01*
X41793570Y-21348002D01*
X41913268Y-21384312D01*
X42037750Y-21396572D01*
X42837750Y-21396572D01*
X42962232Y-21384312D01*
X43081930Y-21348002D01*
X43192244Y-21289037D01*
X43288935Y-21209685D01*
X43368287Y-21112994D01*
X43427252Y-21002680D01*
X43463562Y-20882982D01*
X43466065Y-20857565D01*
X43940690Y-20382940D01*
X43984250Y-20426500D01*
X44933500Y-20426500D01*
X44933500Y-20406500D01*
X45187500Y-20406500D01*
X45187500Y-20426500D01*
X45207500Y-20426500D01*
X45207500Y-20680500D01*
X45187500Y-20680500D01*
X45187500Y-20700500D01*
X44933500Y-20700500D01*
X44933500Y-20680500D01*
X43984250Y-20680500D01*
X43825500Y-20839250D01*
X43825500Y-21316042D01*
X43849903Y-21438723D01*
X43897770Y-21554285D01*
X43965520Y-21655680D01*
X43929963Y-21699006D01*
X43870998Y-21809320D01*
X43834688Y-21929018D01*
X43822428Y-22053500D01*
X43822428Y-22161500D01*
X43341610Y-22161500D01*
X43288935Y-22097315D01*
X43192244Y-22017963D01*
X43081930Y-21958998D01*
X42962232Y-21922688D01*
X42837750Y-21910428D01*
X42037750Y-21910428D01*
X41913268Y-21922688D01*
X41793570Y-21958998D01*
X41685178Y-22016936D01*
X41638535Y-21985770D01*
X41522973Y-21937903D01*
X41400292Y-21913500D01*
X41223500Y-21913500D01*
X41064750Y-22072250D01*
X41064750Y-22796500D01*
X41084750Y-22796500D01*
X41084750Y-23050500D01*
X41064750Y-23050500D01*
X41064750Y-23774750D01*
X41223500Y-23933500D01*
X41400292Y-23933500D01*
X41522973Y-23909097D01*
X41638535Y-23861230D01*
X41685178Y-23830064D01*
X41793570Y-23888002D01*
X41913268Y-23924312D01*
X42037750Y-23936572D01*
X42837750Y-23936572D01*
X42962232Y-23924312D01*
X43081930Y-23888002D01*
X43192244Y-23829037D01*
X43288935Y-23749685D01*
X43341610Y-23685500D01*
X43867303Y-23685500D01*
X43870998Y-23697680D01*
X43929963Y-23807994D01*
X44009315Y-23904685D01*
X44106006Y-23984037D01*
X44216320Y-24043002D01*
X44336018Y-24079312D01*
X44460500Y-24091572D01*
X44857942Y-24091572D01*
X45281720Y-24515351D01*
X45305578Y-24544422D01*
X45334648Y-24568279D01*
X45421607Y-24639645D01*
X45479345Y-24670506D01*
X45553985Y-24710402D01*
X45697622Y-24753974D01*
X45809574Y-24765000D01*
X45809577Y-24765000D01*
X45847000Y-24768686D01*
X45884423Y-24765000D01*
X47714577Y-24765000D01*
X47752000Y-24768686D01*
X47789423Y-24765000D01*
X47789426Y-24765000D01*
X47901378Y-24753974D01*
X48045015Y-24710402D01*
X48177392Y-24639645D01*
X48293422Y-24544422D01*
X48317284Y-24515346D01*
X50284131Y-22548500D01*
X50358956Y-22548500D01*
X50412006Y-22592037D01*
X50522320Y-22651002D01*
X50642018Y-22687312D01*
X50673000Y-22690363D01*
X50673000Y-24386928D01*
X50356250Y-24386928D01*
X50231768Y-24399188D01*
X50112070Y-24435498D01*
X50030218Y-24479250D01*
X49982447Y-24479250D01*
X49957035Y-24462270D01*
X49841473Y-24414403D01*
X49718792Y-24390000D01*
X49542000Y-24390000D01*
X49452750Y-24479250D01*
X49059750Y-24479250D01*
X48970500Y-24390000D01*
X48793708Y-24390000D01*
X48671027Y-24414403D01*
X48555465Y-24462270D01*
X48530053Y-24479250D01*
X48418750Y-24479250D01*
X48393974Y-24481690D01*
X48370149Y-24488917D01*
X48348193Y-24500653D01*
X48328947Y-24516447D01*
X48313153Y-24535693D01*
X48301417Y-24557649D01*
X48294190Y-24581474D01*
X48291750Y-24606250D01*
X48291750Y-24728488D01*
X48245653Y-24839777D01*
X48221250Y-24962458D01*
X48221250Y-25114250D01*
X48291750Y-25184750D01*
X48291750Y-25615250D01*
X48221250Y-25685750D01*
X48221250Y-25837542D01*
X48245653Y-25960223D01*
X48289778Y-26066750D01*
X38227000Y-26066750D01*
X38227000Y-23209250D01*
X39902750Y-23209250D01*
X39902750Y-23361042D01*
X39927153Y-23483723D01*
X39975020Y-23599285D01*
X40044513Y-23703289D01*
X40132961Y-23791737D01*
X40236965Y-23861230D01*
X40352527Y-23909097D01*
X40475208Y-23933500D01*
X40652000Y-23933500D01*
X40810750Y-23774750D01*
X40810750Y-23050500D01*
X40061500Y-23050500D01*
X39902750Y-23209250D01*
X38227000Y-23209250D01*
X38227000Y-22485958D01*
X39902750Y-22485958D01*
X39902750Y-22637750D01*
X40061500Y-22796500D01*
X40810750Y-22796500D01*
X40810750Y-22072250D01*
X40652000Y-21913500D01*
X40475208Y-21913500D01*
X40352527Y-21937903D01*
X40236965Y-21985770D01*
X40132961Y-22055263D01*
X40044513Y-22143711D01*
X39975020Y-22247715D01*
X39927153Y-22363277D01*
X39902750Y-22485958D01*
X38227000Y-22485958D01*
X38227000Y-20669250D01*
X39902750Y-20669250D01*
X39902750Y-20821042D01*
X39927153Y-20943723D01*
X39975020Y-21059285D01*
X40044513Y-21163289D01*
X40132961Y-21251737D01*
X40236965Y-21321230D01*
X40352527Y-21369097D01*
X40475208Y-21393500D01*
X40652000Y-21393500D01*
X40810750Y-21234750D01*
X40810750Y-20510500D01*
X40061500Y-20510500D01*
X39902750Y-20669250D01*
X38227000Y-20669250D01*
X38227000Y-19945958D01*
X39902750Y-19945958D01*
X39902750Y-20097750D01*
X40061500Y-20256500D01*
X40810750Y-20256500D01*
X40810750Y-19532250D01*
X40652000Y-19373500D01*
X40475208Y-19373500D01*
X40352527Y-19397903D01*
X40236965Y-19445770D01*
X40132961Y-19515263D01*
X40044513Y-19603711D01*
X39975020Y-19707715D01*
X39927153Y-19823277D01*
X39902750Y-19945958D01*
X38227000Y-19945958D01*
X38227000Y-17589500D01*
X44561303Y-17589500D01*
X44586715Y-17606480D01*
X44586715Y-17606480D01*
G37*
X44586715Y-17606480D02*
X44702277Y-17654347D01*
X44824958Y-17678750D01*
X45001750Y-17678750D01*
X45091000Y-17589500D01*
X45484000Y-17589500D01*
X45573250Y-17678750D01*
X45750042Y-17678750D01*
X45872723Y-17654347D01*
X45988285Y-17606480D01*
X46013697Y-17589500D01*
X46061468Y-17589500D01*
X46143320Y-17633252D01*
X46195163Y-17648978D01*
X46200959Y-17656041D01*
X46232466Y-17681898D01*
X48492111Y-19941545D01*
X48517959Y-19973041D01*
X48549455Y-19998889D01*
X48549458Y-19998892D01*
X48643657Y-20076199D01*
X48729341Y-20121998D01*
X48787066Y-20152853D01*
X48942674Y-20200056D01*
X49063947Y-20212000D01*
X49063949Y-20212000D01*
X49104500Y-20215994D01*
X49145050Y-20212000D01*
X50131500Y-20212000D01*
X50131500Y-20224500D01*
X47998572Y-20224500D01*
X47998572Y-19853500D01*
X47986312Y-19729018D01*
X47950002Y-19609320D01*
X47891037Y-19499006D01*
X47811685Y-19402315D01*
X47714994Y-19322963D01*
X47604680Y-19263998D01*
X47484982Y-19227688D01*
X47360500Y-19215428D01*
X47090059Y-19215428D01*
X46666283Y-18791653D01*
X46642422Y-18762578D01*
X46526392Y-18667355D01*
X46394015Y-18596598D01*
X46250378Y-18553026D01*
X46138426Y-18542000D01*
X46138423Y-18542000D01*
X46101000Y-18538314D01*
X46063577Y-18542000D01*
X43979423Y-18542000D01*
X43942000Y-18538314D01*
X43904577Y-18542000D01*
X43904574Y-18542000D01*
X43792622Y-18553026D01*
X43648985Y-18596598D01*
X43604928Y-18620147D01*
X43516607Y-18667355D01*
X43492290Y-18687312D01*
X43400578Y-18762578D01*
X43376716Y-18791654D01*
X42797942Y-19370428D01*
X42037750Y-19370428D01*
X41913268Y-19382688D01*
X41793570Y-19418998D01*
X41685178Y-19476936D01*
X41638535Y-19445770D01*
X41522973Y-19397903D01*
X41400292Y-19373500D01*
X41223500Y-19373500D01*
X41064750Y-19532250D01*
X41064750Y-20256500D01*
X41084750Y-20256500D01*
X41084750Y-20510500D01*
X41064750Y-20510500D01*
X41064750Y-21234750D01*
X41223500Y-21393500D01*
X41400292Y-21393500D01*
X41522973Y-21369097D01*
X41638535Y-21321230D01*
X41685178Y-21290064D01*
X41793570Y-21348002D01*
X41913268Y-21384312D01*
X42037750Y-21396572D01*
X42837750Y-21396572D01*
X42962232Y-21384312D01*
X43081930Y-21348002D01*
X43192244Y-21289037D01*
X43288935Y-21209685D01*
X43368287Y-21112994D01*
X43427252Y-21002680D01*
X43463562Y-20882982D01*
X43466065Y-20857565D01*
X43940690Y-20382940D01*
X43984250Y-20426500D01*
X44933500Y-20426500D01*
X44933500Y-20406500D01*
X45187500Y-20406500D01*
X45187500Y-20426500D01*
X45207500Y-20426500D01*
X45207500Y-20680500D01*
X45187500Y-20680500D01*
X45187500Y-20700500D01*
X44933500Y-20700500D01*
X44933500Y-20680500D01*
X43984250Y-20680500D01*
X43825500Y-20839250D01*
X43825500Y-21316042D01*
X43849903Y-21438723D01*
X43897770Y-21554285D01*
X43965520Y-21655680D01*
X43929963Y-21699006D01*
X43870998Y-21809320D01*
X43834688Y-21929018D01*
X43822428Y-22053500D01*
X43822428Y-22161500D01*
X43341610Y-22161500D01*
X43288935Y-22097315D01*
X43192244Y-22017963D01*
X43081930Y-21958998D01*
X42962232Y-21922688D01*
X42837750Y-21910428D01*
X42037750Y-21910428D01*
X41913268Y-21922688D01*
X41793570Y-21958998D01*
X41685178Y-22016936D01*
X41638535Y-21985770D01*
X41522973Y-21937903D01*
X41400292Y-21913500D01*
X41223500Y-21913500D01*
X41064750Y-22072250D01*
X41064750Y-22796500D01*
X41084750Y-22796500D01*
X41084750Y-23050500D01*
X41064750Y-23050500D01*
X41064750Y-23774750D01*
X41223500Y-23933500D01*
X41400292Y-23933500D01*
X41522973Y-23909097D01*
X41638535Y-23861230D01*
X41685178Y-23830064D01*
X41793570Y-23888002D01*
X41913268Y-23924312D01*
X42037750Y-23936572D01*
X42837750Y-23936572D01*
X42962232Y-23924312D01*
X43081930Y-23888002D01*
X43192244Y-23829037D01*
X43288935Y-23749685D01*
X43341610Y-23685500D01*
X43867303Y-23685500D01*
X43870998Y-23697680D01*
X43929963Y-23807994D01*
X44009315Y-23904685D01*
X44106006Y-23984037D01*
X44216320Y-24043002D01*
X44336018Y-24079312D01*
X44460500Y-24091572D01*
X44857942Y-24091572D01*
X45281720Y-24515351D01*
X45305578Y-24544422D01*
X45334648Y-24568279D01*
X45421607Y-24639645D01*
X45479345Y-24670506D01*
X45553985Y-24710402D01*
X45697622Y-24753974D01*
X45809574Y-24765000D01*
X45809577Y-24765000D01*
X45847000Y-24768686D01*
X45884423Y-24765000D01*
X47714577Y-24765000D01*
X47752000Y-24768686D01*
X47789423Y-24765000D01*
X47789426Y-24765000D01*
X47901378Y-24753974D01*
X48045015Y-24710402D01*
X48177392Y-24639645D01*
X48293422Y-24544422D01*
X48317284Y-24515346D01*
X50284131Y-22548500D01*
X50358956Y-22548500D01*
X50412006Y-22592037D01*
X50522320Y-22651002D01*
X50642018Y-22687312D01*
X50673000Y-22690363D01*
X50673000Y-24386928D01*
X50356250Y-24386928D01*
X50231768Y-24399188D01*
X50112070Y-24435498D01*
X50030218Y-24479250D01*
X49982447Y-24479250D01*
X49957035Y-24462270D01*
X49841473Y-24414403D01*
X49718792Y-24390000D01*
X49542000Y-24390000D01*
X49452750Y-24479250D01*
X49059750Y-24479250D01*
X48970500Y-24390000D01*
X48793708Y-24390000D01*
X48671027Y-24414403D01*
X48555465Y-24462270D01*
X48530053Y-24479250D01*
X48418750Y-24479250D01*
X48393974Y-24481690D01*
X48370149Y-24488917D01*
X48348193Y-24500653D01*
X48328947Y-24516447D01*
X48313153Y-24535693D01*
X48301417Y-24557649D01*
X48294190Y-24581474D01*
X48291750Y-24606250D01*
X48291750Y-24728488D01*
X48245653Y-24839777D01*
X48221250Y-24962458D01*
X48221250Y-25114250D01*
X48291750Y-25184750D01*
X48291750Y-25615250D01*
X48221250Y-25685750D01*
X48221250Y-25837542D01*
X48245653Y-25960223D01*
X48289778Y-26066750D01*
X38227000Y-26066750D01*
X38227000Y-23209250D01*
X39902750Y-23209250D01*
X39902750Y-23361042D01*
X39927153Y-23483723D01*
X39975020Y-23599285D01*
X40044513Y-23703289D01*
X40132961Y-23791737D01*
X40236965Y-23861230D01*
X40352527Y-23909097D01*
X40475208Y-23933500D01*
X40652000Y-23933500D01*
X40810750Y-23774750D01*
X40810750Y-23050500D01*
X40061500Y-23050500D01*
X39902750Y-23209250D01*
X38227000Y-23209250D01*
X38227000Y-22485958D01*
X39902750Y-22485958D01*
X39902750Y-22637750D01*
X40061500Y-22796500D01*
X40810750Y-22796500D01*
X40810750Y-22072250D01*
X40652000Y-21913500D01*
X40475208Y-21913500D01*
X40352527Y-21937903D01*
X40236965Y-21985770D01*
X40132961Y-22055263D01*
X40044513Y-22143711D01*
X39975020Y-22247715D01*
X39927153Y-22363277D01*
X39902750Y-22485958D01*
X38227000Y-22485958D01*
X38227000Y-20669250D01*
X39902750Y-20669250D01*
X39902750Y-20821042D01*
X39927153Y-20943723D01*
X39975020Y-21059285D01*
X40044513Y-21163289D01*
X40132961Y-21251737D01*
X40236965Y-21321230D01*
X40352527Y-21369097D01*
X40475208Y-21393500D01*
X40652000Y-21393500D01*
X40810750Y-21234750D01*
X40810750Y-20510500D01*
X40061500Y-20510500D01*
X39902750Y-20669250D01*
X38227000Y-20669250D01*
X38227000Y-19945958D01*
X39902750Y-19945958D01*
X39902750Y-20097750D01*
X40061500Y-20256500D01*
X40810750Y-20256500D01*
X40810750Y-19532250D01*
X40652000Y-19373500D01*
X40475208Y-19373500D01*
X40352527Y-19397903D01*
X40236965Y-19445770D01*
X40132961Y-19515263D01*
X40044513Y-19603711D01*
X39975020Y-19707715D01*
X39927153Y-19823277D01*
X39902750Y-19945958D01*
X38227000Y-19945958D01*
X38227000Y-17589500D01*
X44561303Y-17589500D01*
X44586715Y-17606480D01*
G36*
X46887500Y-22626500D02*
X46907500Y-22626500D01*
X46907500Y-22880500D01*
X46887500Y-22880500D01*
X46887500Y-22900500D01*
X46633500Y-22900500D01*
X46633500Y-22880500D01*
X46613500Y-22880500D01*
X46613500Y-22626500D01*
X46633500Y-22626500D01*
X46633500Y-22606500D01*
X46887500Y-22606500D01*
X46887500Y-22626500D01*
X46887500Y-22626500D01*
G37*
X46887500Y-22626500D02*
X46907500Y-22626500D01*
X46907500Y-22880500D01*
X46887500Y-22880500D01*
X46887500Y-22900500D01*
X46633500Y-22900500D01*
X46633500Y-22880500D01*
X46613500Y-22880500D01*
X46613500Y-22626500D01*
X46633500Y-22626500D01*
X46633500Y-22606500D01*
X46887500Y-22606500D01*
X46887500Y-22626500D01*
M02*
