M48
;DRILL file {KiCad (5.0.0)} date 02/04/19 23:42:12
;FORMAT={-:-/ absolute / inch / decimal}
FMAT,2
INCH,TZ
T1C0.0157
T2C0.0394
T3C0.0409
T4C0.0579
%
G90
G05
M72
T1
X1.71Y0.575
X1.735Y-0.5
X1.85Y-0.63
X2.01Y-0.47
X2.01Y-0.745
X2.075Y-0.17
X2.075Y-0.205
X2.095Y-0.525
X2.1Y-1.25
X2.135Y-0.99
X2.135Y-1.025
X2.16Y-1.165
X2.2Y-1.64
X2.21Y-0.48
X2.21Y-3.015
X2.235Y-1.64
X2.235Y-3.75
X2.24Y-0.7525
X2.27Y-1.64
X2.275Y-4.085
X2.29Y-2.05
X2.305Y-1.64
X2.34Y-1.64
X2.35Y-2.4
X2.405Y-0.92
X2.425Y-0.17
X2.425Y-0.205
X2.435Y-0.325
X2.47Y-0.99
X2.47Y-1.025
X2.545Y-0.405
X2.595Y-0.89
X2.805Y0.345
X2.85Y-4.135
X2.855Y-3.91
X2.935Y-0.2
X3.Y-1.665
X3.Y-2.415
X3.Y-3.165
X3.Y-3.93
X3.Y-4.665
X3.015Y-3.65
X3.115Y-4.605
X3.14Y-4.105
X3.155Y-4.035
X3.235Y-1.025
X3.825Y-2.55
X3.985Y-0.99
T2
X2.0938Y0.5312
X2.1938Y0.5312
X2.2937Y0.5312
X2.3937Y0.5312
T3
X2.575Y-0.278
X2.675Y-0.278
X4.075Y-4.7625
X4.175Y-4.7625
X1.825Y-2.5125
X1.925Y-2.5125
X2.575Y-1.7625
X2.675Y-1.7625
X1.825Y-0.278
X1.925Y-0.278
X4.075Y-4.0125
X4.175Y-4.0125
X1.825Y-1.7625
X1.925Y-1.7625
X2.575Y-3.2625
X2.675Y-3.2625
X3.325Y-4.0125
X3.425Y-4.0125
X2.575Y-2.5125
X2.675Y-2.5125
X2.575Y-4.0125
X2.675Y-4.0125
X4.325Y-4.1375
X4.325Y-4.2375
X4.075Y-0.278
X4.175Y-0.278
X3.325Y-3.2625
X3.425Y-3.2625
X3.325Y-4.7625
X3.425Y-4.7625
X3.325Y-2.5125
X3.425Y-2.5125
X1.825Y-4.7625
X1.925Y-4.7625
X1.825Y-4.0125
X1.925Y-4.0125
X2.2Y-4.7625
X2.3Y-4.7625
X1.825Y-3.2625
X1.925Y-3.2625
X3.325Y-1.7625
X3.425Y-1.7625
X4.075Y-3.2625
X4.175Y-3.2625
X3.325Y-0.278
X3.425Y-0.278
X4.075Y-2.5125
X4.175Y-2.5125
X2.575Y-4.7625
X2.675Y-4.7625
X4.075Y-1.7625
X4.175Y-1.7625
X4.325Y-2.6375
X4.325Y-2.7375
T4
X3.225Y0.022
X3.2766Y0.0795
X3.4734Y0.0992
X3.475Y0.122
X3.975Y-2.2125
X4.0266Y-2.155
X4.2234Y-2.1353
X4.225Y-2.1125
X2.475Y-4.4625
X2.5266Y-4.405
X2.7234Y-4.3853
X2.725Y-4.3625
X3.975Y-1.4625
X4.0266Y-1.405
X4.2234Y-1.3853
X4.225Y-1.3625
X3.925Y-2.5875
X3.9478Y-2.5891
X3.9675Y-2.7859
X4.025Y-2.8375
X2.475Y0.022
X2.5266Y0.0795
X2.7234Y0.0992
X2.725Y0.122
X3.975Y-4.4625
X4.0266Y-4.405
X4.2234Y-4.3853
X4.225Y-4.3625
X1.725Y-2.2125
X1.7766Y-2.155
X1.9734Y-2.1353
X1.975Y-2.1125
X2.475Y-1.4625
X2.5266Y-1.405
X2.7234Y-1.3853
X2.725Y-1.3625
X1.725Y0.022
X1.7766Y0.0795
X1.9734Y0.0992
X1.975Y0.122
X3.975Y-3.7125
X4.0266Y-3.655
X4.2234Y-3.6353
X4.225Y-3.6125
X1.725Y-1.4625
X1.7766Y-1.405
X1.9734Y-1.3853
X1.975Y-1.3625
X2.475Y-2.9625
X2.5266Y-2.905
X2.7234Y-2.8853
X2.725Y-2.8625
X3.225Y-3.7125
X3.2766Y-3.655
X3.4734Y-3.6353
X3.475Y-3.6125
X2.475Y-2.2125
X2.5266Y-2.155
X2.7234Y-2.1353
X2.725Y-2.1125
X2.475Y-3.7125
X2.5266Y-3.655
X2.7234Y-3.6353
X2.725Y-3.6125
X3.925Y-4.0875
X3.9478Y-4.0891
X3.9675Y-4.2859
X4.025Y-4.3375
X3.975Y0.022
X4.0266Y0.0795
X4.2234Y0.0992
X4.225Y0.122
X3.225Y-2.9625
X3.2766Y-2.905
X3.4734Y-2.8853
X3.475Y-2.8625
X3.225Y-4.4625
X3.2766Y-4.405
X3.4734Y-4.3853
X3.475Y-4.3625
X3.225Y-2.2125
X3.2766Y-2.155
X3.4734Y-2.1353
X3.475Y-2.1125
X1.725Y-4.4625
X1.7766Y-4.405
X1.9734Y-4.3853
X1.975Y-4.3625
X1.725Y-3.7125
X1.7766Y-3.655
X1.9734Y-3.6353
X1.975Y-3.6125
X2.1Y-4.4625
X2.1516Y-4.405
X2.3484Y-4.3853
X2.35Y-4.3625
X1.725Y-2.9625
X1.7766Y-2.905
X1.9734Y-2.8853
X1.975Y-2.8625
X3.225Y-1.4625
X3.2766Y-1.405
X3.4734Y-1.3853
X3.475Y-1.3625
X3.975Y-2.9625
X4.0266Y-2.905
X4.2234Y-2.8853
X4.225Y-2.8625
T0
M30
