%TF.GenerationSoftware,KiCad,Pcbnew,(5.0.0)*%
%TF.CreationDate,2019-02-04T23:31:24-08:00*%
%TF.ProjectId,Voyager20,566F796167657232302E6B696361645F,rev?*%
%TF.SameCoordinates,Original*%
%TF.FileFunction,Legend,Top*%
%TF.FilePolarity,Positive*%
%FSLAX46Y46*%
G04 Gerber Fmt 4.6, Leading zero omitted, Abs format (unit mm)*
G04 Created by KiCad (PCBNEW (5.0.0)) date 02/04/19 23:31:24*
%MOMM*%
%LPD*%
G01*
G04 APERTURE LIST*
%ADD10C,0.300000*%
%ADD11C,0.500000*%
%ADD12C,0.010000*%
%ADD13C,2.150000*%
%ADD14C,4.387800*%
%ADD15C,3.448000*%
%ADD16O,2.100000X2.100000*%
%ADD17R,2.100000X2.100000*%
%ADD18C,3.600000*%
G04 APERTURE END LIST*
D10*
X53578571Y16990178D02*
X53578571Y15990178D01*
X53221428Y17561607D02*
X52864285Y16490178D01*
X53792857Y16490178D01*
X55364285Y17490178D02*
X56292857Y17490178D01*
X55792857Y16918750D01*
X56007142Y16918750D01*
X56150000Y16847321D01*
X56221428Y16775892D01*
X56292857Y16633035D01*
X56292857Y16275892D01*
X56221428Y16133035D01*
X56150000Y16061607D01*
X56007142Y15990178D01*
X55578571Y15990178D01*
X55435714Y16061607D01*
X55364285Y16133035D01*
X58007142Y17347321D02*
X58078571Y17418750D01*
X58221428Y17490178D01*
X58578571Y17490178D01*
X58721428Y17418750D01*
X58792857Y17347321D01*
X58864285Y17204464D01*
X58864285Y17061607D01*
X58792857Y16847321D01*
X57935714Y15990178D01*
X58864285Y15990178D01*
X61435714Y15990178D02*
X60578571Y15990178D01*
X61007142Y15990178D02*
X61007142Y17490178D01*
X60864285Y17275892D01*
X60721428Y17133035D01*
X60578571Y17061607D01*
X71175892Y-13148571D02*
X72104464Y-13148571D01*
X71604464Y-13720000D01*
X71818750Y-13720000D01*
X71961607Y-13791428D01*
X72033035Y-13862857D01*
X72104464Y-14005714D01*
X72104464Y-14362857D01*
X72033035Y-14505714D01*
X71961607Y-14577142D01*
X71818750Y-14648571D01*
X71390178Y-14648571D01*
X71247321Y-14577142D01*
X71175892Y-14505714D01*
X72604464Y-13148571D02*
X73604464Y-13148571D01*
X72961607Y-14648571D01*
X74461607Y-13148571D02*
X74604464Y-13148571D01*
X74747321Y-13220000D01*
X74818750Y-13291428D01*
X74890178Y-13434285D01*
X74961607Y-13720000D01*
X74961607Y-14077142D01*
X74890178Y-14362857D01*
X74818750Y-14505714D01*
X74747321Y-14577142D01*
X74604464Y-14648571D01*
X74461607Y-14648571D01*
X74318750Y-14577142D01*
X74247321Y-14505714D01*
X74175892Y-14362857D01*
X74104464Y-14077142D01*
X74104464Y-13720000D01*
X74175892Y-13434285D01*
X74247321Y-13291428D01*
X74318750Y-13220000D01*
X74461607Y-13148571D01*
X75890178Y-13148571D02*
X76033035Y-13148571D01*
X76175892Y-13220000D01*
X76247321Y-13291428D01*
X76318750Y-13434285D01*
X76390178Y-13720000D01*
X76390178Y-14077142D01*
X76318750Y-14362857D01*
X76247321Y-14505714D01*
X76175892Y-14577142D01*
X76033035Y-14648571D01*
X75890178Y-14648571D01*
X75747321Y-14577142D01*
X75675892Y-14505714D01*
X75604464Y-14362857D01*
X75533035Y-14077142D01*
X75533035Y-13720000D01*
X75604464Y-13434285D01*
X75675892Y-13291428D01*
X75747321Y-13220000D01*
X75890178Y-13148571D01*
D11*
X38141666Y-13367023D02*
X39808333Y-17367023D01*
X41475000Y-13367023D01*
X44094047Y-13367023D02*
X45046428Y-13367023D01*
X45522619Y-13557500D01*
X45998809Y-13938452D01*
X46236904Y-14700357D01*
X46236904Y-16033690D01*
X45998809Y-16795595D01*
X45522619Y-17176547D01*
X45046428Y-17367023D01*
X44094047Y-17367023D01*
X43617857Y-17176547D01*
X43141666Y-16795595D01*
X42903571Y-16033690D01*
X42903571Y-14700357D01*
X43141666Y-13938452D01*
X43617857Y-13557500D01*
X44094047Y-13367023D01*
X49332142Y-15462261D02*
X49332142Y-17367023D01*
X47665476Y-13367023D02*
X49332142Y-15462261D01*
X50998809Y-13367023D01*
X52427380Y-16224166D02*
X54808333Y-16224166D01*
X51951190Y-17367023D02*
X53617857Y-13367023D01*
X55284523Y-17367023D01*
X59570238Y-13557500D02*
X59094047Y-13367023D01*
X58379761Y-13367023D01*
X57665476Y-13557500D01*
X57189285Y-13938452D01*
X56951190Y-14319404D01*
X56713095Y-15081309D01*
X56713095Y-15652738D01*
X56951190Y-16414642D01*
X57189285Y-16795595D01*
X57665476Y-17176547D01*
X58379761Y-17367023D01*
X58855952Y-17367023D01*
X59570238Y-17176547D01*
X59808333Y-16986071D01*
X59808333Y-15652738D01*
X58855952Y-15652738D01*
X61951190Y-15271785D02*
X63617857Y-15271785D01*
X64332142Y-17367023D02*
X61951190Y-17367023D01*
X61951190Y-13367023D01*
X64332142Y-13367023D01*
X69332142Y-17367023D02*
X67665476Y-15462261D01*
X66475000Y-17367023D02*
X66475000Y-13367023D01*
X68379761Y-13367023D01*
X68855952Y-13557500D01*
X69094047Y-13747976D01*
X69332142Y-14128928D01*
X69332142Y-14700357D01*
X69094047Y-15081309D01*
X68855952Y-15271785D01*
X68379761Y-15462261D01*
X66475000Y-15462261D01*
D10*
X48792857Y11068750D02*
X48650000Y11140178D01*
X48435714Y11140178D01*
X48221428Y11068750D01*
X48078571Y10925892D01*
X48007142Y10783035D01*
X47935714Y10497321D01*
X47935714Y10283035D01*
X48007142Y9997321D01*
X48078571Y9854464D01*
X48221428Y9711607D01*
X48435714Y9640178D01*
X48578571Y9640178D01*
X48792857Y9711607D01*
X48864285Y9783035D01*
X48864285Y10283035D01*
X48578571Y10283035D01*
X49507142Y9640178D02*
X49507142Y11140178D01*
X50364285Y9640178D01*
X50364285Y11140178D01*
X51078571Y9640178D02*
X51078571Y11140178D01*
X51435714Y11140178D01*
X51650000Y11068750D01*
X51792857Y10925892D01*
X51864285Y10783035D01*
X51935714Y10497321D01*
X51935714Y10283035D01*
X51864285Y9997321D01*
X51792857Y9854464D01*
X51650000Y9711607D01*
X51435714Y9640178D01*
X51078571Y9640178D01*
X53721428Y9640178D02*
X53721428Y11140178D01*
X54078571Y11140178D01*
X54292857Y11068750D01*
X54435714Y10925892D01*
X54507142Y10783035D01*
X54578571Y10497321D01*
X54578571Y10283035D01*
X54507142Y9997321D01*
X54435714Y9854464D01*
X54292857Y9711607D01*
X54078571Y9640178D01*
X53721428Y9640178D01*
X55221428Y10211607D02*
X56364285Y10211607D01*
X55792857Y9640178D02*
X55792857Y10783035D01*
X58221428Y9640178D02*
X58221428Y11140178D01*
X58578571Y11140178D01*
X58792857Y11068750D01*
X58935714Y10925892D01*
X59007142Y10783035D01*
X59078571Y10497321D01*
X59078571Y10283035D01*
X59007142Y9997321D01*
X58935714Y9854464D01*
X58792857Y9711607D01*
X58578571Y9640178D01*
X58221428Y9640178D01*
X59721428Y10211607D02*
X60864285Y10211607D01*
X62507142Y11140178D02*
X63007142Y9640178D01*
X63507142Y11140178D01*
X64864285Y9783035D02*
X64792857Y9711607D01*
X64578571Y9640178D01*
X64435714Y9640178D01*
X64221428Y9711607D01*
X64078571Y9854464D01*
X64007142Y9997321D01*
X63935714Y10283035D01*
X63935714Y10497321D01*
X64007142Y10783035D01*
X64078571Y10925892D01*
X64221428Y11068750D01*
X64435714Y11140178D01*
X64578571Y11140178D01*
X64792857Y11068750D01*
X64864285Y10997321D01*
X66364285Y9783035D02*
X66292857Y9711607D01*
X66078571Y9640178D01*
X65935714Y9640178D01*
X65721428Y9711607D01*
X65578571Y9854464D01*
X65507142Y9997321D01*
X65435714Y10283035D01*
X65435714Y10497321D01*
X65507142Y10783035D01*
X65578571Y10925892D01*
X65721428Y11068750D01*
X65935714Y11140178D01*
X66078571Y11140178D01*
X66292857Y11068750D01*
X66364285Y10997321D01*
D12*
G36*
X111315500Y-14795500D02*
X110910688Y-14795500D01*
X110910688Y-14390688D01*
X111315500Y-14390688D01*
X111315500Y-14795500D01*
X111315500Y-14795500D01*
G37*
X111315500Y-14795500D02*
X110910688Y-14795500D01*
X110910688Y-14390688D01*
X111315500Y-14390688D01*
X111315500Y-14795500D01*
G36*
X111720313Y-15581313D02*
X111315500Y-15581313D01*
X111315500Y-15200313D01*
X111720313Y-15200313D01*
X111720313Y-15581313D01*
X111720313Y-15581313D01*
G37*
X111720313Y-15581313D02*
X111315500Y-15581313D01*
X111315500Y-15200313D01*
X111720313Y-15200313D01*
X111720313Y-15581313D01*
G36*
X110910688Y-15581313D02*
X110529688Y-15581313D01*
X110529688Y-15200313D01*
X110910688Y-15200313D01*
X110910688Y-15581313D01*
X110910688Y-15581313D01*
G37*
X110910688Y-15581313D02*
X110529688Y-15581313D01*
X110529688Y-15200313D01*
X110910688Y-15200313D01*
X110910688Y-15581313D01*
G36*
X112101313Y-16390938D02*
X111720313Y-16390938D01*
X111720313Y-15986125D01*
X112101313Y-15986125D01*
X112101313Y-16390938D01*
X112101313Y-16390938D01*
G37*
X112101313Y-16390938D02*
X111720313Y-16390938D01*
X111720313Y-15986125D01*
X112101313Y-15986125D01*
X112101313Y-16390938D01*
G36*
X111315500Y-16390938D02*
X110910688Y-16390938D01*
X110910688Y-15986125D01*
X111315500Y-15986125D01*
X111315500Y-16390938D01*
X111315500Y-16390938D01*
G37*
X111315500Y-16390938D02*
X110910688Y-16390938D01*
X110910688Y-15986125D01*
X111315500Y-15986125D01*
X111315500Y-16390938D01*
G36*
X110529688Y-16390938D02*
X110124875Y-16390938D01*
X110124875Y-15986125D01*
X110529688Y-15986125D01*
X110529688Y-16390938D01*
X110529688Y-16390938D01*
G37*
X110529688Y-16390938D02*
X110124875Y-16390938D01*
X110124875Y-15986125D01*
X110529688Y-15986125D01*
X110529688Y-16390938D01*
G36*
X112506125Y-17176750D02*
X112101313Y-17176750D01*
X112101313Y-16771938D01*
X112506125Y-16771938D01*
X112506125Y-17176750D01*
X112506125Y-17176750D01*
G37*
X112506125Y-17176750D02*
X112101313Y-17176750D01*
X112101313Y-16771938D01*
X112506125Y-16771938D01*
X112506125Y-17176750D01*
G36*
X110124875Y-17176750D02*
X109720063Y-17176750D01*
X109720063Y-16771938D01*
X110124875Y-16771938D01*
X110124875Y-17176750D01*
X110124875Y-17176750D01*
G37*
X110124875Y-17176750D02*
X109720063Y-17176750D01*
X109720063Y-16771938D01*
X110124875Y-16771938D01*
X110124875Y-17176750D01*
G36*
X111128969Y-12903045D02*
X111253087Y-12904415D01*
X111364799Y-12908572D01*
X111467392Y-12915919D01*
X111564156Y-12926860D01*
X111658378Y-12941798D01*
X111753347Y-12961137D01*
X111852351Y-12985281D01*
X111897630Y-12997418D01*
X112106177Y-13062656D01*
X112308265Y-13141992D01*
X112503128Y-13235028D01*
X112689999Y-13341368D01*
X112868114Y-13460616D01*
X113020260Y-13578617D01*
X113177928Y-13719342D01*
X113325265Y-13870787D01*
X113461586Y-14031885D01*
X113586208Y-14201567D01*
X113698447Y-14378766D01*
X113797620Y-14562416D01*
X113883042Y-14751447D01*
X113954030Y-14944793D01*
X114002784Y-15112803D01*
X114035855Y-15252789D01*
X114061215Y-15384725D01*
X114079607Y-15513997D01*
X114091775Y-15645993D01*
X114098461Y-15786100D01*
X114099114Y-15811500D01*
X114096395Y-16029797D01*
X114078200Y-16244580D01*
X114044535Y-16455821D01*
X113995406Y-16663489D01*
X113930819Y-16867555D01*
X113866622Y-17031487D01*
X113838539Y-17096752D01*
X113814477Y-17150910D01*
X113792608Y-17197613D01*
X113771107Y-17240513D01*
X113748146Y-17283263D01*
X113721900Y-17329515D01*
X113692775Y-17379156D01*
X113573556Y-17565427D01*
X113443452Y-17740153D01*
X113302329Y-17903465D01*
X113150055Y-18055496D01*
X112986497Y-18196380D01*
X112811524Y-18326248D01*
X112629156Y-18442775D01*
X112576327Y-18473744D01*
X112530414Y-18499721D01*
X112487765Y-18522531D01*
X112444728Y-18544001D01*
X112397651Y-18565957D01*
X112342881Y-18590225D01*
X112281487Y-18616622D01*
X112185254Y-18656169D01*
X112096536Y-18689208D01*
X112009422Y-18717695D01*
X111917998Y-18743589D01*
X111835406Y-18764322D01*
X111670890Y-18799876D01*
X111513795Y-18825553D01*
X111359567Y-18841893D01*
X111203649Y-18849436D01*
X111113094Y-18850013D01*
X111061875Y-18849498D01*
X111013754Y-18848793D01*
X110971874Y-18847960D01*
X110939378Y-18847063D01*
X110919410Y-18846165D01*
X110918625Y-18846109D01*
X110702451Y-18822157D01*
X110489694Y-18783170D01*
X110281213Y-18729467D01*
X110077868Y-18661363D01*
X109880516Y-18579176D01*
X109690018Y-18483225D01*
X109507232Y-18373826D01*
X109356276Y-18268796D01*
X109183349Y-18130449D01*
X109022665Y-17982088D01*
X108874451Y-17824039D01*
X108738929Y-17656632D01*
X108616324Y-17480194D01*
X108506861Y-17295052D01*
X108410763Y-17101535D01*
X108328256Y-16899971D01*
X108259563Y-16690688D01*
X108247418Y-16647630D01*
X108221052Y-16545835D01*
X108199667Y-16449511D01*
X108182859Y-16355367D01*
X108170225Y-16260117D01*
X108161360Y-16160470D01*
X108155862Y-16053140D01*
X108153326Y-15934836D01*
X108153045Y-15878969D01*
X108153720Y-15823608D01*
X108685794Y-15823608D01*
X108685897Y-15903746D01*
X108687563Y-15983410D01*
X108690759Y-16058537D01*
X108695456Y-16125060D01*
X108699176Y-16160750D01*
X108731050Y-16358048D01*
X108777701Y-16549663D01*
X108838951Y-16735222D01*
X108914619Y-16914349D01*
X109004527Y-17086669D01*
X109108494Y-17251809D01*
X109226341Y-17409393D01*
X109357888Y-17559047D01*
X109380224Y-17582260D01*
X109514458Y-17709334D01*
X109660160Y-17827270D01*
X109814631Y-17934090D01*
X109975169Y-18027816D01*
X110020958Y-18051504D01*
X110095366Y-18088153D01*
X110160607Y-18118372D01*
X110221104Y-18143940D01*
X110281278Y-18166634D01*
X110345551Y-18188233D01*
X110410625Y-18208227D01*
X110599838Y-18257640D01*
X110785589Y-18292091D01*
X110969327Y-18311714D01*
X111152503Y-18316642D01*
X111336564Y-18307011D01*
X111403106Y-18300031D01*
X111590438Y-18271087D01*
X111770019Y-18229278D01*
X111944357Y-18173854D01*
X112115959Y-18104064D01*
X112212916Y-18057866D01*
X112383548Y-17964447D01*
X112542964Y-17860712D01*
X112691922Y-17745974D01*
X112831179Y-17619550D01*
X112961494Y-17480754D01*
X113083624Y-17328903D01*
X113191892Y-17173259D01*
X113217018Y-17132068D01*
X113246341Y-17079940D01*
X113278041Y-17020496D01*
X113310299Y-16957356D01*
X113341293Y-16894140D01*
X113369206Y-16834467D01*
X113392215Y-16781957D01*
X113405653Y-16748125D01*
X113468520Y-16556584D01*
X113515916Y-16363845D01*
X113547800Y-16170450D01*
X113564130Y-15976940D01*
X113564868Y-15783857D01*
X113549972Y-15591742D01*
X113519402Y-15401136D01*
X113509599Y-15355094D01*
X113475950Y-15218801D01*
X113437642Y-15092618D01*
X113392704Y-14971007D01*
X113339163Y-14848432D01*
X113301504Y-14770958D01*
X113207799Y-14602110D01*
X113100974Y-14441673D01*
X112981798Y-14290368D01*
X112851037Y-14148914D01*
X112709460Y-14018031D01*
X112557834Y-13898440D01*
X112396927Y-13790860D01*
X112227507Y-13696011D01*
X112083325Y-13628480D01*
X111911697Y-13562085D01*
X111739143Y-13510087D01*
X111563656Y-13472078D01*
X111383226Y-13447651D01*
X111195845Y-13436397D01*
X111132938Y-13435507D01*
X110934843Y-13441877D01*
X110743215Y-13462522D01*
X110557281Y-13497673D01*
X110376265Y-13547567D01*
X110199394Y-13612435D01*
X110025894Y-13692513D01*
X109854991Y-13788035D01*
X109754294Y-13852244D01*
X109614861Y-13953772D01*
X109480663Y-14068278D01*
X109353341Y-14193839D01*
X109234535Y-14328531D01*
X109125886Y-14470431D01*
X109029035Y-14617615D01*
X108945622Y-14768161D01*
X108910826Y-14841080D01*
X108849423Y-14985939D01*
X108799192Y-15125178D01*
X108758935Y-15263126D01*
X108727456Y-15404114D01*
X108703556Y-15552471D01*
X108695155Y-15621000D01*
X108690392Y-15678170D01*
X108687282Y-15747061D01*
X108685794Y-15823608D01*
X108153720Y-15823608D01*
X108154790Y-15735973D01*
X108160664Y-15605106D01*
X108171238Y-15483025D01*
X108187085Y-15366385D01*
X108208777Y-15251844D01*
X108236887Y-15136059D01*
X108271986Y-15015687D01*
X108314647Y-14887384D01*
X108330341Y-14843125D01*
X108408726Y-14648406D01*
X108501566Y-14460072D01*
X108608672Y-14278385D01*
X108729852Y-14103608D01*
X108864917Y-13936003D01*
X109013674Y-13775833D01*
X109175933Y-13623360D01*
X109282771Y-13533179D01*
X109368600Y-13467686D01*
X109466139Y-13400360D01*
X109571748Y-13333412D01*
X109681786Y-13269055D01*
X109792613Y-13209500D01*
X109900589Y-13156958D01*
X109906594Y-13154215D01*
X109976554Y-13124342D01*
X110057735Y-13092956D01*
X110145767Y-13061536D01*
X110236279Y-13031562D01*
X110324901Y-13004511D01*
X110407264Y-12981864D01*
X110439150Y-12973971D01*
X110532375Y-12953203D01*
X110621349Y-12936543D01*
X110709353Y-12923652D01*
X110799669Y-12914195D01*
X110895578Y-12907832D01*
X111000360Y-12904228D01*
X111117295Y-12903044D01*
X111128969Y-12903045D01*
X111128969Y-12903045D01*
G37*
X111128969Y-12903045D02*
X111253087Y-12904415D01*
X111364799Y-12908572D01*
X111467392Y-12915919D01*
X111564156Y-12926860D01*
X111658378Y-12941798D01*
X111753347Y-12961137D01*
X111852351Y-12985281D01*
X111897630Y-12997418D01*
X112106177Y-13062656D01*
X112308265Y-13141992D01*
X112503128Y-13235028D01*
X112689999Y-13341368D01*
X112868114Y-13460616D01*
X113020260Y-13578617D01*
X113177928Y-13719342D01*
X113325265Y-13870787D01*
X113461586Y-14031885D01*
X113586208Y-14201567D01*
X113698447Y-14378766D01*
X113797620Y-14562416D01*
X113883042Y-14751447D01*
X113954030Y-14944793D01*
X114002784Y-15112803D01*
X114035855Y-15252789D01*
X114061215Y-15384725D01*
X114079607Y-15513997D01*
X114091775Y-15645993D01*
X114098461Y-15786100D01*
X114099114Y-15811500D01*
X114096395Y-16029797D01*
X114078200Y-16244580D01*
X114044535Y-16455821D01*
X113995406Y-16663489D01*
X113930819Y-16867555D01*
X113866622Y-17031487D01*
X113838539Y-17096752D01*
X113814477Y-17150910D01*
X113792608Y-17197613D01*
X113771107Y-17240513D01*
X113748146Y-17283263D01*
X113721900Y-17329515D01*
X113692775Y-17379156D01*
X113573556Y-17565427D01*
X113443452Y-17740153D01*
X113302329Y-17903465D01*
X113150055Y-18055496D01*
X112986497Y-18196380D01*
X112811524Y-18326248D01*
X112629156Y-18442775D01*
X112576327Y-18473744D01*
X112530414Y-18499721D01*
X112487765Y-18522531D01*
X112444728Y-18544001D01*
X112397651Y-18565957D01*
X112342881Y-18590225D01*
X112281487Y-18616622D01*
X112185254Y-18656169D01*
X112096536Y-18689208D01*
X112009422Y-18717695D01*
X111917998Y-18743589D01*
X111835406Y-18764322D01*
X111670890Y-18799876D01*
X111513795Y-18825553D01*
X111359567Y-18841893D01*
X111203649Y-18849436D01*
X111113094Y-18850013D01*
X111061875Y-18849498D01*
X111013754Y-18848793D01*
X110971874Y-18847960D01*
X110939378Y-18847063D01*
X110919410Y-18846165D01*
X110918625Y-18846109D01*
X110702451Y-18822157D01*
X110489694Y-18783170D01*
X110281213Y-18729467D01*
X110077868Y-18661363D01*
X109880516Y-18579176D01*
X109690018Y-18483225D01*
X109507232Y-18373826D01*
X109356276Y-18268796D01*
X109183349Y-18130449D01*
X109022665Y-17982088D01*
X108874451Y-17824039D01*
X108738929Y-17656632D01*
X108616324Y-17480194D01*
X108506861Y-17295052D01*
X108410763Y-17101535D01*
X108328256Y-16899971D01*
X108259563Y-16690688D01*
X108247418Y-16647630D01*
X108221052Y-16545835D01*
X108199667Y-16449511D01*
X108182859Y-16355367D01*
X108170225Y-16260117D01*
X108161360Y-16160470D01*
X108155862Y-16053140D01*
X108153326Y-15934836D01*
X108153045Y-15878969D01*
X108153720Y-15823608D01*
X108685794Y-15823608D01*
X108685897Y-15903746D01*
X108687563Y-15983410D01*
X108690759Y-16058537D01*
X108695456Y-16125060D01*
X108699176Y-16160750D01*
X108731050Y-16358048D01*
X108777701Y-16549663D01*
X108838951Y-16735222D01*
X108914619Y-16914349D01*
X109004527Y-17086669D01*
X109108494Y-17251809D01*
X109226341Y-17409393D01*
X109357888Y-17559047D01*
X109380224Y-17582260D01*
X109514458Y-17709334D01*
X109660160Y-17827270D01*
X109814631Y-17934090D01*
X109975169Y-18027816D01*
X110020958Y-18051504D01*
X110095366Y-18088153D01*
X110160607Y-18118372D01*
X110221104Y-18143940D01*
X110281278Y-18166634D01*
X110345551Y-18188233D01*
X110410625Y-18208227D01*
X110599838Y-18257640D01*
X110785589Y-18292091D01*
X110969327Y-18311714D01*
X111152503Y-18316642D01*
X111336564Y-18307011D01*
X111403106Y-18300031D01*
X111590438Y-18271087D01*
X111770019Y-18229278D01*
X111944357Y-18173854D01*
X112115959Y-18104064D01*
X112212916Y-18057866D01*
X112383548Y-17964447D01*
X112542964Y-17860712D01*
X112691922Y-17745974D01*
X112831179Y-17619550D01*
X112961494Y-17480754D01*
X113083624Y-17328903D01*
X113191892Y-17173259D01*
X113217018Y-17132068D01*
X113246341Y-17079940D01*
X113278041Y-17020496D01*
X113310299Y-16957356D01*
X113341293Y-16894140D01*
X113369206Y-16834467D01*
X113392215Y-16781957D01*
X113405653Y-16748125D01*
X113468520Y-16556584D01*
X113515916Y-16363845D01*
X113547800Y-16170450D01*
X113564130Y-15976940D01*
X113564868Y-15783857D01*
X113549972Y-15591742D01*
X113519402Y-15401136D01*
X113509599Y-15355094D01*
X113475950Y-15218801D01*
X113437642Y-15092618D01*
X113392704Y-14971007D01*
X113339163Y-14848432D01*
X113301504Y-14770958D01*
X113207799Y-14602110D01*
X113100974Y-14441673D01*
X112981798Y-14290368D01*
X112851037Y-14148914D01*
X112709460Y-14018031D01*
X112557834Y-13898440D01*
X112396927Y-13790860D01*
X112227507Y-13696011D01*
X112083325Y-13628480D01*
X111911697Y-13562085D01*
X111739143Y-13510087D01*
X111563656Y-13472078D01*
X111383226Y-13447651D01*
X111195845Y-13436397D01*
X111132938Y-13435507D01*
X110934843Y-13441877D01*
X110743215Y-13462522D01*
X110557281Y-13497673D01*
X110376265Y-13547567D01*
X110199394Y-13612435D01*
X110025894Y-13692513D01*
X109854991Y-13788035D01*
X109754294Y-13852244D01*
X109614861Y-13953772D01*
X109480663Y-14068278D01*
X109353341Y-14193839D01*
X109234535Y-14328531D01*
X109125886Y-14470431D01*
X109029035Y-14617615D01*
X108945622Y-14768161D01*
X108910826Y-14841080D01*
X108849423Y-14985939D01*
X108799192Y-15125178D01*
X108758935Y-15263126D01*
X108727456Y-15404114D01*
X108703556Y-15552471D01*
X108695155Y-15621000D01*
X108690392Y-15678170D01*
X108687282Y-15747061D01*
X108685794Y-15823608D01*
X108153720Y-15823608D01*
X108154790Y-15735973D01*
X108160664Y-15605106D01*
X108171238Y-15483025D01*
X108187085Y-15366385D01*
X108208777Y-15251844D01*
X108236887Y-15136059D01*
X108271986Y-15015687D01*
X108314647Y-14887384D01*
X108330341Y-14843125D01*
X108408726Y-14648406D01*
X108501566Y-14460072D01*
X108608672Y-14278385D01*
X108729852Y-14103608D01*
X108864917Y-13936003D01*
X109013674Y-13775833D01*
X109175933Y-13623360D01*
X109282771Y-13533179D01*
X109368600Y-13467686D01*
X109466139Y-13400360D01*
X109571748Y-13333412D01*
X109681786Y-13269055D01*
X109792613Y-13209500D01*
X109900589Y-13156958D01*
X109906594Y-13154215D01*
X109976554Y-13124342D01*
X110057735Y-13092956D01*
X110145767Y-13061536D01*
X110236279Y-13031562D01*
X110324901Y-13004511D01*
X110407264Y-12981864D01*
X110439150Y-12973971D01*
X110532375Y-12953203D01*
X110621349Y-12936543D01*
X110709353Y-12923652D01*
X110799669Y-12914195D01*
X110895578Y-12907832D01*
X111000360Y-12904228D01*
X111117295Y-12903044D01*
X111128969Y-12903045D01*
%LPC*%
D13*
X90805000Y-96837500D03*
X80645000Y-96837500D03*
D14*
X85725000Y-96837500D03*
D13*
X52705000Y-39687500D03*
X42545000Y-39687500D03*
D14*
X47625000Y-39687500D03*
D13*
X71755000Y-39687500D03*
X61595000Y-39687500D03*
D14*
X66675000Y-39687500D03*
X85725000Y-39687500D03*
D13*
X80645000Y-39687500D03*
X90805000Y-39687500D03*
D14*
X104775000Y-39687500D03*
D13*
X99695000Y-39687500D03*
X109855000Y-39687500D03*
X52705000Y-58737500D03*
X42545000Y-58737500D03*
D14*
X47625000Y-58737500D03*
X66675000Y-58737500D03*
D13*
X61595000Y-58737500D03*
X71755000Y-58737500D03*
D14*
X85725000Y-58737500D03*
D13*
X80645000Y-58737500D03*
X90805000Y-58737500D03*
D14*
X104775000Y-58737500D03*
D13*
X99695000Y-58737500D03*
X109855000Y-58737500D03*
X52705000Y-77787500D03*
X42545000Y-77787500D03*
D14*
X47625000Y-77787500D03*
X66675000Y-77787500D03*
D13*
X61595000Y-77787500D03*
X71755000Y-77787500D03*
X90805000Y-77787500D03*
X80645000Y-77787500D03*
D14*
X85725000Y-77787500D03*
D13*
X109855000Y-77787500D03*
X99695000Y-77787500D03*
D14*
X104775000Y-77787500D03*
D13*
X52705000Y-96837500D03*
X42545000Y-96837500D03*
D14*
X47625000Y-96837500D03*
X66675000Y-96837500D03*
D13*
X61595000Y-96837500D03*
X71755000Y-96837500D03*
D14*
X104775000Y-96837500D03*
D13*
X99695000Y-96837500D03*
X109855000Y-96837500D03*
D14*
X47625000Y-115887500D03*
D13*
X42545000Y-115887500D03*
X52705000Y-115887500D03*
X71755000Y-115887500D03*
X61595000Y-115887500D03*
D14*
X66675000Y-115887500D03*
X85725000Y-115887500D03*
D13*
X80645000Y-115887500D03*
X90805000Y-115887500D03*
X109855000Y-115887500D03*
X99695000Y-115887500D03*
D14*
X104775000Y-115887500D03*
X104775000Y-68262500D03*
D13*
X104775000Y-73342500D03*
X104775000Y-63182500D03*
D15*
X111760000Y-80200500D03*
X111760000Y-56324500D03*
D14*
X96520000Y-80200500D03*
X96520000Y-56324500D03*
X96520000Y-94424500D03*
X96520000Y-118300500D03*
D15*
X111760000Y-94424500D03*
X111760000Y-118300500D03*
D13*
X104775000Y-101282500D03*
X104775000Y-111442500D03*
D14*
X104775000Y-106362500D03*
X57150000Y-115887500D03*
D13*
X52070000Y-115887500D03*
X62230000Y-115887500D03*
D15*
X45212000Y-122872500D03*
X69088000Y-122872500D03*
D14*
X45212000Y-107632500D03*
X69088000Y-107632500D03*
X47625000Y-1981200D03*
D13*
X42545000Y-1981200D03*
X52705000Y-1981200D03*
X71755000Y-1981200D03*
X61595000Y-1981200D03*
D14*
X66675000Y-1981200D03*
X85725000Y-1981200D03*
D13*
X80645000Y-1981200D03*
X90805000Y-1981200D03*
X109855000Y-1981200D03*
X99695000Y-1981200D03*
D14*
X104775000Y-1981200D03*
D16*
X60801250Y13493750D03*
X58261250Y13493750D03*
X55721250Y13493750D03*
D17*
X53181250Y13493750D03*
D18*
X71437500Y15081250D03*
X80962500Y15081250D03*
M02*
