%TF.GenerationSoftware,KiCad,Pcbnew,(5.0.0)*%
%TF.CreationDate,2019-02-04T23:31:24-08:00*%
%TF.ProjectId,Voyager20,566F796167657232302E6B696361645F,rev?*%
%TF.SameCoordinates,Original*%
%TF.FileFunction,Soldermask,Bot*%
%TF.FilePolarity,Negative*%
%FSLAX46Y46*%
G04 Gerber Fmt 4.6, Leading zero omitted, Abs format (unit mm)*
G04 Created by KiCad (PCBNEW (5.0.0)) date 02/04/19 23:31:24*
%MOMM*%
%LPD*%
G01*
G04 APERTURE LIST*
%ADD10C,2.150000*%
%ADD11R,2.305000X2.305000*%
%ADD12C,2.305000*%
%ADD13C,2.650000*%
%ADD14C,4.387800*%
%ADD15C,2.650000*%
%ADD16R,1.200000X1.150000*%
%ADD17R,1.600000X1.300000*%
%ADD18R,1.540000X2.430000*%
%ADD19R,1.100000X1.700000*%
%ADD20R,1.700000X1.100000*%
%ADD21R,1.500000X2.200000*%
%ADD22R,1.100000X1.400000*%
%ADD23R,1.100000X1.000000*%
%ADD24R,1.600000X1.800000*%
%ADD25C,3.448000*%
%ADD26R,1.300000X1.200000*%
%ADD27O,2.100000X2.100000*%
%ADD28R,2.100000X2.100000*%
%ADD29R,0.950000X2.000000*%
%ADD30R,2.000000X0.950000*%
%ADD31R,1.900000X1.900000*%
%ADD32C,3.600000*%
G04 APERTURE END LIST*
D10*
X90805000Y-96837500D03*
X80645000Y-96837500D03*
D11*
X86995000Y-101917500D03*
D12*
X84455000Y-101917500D03*
D13*
X83225000Y-92837500D03*
D14*
X85725000Y-96837500D03*
D13*
X82570001Y-93567500D03*
D15*
X81915000Y-94297500D02*
X83225002Y-92837500D01*
D13*
X88265000Y-91757500D03*
X88245000Y-92047500D03*
D15*
X88225000Y-92337500D02*
X88265000Y-91757500D01*
D16*
X70274750Y-15176500D03*
X71774750Y-15176500D03*
X71774750Y-17716500D03*
X70274750Y-17716500D03*
X54018750Y-11112500D03*
X55518750Y-11112500D03*
X65925000Y-21431250D03*
X67425000Y-21431250D03*
X63456250Y-12700000D03*
X61956250Y-12700000D03*
X63456250Y-10318750D03*
X61956250Y-10318750D03*
D17*
X42068750Y-42006250D03*
X42068750Y-45306250D03*
X74612500Y-39750000D03*
X74612500Y-36450000D03*
X77787500Y-36450000D03*
X77787500Y-39750000D03*
X96837500Y-39750000D03*
X96837500Y-36450000D03*
X55562500Y-58800000D03*
X55562500Y-55500000D03*
X74612500Y-55500000D03*
X74612500Y-58800000D03*
X77787500Y-58800000D03*
X77787500Y-55500000D03*
X95250000Y-61056250D03*
X95250000Y-64356250D03*
X55562500Y-77850000D03*
X55562500Y-74550000D03*
X74612500Y-74550000D03*
X74612500Y-77850000D03*
X77787500Y-74550000D03*
X77787500Y-77850000D03*
X95250000Y-76262500D03*
X95250000Y-72962500D03*
X55562500Y-96900000D03*
X55562500Y-93600000D03*
X58737500Y-93600000D03*
X58737500Y-96900000D03*
X93662500Y-98362500D03*
X93662500Y-101662500D03*
X74612500Y-96900000D03*
X74612500Y-93600000D03*
X78581250Y-99156250D03*
X78581250Y-102456250D03*
X74612500Y-115950000D03*
X74612500Y-112650000D03*
X77787500Y-112650000D03*
X77787500Y-115950000D03*
X94456250Y-114362500D03*
X94456250Y-111062500D03*
D18*
X65475000Y8731250D03*
X67875000Y8731250D03*
D10*
X52705000Y-39687500D03*
X42545000Y-39687500D03*
D11*
X48895000Y-44767500D03*
D12*
X46355000Y-44767500D03*
D13*
X45125000Y-35687500D03*
D14*
X47625000Y-39687500D03*
D13*
X44470001Y-36417500D03*
D15*
X43815000Y-37147500D02*
X45125002Y-35687500D01*
D13*
X50165000Y-34607500D03*
X50145000Y-34897500D03*
D15*
X50125000Y-35187500D02*
X50165000Y-34607500D01*
D10*
X71755000Y-39687500D03*
X61595000Y-39687500D03*
D11*
X67945000Y-44767500D03*
D12*
X65405000Y-44767500D03*
D13*
X64175000Y-35687500D03*
D14*
X66675000Y-39687500D03*
D13*
X63520001Y-36417500D03*
D15*
X62865000Y-37147500D02*
X64175002Y-35687500D01*
D13*
X69215000Y-34607500D03*
X69195000Y-34897500D03*
D15*
X69175000Y-35187500D02*
X69215000Y-34607500D01*
D13*
X88245000Y-34897500D03*
D15*
X88225000Y-35187500D02*
X88265000Y-34607500D01*
D13*
X88265000Y-34607500D03*
X82570001Y-36417500D03*
D15*
X81915000Y-37147500D02*
X83225002Y-35687500D01*
D14*
X85725000Y-39687500D03*
D13*
X83225000Y-35687500D03*
D12*
X84455000Y-44767500D03*
D11*
X86995000Y-44767500D03*
D10*
X80645000Y-39687500D03*
X90805000Y-39687500D03*
D13*
X107295000Y-34897500D03*
D15*
X107275000Y-35187500D02*
X107315000Y-34607500D01*
D13*
X107315000Y-34607500D03*
X101620001Y-36417500D03*
D15*
X100965000Y-37147500D02*
X102275002Y-35687500D01*
D14*
X104775000Y-39687500D03*
D13*
X102275000Y-35687500D03*
D12*
X103505000Y-44767500D03*
D11*
X106045000Y-44767500D03*
D10*
X99695000Y-39687500D03*
X109855000Y-39687500D03*
X52705000Y-58737500D03*
X42545000Y-58737500D03*
D11*
X48895000Y-63817500D03*
D12*
X46355000Y-63817500D03*
D13*
X45125000Y-54737500D03*
D14*
X47625000Y-58737500D03*
D13*
X44470001Y-55467500D03*
D15*
X43815000Y-56197500D02*
X45125002Y-54737500D01*
D13*
X50165000Y-53657500D03*
X50145000Y-53947500D03*
D15*
X50125000Y-54237500D02*
X50165000Y-53657500D01*
D13*
X69195000Y-53947500D03*
D15*
X69175000Y-54237500D02*
X69215000Y-53657500D01*
D13*
X69215000Y-53657500D03*
X63520001Y-55467500D03*
D15*
X62865000Y-56197500D02*
X64175002Y-54737500D01*
D14*
X66675000Y-58737500D03*
D13*
X64175000Y-54737500D03*
D12*
X65405000Y-63817500D03*
D11*
X67945000Y-63817500D03*
D10*
X61595000Y-58737500D03*
X71755000Y-58737500D03*
D13*
X88245000Y-53947500D03*
D15*
X88225000Y-54237500D02*
X88265000Y-53657500D01*
D13*
X88265000Y-53657500D03*
X82570001Y-55467500D03*
D15*
X81915000Y-56197500D02*
X83225002Y-54737500D01*
D14*
X85725000Y-58737500D03*
D13*
X83225000Y-54737500D03*
D12*
X84455000Y-63817500D03*
D11*
X86995000Y-63817500D03*
D10*
X80645000Y-58737500D03*
X90805000Y-58737500D03*
D13*
X107295000Y-53947500D03*
D15*
X107275000Y-54237500D02*
X107315000Y-53657500D01*
D13*
X107315000Y-53657500D03*
X101620001Y-55467500D03*
D15*
X100965000Y-56197500D02*
X102275002Y-54737500D01*
D14*
X104775000Y-58737500D03*
D13*
X102275000Y-54737500D03*
D12*
X103505000Y-63817500D03*
D11*
X106045000Y-63817500D03*
D10*
X99695000Y-58737500D03*
X109855000Y-58737500D03*
X52705000Y-77787500D03*
X42545000Y-77787500D03*
D11*
X48895000Y-82867500D03*
D12*
X46355000Y-82867500D03*
D13*
X45125000Y-73787500D03*
D14*
X47625000Y-77787500D03*
D13*
X44470001Y-74517500D03*
D15*
X43815000Y-75247500D02*
X45125002Y-73787500D01*
D13*
X50165000Y-72707500D03*
X50145000Y-72997500D03*
D15*
X50125000Y-73287500D02*
X50165000Y-72707500D01*
D13*
X69195000Y-72997500D03*
D15*
X69175000Y-73287500D02*
X69215000Y-72707500D01*
D13*
X69215000Y-72707500D03*
X63520001Y-74517500D03*
D15*
X62865000Y-75247500D02*
X64175002Y-73787500D01*
D14*
X66675000Y-77787500D03*
D13*
X64175000Y-73787500D03*
D12*
X65405000Y-82867500D03*
D11*
X67945000Y-82867500D03*
D10*
X61595000Y-77787500D03*
X71755000Y-77787500D03*
X90805000Y-77787500D03*
X80645000Y-77787500D03*
D11*
X86995000Y-82867500D03*
D12*
X84455000Y-82867500D03*
D13*
X83225000Y-73787500D03*
D14*
X85725000Y-77787500D03*
D13*
X82570001Y-74517500D03*
D15*
X81915000Y-75247500D02*
X83225002Y-73787500D01*
D13*
X88265000Y-72707500D03*
X88245000Y-72997500D03*
D15*
X88225000Y-73287500D02*
X88265000Y-72707500D01*
D10*
X109855000Y-77787500D03*
X99695000Y-77787500D03*
D11*
X106045000Y-82867500D03*
D12*
X103505000Y-82867500D03*
D13*
X102275000Y-73787500D03*
D14*
X104775000Y-77787500D03*
D13*
X101620001Y-74517500D03*
D15*
X100965000Y-75247500D02*
X102275002Y-73787500D01*
D13*
X107315000Y-72707500D03*
X107295000Y-72997500D03*
D15*
X107275000Y-73287500D02*
X107315000Y-72707500D01*
D10*
X52705000Y-96837500D03*
X42545000Y-96837500D03*
D11*
X48895000Y-101917500D03*
D12*
X46355000Y-101917500D03*
D13*
X45125000Y-92837500D03*
D14*
X47625000Y-96837500D03*
D13*
X44470001Y-93567500D03*
D15*
X43815000Y-94297500D02*
X45125002Y-92837500D01*
D13*
X50165000Y-91757500D03*
X50145000Y-92047500D03*
D15*
X50125000Y-92337500D02*
X50165000Y-91757500D01*
D13*
X69195000Y-92047500D03*
D15*
X69175000Y-92337500D02*
X69215000Y-91757500D01*
D13*
X69215000Y-91757500D03*
X63520001Y-93567500D03*
D15*
X62865000Y-94297500D02*
X64175002Y-92837500D01*
D14*
X66675000Y-96837500D03*
D13*
X64175000Y-92837500D03*
D12*
X65405000Y-101917500D03*
D11*
X67945000Y-101917500D03*
D10*
X61595000Y-96837500D03*
X71755000Y-96837500D03*
D13*
X107295000Y-92047500D03*
D15*
X107275000Y-92337500D02*
X107315000Y-91757500D01*
D13*
X107315000Y-91757500D03*
X101620001Y-93567500D03*
D15*
X100965000Y-94297500D02*
X102275002Y-92837500D01*
D14*
X104775000Y-96837500D03*
D13*
X102275000Y-92837500D03*
D12*
X103505000Y-101917500D03*
D11*
X106045000Y-101917500D03*
D10*
X99695000Y-96837500D03*
X109855000Y-96837500D03*
D13*
X50145000Y-111097500D03*
D15*
X50125000Y-111387500D02*
X50165000Y-110807500D01*
D13*
X50165000Y-110807500D03*
X44470001Y-112617500D03*
D15*
X43815000Y-113347500D02*
X45125002Y-111887500D01*
D14*
X47625000Y-115887500D03*
D13*
X45125000Y-111887500D03*
D12*
X46355000Y-120967500D03*
D11*
X48895000Y-120967500D03*
D10*
X42545000Y-115887500D03*
X52705000Y-115887500D03*
X71755000Y-115887500D03*
X61595000Y-115887500D03*
D11*
X67945000Y-120967500D03*
D12*
X65405000Y-120967500D03*
D13*
X64175000Y-111887500D03*
D14*
X66675000Y-115887500D03*
D13*
X63520001Y-112617500D03*
D15*
X62865000Y-113347500D02*
X64175002Y-111887500D01*
D13*
X69215000Y-110807500D03*
X69195000Y-111097500D03*
D15*
X69175000Y-111387500D02*
X69215000Y-110807500D01*
D13*
X88245000Y-111097500D03*
D15*
X88225000Y-111387500D02*
X88265000Y-110807500D01*
D13*
X88265000Y-110807500D03*
X82570001Y-112617500D03*
D15*
X81915000Y-113347500D02*
X83225002Y-111887500D01*
D14*
X85725000Y-115887500D03*
D13*
X83225000Y-111887500D03*
D12*
X84455000Y-120967500D03*
D11*
X86995000Y-120967500D03*
D10*
X80645000Y-115887500D03*
X90805000Y-115887500D03*
X109855000Y-115887500D03*
X99695000Y-115887500D03*
D11*
X106045000Y-120967500D03*
D12*
X103505000Y-120967500D03*
D13*
X102275000Y-111887500D03*
D14*
X104775000Y-115887500D03*
D13*
X101620001Y-112617500D03*
D15*
X100965000Y-113347500D02*
X102275002Y-111887500D01*
D13*
X107315000Y-110807500D03*
X107295000Y-111097500D03*
D15*
X107275000Y-111387500D02*
X107315000Y-110807500D01*
D19*
X42769750Y-27813000D03*
X44669750Y-27813000D03*
D20*
X58737500Y-6193750D03*
X58737500Y-8093750D03*
X55562500Y-6193750D03*
X55562500Y-8093750D03*
X56356250Y-29525000D03*
X56356250Y-27625000D03*
D19*
X43812500Y-49212500D03*
X41912500Y-49212500D03*
D20*
X74612500Y-44606250D03*
X74612500Y-42706250D03*
X77787500Y-42706250D03*
X77787500Y-44606250D03*
X96837500Y-44606250D03*
X96837500Y-42706250D03*
X55562500Y-63656250D03*
X55562500Y-61756250D03*
X74612500Y-63656250D03*
X74612500Y-61756250D03*
X77787500Y-63656250D03*
X77787500Y-61756250D03*
X92075000Y-62550000D03*
X92075000Y-64450000D03*
X55562500Y-80806250D03*
X55562500Y-82706250D03*
X74612500Y-82706250D03*
X74612500Y-80806250D03*
X77787500Y-80806250D03*
X77787500Y-82706250D03*
X91281250Y-82706250D03*
X91281250Y-80806250D03*
X55562500Y-99856250D03*
X55562500Y-101756250D03*
X58737500Y-99856250D03*
X58737500Y-101756250D03*
X96837500Y-98268750D03*
X96837500Y-100168750D03*
X74612500Y-99856250D03*
X74612500Y-101756250D03*
X52387500Y-120012500D03*
X52387500Y-118112500D03*
X61912500Y-118112500D03*
X61912500Y-120012500D03*
X77787500Y-120806250D03*
X77787500Y-118906250D03*
X74612500Y-118906250D03*
X74612500Y-120806250D03*
D21*
X41869750Y-17569250D03*
X45569750Y-23769250D03*
X45569750Y-17569250D03*
X41869750Y-23769250D03*
D22*
X56150000Y6393750D03*
D23*
X58150000Y6193750D03*
X56150000Y8093750D03*
X58150000Y8093750D03*
D24*
X65952000Y-15346500D03*
X65952000Y-17546500D03*
X67652000Y-17546500D03*
X67652000Y-15346500D03*
D13*
X99985000Y-65742500D03*
D15*
X100275000Y-65762500D02*
X99695000Y-65722500D01*
D13*
X99695000Y-65722500D03*
X101505000Y-71417499D03*
D15*
X102235000Y-72072500D02*
X100775000Y-70762498D01*
D14*
X104775000Y-68262500D03*
D13*
X100775000Y-70762500D03*
D12*
X109855000Y-69532500D03*
D11*
X109855000Y-66992500D03*
D10*
X104775000Y-73342500D03*
X104775000Y-63182500D03*
D25*
X111760000Y-80200500D03*
X111760000Y-56324500D03*
D14*
X96520000Y-80200500D03*
X96520000Y-56324500D03*
X96520000Y-94424500D03*
X96520000Y-118300500D03*
D25*
X111760000Y-94424500D03*
X111760000Y-118300500D03*
D10*
X104775000Y-101282500D03*
X104775000Y-111442500D03*
D11*
X109855000Y-105092500D03*
D12*
X109855000Y-107632500D03*
D13*
X100775000Y-108862500D03*
D14*
X104775000Y-106362500D03*
D13*
X101505000Y-109517499D03*
D15*
X102235000Y-110172500D02*
X100775000Y-108862498D01*
D13*
X99695000Y-103822500D03*
X99985000Y-103842500D03*
D15*
X100275000Y-103862500D02*
X99695000Y-103822500D01*
D13*
X59670000Y-111097500D03*
D15*
X59650000Y-111387500D02*
X59690000Y-110807500D01*
D13*
X59690000Y-110807500D03*
X53995001Y-112617500D03*
D15*
X53340000Y-113347500D02*
X54650002Y-111887500D01*
D14*
X57150000Y-115887500D03*
D13*
X54650000Y-111887500D03*
D12*
X55880000Y-120967500D03*
D11*
X58420000Y-120967500D03*
D10*
X52070000Y-115887500D03*
X62230000Y-115887500D03*
D25*
X45212000Y-122872500D03*
X69088000Y-122872500D03*
D14*
X45212000Y-107632500D03*
X69088000Y-107632500D03*
D26*
X44529500Y10604500D03*
X46529500Y9654500D03*
X46529500Y11554500D03*
D19*
X44579500Y14573250D03*
X46479500Y14573250D03*
D17*
X42068750Y-8000000D03*
X42068750Y-4700000D03*
X74612500Y62500D03*
X74612500Y-3237500D03*
X93662500Y-3237500D03*
X93662500Y62500D03*
X96837500Y62500D03*
X96837500Y-3237500D03*
D13*
X50145000Y2808800D03*
D15*
X50125000Y2518800D02*
X50165000Y3098800D01*
D13*
X50165000Y3098800D03*
X44470001Y1288800D03*
D15*
X43815000Y558800D02*
X45125002Y2018800D01*
D14*
X47625000Y-1981200D03*
D13*
X45125000Y2018800D03*
D12*
X46355000Y-7061200D03*
D11*
X48895000Y-7061200D03*
D10*
X42545000Y-1981200D03*
X52705000Y-1981200D03*
X71755000Y-1981200D03*
X61595000Y-1981200D03*
D11*
X67945000Y-7061200D03*
D12*
X65405000Y-7061200D03*
D13*
X64175000Y2018800D03*
D14*
X66675000Y-1981200D03*
D13*
X63520001Y1288800D03*
D15*
X62865000Y558800D02*
X64175002Y2018800D01*
D13*
X69215000Y3098800D03*
X69195000Y2808800D03*
D15*
X69175000Y2518800D02*
X69215000Y3098800D01*
D13*
X88245000Y2808800D03*
D15*
X88225000Y2518800D02*
X88265000Y3098800D01*
D13*
X88265000Y3098800D03*
X82570001Y1288800D03*
D15*
X81915000Y558800D02*
X83225002Y2018800D01*
D14*
X85725000Y-1981200D03*
D13*
X83225000Y2018800D03*
D12*
X84455000Y-7061200D03*
D11*
X86995000Y-7061200D03*
D10*
X80645000Y-1981200D03*
X90805000Y-1981200D03*
X109855000Y-1981200D03*
X99695000Y-1981200D03*
D11*
X106045000Y-7061200D03*
D12*
X103505000Y-7061200D03*
D13*
X102275000Y2018800D03*
D14*
X104775000Y-1981200D03*
D13*
X101620001Y1288800D03*
D15*
X100965000Y558800D02*
X102275002Y2018800D01*
D13*
X107315000Y3098800D03*
X107295000Y2808800D03*
D15*
X107275000Y2518800D02*
X107315000Y3098800D01*
D20*
X42068750Y-12856250D03*
X42068750Y-10956250D03*
X74612500Y-6193750D03*
X74612500Y-8093750D03*
X93662500Y-8093750D03*
X93662500Y-6193750D03*
X96837500Y-6193750D03*
X96837500Y-8093750D03*
D27*
X60801250Y13493750D03*
X58261250Y13493750D03*
X55721250Y13493750D03*
D28*
X53181250Y13493750D03*
D29*
X59696000Y-14863500D03*
X58896000Y-14863500D03*
X58096000Y-14863500D03*
X57296000Y-14863500D03*
X56496000Y-14863500D03*
X55696000Y-14863500D03*
X54896000Y-14863500D03*
X54096000Y-14863500D03*
D30*
X52646000Y-16313500D03*
X52646000Y-17113500D03*
X52646000Y-17913500D03*
X52646000Y-18713500D03*
X52646000Y-19513500D03*
X52646000Y-20313500D03*
X52646000Y-21113500D03*
X52646000Y-21913500D03*
D29*
X54096000Y-23363500D03*
X54896000Y-23363500D03*
X55696000Y-23363500D03*
X56496000Y-23363500D03*
X57296000Y-23363500D03*
X58096000Y-23363500D03*
X58896000Y-23363500D03*
X59696000Y-23363500D03*
D30*
X61146000Y-21913500D03*
X61146000Y-21113500D03*
X61146000Y-20313500D03*
X61146000Y-19513500D03*
X61146000Y-18713500D03*
X61146000Y-17913500D03*
X61146000Y-17113500D03*
X61146000Y-16313500D03*
D31*
X53975000Y-48362500D03*
X53975000Y-50062500D03*
X57150000Y-50062500D03*
X57150000Y-48362500D03*
D32*
X71437500Y15081250D03*
X80962500Y15081250D03*
M02*
