%TF.GenerationSoftware,KiCad,Pcbnew,(5.0.0)*%
%TF.CreationDate,2019-01-26T20:31:16-08:00*%
%TF.ProjectId,Voyager20,566F796167657232302E6B696361645F,rev?*%
%TF.SameCoordinates,Original*%
%TF.FileFunction,Copper,L2,Bot,Signal*%
%TF.FilePolarity,Positive*%
%FSLAX46Y46*%
G04 Gerber Fmt 4.6, Leading zero omitted, Abs format (unit mm)*
G04 Created by KiCad (PCBNEW (5.0.0)) date 01/26/19 20:31:16*
%MOMM*%
%LPD*%
G01*
G04 APERTURE LIST*
%ADD10R,0.750000X0.800000*%
%ADD11R,0.800000X0.750000*%
%ADD12R,1.200000X0.900000*%
%ADD13R,1.000000X1.600000*%
%ADD14R,2.030000X1.140000*%
%ADD15R,1.905000X1.905000*%
%ADD16C,1.905000*%
%ADD17C,2.250000*%
%ADD18C,2.250000*%
%ADD19R,1.300000X0.700000*%
%ADD20R,0.700000X1.300000*%
%ADD21R,1.800000X1.100000*%
%ADD22R,0.700000X0.600000*%
%ADD23R,0.700000X1.000000*%
%ADD24O,1.000000X1.600000*%
%ADD25O,1.000000X2.100000*%
%ADD26R,0.300000X1.450000*%
%ADD27R,0.600000X1.450000*%
%ADD28R,1.400000X1.200000*%
%ADD29R,1.725000X1.725000*%
%ADD30R,0.700000X0.250000*%
%ADD31R,0.250000X0.700000*%
%ADD32R,0.900000X0.800000*%
%ADD33C,0.600000*%
%ADD34C,0.254000*%
%ADD35C,0.381000*%
%ADD36C,0.203200*%
G04 APERTURE END LIST*
D10*
X74930000Y-57646000D03*
X74930000Y-56146000D03*
X77470000Y-56146000D03*
X77470000Y-57646000D03*
X72771000Y-71489000D03*
X72771000Y-69989000D03*
X80645000Y-63488000D03*
X80645000Y-61988000D03*
D11*
X71132000Y-67437000D03*
X72632000Y-67437000D03*
D10*
X71882000Y-63512000D03*
X71882000Y-65012000D03*
D11*
X58781250Y-34131250D03*
X60281250Y-34131250D03*
D10*
X99218750Y-29325000D03*
X99218750Y-27825000D03*
X63500000Y-107112500D03*
X63500000Y-105612500D03*
X88900000Y-105612500D03*
X88900000Y-107112500D03*
D12*
X42068750Y-42006250D03*
X42068750Y-45306250D03*
X74612500Y-41337500D03*
X74612500Y-38037500D03*
X77787500Y-38037500D03*
X77787500Y-41337500D03*
X93662500Y-41337500D03*
X93662500Y-38037500D03*
X42068750Y-64356250D03*
X42068750Y-61056250D03*
X58737500Y-57087500D03*
X58737500Y-60387500D03*
X92868750Y-64356250D03*
X92868750Y-61056250D03*
X96043750Y-61056250D03*
X96043750Y-64356250D03*
D13*
X61131250Y-31075000D03*
X57931250Y-31075000D03*
X61131250Y-26075000D03*
X57931250Y-26075000D03*
D12*
X55562500Y-79437500D03*
X55562500Y-76137500D03*
X58737500Y-76137500D03*
X58737500Y-79437500D03*
X92868750Y-72168750D03*
X92868750Y-75468750D03*
X96043750Y-75468750D03*
X96043750Y-72168750D03*
X55562500Y-91343750D03*
X55562500Y-88043750D03*
X58737500Y-88043750D03*
X58737500Y-91343750D03*
X77787500Y-95187500D03*
X77787500Y-98487500D03*
X74612500Y-98487500D03*
X74612500Y-95187500D03*
D13*
X92856250Y-26075000D03*
X96056250Y-26075000D03*
X92856250Y-31075000D03*
X96056250Y-31075000D03*
D12*
X53975000Y-102331250D03*
X53975000Y-105631250D03*
X74612500Y-115950000D03*
X74612500Y-112650000D03*
X77787500Y-112650000D03*
X77787500Y-115950000D03*
X94456250Y-112775000D03*
X94456250Y-109475000D03*
D13*
X95262500Y-104893750D03*
X92062500Y-104893750D03*
X95262500Y-99893750D03*
X92062500Y-99893750D03*
X57137500Y-99893750D03*
X60337500Y-99893750D03*
X57137500Y-104893750D03*
X60337500Y-104893750D03*
D14*
X52387500Y-26581250D03*
X52387500Y-28981250D03*
D15*
X48895000Y-44767500D03*
D16*
X46355000Y-44767500D03*
D17*
X45125000Y-35687500D03*
X44470001Y-36417500D03*
D18*
X43815000Y-37147500D02*
X45125002Y-35687500D01*
D17*
X50165000Y-34607500D03*
X50145000Y-34897500D03*
D18*
X50125000Y-35187500D02*
X50165000Y-34607500D01*
D15*
X67945000Y-44767500D03*
D16*
X65405000Y-44767500D03*
D17*
X64175000Y-35687500D03*
X63520001Y-36417500D03*
D18*
X62865000Y-37147500D02*
X64175002Y-35687500D01*
D17*
X69215000Y-34607500D03*
X69195000Y-34897500D03*
D18*
X69175000Y-35187500D02*
X69215000Y-34607500D01*
D17*
X88245000Y-34897500D03*
D18*
X88225000Y-35187500D02*
X88265000Y-34607500D01*
D17*
X88265000Y-34607500D03*
X82570001Y-36417500D03*
D18*
X81915000Y-37147500D02*
X83225002Y-35687500D01*
D17*
X83225000Y-35687500D03*
D16*
X84455000Y-44767500D03*
D15*
X86995000Y-44767500D03*
D17*
X107295000Y-34897500D03*
D18*
X107275000Y-35187500D02*
X107315000Y-34607500D01*
D17*
X107315000Y-34607500D03*
X101620001Y-36417500D03*
D18*
X100965000Y-37147500D02*
X102275002Y-35687500D01*
D17*
X102275000Y-35687500D03*
D16*
X103505000Y-44767500D03*
D15*
X106045000Y-44767500D03*
X48895000Y-63817500D03*
D16*
X46355000Y-63817500D03*
D17*
X45125000Y-54737500D03*
X44470001Y-55467500D03*
D18*
X43815000Y-56197500D02*
X45125002Y-54737500D01*
D17*
X50165000Y-53657500D03*
X50145000Y-53947500D03*
D18*
X50125000Y-54237500D02*
X50165000Y-53657500D01*
D17*
X69195000Y-53947500D03*
D18*
X69175000Y-54237500D02*
X69215000Y-53657500D01*
D17*
X69215000Y-53657500D03*
X63520001Y-55467500D03*
D18*
X62865000Y-56197500D02*
X64175002Y-54737500D01*
D17*
X64175000Y-54737500D03*
D16*
X65405000Y-63817500D03*
D15*
X67945000Y-63817500D03*
D17*
X88245000Y-53947500D03*
D18*
X88225000Y-54237500D02*
X88265000Y-53657500D01*
D17*
X88265000Y-53657500D03*
X82570001Y-55467500D03*
D18*
X81915000Y-56197500D02*
X83225002Y-54737500D01*
D17*
X83225000Y-54737500D03*
D16*
X84455000Y-63817500D03*
D15*
X86995000Y-63817500D03*
D17*
X107295000Y-53947500D03*
D18*
X107275000Y-54237500D02*
X107315000Y-53657500D01*
D17*
X107315000Y-53657500D03*
X101620001Y-55467500D03*
D18*
X100965000Y-56197500D02*
X102275002Y-54737500D01*
D17*
X102275000Y-54737500D03*
D16*
X103505000Y-63817500D03*
D15*
X106045000Y-63817500D03*
X48895000Y-82867500D03*
D16*
X46355000Y-82867500D03*
D17*
X45125000Y-73787500D03*
X44470001Y-74517500D03*
D18*
X43815000Y-75247500D02*
X45125002Y-73787500D01*
D17*
X50165000Y-72707500D03*
X50145000Y-72997500D03*
D18*
X50125000Y-73287500D02*
X50165000Y-72707500D01*
D17*
X69195000Y-72997500D03*
D18*
X69175000Y-73287500D02*
X69215000Y-72707500D01*
D17*
X69215000Y-72707500D03*
X63520001Y-74517500D03*
D18*
X62865000Y-75247500D02*
X64175002Y-73787500D01*
D17*
X64175000Y-73787500D03*
D16*
X65405000Y-82867500D03*
D15*
X67945000Y-82867500D03*
X86995000Y-82867500D03*
D16*
X84455000Y-82867500D03*
D17*
X83225000Y-73787500D03*
X82570001Y-74517500D03*
D18*
X81915000Y-75247500D02*
X83225002Y-73787500D01*
D17*
X88265000Y-72707500D03*
X88245000Y-72997500D03*
D18*
X88225000Y-73287500D02*
X88265000Y-72707500D01*
D15*
X106045000Y-82867500D03*
D16*
X103505000Y-82867500D03*
D17*
X102275000Y-73787500D03*
X101620001Y-74517500D03*
D18*
X100965000Y-75247500D02*
X102275002Y-73787500D01*
D17*
X107315000Y-72707500D03*
X107295000Y-72997500D03*
D18*
X107275000Y-73287500D02*
X107315000Y-72707500D01*
D15*
X48895000Y-101917500D03*
D16*
X46355000Y-101917500D03*
D17*
X45125000Y-92837500D03*
X44470001Y-93567500D03*
D18*
X43815000Y-94297500D02*
X45125002Y-92837500D01*
D17*
X50165000Y-91757500D03*
X50145000Y-92047500D03*
D18*
X50125000Y-92337500D02*
X50165000Y-91757500D01*
D17*
X69195000Y-92047500D03*
D18*
X69175000Y-92337500D02*
X69215000Y-91757500D01*
D17*
X69215000Y-91757500D03*
X63520001Y-93567500D03*
D18*
X62865000Y-94297500D02*
X64175002Y-92837500D01*
D17*
X64175000Y-92837500D03*
D16*
X65405000Y-101917500D03*
D15*
X67945000Y-101917500D03*
X86995000Y-101917500D03*
D16*
X84455000Y-101917500D03*
D17*
X83225000Y-92837500D03*
X82570001Y-93567500D03*
D18*
X81915000Y-94297500D02*
X83225002Y-92837500D01*
D17*
X88265000Y-91757500D03*
X88245000Y-92047500D03*
D18*
X88225000Y-92337500D02*
X88265000Y-91757500D01*
D17*
X107295000Y-92047500D03*
D18*
X107275000Y-92337500D02*
X107315000Y-91757500D01*
D17*
X107315000Y-91757500D03*
X101620001Y-93567500D03*
D18*
X100965000Y-94297500D02*
X102275002Y-92837500D01*
D17*
X102275000Y-92837500D03*
D16*
X103505000Y-101917500D03*
D15*
X106045000Y-101917500D03*
D17*
X50145000Y-111097500D03*
D18*
X50125000Y-111387500D02*
X50165000Y-110807500D01*
D17*
X50165000Y-110807500D03*
X44470001Y-112617500D03*
D18*
X43815000Y-113347500D02*
X45125002Y-111887500D01*
D17*
X45125000Y-111887500D03*
D16*
X46355000Y-120967500D03*
D15*
X48895000Y-120967500D03*
X67945000Y-120967500D03*
D16*
X65405000Y-120967500D03*
D17*
X64175000Y-111887500D03*
X63520001Y-112617500D03*
D18*
X62865000Y-113347500D02*
X64175002Y-111887500D01*
D17*
X69215000Y-110807500D03*
X69195000Y-111097500D03*
D18*
X69175000Y-111387500D02*
X69215000Y-110807500D01*
D17*
X88245000Y-111097500D03*
D18*
X88225000Y-111387500D02*
X88265000Y-110807500D01*
D17*
X88265000Y-110807500D03*
X82570001Y-112617500D03*
D18*
X81915000Y-113347500D02*
X83225002Y-111887500D01*
D17*
X83225000Y-111887500D03*
D16*
X84455000Y-120967500D03*
D15*
X86995000Y-120967500D03*
X106045000Y-120967500D03*
D16*
X103505000Y-120967500D03*
D17*
X102275000Y-111887500D03*
X101620001Y-112617500D03*
D18*
X100965000Y-113347500D02*
X102275002Y-111887500D01*
D17*
X107315000Y-110807500D03*
X107295000Y-111097500D03*
D18*
X107275000Y-111387500D02*
X107315000Y-110807500D01*
D19*
X88900000Y-86362500D03*
X88900000Y-88262500D03*
D20*
X60168750Y-66675000D03*
X62068750Y-66675000D03*
X60168750Y-69850000D03*
X62068750Y-69850000D03*
D19*
X61118750Y-18100000D03*
X61118750Y-20000000D03*
D20*
X86421000Y-68453000D03*
X84521000Y-68453000D03*
D19*
X50800000Y-16825000D03*
X50800000Y-14925000D03*
D20*
X46675000Y-49212500D03*
X48575000Y-49212500D03*
D19*
X74612500Y-46193750D03*
X74612500Y-44293750D03*
X77787500Y-44293750D03*
X77787500Y-46193750D03*
X96837500Y-40637500D03*
X96837500Y-38737500D03*
X53181250Y-65243750D03*
X53181250Y-63343750D03*
X69850000Y-59687500D03*
X69850000Y-57787500D03*
X92868750Y-69212500D03*
X92868750Y-67312500D03*
X96043750Y-67312500D03*
X96043750Y-69212500D03*
X55562500Y-82393750D03*
X55562500Y-84293750D03*
X58737500Y-84293750D03*
X58737500Y-82393750D03*
X80168750Y-82393750D03*
X80168750Y-84293750D03*
D20*
X105725000Y-87312500D03*
X103825000Y-87312500D03*
D19*
X55562500Y-94300000D03*
X55562500Y-96200000D03*
X58737500Y-94300000D03*
X58737500Y-96200000D03*
X77787500Y-101443750D03*
X77787500Y-103343750D03*
X74612500Y-101443750D03*
X74612500Y-103343750D03*
X52387500Y-120012500D03*
X52387500Y-118112500D03*
X61912500Y-118112500D03*
X61912500Y-120012500D03*
X77787500Y-120806250D03*
X77787500Y-118906250D03*
X91281250Y-118906250D03*
X91281250Y-120806250D03*
D21*
X98350000Y-85462500D03*
X92150000Y-89162500D03*
X98350000Y-89162500D03*
X92150000Y-85462500D03*
D22*
X56150000Y-16825000D03*
X58150000Y-16825000D03*
X56150000Y-14925000D03*
D23*
X58150000Y-15125000D03*
D24*
X61470000Y-5775000D03*
X52830000Y-5775000D03*
D25*
X61470000Y-9955000D03*
X52830000Y-9955000D03*
D26*
X56900000Y-10870000D03*
X57400000Y-10870000D03*
X57900000Y-10870000D03*
X56400000Y-10870000D03*
X58400000Y-10870000D03*
X55900000Y-10870000D03*
X58900000Y-10870000D03*
X55400000Y-10870000D03*
D27*
X54700000Y-10870000D03*
X59600000Y-10870000D03*
X53925000Y-10870000D03*
X60375000Y-10870000D03*
D28*
X75100000Y-61968750D03*
X77300000Y-61968750D03*
X77300000Y-60268750D03*
X75100000Y-60268750D03*
D17*
X99985000Y-65742500D03*
D18*
X100275000Y-65762500D02*
X99695000Y-65722500D01*
D17*
X99695000Y-65722500D03*
X101505000Y-71417499D03*
D18*
X102235000Y-72072500D02*
X100775000Y-70762498D01*
D17*
X100775000Y-70762500D03*
D16*
X109855000Y-69532500D03*
D15*
X109855000Y-66992500D03*
X109855000Y-105092500D03*
D16*
X109855000Y-107632500D03*
D17*
X100775000Y-108862500D03*
X101505000Y-109517499D03*
D18*
X102235000Y-110172500D02*
X100775000Y-108862498D01*
D17*
X99695000Y-103822500D03*
X99985000Y-103842500D03*
D18*
X100275000Y-103862500D02*
X99695000Y-103822500D01*
D17*
X59670000Y-111097500D03*
D18*
X59650000Y-111387500D02*
X59690000Y-110807500D01*
D17*
X59690000Y-110807500D03*
X53995001Y-112617500D03*
D18*
X53340000Y-113347500D02*
X54650002Y-111887500D01*
D17*
X54650000Y-111887500D03*
D16*
X55880000Y-120967500D03*
D15*
X58420000Y-120967500D03*
D29*
X76925000Y-68193750D03*
X78650000Y-68193750D03*
X76925000Y-69918750D03*
X78650000Y-69918750D03*
D30*
X75387500Y-67306250D03*
X75387500Y-67806250D03*
X75387500Y-68306250D03*
X75387500Y-68806250D03*
X75387500Y-69306250D03*
X75387500Y-69806250D03*
X75387500Y-70306250D03*
X75387500Y-70806250D03*
D31*
X76037500Y-71456250D03*
X76537500Y-71456250D03*
X77037500Y-71456250D03*
X77537500Y-71456250D03*
X78037500Y-71456250D03*
X78537500Y-71456250D03*
X79037500Y-71456250D03*
X79537500Y-71456250D03*
D30*
X80187500Y-70806250D03*
X80187500Y-70306250D03*
X80187500Y-69806250D03*
X80187500Y-69306250D03*
X80187500Y-68806250D03*
X80187500Y-68306250D03*
X80187500Y-67806250D03*
X80187500Y-67306250D03*
D31*
X79537500Y-66656250D03*
X79037500Y-66656250D03*
X78537500Y-66656250D03*
X78037500Y-66656250D03*
X77537500Y-66656250D03*
X77037500Y-66656250D03*
X76537500Y-66656250D03*
X76037500Y-66656250D03*
D32*
X73612500Y-86518750D03*
X75612500Y-87468750D03*
X75612500Y-85568750D03*
D20*
X73662500Y-82550000D03*
X75562500Y-82550000D03*
D12*
X42068750Y-21493750D03*
X42068750Y-18193750D03*
X74612500Y-14225000D03*
X74612500Y-17525000D03*
X93662500Y-17525000D03*
X93662500Y-14225000D03*
X96837500Y-14225000D03*
X96837500Y-17525000D03*
D17*
X50145000Y-11085000D03*
D18*
X50125000Y-11375000D02*
X50165000Y-10795000D01*
D17*
X50165000Y-10795000D03*
X44470001Y-12605000D03*
D18*
X43815000Y-13335000D02*
X45125002Y-11875000D01*
D17*
X45125000Y-11875000D03*
D16*
X46355000Y-20955000D03*
D15*
X48895000Y-20955000D03*
X67945000Y-20955000D03*
D16*
X65405000Y-20955000D03*
D17*
X64175000Y-11875000D03*
X63520001Y-12605000D03*
D18*
X62865000Y-13335000D02*
X64175002Y-11875000D01*
D17*
X69215000Y-10795000D03*
X69195000Y-11085000D03*
D18*
X69175000Y-11375000D02*
X69215000Y-10795000D01*
D17*
X88245000Y-11085000D03*
D18*
X88225000Y-11375000D02*
X88265000Y-10795000D01*
D17*
X88265000Y-10795000D03*
X82570001Y-12605000D03*
D18*
X81915000Y-13335000D02*
X83225002Y-11875000D01*
D17*
X83225000Y-11875000D03*
D16*
X84455000Y-20955000D03*
D15*
X86995000Y-20955000D03*
X106045000Y-20955000D03*
D16*
X103505000Y-20955000D03*
D17*
X102275000Y-11875000D03*
X101620001Y-12605000D03*
D18*
X100965000Y-13335000D02*
X102275002Y-11875000D01*
D17*
X107315000Y-10795000D03*
X107295000Y-11085000D03*
D18*
X107275000Y-11375000D02*
X107315000Y-10795000D01*
D19*
X42068750Y-26350000D03*
X42068750Y-24450000D03*
X74612500Y-20481250D03*
X74612500Y-22381250D03*
X93662500Y-22381250D03*
X93662500Y-20481250D03*
X96837500Y-20481250D03*
X96837500Y-22381250D03*
D33*
X69977000Y-67437000D03*
X71628000Y-69977000D03*
X90043000Y-105537000D03*
X92075000Y-101346000D03*
X99949000Y-85471000D03*
X70485000Y-64897000D03*
X81661000Y-69977000D03*
X93726000Y-83185000D03*
X52197000Y-17399000D03*
X96393000Y-28321000D03*
X96393000Y-24003000D03*
X72644000Y-66167000D03*
X54483000Y-66294000D03*
X64516000Y-107061000D03*
X83566000Y-106172000D03*
X83566000Y-86360000D03*
X80645000Y-64643000D03*
X69977000Y-66167000D03*
X64516000Y-31115000D03*
X102616000Y-29337000D03*
X45466000Y-28956000D03*
X52451000Y-30353000D03*
X81788000Y-51562000D03*
X81788000Y-41783000D03*
X71755000Y-80391000D03*
X80645000Y-80137000D03*
X71755000Y-81915000D03*
X71755000Y-94996000D03*
X58547000Y-13335000D03*
X55880000Y-13335000D03*
X95250000Y-70866000D03*
X81788000Y-88519000D03*
X71755000Y-79502000D03*
X78740000Y-72644000D03*
X65532000Y-47244000D03*
X59690000Y-45847000D03*
X59690000Y-26162000D03*
X93980000Y-99822000D03*
X92837000Y-32766000D03*
X55245000Y-19177000D03*
X59055000Y-66675000D03*
X56134000Y-19177000D03*
X59055000Y-69850000D03*
X58547000Y-12446000D03*
X60198000Y-17018000D03*
X55880000Y-12446000D03*
X52197000Y-14097000D03*
X76327000Y-84328000D03*
X76327000Y-115697000D03*
X55499000Y-81280000D03*
X50292000Y-61087000D03*
X55499000Y-93218000D03*
X54483000Y-118110000D03*
X74549000Y-100330000D03*
X74549000Y-88900000D03*
X92837000Y-66167000D03*
X46736000Y-47752000D03*
X92837000Y-90589090D03*
X94996000Y-43053000D03*
X52705000Y-19177000D03*
X63373000Y-19304000D03*
X98298000Y-20447000D03*
X98298000Y-38735000D03*
X52705000Y-18161000D03*
X63373000Y-18161000D03*
X89154000Y-67310000D03*
X91694000Y-18034000D03*
D34*
X76037500Y-66656250D02*
X76037500Y-65115500D01*
X76037500Y-65115500D02*
X73787000Y-62865000D01*
X73787000Y-62865000D02*
X73787000Y-60960000D01*
X74478250Y-60268750D02*
X75100000Y-60268750D01*
X73787000Y-60960000D02*
X74478250Y-60268750D01*
X74930000Y-60098750D02*
X75100000Y-60268750D01*
X74930000Y-57646000D02*
X74930000Y-60098750D01*
D35*
X77470000Y-56146000D02*
X74930000Y-56146000D01*
X78244000Y-56146000D02*
X77470000Y-56146000D01*
D34*
X77037500Y-66656250D02*
X77037500Y-64694500D01*
D35*
X78740000Y-61849000D02*
X79121000Y-61468000D01*
X79121000Y-61468000D02*
X79121000Y-57023000D01*
X79121000Y-57023000D02*
X78244000Y-56146000D01*
D34*
X75387500Y-69306250D02*
X74203750Y-69306250D01*
X73521000Y-69989000D02*
X72771000Y-69989000D01*
X74203750Y-69306250D02*
X73521000Y-69989000D01*
X75387500Y-69306250D02*
X76235750Y-69306250D01*
X77037500Y-68504500D02*
X77037500Y-66656250D01*
X76235750Y-69306250D02*
X77037500Y-68504500D01*
D35*
X80645000Y-61988000D02*
X79744000Y-61988000D01*
D34*
X77037500Y-64694500D02*
X77037500Y-64567500D01*
D35*
X79617000Y-61988000D02*
X78613000Y-62992000D01*
X79744000Y-61988000D02*
X79617000Y-61988000D01*
X78740000Y-62865000D02*
X78613000Y-62992000D01*
X78740000Y-61849000D02*
X78740000Y-62865000D01*
X78740000Y-62865000D02*
X77089000Y-64516000D01*
D34*
X77089000Y-64516000D02*
X77037500Y-64567500D01*
D35*
X75100000Y-61968750D02*
X75343650Y-61968750D01*
X77043650Y-60268750D02*
X77300000Y-60268750D01*
D36*
X75343650Y-61968750D02*
X77043650Y-60268750D01*
D35*
X71132000Y-66687000D02*
X71132000Y-67437000D01*
X70866000Y-66421000D02*
X71132000Y-66687000D01*
X71882000Y-63512000D02*
X71108000Y-63512000D01*
X71108000Y-63512000D02*
X70866000Y-63754000D01*
X63500000Y-105612500D02*
X63500000Y-104902000D01*
X63500000Y-104902000D02*
X59944000Y-101346000D01*
X59944000Y-101346000D02*
X58293000Y-101346000D01*
X57137500Y-100190500D02*
X57137500Y-99893750D01*
X58293000Y-101346000D02*
X57137500Y-100190500D01*
X71132000Y-67437000D02*
X69977000Y-67437000D01*
X71640000Y-69989000D02*
X72771000Y-69989000D01*
X71628000Y-69977000D02*
X71640000Y-69989000D01*
X98035500Y-85462500D02*
X96139000Y-83566000D01*
X98350000Y-85462500D02*
X98035500Y-85462500D01*
X88900000Y-105612500D02*
X89967500Y-105612500D01*
X89967500Y-105612500D02*
X90043000Y-105537000D01*
X92062500Y-101333500D02*
X92062500Y-99893750D01*
X92075000Y-101346000D02*
X92062500Y-101333500D01*
X88900000Y-105612500D02*
X88138000Y-105612500D01*
X64186500Y-105612500D02*
X63500000Y-105612500D01*
X88138000Y-105612500D02*
X87935500Y-105410000D01*
X87935500Y-105410000D02*
X75362500Y-105410000D01*
X75362500Y-105410000D02*
X74854500Y-104902000D01*
X74854500Y-104902000D02*
X64897000Y-104902000D01*
X64897000Y-104902000D02*
X64186500Y-105612500D01*
X98350000Y-85462500D02*
X99940500Y-85462500D01*
X99940500Y-85462500D02*
X99949000Y-85471000D01*
X70866000Y-64897000D02*
X70485000Y-64897000D01*
X70866000Y-64897000D02*
X70866000Y-66421000D01*
X70866000Y-63754000D02*
X70866000Y-64897000D01*
X86421000Y-68453000D02*
X86421000Y-69408000D01*
X85852000Y-69977000D02*
X81661000Y-69977000D01*
X86421000Y-69408000D02*
X85852000Y-69977000D01*
X93726000Y-83185000D02*
X93726000Y-83566000D01*
X93726000Y-83566000D02*
X96139000Y-83566000D01*
X61470000Y-9955000D02*
X61470000Y-5775000D01*
X61470000Y-5775000D02*
X52830000Y-5775000D01*
X52830000Y-5775000D02*
X52830000Y-9955000D01*
X61290000Y-9955000D02*
X60375000Y-10870000D01*
X61470000Y-9955000D02*
X61290000Y-9955000D01*
X53010000Y-9955000D02*
X53925000Y-10870000D01*
X52830000Y-9955000D02*
X53010000Y-9955000D01*
X60375000Y-10870000D02*
X60375000Y-12777000D01*
X58150000Y-15002000D02*
X58150000Y-15125000D01*
X60375000Y-12777000D02*
X58150000Y-15002000D01*
X50800000Y-16825000D02*
X51115000Y-16825000D01*
X51115000Y-16825000D02*
X51689000Y-17399000D01*
X51689000Y-17399000D02*
X52197000Y-17399000D01*
X94606250Y-27825000D02*
X92856250Y-26075000D01*
X56769000Y-27237250D02*
X57931250Y-26075000D01*
X58642250Y-34131250D02*
X56769000Y-32258000D01*
X58781250Y-34131250D02*
X58642250Y-34131250D01*
X56769000Y-32258000D02*
X56769000Y-27237250D01*
X96393000Y-28321000D02*
X96393000Y-27825000D01*
X99218750Y-27825000D02*
X96393000Y-27825000D01*
X96393000Y-27825000D02*
X94606250Y-27825000D01*
X57931250Y-26075000D02*
X57931250Y-26308250D01*
X57931250Y-26308250D02*
X60706000Y-29083000D01*
X60706000Y-29083000D02*
X86614000Y-29083000D01*
X86614000Y-29083000D02*
X91694000Y-24003000D01*
X91694000Y-24003000D02*
X96393000Y-24003000D01*
X60132000Y-20000000D02*
X61118750Y-20000000D01*
X59281000Y-19149000D02*
X60132000Y-20000000D01*
X59281000Y-16256000D02*
X59281000Y-19149000D01*
X58150000Y-15125000D02*
X59281000Y-16256000D01*
X61118750Y-22887500D02*
X57931250Y-26075000D01*
X61118750Y-20000000D02*
X61118750Y-22887500D01*
X92837000Y-83566000D02*
X90297000Y-81026000D01*
X93726000Y-83566000D02*
X92837000Y-83566000D01*
X90297000Y-81026000D02*
X79375000Y-81026000D01*
X79375000Y-81026000D02*
X77089000Y-83312000D01*
X76488250Y-87468750D02*
X75612500Y-87468750D01*
X77089000Y-83312000D02*
X77089000Y-86868000D01*
X77089000Y-86868000D02*
X76488250Y-87468750D01*
D34*
X77300000Y-62864500D02*
X76537500Y-63627000D01*
X77300000Y-61968750D02*
X77300000Y-62864500D01*
X76537500Y-66656250D02*
X76537500Y-63627000D01*
X77300000Y-61968750D02*
X77731250Y-61968750D01*
X77731250Y-61968750D02*
X78486000Y-61214000D01*
X78486000Y-61214000D02*
X78486000Y-59309000D01*
X77470000Y-58293000D02*
X77470000Y-57646000D01*
X78486000Y-59309000D02*
X77470000Y-58293000D01*
X75387500Y-69806250D02*
X74465750Y-69806250D01*
X72783000Y-71489000D02*
X74465750Y-69806250D01*
X72771000Y-71489000D02*
X72783000Y-71489000D01*
X73001250Y-67806250D02*
X72632000Y-67437000D01*
X75387500Y-67806250D02*
X73001250Y-67806250D01*
X75387500Y-67306250D02*
X74799250Y-67306250D01*
X72505000Y-65012000D02*
X71882000Y-65012000D01*
X74799250Y-67306250D02*
X72505000Y-65012000D01*
X77537500Y-65210500D02*
X77537500Y-65278000D01*
X77537500Y-65278000D02*
X77537500Y-66656250D01*
X77537500Y-65083500D02*
X77537500Y-65278000D01*
X77597000Y-65024000D02*
X77537500Y-65083500D01*
D35*
X72632000Y-66179000D02*
X72632000Y-67437000D01*
X72644000Y-66167000D02*
X72632000Y-66179000D01*
X71882000Y-65012000D02*
X71882000Y-65659000D01*
X72390000Y-66167000D02*
X72644000Y-66167000D01*
X71882000Y-65659000D02*
X72390000Y-66167000D01*
X80645000Y-63488000D02*
X80633000Y-63488000D01*
X80530000Y-63373000D02*
X80645000Y-63488000D01*
X77597000Y-65024000D02*
X79248000Y-63373000D01*
X79248000Y-63373000D02*
X80530000Y-63373000D01*
X93043750Y-107112500D02*
X95262500Y-104893750D01*
X88900000Y-107112500D02*
X93043750Y-107112500D01*
X60337500Y-104893750D02*
X60337500Y-105041500D01*
X62408500Y-107112500D02*
X62992000Y-107112500D01*
X60337500Y-105041500D02*
X62408500Y-107112500D01*
X63500000Y-107112500D02*
X62992000Y-107112500D01*
X69342000Y-66167000D02*
X63754000Y-66167000D01*
X63754000Y-66167000D02*
X62865000Y-65278000D01*
X62865000Y-65278000D02*
X55626000Y-65278000D01*
X55626000Y-65278000D02*
X55499000Y-65278000D01*
X55499000Y-65278000D02*
X54483000Y-66294000D01*
X65405000Y-44767500D02*
X65405000Y-45974000D01*
X65405000Y-45974000D02*
X66802000Y-47371000D01*
X66802000Y-47371000D02*
X83185000Y-47371000D01*
X84455000Y-46101000D02*
X84455000Y-44767500D01*
X83185000Y-47371000D02*
X84455000Y-46101000D01*
X63500000Y-107112500D02*
X64464500Y-107112500D01*
X64464500Y-107112500D02*
X64516000Y-107061000D01*
X88900000Y-107112500D02*
X88189500Y-107112500D01*
X88189500Y-107112500D02*
X87122000Y-106045000D01*
X87122000Y-106045000D02*
X83693000Y-106045000D01*
X83693000Y-106045000D02*
X83566000Y-106172000D01*
X102552500Y-43815000D02*
X103505000Y-44767500D01*
X90932000Y-43815000D02*
X102552500Y-43815000D01*
X88900000Y-86362500D02*
X83568500Y-86362500D01*
X83568500Y-86362500D02*
X83566000Y-86360000D01*
X80645000Y-63488000D02*
X80645000Y-64643000D01*
X69342000Y-66167000D02*
X69977000Y-66167000D01*
X97806250Y-29325000D02*
X96056250Y-31075000D01*
X99218750Y-29325000D02*
X97806250Y-29325000D01*
X60281250Y-31925000D02*
X61131250Y-31075000D01*
X60281250Y-34131250D02*
X60281250Y-31925000D01*
X61131250Y-31075000D02*
X64476000Y-31075000D01*
X64476000Y-31075000D02*
X64516000Y-31115000D01*
X99218750Y-29325000D02*
X102604000Y-29325000D01*
X102604000Y-29325000D02*
X102616000Y-29337000D01*
X52387500Y-28981250D02*
X45491250Y-28981250D01*
X45491250Y-28981250D02*
X45466000Y-28956000D01*
X52451000Y-29044750D02*
X52387500Y-28981250D01*
X52451000Y-30353000D02*
X52451000Y-29044750D01*
X84836000Y-46482000D02*
X84455000Y-46101000D01*
X88265000Y-46482000D02*
X84836000Y-46482000D01*
X88265000Y-46482000D02*
X90932000Y-43815000D01*
D34*
X77787500Y-41337500D02*
X74612500Y-41337500D01*
X92774500Y-41337500D02*
X93662500Y-41337500D01*
X91948000Y-42164000D02*
X92774500Y-41337500D01*
X78675500Y-41337500D02*
X79502000Y-42164000D01*
X77787500Y-41337500D02*
X78675500Y-41337500D01*
X81915000Y-41910000D02*
X81915000Y-42164000D01*
X81788000Y-41783000D02*
X81915000Y-41910000D01*
X79502000Y-42164000D02*
X81915000Y-42164000D01*
X81915000Y-42164000D02*
X91948000Y-42164000D01*
X79248000Y-65786000D02*
X79037500Y-65996500D01*
X81534000Y-65786000D02*
X79248000Y-65786000D01*
X82550000Y-64770000D02*
X81534000Y-65786000D01*
X82550000Y-62865000D02*
X82550000Y-64770000D01*
X81788000Y-51562000D02*
X82423000Y-51562000D01*
X82423000Y-51562000D02*
X88265000Y-57404000D01*
X88265000Y-57404000D02*
X88265000Y-60833000D01*
X88265000Y-60833000D02*
X87249000Y-61849000D01*
X87249000Y-61849000D02*
X83566000Y-61849000D01*
X79037500Y-65996500D02*
X79037500Y-66656250D01*
X83566000Y-61849000D02*
X82550000Y-62865000D01*
X74612500Y-41337500D02*
X73724500Y-41337500D01*
X73724500Y-41337500D02*
X72771000Y-42291000D01*
X45084000Y-42291000D02*
X42068750Y-45306250D01*
X72771000Y-42291000D02*
X45084000Y-42291000D01*
X96043750Y-64356250D02*
X92868750Y-64356250D01*
X49721500Y-60387500D02*
X48768000Y-61341000D01*
X45084000Y-61341000D02*
X42068750Y-64356250D01*
X48768000Y-61341000D02*
X45084000Y-61341000D01*
X92042250Y-64356250D02*
X88773000Y-61087000D01*
X92868750Y-64356250D02*
X92042250Y-64356250D01*
X57404000Y-59879500D02*
X57912000Y-60387500D01*
X58737500Y-60387500D02*
X57912000Y-60387500D01*
X56896000Y-60387500D02*
X57404000Y-59879500D01*
X56134000Y-60387500D02*
X56896000Y-60387500D01*
X56134000Y-60387500D02*
X49721500Y-60387500D01*
X87503000Y-62357000D02*
X88773000Y-61087000D01*
X83820000Y-62357000D02*
X87503000Y-62357000D01*
X83058000Y-63119000D02*
X83820000Y-62357000D01*
X83058000Y-65024000D02*
X83058000Y-63119000D01*
X57404000Y-56261000D02*
X57404000Y-59879500D01*
X88773000Y-57150000D02*
X82423000Y-50800000D01*
X88773000Y-61087000D02*
X88773000Y-57150000D01*
X82423000Y-50800000D02*
X64897000Y-50800000D01*
X64897000Y-50800000D02*
X59944000Y-55753000D01*
X59944000Y-55753000D02*
X57912000Y-55753000D01*
X57912000Y-55753000D02*
X57404000Y-56261000D01*
X79899750Y-66294000D02*
X79537500Y-66656250D01*
X81788000Y-66294000D02*
X79899750Y-66294000D01*
X81788000Y-66294000D02*
X83058000Y-65024000D01*
X58737500Y-79437500D02*
X55562500Y-79437500D01*
X92868750Y-75468750D02*
X96043750Y-75468750D01*
X92868750Y-75468750D02*
X92868750Y-77819250D01*
X92868750Y-77819250D02*
X90297000Y-80391000D01*
X59625500Y-79437500D02*
X58737500Y-79437500D01*
X71755000Y-80391000D02*
X60579000Y-80391000D01*
X60579000Y-80391000D02*
X59625500Y-79437500D01*
X72009000Y-80391000D02*
X71755000Y-80391000D01*
X76537500Y-71456250D02*
X76537500Y-75862500D01*
X76537500Y-75862500D02*
X72009000Y-80391000D01*
X80899000Y-80391000D02*
X80645000Y-80137000D01*
X81280000Y-80391000D02*
X80899000Y-80391000D01*
X90297000Y-80391000D02*
X81280000Y-80391000D01*
X77787500Y-98487500D02*
X74612500Y-98487500D01*
X59659250Y-91343750D02*
X58737500Y-91343750D01*
X59944000Y-91059000D02*
X59659250Y-91343750D01*
X65151000Y-91059000D02*
X59944000Y-91059000D01*
X69469000Y-95377000D02*
X65151000Y-91059000D01*
X74612500Y-98487500D02*
X73724500Y-98487500D01*
X73724500Y-98487500D02*
X73279000Y-98042000D01*
X73279000Y-98042000D02*
X73277000Y-98042000D01*
X73277000Y-98042000D02*
X73152000Y-97917000D01*
X73152000Y-97917000D02*
X73152000Y-96266000D01*
X73152000Y-96266000D02*
X72263000Y-95377000D01*
X58737500Y-91343750D02*
X55562500Y-91343750D01*
X77037500Y-71456250D02*
X77037500Y-72568500D01*
X77037500Y-72568500D02*
X77037500Y-76124500D01*
X77037500Y-76124500D02*
X75946000Y-77216000D01*
X75946000Y-77216000D02*
X71755000Y-81407000D01*
X71755000Y-81407000D02*
X71755000Y-81915000D01*
X71755000Y-94996000D02*
X71755000Y-95377000D01*
X72263000Y-95377000D02*
X71755000Y-95377000D01*
X71755000Y-95377000D02*
X69469000Y-95377000D01*
D35*
X59600000Y-10870000D02*
X59600000Y-12536000D01*
X59600000Y-12536000D02*
X58801000Y-13335000D01*
X58801000Y-13335000D02*
X58547000Y-13335000D01*
X56150000Y-14150000D02*
X54700000Y-12700000D01*
X56150000Y-14925000D02*
X56150000Y-14150000D01*
X54700000Y-10870000D02*
X54700000Y-12700000D01*
X55880000Y-13880000D02*
X56150000Y-14150000D01*
X55880000Y-13335000D02*
X55880000Y-13880000D01*
X56150000Y-14925000D02*
X56150000Y-15224000D01*
X52387500Y-21717000D02*
X52387500Y-26581250D01*
X52387500Y-21272500D02*
X52387500Y-21717000D01*
X53975000Y-19685000D02*
X52387500Y-21272500D01*
X53975000Y-17100000D02*
X53975000Y-19685000D01*
X56150000Y-14925000D02*
X53975000Y-17100000D01*
D34*
X43815000Y-113347500D02*
X53340000Y-113347500D01*
X74727750Y-70306250D02*
X75387500Y-70306250D01*
X73914000Y-71120000D02*
X74727750Y-70306250D01*
X73914000Y-72136000D02*
X73914000Y-71120000D01*
X73533000Y-72517000D02*
X73914000Y-72136000D01*
X71501000Y-72517000D02*
X73533000Y-72517000D01*
X69977000Y-70993000D02*
X71501000Y-72517000D01*
X45125000Y-73787500D02*
X47919500Y-70993000D01*
X47919500Y-70993000D02*
X50927000Y-70993000D01*
X51435000Y-71501000D02*
X67945000Y-71501000D01*
X50927000Y-70993000D02*
X51435000Y-71501000D01*
X67945000Y-71501000D02*
X68453000Y-70993000D01*
X68453000Y-70993000D02*
X69977000Y-70993000D01*
X74989750Y-70806250D02*
X75387500Y-70806250D01*
X69786500Y-75247500D02*
X72009000Y-73025000D01*
X62865000Y-75247500D02*
X69786500Y-75247500D01*
X72009000Y-73025000D02*
X73787000Y-73025000D01*
X73787000Y-73025000D02*
X74422000Y-72390000D01*
X74422000Y-72390000D02*
X74422000Y-71374000D01*
X74422000Y-71374000D02*
X74989750Y-70806250D01*
X79537500Y-71456250D02*
X79537500Y-71790500D01*
X81915000Y-74168000D02*
X81915000Y-75247500D01*
X79537500Y-71790500D02*
X81915000Y-74168000D01*
X102235000Y-112077500D02*
X100965000Y-113347500D01*
X102235000Y-110172500D02*
X102235000Y-112077500D01*
X80772000Y-70806250D02*
X80187500Y-70806250D01*
X80831750Y-70866000D02*
X80772000Y-70806250D01*
X95250000Y-70866000D02*
X80831750Y-70866000D01*
X76037500Y-71456250D02*
X76037500Y-73634500D01*
X88900000Y-88262500D02*
X89913500Y-88262500D01*
X90813500Y-89162500D02*
X92150000Y-89162500D01*
X89913500Y-88262500D02*
X90813500Y-89162500D01*
X88900000Y-88262500D02*
X87886500Y-88262500D01*
X87886500Y-88262500D02*
X87376000Y-88773000D01*
X82042000Y-88773000D02*
X82169000Y-88773000D01*
X81788000Y-88519000D02*
X82042000Y-88773000D01*
X87376000Y-88773000D02*
X82169000Y-88773000D01*
X76037500Y-73634500D02*
X76037500Y-75600500D01*
X76037500Y-75600500D02*
X72136000Y-79502000D01*
X72136000Y-79502000D02*
X71755000Y-79502000D01*
X82585750Y-69306250D02*
X82169000Y-69306250D01*
X80187500Y-69306250D02*
X82169000Y-69306250D01*
X83439000Y-68453000D02*
X83312000Y-68580000D01*
X84521000Y-68453000D02*
X83439000Y-68453000D01*
X83312000Y-68580000D02*
X82585750Y-69306250D01*
X78537500Y-71456250D02*
X78537500Y-72441500D01*
X78537500Y-72441500D02*
X78740000Y-72644000D01*
X64206750Y-45918750D02*
X60337500Y-45918750D01*
X65532000Y-47244000D02*
X64206750Y-45918750D01*
X60337500Y-45918750D02*
X59761750Y-45918750D01*
X59761750Y-45918750D02*
X59690000Y-45847000D01*
X61044250Y-26162000D02*
X61131250Y-26075000D01*
X59690000Y-26162000D02*
X61044250Y-26162000D01*
X48355500Y-36957000D02*
X50125000Y-35187500D01*
X46482000Y-36957000D02*
X48355500Y-36957000D01*
X44958000Y-38481000D02*
X46482000Y-36957000D01*
X44958000Y-39878000D02*
X44958000Y-38481000D01*
X42068750Y-42006250D02*
X42829750Y-42006250D01*
X42829750Y-42006250D02*
X44958000Y-39878000D01*
X71762500Y-35187500D02*
X74612500Y-38037500D01*
X69175000Y-35187500D02*
X71762500Y-35187500D01*
X88225000Y-35187500D02*
X88225000Y-34885000D01*
X88225000Y-34885000D02*
X87249000Y-33909000D01*
X81916000Y-33909000D02*
X77787500Y-38037500D01*
X87249000Y-33909000D02*
X81916000Y-33909000D01*
X107275000Y-35187500D02*
X107196500Y-35187500D01*
X107196500Y-35187500D02*
X105918000Y-33909000D01*
X97791000Y-33909000D02*
X93662500Y-38037500D01*
X105918000Y-33909000D02*
X97791000Y-33909000D01*
X50125000Y-54237500D02*
X48378500Y-54237500D01*
X48378500Y-54237500D02*
X44958000Y-57658000D01*
X44958000Y-57658000D02*
X44958000Y-58928000D01*
X42829750Y-61056250D02*
X42068750Y-61056250D01*
X44958000Y-58928000D02*
X42829750Y-61056250D01*
X58737500Y-57087500D02*
X59371500Y-57087500D01*
X59371500Y-57087500D02*
X63500000Y-52959000D01*
X67896500Y-52959000D02*
X69175000Y-54237500D01*
X63500000Y-52959000D02*
X67896500Y-52959000D01*
X88225000Y-55499000D02*
X88225000Y-54237500D01*
X88225000Y-55840000D02*
X88225000Y-55499000D01*
X89281000Y-56896000D02*
X88225000Y-55840000D01*
X89281000Y-59309000D02*
X89281000Y-56896000D01*
X91028250Y-61056250D02*
X89281000Y-59309000D01*
X92868750Y-61056250D02*
X91028250Y-61056250D01*
X107275000Y-54237500D02*
X105401500Y-54237500D01*
X105401500Y-54237500D02*
X101219000Y-58420000D01*
X101219000Y-58420000D02*
X101219000Y-59309000D01*
X99471750Y-61056250D02*
X96043750Y-61056250D01*
X101219000Y-59309000D02*
X99471750Y-61056250D01*
X52712500Y-73287500D02*
X55562500Y-76137500D01*
X50125000Y-73287500D02*
X52712500Y-73287500D01*
X69175000Y-73287500D02*
X69175000Y-73112000D01*
X69175000Y-73112000D02*
X68072000Y-72009000D01*
X62866000Y-72009000D02*
X58737500Y-76137500D01*
X68072000Y-72009000D02*
X62866000Y-72009000D01*
X89343750Y-72168750D02*
X88225000Y-73287500D01*
X92868750Y-72168750D02*
X89343750Y-72168750D01*
X107275000Y-73287500D02*
X107196500Y-73287500D01*
X107196500Y-73287500D02*
X105664000Y-71755000D01*
X105664000Y-71755000D02*
X104521000Y-71755000D01*
X96043750Y-72168750D02*
X96043750Y-71088250D01*
X96043750Y-71088250D02*
X98425000Y-68707000D01*
X98425000Y-66992500D02*
X99695000Y-65722500D01*
X98425000Y-68707000D02*
X98425000Y-66992500D01*
X102235000Y-67722500D02*
X100275000Y-65762500D01*
X102235000Y-69469000D02*
X102235000Y-67722500D01*
X104521000Y-71755000D02*
X102235000Y-69469000D01*
X54418750Y-88043750D02*
X50125000Y-92337500D01*
X55562500Y-88043750D02*
X54418750Y-88043750D01*
X65501250Y-88043750D02*
X69215000Y-91757500D01*
X58737500Y-88043750D02*
X65501250Y-88043750D01*
X77787500Y-95187500D02*
X77787500Y-93916500D01*
X77787500Y-93916500D02*
X81153000Y-90551000D01*
X87058500Y-90551000D02*
X88265000Y-91757500D01*
X81153000Y-90551000D02*
X87058500Y-90551000D01*
X93472000Y-91059000D02*
X106616500Y-91059000D01*
X93218000Y-91313000D02*
X93472000Y-91059000D01*
X92456000Y-91313000D02*
X93218000Y-91313000D01*
X74612500Y-95187500D02*
X75754500Y-95187500D01*
X75754500Y-95187500D02*
X80899000Y-90043000D01*
X80899000Y-90043000D02*
X89027000Y-90043000D01*
X89027000Y-90043000D02*
X90043000Y-91059000D01*
X90043000Y-91059000D02*
X92202000Y-91059000D01*
X106616500Y-91059000D02*
X107315000Y-91757500D01*
X92202000Y-91059000D02*
X92456000Y-91313000D01*
X94051750Y-99893750D02*
X95262500Y-99893750D01*
X93980000Y-99822000D02*
X94051750Y-99893750D01*
X92856250Y-32746750D02*
X92856250Y-31075000D01*
X92837000Y-32766000D02*
X92856250Y-32746750D01*
X50125000Y-106181250D02*
X53975000Y-102331250D01*
X50125000Y-111387500D02*
X50125000Y-106181250D01*
X59650000Y-111387500D02*
X59650000Y-110323000D01*
X59650000Y-110323000D02*
X58928000Y-109601000D01*
X51911500Y-109601000D02*
X50125000Y-111387500D01*
X58928000Y-109601000D02*
X51911500Y-109601000D01*
X73350000Y-111387500D02*
X74612500Y-112650000D01*
X69175000Y-111387500D02*
X73350000Y-111387500D01*
X88225000Y-111387500D02*
X88225000Y-110831000D01*
X88225000Y-110831000D02*
X87503000Y-110109000D01*
X80328500Y-110109000D02*
X77787500Y-112650000D01*
X87503000Y-110109000D02*
X80328500Y-110109000D01*
X107275000Y-111387500D02*
X106942500Y-111387500D01*
X106942500Y-111387500D02*
X105410000Y-109855000D01*
X105410000Y-109855000D02*
X104394000Y-109855000D01*
X96870250Y-107061000D02*
X94456250Y-109475000D01*
X100068750Y-103862500D02*
X96870250Y-107061000D01*
X100275000Y-103862500D02*
X100068750Y-103862500D01*
X102108000Y-105695500D02*
X100275000Y-103862500D01*
X102108000Y-107569000D02*
X102108000Y-105695500D01*
X104394000Y-109855000D02*
X102108000Y-107569000D01*
X88011000Y-104521000D02*
X91689750Y-104521000D01*
X60337500Y-100850500D02*
X63754000Y-104267000D01*
X60337500Y-99893750D02*
X60337500Y-100850500D01*
X91689750Y-104521000D02*
X92062500Y-104893750D01*
X63754000Y-104267000D02*
X75184000Y-104267000D01*
X75184000Y-104267000D02*
X75692000Y-104775000D01*
X75692000Y-104775000D02*
X87757000Y-104775000D01*
X87757000Y-104775000D02*
X88011000Y-104521000D01*
X63700000Y-68306250D02*
X62068750Y-66675000D01*
X75387500Y-68306250D02*
X63700000Y-68306250D01*
X56400000Y-10870000D02*
X56400000Y-11823000D01*
X56400000Y-11823000D02*
X56896000Y-12319000D01*
X56896000Y-16079000D02*
X56150000Y-16825000D01*
X56896000Y-12319000D02*
X56896000Y-16079000D01*
X57400000Y-11815000D02*
X56896000Y-12319000D01*
X57400000Y-10870000D02*
X57400000Y-11815000D01*
X63112500Y-68806250D02*
X62068750Y-69850000D01*
X75387500Y-68806250D02*
X63112500Y-68806250D01*
X59055000Y-66675000D02*
X60168750Y-66675000D01*
X56150000Y-18018000D02*
X55245000Y-18923000D01*
X56150000Y-16825000D02*
X56150000Y-18018000D01*
X55245000Y-18923000D02*
X55245000Y-19177000D01*
X56900000Y-10870000D02*
X56900000Y-9902000D01*
X56900000Y-9902000D02*
X57150000Y-9652000D01*
X57150000Y-9652000D02*
X57658000Y-9652000D01*
X57900000Y-9894000D02*
X57900000Y-10870000D01*
X57658000Y-9652000D02*
X57900000Y-9894000D01*
X57900000Y-10870000D02*
X57900000Y-12077000D01*
X57900000Y-12077000D02*
X57404000Y-12573000D01*
X57404000Y-16079000D02*
X58150000Y-16825000D01*
X57404000Y-12573000D02*
X57404000Y-16079000D01*
X56134000Y-18841000D02*
X58150000Y-16825000D01*
X56134000Y-19177000D02*
X56134000Y-18841000D01*
X60168750Y-69850000D02*
X59055000Y-69850000D01*
X58900000Y-10870000D02*
X58900000Y-12093000D01*
X58900000Y-12093000D02*
X58547000Y-12446000D01*
X61118750Y-18100000D02*
X61118750Y-17938750D01*
X61118750Y-17938750D02*
X60198000Y-17018000D01*
X55900000Y-10870000D02*
X55900000Y-12426000D01*
X55900000Y-12426000D02*
X55880000Y-12446000D01*
X52197000Y-14097000D02*
X51943000Y-14097000D01*
X51115000Y-14925000D02*
X50800000Y-14925000D01*
X51943000Y-14097000D02*
X51115000Y-14925000D01*
X96056250Y-26075000D02*
X96056250Y-25825250D01*
X96056250Y-25825250D02*
X94869000Y-24638000D01*
X94869000Y-24638000D02*
X91948000Y-24638000D01*
X91948000Y-24638000D02*
X86868000Y-29718000D01*
X59288250Y-29718000D02*
X57931250Y-31075000D01*
X86868000Y-29718000D02*
X59288250Y-29718000D01*
X53975000Y-105631250D02*
X54069250Y-105631250D01*
X54069250Y-105631250D02*
X57531000Y-109093000D01*
X57531000Y-109093000D02*
X64135000Y-109093000D01*
X64135000Y-109093000D02*
X69469000Y-114427000D01*
X74421000Y-115950000D02*
X72898000Y-114427000D01*
X74612500Y-115950000D02*
X74421000Y-115950000D01*
X69469000Y-114427000D02*
X72898000Y-114427000D01*
X78612000Y-115950000D02*
X77787500Y-115950000D01*
X94456250Y-112775000D02*
X91822000Y-112775000D01*
X91822000Y-112775000D02*
X88265000Y-116332000D01*
X88265000Y-116332000D02*
X88265000Y-116967000D01*
X88265000Y-116967000D02*
X86868000Y-118364000D01*
X86868000Y-118364000D02*
X81026000Y-118364000D01*
X81026000Y-118364000D02*
X78612000Y-115950000D01*
X76327000Y-115697000D02*
X76327000Y-115950000D01*
X74612500Y-115950000D02*
X76327000Y-115950000D01*
X76327000Y-115950000D02*
X77787500Y-115950000D01*
X78037500Y-72584500D02*
X78037500Y-71456250D01*
X78037500Y-76648500D02*
X78037500Y-72584500D01*
X76454000Y-78232000D02*
X78037500Y-76648500D01*
X76454000Y-84201000D02*
X76454000Y-78232000D01*
X76327000Y-84328000D02*
X76454000Y-84201000D01*
X48575000Y-45087500D02*
X48895000Y-44767500D01*
X48575000Y-49212500D02*
X48575000Y-45087500D01*
X69371250Y-46193750D02*
X67945000Y-44767500D01*
X74612500Y-46193750D02*
X69371250Y-46193750D01*
X86995000Y-44767500D02*
X86995000Y-44704000D01*
X86995000Y-44704000D02*
X85598000Y-43307000D01*
X85598000Y-43307000D02*
X81534000Y-43307000D01*
X78647250Y-46193750D02*
X77787500Y-46193750D01*
X81534000Y-43307000D02*
X78647250Y-46193750D01*
X96837500Y-40637500D02*
X97152500Y-40637500D01*
X97152500Y-40637500D02*
X99695000Y-43180000D01*
X104457500Y-43180000D02*
X106045000Y-44767500D01*
X99695000Y-43180000D02*
X104457500Y-43180000D01*
X50321250Y-65243750D02*
X48895000Y-63817500D01*
X53181250Y-65243750D02*
X50321250Y-65243750D01*
X69850000Y-61912500D02*
X67945000Y-63817500D01*
X69850000Y-59687500D02*
X69850000Y-61912500D01*
X92390000Y-69212500D02*
X86995000Y-63817500D01*
X92868750Y-69212500D02*
X92390000Y-69212500D01*
X106045000Y-63881000D02*
X106045000Y-63817500D01*
X104521000Y-65405000D02*
X106045000Y-63881000D01*
X102616000Y-65405000D02*
X104521000Y-65405000D01*
X96043750Y-69212500D02*
X97157500Y-69212500D01*
X97917000Y-68453000D02*
X97917000Y-65024000D01*
X97917000Y-65024000D02*
X98933000Y-64008000D01*
X98933000Y-64008000D02*
X101219000Y-64008000D01*
X97157500Y-69212500D02*
X97917000Y-68453000D01*
X101219000Y-64008000D02*
X102616000Y-65405000D01*
X50321250Y-84293750D02*
X48895000Y-82867500D01*
X55562500Y-84293750D02*
X50321250Y-84293750D01*
X66518750Y-84293750D02*
X67945000Y-82867500D01*
X58737500Y-84293750D02*
X66518750Y-84293750D01*
X85568750Y-84293750D02*
X86995000Y-82867500D01*
X80168750Y-84293750D02*
X85568750Y-84293750D01*
X55562500Y-96200000D02*
X55438000Y-96200000D01*
X49720500Y-101917500D02*
X48895000Y-101917500D01*
X55438000Y-96200000D02*
X49720500Y-101917500D01*
X58737500Y-96200000D02*
X58737500Y-96202500D01*
X58737500Y-96202500D02*
X60833000Y-98298000D01*
X60833000Y-98298000D02*
X64389000Y-98298000D01*
X67945000Y-101854000D02*
X67945000Y-101917500D01*
X64389000Y-98298000D02*
X67945000Y-101854000D01*
X86995000Y-101917500D02*
X86931500Y-101917500D01*
X86931500Y-101917500D02*
X85090000Y-103759000D01*
X78705750Y-103343750D02*
X79121000Y-103759000D01*
X77787500Y-103343750D02*
X78705750Y-103343750D01*
X85090000Y-103759000D02*
X79121000Y-103759000D01*
X106045000Y-101981000D02*
X106045000Y-101917500D01*
X104521000Y-103505000D02*
X106045000Y-101981000D01*
X102616000Y-103505000D02*
X104521000Y-103505000D01*
X97282000Y-98171000D02*
X102616000Y-103505000D01*
X87503000Y-104267000D02*
X90297000Y-101473000D01*
X90297000Y-101473000D02*
X90297000Y-99187000D01*
X90297000Y-99187000D02*
X91313000Y-98171000D01*
X91313000Y-98171000D02*
X97282000Y-98171000D01*
X75022750Y-103343750D02*
X75946000Y-104267000D01*
X74612500Y-103343750D02*
X75022750Y-103343750D01*
X75946000Y-104267000D02*
X87503000Y-104267000D01*
X61912500Y-120012500D02*
X62232500Y-120012500D01*
X62232500Y-120012500D02*
X63119000Y-119126000D01*
X66103500Y-119126000D02*
X67945000Y-120967500D01*
X63119000Y-119126000D02*
X66103500Y-119126000D01*
X85534500Y-119507000D02*
X86995000Y-120967500D01*
X79375000Y-119507000D02*
X85534500Y-119507000D01*
X77787500Y-120806250D02*
X78075750Y-120806250D01*
X78075750Y-120806250D02*
X79375000Y-119507000D01*
D35*
X74612500Y-44293750D02*
X77787500Y-44293750D01*
X77787500Y-118906250D02*
X76742250Y-118906250D01*
X76742250Y-118906250D02*
X76327000Y-118491000D01*
X76327000Y-118491000D02*
X63246000Y-118491000D01*
X62867500Y-118112500D02*
X61912500Y-118112500D01*
X63246000Y-118491000D02*
X62867500Y-118112500D01*
X61912500Y-118112500D02*
X60957500Y-118112500D01*
X60957500Y-118112500D02*
X60579000Y-118491000D01*
X53342500Y-118112500D02*
X52387500Y-118112500D01*
X53721000Y-118491000D02*
X53342500Y-118112500D01*
X77816750Y-118935500D02*
X77787500Y-118906250D01*
X91252000Y-118935500D02*
X77816750Y-118935500D01*
X91281250Y-118906250D02*
X91252000Y-118935500D01*
X77787500Y-101443750D02*
X74612500Y-101443750D01*
X55562500Y-94300000D02*
X58737500Y-94300000D01*
X58737500Y-82393750D02*
X55562500Y-82393750D01*
X73612500Y-86518750D02*
X73612500Y-88217500D01*
X73612500Y-88217500D02*
X73914000Y-88519000D01*
X76454000Y-88519000D02*
X77724000Y-87249000D01*
X77724000Y-87249000D02*
X77724000Y-83947000D01*
X79277250Y-82393750D02*
X80168750Y-82393750D01*
X77724000Y-83947000D02*
X79277250Y-82393750D01*
X55562500Y-82393750D02*
X55562500Y-81343500D01*
X55562500Y-81343500D02*
X55499000Y-81280000D01*
X55499000Y-94236500D02*
X55562500Y-94300000D01*
X55499000Y-93218000D02*
X55499000Y-94236500D01*
X54483000Y-118364000D02*
X54356000Y-118491000D01*
X54483000Y-118110000D02*
X54483000Y-118364000D01*
X60579000Y-118491000D02*
X54356000Y-118491000D01*
X54356000Y-118491000D02*
X53721000Y-118491000D01*
X92868750Y-67312500D02*
X96043750Y-67312500D01*
X69850000Y-57787500D02*
X69598500Y-57787500D01*
X69598500Y-57787500D02*
X67945000Y-56134000D01*
X67945000Y-56134000D02*
X65405000Y-56134000D01*
X65405000Y-56134000D02*
X64135000Y-57404000D01*
X64135000Y-57404000D02*
X64135000Y-58420000D01*
X59211250Y-63343750D02*
X53181250Y-63343750D01*
X64135000Y-58420000D02*
X59211250Y-63343750D01*
X52548750Y-63343750D02*
X50292000Y-61087000D01*
X53181250Y-63343750D02*
X52548750Y-63343750D01*
X74612500Y-101443750D02*
X74612500Y-100393500D01*
X74612500Y-100393500D02*
X74549000Y-100330000D01*
X74549000Y-88900000D02*
X74549000Y-88519000D01*
X73914000Y-88519000D02*
X74549000Y-88519000D01*
X74549000Y-88519000D02*
X76454000Y-88519000D01*
X103825000Y-87312500D02*
X103825000Y-87691000D01*
X103825000Y-87691000D02*
X101092000Y-90424000D01*
X92868750Y-67312500D02*
X92868750Y-66198750D01*
X92868750Y-66198750D02*
X92837000Y-66167000D01*
X46675000Y-49212500D02*
X46675000Y-47813000D01*
X46675000Y-47813000D02*
X46736000Y-47752000D01*
X92837000Y-90589090D02*
X92837000Y-90424000D01*
X101092000Y-90424000D02*
X92837000Y-90424000D01*
X90297000Y-90424000D02*
X89281000Y-89408000D01*
X92837000Y-90424000D02*
X90297000Y-90424000D01*
X77343000Y-89408000D02*
X76454000Y-88519000D01*
X89281000Y-89408000D02*
X77343000Y-89408000D01*
X78769250Y-44293750D02*
X77787500Y-44293750D01*
X96837500Y-38737500D02*
X95882500Y-38737500D01*
X95882500Y-38737500D02*
X95377000Y-39243000D01*
X95377000Y-39243000D02*
X95377000Y-42100500D01*
X95377000Y-42100500D02*
X94742000Y-42735500D01*
X94742000Y-42735500D02*
X80327500Y-42735500D01*
X80327500Y-42735500D02*
X78769250Y-44293750D01*
X94742000Y-42799000D02*
X94742000Y-42735500D01*
X94996000Y-43053000D02*
X94742000Y-42799000D01*
X72390000Y-85296250D02*
X73612500Y-86518750D01*
X72390000Y-84201000D02*
X72390000Y-85296250D01*
X69215000Y-81026000D02*
X72390000Y-84201000D01*
X61087000Y-81026000D02*
X69215000Y-81026000D01*
X59719250Y-82393750D02*
X61087000Y-81026000D01*
X58737500Y-82393750D02*
X59719250Y-82393750D01*
X42068750Y-24450000D02*
X42068750Y-23844250D01*
X42068750Y-23844250D02*
X43561000Y-22352000D01*
X43561000Y-22352000D02*
X43561000Y-21463000D01*
X43561000Y-21463000D02*
X43561000Y-21082000D01*
X43561000Y-21082000D02*
X45593000Y-19050000D01*
X45593000Y-19050000D02*
X52578000Y-19050000D01*
X52578000Y-19050000D02*
X52705000Y-19177000D01*
X74612500Y-20481250D02*
X75530750Y-20481250D01*
X75530750Y-20481250D02*
X76962000Y-19050000D01*
X76962000Y-19050000D02*
X91313000Y-19050000D01*
X92744250Y-20481250D02*
X93662500Y-20481250D01*
X91313000Y-19050000D02*
X92744250Y-20481250D01*
X74612500Y-20481250D02*
X73694250Y-20481250D01*
X73694250Y-20481250D02*
X72263000Y-19050000D01*
X72263000Y-19050000D02*
X63627000Y-19050000D01*
X63627000Y-19050000D02*
X63373000Y-19304000D01*
X96837500Y-20481250D02*
X93662500Y-20481250D01*
X96837500Y-20481250D02*
X98263750Y-20481250D01*
X98263750Y-20481250D02*
X98298000Y-20447000D01*
X96840000Y-38735000D02*
X96837500Y-38737500D01*
X98298000Y-38735000D02*
X96840000Y-38735000D01*
D34*
X105725000Y-83187500D02*
X106045000Y-82867500D01*
X105725000Y-87312500D02*
X105725000Y-83187500D01*
X91281250Y-120806250D02*
X101443750Y-120806250D01*
X101443750Y-120806250D02*
X102870000Y-119380000D01*
X104457500Y-119380000D02*
X106045000Y-120967500D01*
X102870000Y-119380000D02*
X104457500Y-119380000D01*
X49850000Y-120012500D02*
X48895000Y-120967500D01*
X52387500Y-120012500D02*
X49850000Y-120012500D01*
X52387500Y-120012500D02*
X53342500Y-120012500D01*
X53342500Y-120012500D02*
X54229000Y-119126000D01*
X56578500Y-119126000D02*
X58420000Y-120967500D01*
X54229000Y-119126000D02*
X56578500Y-119126000D01*
X75562500Y-85518750D02*
X75612500Y-85568750D01*
X75562500Y-82550000D02*
X75562500Y-85518750D01*
X73662500Y-82550000D02*
X73662500Y-80261500D01*
X77537500Y-76386500D02*
X77537500Y-75946000D01*
X73662500Y-80261500D02*
X77537500Y-76386500D01*
X77537500Y-71456250D02*
X77537500Y-75946000D01*
X42068750Y-21493750D02*
X42260250Y-21493750D01*
X42260250Y-21493750D02*
X45339000Y-18415000D01*
X45339000Y-18415000D02*
X52451000Y-18415000D01*
X52451000Y-18415000D02*
X52705000Y-18161000D01*
X96837500Y-17525000D02*
X93662500Y-17525000D01*
X93662500Y-17525000D02*
X92711000Y-17525000D01*
X92711000Y-17525000D02*
X91821000Y-18415000D01*
X91821000Y-18415000D02*
X76327000Y-18415000D01*
X75437000Y-17525000D02*
X74612500Y-17525000D01*
X76327000Y-18415000D02*
X75437000Y-17525000D01*
X74612500Y-17525000D02*
X73788000Y-17525000D01*
X73788000Y-17525000D02*
X72898000Y-18415000D01*
X72898000Y-18415000D02*
X64643000Y-18415000D01*
X64643000Y-18415000D02*
X63627000Y-18415000D01*
X63627000Y-18415000D02*
X63373000Y-18161000D01*
X80187500Y-67306250D02*
X89150250Y-67306250D01*
X89150250Y-67306250D02*
X89154000Y-67310000D01*
X91694000Y-18288000D02*
X91821000Y-18415000D01*
X91694000Y-18034000D02*
X91694000Y-18288000D01*
X50125000Y-11375000D02*
X48315000Y-11375000D01*
X48315000Y-11375000D02*
X44958000Y-14732000D01*
X44958000Y-14732000D02*
X44958000Y-16129000D01*
X42893250Y-18193750D02*
X42068750Y-18193750D01*
X44958000Y-16129000D02*
X42893250Y-18193750D01*
X71762500Y-11375000D02*
X74612500Y-14225000D01*
X69175000Y-11375000D02*
X71762500Y-11375000D01*
X90812500Y-11375000D02*
X93662500Y-14225000D01*
X88225000Y-11375000D02*
X90812500Y-11375000D01*
X107275000Y-11375000D02*
X107275000Y-10374000D01*
X107275000Y-10374000D02*
X106934000Y-10033000D01*
X101029500Y-10033000D02*
X96837500Y-14225000D01*
X106934000Y-10033000D02*
X101029500Y-10033000D01*
X43500000Y-26350000D02*
X42068750Y-26350000D01*
X48895000Y-20955000D02*
X43500000Y-26350000D01*
X69371250Y-22381250D02*
X67945000Y-20955000D01*
X74612500Y-22381250D02*
X69371250Y-22381250D01*
X88421250Y-22381250D02*
X86995000Y-20955000D01*
X93662500Y-22381250D02*
X88421250Y-22381250D01*
X104618750Y-22381250D02*
X106045000Y-20955000D01*
X96837500Y-22381250D02*
X104618750Y-22381250D01*
G36*
X80835500Y-54955402D02*
X80645973Y-55166630D01*
X80503343Y-55360971D01*
X80367269Y-55652446D01*
X80290674Y-55964867D01*
X80276500Y-56286226D01*
X80325293Y-56604176D01*
X80435177Y-56906499D01*
X80601930Y-57181575D01*
X80760247Y-57354500D01*
X80508786Y-57354500D01*
X80241594Y-57407648D01*
X79989904Y-57511901D01*
X79763389Y-57663254D01*
X79570754Y-57855889D01*
X79419401Y-58082404D01*
X79315148Y-58334094D01*
X79262000Y-58601286D01*
X79262000Y-58873714D01*
X79315148Y-59140906D01*
X79419401Y-59392596D01*
X79570754Y-59619111D01*
X79763389Y-59811746D01*
X79989904Y-59963099D01*
X80241594Y-60067352D01*
X80508786Y-60120500D01*
X80781214Y-60120500D01*
X80835500Y-60109702D01*
X80835500Y-61048250D01*
X80772000Y-61111750D01*
X80772000Y-61861000D01*
X80792000Y-61861000D01*
X80792000Y-62115000D01*
X80772000Y-62115000D01*
X80772000Y-62135000D01*
X80518000Y-62135000D01*
X80518000Y-62115000D01*
X79793750Y-62115000D01*
X79635000Y-62273750D01*
X79635000Y-62450542D01*
X79659403Y-62573223D01*
X79701353Y-62674500D01*
X79282298Y-62674500D01*
X79248000Y-62671122D01*
X79213702Y-62674500D01*
X79213691Y-62674500D01*
X79111070Y-62684607D01*
X78979403Y-62724548D01*
X78924353Y-62753973D01*
X78858057Y-62789409D01*
X78778346Y-62854826D01*
X78778343Y-62854829D01*
X78751697Y-62876697D01*
X78729829Y-62903343D01*
X77172500Y-64460673D01*
X77172500Y-63890024D01*
X77726955Y-63335570D01*
X77751185Y-63315685D01*
X77786621Y-63272506D01*
X77830538Y-63218994D01*
X77889502Y-63108680D01*
X77895775Y-63088000D01*
X77898443Y-63079207D01*
X78000000Y-63079207D01*
X78099585Y-63069399D01*
X78195343Y-63040351D01*
X78283595Y-62993179D01*
X78360948Y-62929698D01*
X78424429Y-62852345D01*
X78471601Y-62764093D01*
X78500649Y-62668335D01*
X78510457Y-62568750D01*
X78510457Y-62087568D01*
X78912961Y-61685065D01*
X78937185Y-61665185D01*
X78957065Y-61640961D01*
X78957069Y-61640957D01*
X79016538Y-61568494D01*
X79039541Y-61525458D01*
X79635000Y-61525458D01*
X79635000Y-61702250D01*
X79793750Y-61861000D01*
X80518000Y-61861000D01*
X80518000Y-61111750D01*
X80359250Y-60953000D01*
X80207458Y-60953000D01*
X80084777Y-60977403D01*
X79969215Y-61025270D01*
X79865211Y-61094763D01*
X79776763Y-61183211D01*
X79707270Y-61287215D01*
X79659403Y-61402777D01*
X79635000Y-61525458D01*
X79039541Y-61525458D01*
X79075502Y-61458180D01*
X79083726Y-61431068D01*
X79111812Y-61338482D01*
X79121000Y-61245192D01*
X79121000Y-61245189D01*
X79124072Y-61214000D01*
X79121000Y-61182811D01*
X79121000Y-59340181D01*
X79124071Y-59309000D01*
X79121000Y-59277819D01*
X79121000Y-59277808D01*
X79111812Y-59184518D01*
X79075502Y-59064820D01*
X79016537Y-58954506D01*
X78937185Y-58857815D01*
X78912955Y-58837930D01*
X78316520Y-58241495D01*
X78316601Y-58241343D01*
X78345649Y-58145585D01*
X78355457Y-58046000D01*
X78355457Y-57246000D01*
X78345649Y-57146415D01*
X78316601Y-57050657D01*
X78289351Y-56999675D01*
X78338237Y-56950789D01*
X78407730Y-56846785D01*
X78455597Y-56731223D01*
X78480000Y-56608542D01*
X78480000Y-56431750D01*
X78321250Y-56273000D01*
X77597000Y-56273000D01*
X77597000Y-56293000D01*
X77343000Y-56293000D01*
X77343000Y-56273000D01*
X76618750Y-56273000D01*
X76460000Y-56431750D01*
X76460000Y-56608542D01*
X76484403Y-56731223D01*
X76532270Y-56846785D01*
X76601763Y-56950789D01*
X76650649Y-56999675D01*
X76623399Y-57050657D01*
X76594351Y-57146415D01*
X76584543Y-57246000D01*
X76584543Y-58046000D01*
X76594351Y-58145585D01*
X76623399Y-58241343D01*
X76670571Y-58329595D01*
X76734052Y-58406948D01*
X76811405Y-58470429D01*
X76869702Y-58501590D01*
X76880498Y-58537179D01*
X76939463Y-58647493D01*
X77018815Y-58744185D01*
X77043050Y-58764074D01*
X77449238Y-59170262D01*
X77427000Y-59192500D01*
X77427000Y-60141750D01*
X77447000Y-60141750D01*
X77447000Y-60395750D01*
X77427000Y-60395750D01*
X77427000Y-60415750D01*
X77173000Y-60415750D01*
X77173000Y-60395750D01*
X77153000Y-60395750D01*
X77153000Y-60141750D01*
X77173000Y-60141750D01*
X77173000Y-59192500D01*
X77014250Y-59033750D01*
X76537458Y-59033750D01*
X76414777Y-59058153D01*
X76299215Y-59106020D01*
X76195211Y-59175513D01*
X76107107Y-59263617D01*
X76083595Y-59244321D01*
X75995343Y-59197149D01*
X75899585Y-59168101D01*
X75800000Y-59158293D01*
X75565000Y-59158293D01*
X75565000Y-58483041D01*
X75588595Y-58470429D01*
X75665948Y-58406948D01*
X75729429Y-58329595D01*
X75776601Y-58241343D01*
X75805649Y-58145585D01*
X75815457Y-58046000D01*
X75815457Y-57246000D01*
X75805649Y-57146415D01*
X75776601Y-57050657D01*
X75749351Y-56999675D01*
X75798237Y-56950789D01*
X75867730Y-56846785D01*
X75915597Y-56731223D01*
X75940000Y-56608542D01*
X75940000Y-56431750D01*
X75781250Y-56273000D01*
X75057000Y-56273000D01*
X75057000Y-56293000D01*
X74803000Y-56293000D01*
X74803000Y-56273000D01*
X74078750Y-56273000D01*
X73920000Y-56431750D01*
X73920000Y-56608542D01*
X73944403Y-56731223D01*
X73992270Y-56846785D01*
X74061763Y-56950789D01*
X74110649Y-56999675D01*
X74083399Y-57050657D01*
X74054351Y-57146415D01*
X74044543Y-57246000D01*
X74044543Y-58046000D01*
X74054351Y-58145585D01*
X74083399Y-58241343D01*
X74130571Y-58329595D01*
X74194052Y-58406948D01*
X74271405Y-58470429D01*
X74295000Y-58483041D01*
X74295001Y-59169743D01*
X74204657Y-59197149D01*
X74116405Y-59244321D01*
X74039052Y-59307802D01*
X73975571Y-59385155D01*
X73928399Y-59473407D01*
X73899351Y-59569165D01*
X73889543Y-59668750D01*
X73889543Y-59959432D01*
X73360046Y-60488930D01*
X73335816Y-60508815D01*
X73315932Y-60533044D01*
X73256463Y-60605507D01*
X73197498Y-60715821D01*
X73184657Y-60758153D01*
X73161189Y-60835518D01*
X73152001Y-60928808D01*
X73148929Y-60960000D01*
X73152001Y-60991191D01*
X73152000Y-62833819D01*
X73148929Y-62865000D01*
X73152000Y-62896181D01*
X73152000Y-62896191D01*
X73161188Y-62989481D01*
X73197498Y-63109179D01*
X73256463Y-63219493D01*
X73335815Y-63316185D01*
X73360050Y-63336074D01*
X75402501Y-65378527D01*
X75402501Y-65754250D01*
X74145275Y-65754250D01*
X73152000Y-64760976D01*
X73152000Y-63500000D01*
X73149560Y-63475224D01*
X73142333Y-63451399D01*
X73130597Y-63429443D01*
X73114803Y-63410197D01*
X72892000Y-63187394D01*
X72892000Y-63049458D01*
X72867597Y-62926777D01*
X72819730Y-62811215D01*
X72750237Y-62707211D01*
X72661789Y-62618763D01*
X72557785Y-62549270D01*
X72442223Y-62501403D01*
X72319542Y-62477000D01*
X72181606Y-62477000D01*
X71564500Y-61859894D01*
X71564500Y-60109702D01*
X71618786Y-60120500D01*
X71891214Y-60120500D01*
X72158406Y-60067352D01*
X72410096Y-59963099D01*
X72636611Y-59811746D01*
X72829246Y-59619111D01*
X72980599Y-59392596D01*
X73084852Y-59140906D01*
X73138000Y-58873714D01*
X73138000Y-58601286D01*
X73084852Y-58334094D01*
X72980599Y-58082404D01*
X72829246Y-57855889D01*
X72636611Y-57663254D01*
X72410096Y-57511901D01*
X72158406Y-57407648D01*
X71891214Y-57354500D01*
X71618786Y-57354500D01*
X71564500Y-57365298D01*
X71564500Y-55683458D01*
X73920000Y-55683458D01*
X73920000Y-55860250D01*
X74078750Y-56019000D01*
X74803000Y-56019000D01*
X74803000Y-55269750D01*
X75057000Y-55269750D01*
X75057000Y-56019000D01*
X75781250Y-56019000D01*
X75940000Y-55860250D01*
X75940000Y-55683458D01*
X76460000Y-55683458D01*
X76460000Y-55860250D01*
X76618750Y-56019000D01*
X77343000Y-56019000D01*
X77343000Y-55269750D01*
X77597000Y-55269750D01*
X77597000Y-56019000D01*
X78321250Y-56019000D01*
X78480000Y-55860250D01*
X78480000Y-55683458D01*
X78455597Y-55560777D01*
X78407730Y-55445215D01*
X78338237Y-55341211D01*
X78249789Y-55252763D01*
X78145785Y-55183270D01*
X78030223Y-55135403D01*
X77907542Y-55111000D01*
X77755750Y-55111000D01*
X77597000Y-55269750D01*
X77343000Y-55269750D01*
X77184250Y-55111000D01*
X77032458Y-55111000D01*
X76909777Y-55135403D01*
X76794215Y-55183270D01*
X76690211Y-55252763D01*
X76601763Y-55341211D01*
X76532270Y-55445215D01*
X76484403Y-55560777D01*
X76460000Y-55683458D01*
X75940000Y-55683458D01*
X75915597Y-55560777D01*
X75867730Y-55445215D01*
X75798237Y-55341211D01*
X75709789Y-55252763D01*
X75605785Y-55183270D01*
X75490223Y-55135403D01*
X75367542Y-55111000D01*
X75215750Y-55111000D01*
X75057000Y-55269750D01*
X74803000Y-55269750D01*
X74644250Y-55111000D01*
X74492458Y-55111000D01*
X74369777Y-55135403D01*
X74254215Y-55183270D01*
X74150211Y-55252763D01*
X74061763Y-55341211D01*
X73992270Y-55445215D01*
X73944403Y-55560777D01*
X73920000Y-55683458D01*
X71564500Y-55683458D01*
X71564500Y-53308250D01*
X80835500Y-53308250D01*
X80835500Y-54955402D01*
X80835500Y-54955402D01*
G37*
X80835500Y-54955402D02*
X80645973Y-55166630D01*
X80503343Y-55360971D01*
X80367269Y-55652446D01*
X80290674Y-55964867D01*
X80276500Y-56286226D01*
X80325293Y-56604176D01*
X80435177Y-56906499D01*
X80601930Y-57181575D01*
X80760247Y-57354500D01*
X80508786Y-57354500D01*
X80241594Y-57407648D01*
X79989904Y-57511901D01*
X79763389Y-57663254D01*
X79570754Y-57855889D01*
X79419401Y-58082404D01*
X79315148Y-58334094D01*
X79262000Y-58601286D01*
X79262000Y-58873714D01*
X79315148Y-59140906D01*
X79419401Y-59392596D01*
X79570754Y-59619111D01*
X79763389Y-59811746D01*
X79989904Y-59963099D01*
X80241594Y-60067352D01*
X80508786Y-60120500D01*
X80781214Y-60120500D01*
X80835500Y-60109702D01*
X80835500Y-61048250D01*
X80772000Y-61111750D01*
X80772000Y-61861000D01*
X80792000Y-61861000D01*
X80792000Y-62115000D01*
X80772000Y-62115000D01*
X80772000Y-62135000D01*
X80518000Y-62135000D01*
X80518000Y-62115000D01*
X79793750Y-62115000D01*
X79635000Y-62273750D01*
X79635000Y-62450542D01*
X79659403Y-62573223D01*
X79701353Y-62674500D01*
X79282298Y-62674500D01*
X79248000Y-62671122D01*
X79213702Y-62674500D01*
X79213691Y-62674500D01*
X79111070Y-62684607D01*
X78979403Y-62724548D01*
X78924353Y-62753973D01*
X78858057Y-62789409D01*
X78778346Y-62854826D01*
X78778343Y-62854829D01*
X78751697Y-62876697D01*
X78729829Y-62903343D01*
X77172500Y-64460673D01*
X77172500Y-63890024D01*
X77726955Y-63335570D01*
X77751185Y-63315685D01*
X77786621Y-63272506D01*
X77830538Y-63218994D01*
X77889502Y-63108680D01*
X77895775Y-63088000D01*
X77898443Y-63079207D01*
X78000000Y-63079207D01*
X78099585Y-63069399D01*
X78195343Y-63040351D01*
X78283595Y-62993179D01*
X78360948Y-62929698D01*
X78424429Y-62852345D01*
X78471601Y-62764093D01*
X78500649Y-62668335D01*
X78510457Y-62568750D01*
X78510457Y-62087568D01*
X78912961Y-61685065D01*
X78937185Y-61665185D01*
X78957065Y-61640961D01*
X78957069Y-61640957D01*
X79016538Y-61568494D01*
X79039541Y-61525458D01*
X79635000Y-61525458D01*
X79635000Y-61702250D01*
X79793750Y-61861000D01*
X80518000Y-61861000D01*
X80518000Y-61111750D01*
X80359250Y-60953000D01*
X80207458Y-60953000D01*
X80084777Y-60977403D01*
X79969215Y-61025270D01*
X79865211Y-61094763D01*
X79776763Y-61183211D01*
X79707270Y-61287215D01*
X79659403Y-61402777D01*
X79635000Y-61525458D01*
X79039541Y-61525458D01*
X79075502Y-61458180D01*
X79083726Y-61431068D01*
X79111812Y-61338482D01*
X79121000Y-61245192D01*
X79121000Y-61245189D01*
X79124072Y-61214000D01*
X79121000Y-61182811D01*
X79121000Y-59340181D01*
X79124071Y-59309000D01*
X79121000Y-59277819D01*
X79121000Y-59277808D01*
X79111812Y-59184518D01*
X79075502Y-59064820D01*
X79016537Y-58954506D01*
X78937185Y-58857815D01*
X78912955Y-58837930D01*
X78316520Y-58241495D01*
X78316601Y-58241343D01*
X78345649Y-58145585D01*
X78355457Y-58046000D01*
X78355457Y-57246000D01*
X78345649Y-57146415D01*
X78316601Y-57050657D01*
X78289351Y-56999675D01*
X78338237Y-56950789D01*
X78407730Y-56846785D01*
X78455597Y-56731223D01*
X78480000Y-56608542D01*
X78480000Y-56431750D01*
X78321250Y-56273000D01*
X77597000Y-56273000D01*
X77597000Y-56293000D01*
X77343000Y-56293000D01*
X77343000Y-56273000D01*
X76618750Y-56273000D01*
X76460000Y-56431750D01*
X76460000Y-56608542D01*
X76484403Y-56731223D01*
X76532270Y-56846785D01*
X76601763Y-56950789D01*
X76650649Y-56999675D01*
X76623399Y-57050657D01*
X76594351Y-57146415D01*
X76584543Y-57246000D01*
X76584543Y-58046000D01*
X76594351Y-58145585D01*
X76623399Y-58241343D01*
X76670571Y-58329595D01*
X76734052Y-58406948D01*
X76811405Y-58470429D01*
X76869702Y-58501590D01*
X76880498Y-58537179D01*
X76939463Y-58647493D01*
X77018815Y-58744185D01*
X77043050Y-58764074D01*
X77449238Y-59170262D01*
X77427000Y-59192500D01*
X77427000Y-60141750D01*
X77447000Y-60141750D01*
X77447000Y-60395750D01*
X77427000Y-60395750D01*
X77427000Y-60415750D01*
X77173000Y-60415750D01*
X77173000Y-60395750D01*
X77153000Y-60395750D01*
X77153000Y-60141750D01*
X77173000Y-60141750D01*
X77173000Y-59192500D01*
X77014250Y-59033750D01*
X76537458Y-59033750D01*
X76414777Y-59058153D01*
X76299215Y-59106020D01*
X76195211Y-59175513D01*
X76107107Y-59263617D01*
X76083595Y-59244321D01*
X75995343Y-59197149D01*
X75899585Y-59168101D01*
X75800000Y-59158293D01*
X75565000Y-59158293D01*
X75565000Y-58483041D01*
X75588595Y-58470429D01*
X75665948Y-58406948D01*
X75729429Y-58329595D01*
X75776601Y-58241343D01*
X75805649Y-58145585D01*
X75815457Y-58046000D01*
X75815457Y-57246000D01*
X75805649Y-57146415D01*
X75776601Y-57050657D01*
X75749351Y-56999675D01*
X75798237Y-56950789D01*
X75867730Y-56846785D01*
X75915597Y-56731223D01*
X75940000Y-56608542D01*
X75940000Y-56431750D01*
X75781250Y-56273000D01*
X75057000Y-56273000D01*
X75057000Y-56293000D01*
X74803000Y-56293000D01*
X74803000Y-56273000D01*
X74078750Y-56273000D01*
X73920000Y-56431750D01*
X73920000Y-56608542D01*
X73944403Y-56731223D01*
X73992270Y-56846785D01*
X74061763Y-56950789D01*
X74110649Y-56999675D01*
X74083399Y-57050657D01*
X74054351Y-57146415D01*
X74044543Y-57246000D01*
X74044543Y-58046000D01*
X74054351Y-58145585D01*
X74083399Y-58241343D01*
X74130571Y-58329595D01*
X74194052Y-58406948D01*
X74271405Y-58470429D01*
X74295000Y-58483041D01*
X74295001Y-59169743D01*
X74204657Y-59197149D01*
X74116405Y-59244321D01*
X74039052Y-59307802D01*
X73975571Y-59385155D01*
X73928399Y-59473407D01*
X73899351Y-59569165D01*
X73889543Y-59668750D01*
X73889543Y-59959432D01*
X73360046Y-60488930D01*
X73335816Y-60508815D01*
X73315932Y-60533044D01*
X73256463Y-60605507D01*
X73197498Y-60715821D01*
X73184657Y-60758153D01*
X73161189Y-60835518D01*
X73152001Y-60928808D01*
X73148929Y-60960000D01*
X73152001Y-60991191D01*
X73152000Y-62833819D01*
X73148929Y-62865000D01*
X73152000Y-62896181D01*
X73152000Y-62896191D01*
X73161188Y-62989481D01*
X73197498Y-63109179D01*
X73256463Y-63219493D01*
X73335815Y-63316185D01*
X73360050Y-63336074D01*
X75402501Y-65378527D01*
X75402501Y-65754250D01*
X74145275Y-65754250D01*
X73152000Y-64760976D01*
X73152000Y-63500000D01*
X73149560Y-63475224D01*
X73142333Y-63451399D01*
X73130597Y-63429443D01*
X73114803Y-63410197D01*
X72892000Y-63187394D01*
X72892000Y-63049458D01*
X72867597Y-62926777D01*
X72819730Y-62811215D01*
X72750237Y-62707211D01*
X72661789Y-62618763D01*
X72557785Y-62549270D01*
X72442223Y-62501403D01*
X72319542Y-62477000D01*
X72181606Y-62477000D01*
X71564500Y-61859894D01*
X71564500Y-60109702D01*
X71618786Y-60120500D01*
X71891214Y-60120500D01*
X72158406Y-60067352D01*
X72410096Y-59963099D01*
X72636611Y-59811746D01*
X72829246Y-59619111D01*
X72980599Y-59392596D01*
X73084852Y-59140906D01*
X73138000Y-58873714D01*
X73138000Y-58601286D01*
X73084852Y-58334094D01*
X72980599Y-58082404D01*
X72829246Y-57855889D01*
X72636611Y-57663254D01*
X72410096Y-57511901D01*
X72158406Y-57407648D01*
X71891214Y-57354500D01*
X71618786Y-57354500D01*
X71564500Y-57365298D01*
X71564500Y-55683458D01*
X73920000Y-55683458D01*
X73920000Y-55860250D01*
X74078750Y-56019000D01*
X74803000Y-56019000D01*
X74803000Y-55269750D01*
X75057000Y-55269750D01*
X75057000Y-56019000D01*
X75781250Y-56019000D01*
X75940000Y-55860250D01*
X75940000Y-55683458D01*
X76460000Y-55683458D01*
X76460000Y-55860250D01*
X76618750Y-56019000D01*
X77343000Y-56019000D01*
X77343000Y-55269750D01*
X77597000Y-55269750D01*
X77597000Y-56019000D01*
X78321250Y-56019000D01*
X78480000Y-55860250D01*
X78480000Y-55683458D01*
X78455597Y-55560777D01*
X78407730Y-55445215D01*
X78338237Y-55341211D01*
X78249789Y-55252763D01*
X78145785Y-55183270D01*
X78030223Y-55135403D01*
X77907542Y-55111000D01*
X77755750Y-55111000D01*
X77597000Y-55269750D01*
X77343000Y-55269750D01*
X77184250Y-55111000D01*
X77032458Y-55111000D01*
X76909777Y-55135403D01*
X76794215Y-55183270D01*
X76690211Y-55252763D01*
X76601763Y-55341211D01*
X76532270Y-55445215D01*
X76484403Y-55560777D01*
X76460000Y-55683458D01*
X75940000Y-55683458D01*
X75915597Y-55560777D01*
X75867730Y-55445215D01*
X75798237Y-55341211D01*
X75709789Y-55252763D01*
X75605785Y-55183270D01*
X75490223Y-55135403D01*
X75367542Y-55111000D01*
X75215750Y-55111000D01*
X75057000Y-55269750D01*
X74803000Y-55269750D01*
X74644250Y-55111000D01*
X74492458Y-55111000D01*
X74369777Y-55135403D01*
X74254215Y-55183270D01*
X74150211Y-55252763D01*
X74061763Y-55341211D01*
X73992270Y-55445215D01*
X73944403Y-55560777D01*
X73920000Y-55683458D01*
X71564500Y-55683458D01*
X71564500Y-53308250D01*
X80835500Y-53308250D01*
X80835500Y-54955402D01*
G36*
X75227000Y-61841750D02*
X75247000Y-61841750D01*
X75247000Y-62095750D01*
X75227000Y-62095750D01*
X75227000Y-63045000D01*
X75385750Y-63203750D01*
X75862542Y-63203750D01*
X75985223Y-63179347D01*
X76100785Y-63131480D01*
X76203884Y-63062591D01*
X76110546Y-63155930D01*
X76086316Y-63175815D01*
X76050880Y-63218994D01*
X76006963Y-63272507D01*
X75947998Y-63382821D01*
X75926500Y-63453692D01*
X75911689Y-63502518D01*
X75910959Y-63509929D01*
X75899429Y-63627000D01*
X75902501Y-63658191D01*
X75902501Y-64082475D01*
X74919012Y-63098988D01*
X74973000Y-63045000D01*
X74973000Y-62095750D01*
X74953000Y-62095750D01*
X74953000Y-61841750D01*
X74973000Y-61841750D01*
X74973000Y-61821750D01*
X75227000Y-61821750D01*
X75227000Y-61841750D01*
X75227000Y-61841750D01*
G37*
X75227000Y-61841750D02*
X75247000Y-61841750D01*
X75247000Y-62095750D01*
X75227000Y-62095750D01*
X75227000Y-63045000D01*
X75385750Y-63203750D01*
X75862542Y-63203750D01*
X75985223Y-63179347D01*
X76100785Y-63131480D01*
X76203884Y-63062591D01*
X76110546Y-63155930D01*
X76086316Y-63175815D01*
X76050880Y-63218994D01*
X76006963Y-63272507D01*
X75947998Y-63382821D01*
X75926500Y-63453692D01*
X75911689Y-63502518D01*
X75910959Y-63509929D01*
X75899429Y-63627000D01*
X75902501Y-63658191D01*
X75902501Y-64082475D01*
X74919012Y-63098988D01*
X74973000Y-63045000D01*
X74973000Y-62095750D01*
X74953000Y-62095750D01*
X74953000Y-61841750D01*
X74973000Y-61841750D01*
X74973000Y-61821750D01*
X75227000Y-61821750D01*
X75227000Y-61841750D01*
G36*
X60335000Y-5348000D02*
X60335000Y-5648000D01*
X61329500Y-5648000D01*
X61329500Y-5902000D01*
X60335000Y-5902000D01*
X60335000Y-6202000D01*
X60381585Y-6420987D01*
X60469997Y-6626678D01*
X60596839Y-6811169D01*
X60757236Y-6967369D01*
X60945024Y-7089276D01*
X61168126Y-7169119D01*
X61329501Y-7052693D01*
X61329501Y-7172383D01*
X61331953Y-7197278D01*
X61331919Y-7202130D01*
X61332713Y-7210232D01*
X61348906Y-7364297D01*
X61359526Y-7416034D01*
X61369432Y-7467962D01*
X61371785Y-7475755D01*
X61417594Y-7623739D01*
X61438080Y-7672473D01*
X61457864Y-7721440D01*
X61461685Y-7728628D01*
X61535365Y-7864897D01*
X61564926Y-7908724D01*
X61593848Y-7952920D01*
X61598992Y-7959228D01*
X61697739Y-8078591D01*
X61735231Y-8115822D01*
X61772201Y-8153575D01*
X61778473Y-8158764D01*
X61785500Y-8164495D01*
X61785500Y-8315757D01*
X61771874Y-8310881D01*
X61597000Y-8437046D01*
X61597000Y-9828000D01*
X61617000Y-9828000D01*
X61617000Y-10082000D01*
X61597000Y-10082000D01*
X61597000Y-10102000D01*
X61343000Y-10102000D01*
X61343000Y-10082000D01*
X61323000Y-10082000D01*
X61323000Y-9828000D01*
X61343000Y-9828000D01*
X61343000Y-8437046D01*
X61168126Y-8310881D01*
X60945024Y-8390724D01*
X60757236Y-8512631D01*
X60596839Y-8668831D01*
X60537294Y-8755440D01*
X60434574Y-8686805D01*
X60282977Y-8624011D01*
X60122043Y-8592000D01*
X59957957Y-8592000D01*
X59797023Y-8624011D01*
X59645426Y-8686805D01*
X59508993Y-8777966D01*
X59392966Y-8893993D01*
X59301805Y-9030426D01*
X59239011Y-9182023D01*
X59207000Y-9342957D01*
X59207000Y-9507043D01*
X59233660Y-9641077D01*
X59200415Y-9644351D01*
X59175000Y-9652061D01*
X59149585Y-9644351D01*
X59050000Y-9634543D01*
X58750000Y-9634543D01*
X58650415Y-9644351D01*
X58650000Y-9644477D01*
X58649585Y-9644351D01*
X58550000Y-9634543D01*
X58481336Y-9634543D01*
X58445442Y-9567390D01*
X58430538Y-9539507D01*
X58382919Y-9481483D01*
X58351185Y-9442815D01*
X58326955Y-9422931D01*
X58129074Y-9225050D01*
X58109185Y-9200815D01*
X58012494Y-9121463D01*
X57902180Y-9062498D01*
X57782482Y-9026188D01*
X57689192Y-9017000D01*
X57689181Y-9017000D01*
X57658000Y-9013929D01*
X57626819Y-9017000D01*
X57181180Y-9017000D01*
X57149999Y-9013929D01*
X57118818Y-9017000D01*
X57118808Y-9017000D01*
X57025518Y-9026188D01*
X56905820Y-9062498D01*
X56795506Y-9121463D01*
X56698815Y-9200815D01*
X56678929Y-9225046D01*
X56473045Y-9430931D01*
X56448816Y-9450815D01*
X56406867Y-9501930D01*
X56369463Y-9547507D01*
X56322941Y-9634543D01*
X56250000Y-9634543D01*
X56150415Y-9644351D01*
X56150000Y-9644477D01*
X56149585Y-9644351D01*
X56050000Y-9634543D01*
X55750000Y-9634543D01*
X55650415Y-9644351D01*
X55650000Y-9644477D01*
X55649585Y-9644351D01*
X55550000Y-9634543D01*
X55250000Y-9634543D01*
X55150415Y-9644351D01*
X55125000Y-9652061D01*
X55099585Y-9644351D01*
X55066340Y-9641077D01*
X55093000Y-9507043D01*
X55093000Y-9342957D01*
X55060989Y-9182023D01*
X54998195Y-9030426D01*
X54907034Y-8893993D01*
X54791007Y-8777966D01*
X54654574Y-8686805D01*
X54502977Y-8624011D01*
X54342043Y-8592000D01*
X54177957Y-8592000D01*
X54017023Y-8624011D01*
X53865426Y-8686805D01*
X53762706Y-8755440D01*
X53703161Y-8668831D01*
X53542764Y-8512631D01*
X53354976Y-8390724D01*
X53131874Y-8310881D01*
X52957000Y-8437046D01*
X52957000Y-9828000D01*
X52977000Y-9828000D01*
X52977000Y-10082000D01*
X52957000Y-10082000D01*
X52957000Y-10102000D01*
X52703000Y-10102000D01*
X52703000Y-10082000D01*
X52683000Y-10082000D01*
X52683000Y-9828000D01*
X52703000Y-9828000D01*
X52703000Y-8437046D01*
X52528126Y-8310881D01*
X52514500Y-8315757D01*
X52514500Y-8163918D01*
X52528591Y-8152261D01*
X52565822Y-8114769D01*
X52603575Y-8077799D01*
X52608764Y-8071527D01*
X52706673Y-7951479D01*
X52735925Y-7907451D01*
X52765768Y-7863867D01*
X52769639Y-7856708D01*
X52769640Y-7856707D01*
X52769642Y-7856703D01*
X52842367Y-7719926D01*
X52862501Y-7671076D01*
X52883318Y-7622508D01*
X52885725Y-7614732D01*
X52930500Y-7466430D01*
X52940769Y-7414571D01*
X52951749Y-7362911D01*
X52952601Y-7354815D01*
X52967718Y-7200642D01*
X52967718Y-7200630D01*
X52970500Y-7172383D01*
X52970500Y-7052694D01*
X53131874Y-7169119D01*
X53354976Y-7089276D01*
X53542764Y-6967369D01*
X53703161Y-6811169D01*
X53830003Y-6626678D01*
X53918415Y-6420987D01*
X53965000Y-6202000D01*
X53965000Y-5902000D01*
X52970500Y-5902000D01*
X52970500Y-5648000D01*
X53965000Y-5648000D01*
X53965000Y-5348000D01*
X53964468Y-5345500D01*
X60335532Y-5345500D01*
X60335000Y-5348000D01*
X60335000Y-5348000D01*
G37*
X60335000Y-5348000D02*
X60335000Y-5648000D01*
X61329500Y-5648000D01*
X61329500Y-5902000D01*
X60335000Y-5902000D01*
X60335000Y-6202000D01*
X60381585Y-6420987D01*
X60469997Y-6626678D01*
X60596839Y-6811169D01*
X60757236Y-6967369D01*
X60945024Y-7089276D01*
X61168126Y-7169119D01*
X61329501Y-7052693D01*
X61329501Y-7172383D01*
X61331953Y-7197278D01*
X61331919Y-7202130D01*
X61332713Y-7210232D01*
X61348906Y-7364297D01*
X61359526Y-7416034D01*
X61369432Y-7467962D01*
X61371785Y-7475755D01*
X61417594Y-7623739D01*
X61438080Y-7672473D01*
X61457864Y-7721440D01*
X61461685Y-7728628D01*
X61535365Y-7864897D01*
X61564926Y-7908724D01*
X61593848Y-7952920D01*
X61598992Y-7959228D01*
X61697739Y-8078591D01*
X61735231Y-8115822D01*
X61772201Y-8153575D01*
X61778473Y-8158764D01*
X61785500Y-8164495D01*
X61785500Y-8315757D01*
X61771874Y-8310881D01*
X61597000Y-8437046D01*
X61597000Y-9828000D01*
X61617000Y-9828000D01*
X61617000Y-10082000D01*
X61597000Y-10082000D01*
X61597000Y-10102000D01*
X61343000Y-10102000D01*
X61343000Y-10082000D01*
X61323000Y-10082000D01*
X61323000Y-9828000D01*
X61343000Y-9828000D01*
X61343000Y-8437046D01*
X61168126Y-8310881D01*
X60945024Y-8390724D01*
X60757236Y-8512631D01*
X60596839Y-8668831D01*
X60537294Y-8755440D01*
X60434574Y-8686805D01*
X60282977Y-8624011D01*
X60122043Y-8592000D01*
X59957957Y-8592000D01*
X59797023Y-8624011D01*
X59645426Y-8686805D01*
X59508993Y-8777966D01*
X59392966Y-8893993D01*
X59301805Y-9030426D01*
X59239011Y-9182023D01*
X59207000Y-9342957D01*
X59207000Y-9507043D01*
X59233660Y-9641077D01*
X59200415Y-9644351D01*
X59175000Y-9652061D01*
X59149585Y-9644351D01*
X59050000Y-9634543D01*
X58750000Y-9634543D01*
X58650415Y-9644351D01*
X58650000Y-9644477D01*
X58649585Y-9644351D01*
X58550000Y-9634543D01*
X58481336Y-9634543D01*
X58445442Y-9567390D01*
X58430538Y-9539507D01*
X58382919Y-9481483D01*
X58351185Y-9442815D01*
X58326955Y-9422931D01*
X58129074Y-9225050D01*
X58109185Y-9200815D01*
X58012494Y-9121463D01*
X57902180Y-9062498D01*
X57782482Y-9026188D01*
X57689192Y-9017000D01*
X57689181Y-9017000D01*
X57658000Y-9013929D01*
X57626819Y-9017000D01*
X57181180Y-9017000D01*
X57149999Y-9013929D01*
X57118818Y-9017000D01*
X57118808Y-9017000D01*
X57025518Y-9026188D01*
X56905820Y-9062498D01*
X56795506Y-9121463D01*
X56698815Y-9200815D01*
X56678929Y-9225046D01*
X56473045Y-9430931D01*
X56448816Y-9450815D01*
X56406867Y-9501930D01*
X56369463Y-9547507D01*
X56322941Y-9634543D01*
X56250000Y-9634543D01*
X56150415Y-9644351D01*
X56150000Y-9644477D01*
X56149585Y-9644351D01*
X56050000Y-9634543D01*
X55750000Y-9634543D01*
X55650415Y-9644351D01*
X55650000Y-9644477D01*
X55649585Y-9644351D01*
X55550000Y-9634543D01*
X55250000Y-9634543D01*
X55150415Y-9644351D01*
X55125000Y-9652061D01*
X55099585Y-9644351D01*
X55066340Y-9641077D01*
X55093000Y-9507043D01*
X55093000Y-9342957D01*
X55060989Y-9182023D01*
X54998195Y-9030426D01*
X54907034Y-8893993D01*
X54791007Y-8777966D01*
X54654574Y-8686805D01*
X54502977Y-8624011D01*
X54342043Y-8592000D01*
X54177957Y-8592000D01*
X54017023Y-8624011D01*
X53865426Y-8686805D01*
X53762706Y-8755440D01*
X53703161Y-8668831D01*
X53542764Y-8512631D01*
X53354976Y-8390724D01*
X53131874Y-8310881D01*
X52957000Y-8437046D01*
X52957000Y-9828000D01*
X52977000Y-9828000D01*
X52977000Y-10082000D01*
X52957000Y-10082000D01*
X52957000Y-10102000D01*
X52703000Y-10102000D01*
X52703000Y-10082000D01*
X52683000Y-10082000D01*
X52683000Y-9828000D01*
X52703000Y-9828000D01*
X52703000Y-8437046D01*
X52528126Y-8310881D01*
X52514500Y-8315757D01*
X52514500Y-8163918D01*
X52528591Y-8152261D01*
X52565822Y-8114769D01*
X52603575Y-8077799D01*
X52608764Y-8071527D01*
X52706673Y-7951479D01*
X52735925Y-7907451D01*
X52765768Y-7863867D01*
X52769639Y-7856708D01*
X52769640Y-7856707D01*
X52769642Y-7856703D01*
X52842367Y-7719926D01*
X52862501Y-7671076D01*
X52883318Y-7622508D01*
X52885725Y-7614732D01*
X52930500Y-7466430D01*
X52940769Y-7414571D01*
X52951749Y-7362911D01*
X52952601Y-7354815D01*
X52967718Y-7200642D01*
X52967718Y-7200630D01*
X52970500Y-7172383D01*
X52970500Y-7052694D01*
X53131874Y-7169119D01*
X53354976Y-7089276D01*
X53542764Y-6967369D01*
X53703161Y-6811169D01*
X53830003Y-6626678D01*
X53918415Y-6420987D01*
X53965000Y-6202000D01*
X53965000Y-5902000D01*
X52970500Y-5902000D01*
X52970500Y-5648000D01*
X53965000Y-5648000D01*
X53965000Y-5348000D01*
X53964468Y-5345500D01*
X60335532Y-5345500D01*
X60335000Y-5348000D01*
M02*
