%TF.GenerationSoftware,KiCad,Pcbnew,(5.0.0)*%
%TF.CreationDate,2019-01-26T20:31:16-08:00*%
%TF.ProjectId,Voyager20,566F796167657232302E6B696361645F,rev?*%
%TF.SameCoordinates,Original*%
%TF.FileFunction,Legend,Bot*%
%TF.FilePolarity,Positive*%
%FSLAX46Y46*%
G04 Gerber Fmt 4.6, Leading zero omitted, Abs format (unit mm)*
G04 Created by KiCad (PCBNEW (5.0.0)) date 01/26/19 20:31:16*
%MOMM*%
%LPD*%
G01*
G04 APERTURE LIST*
%ADD10C,0.150000*%
%ADD11C,0.200000*%
%ADD12C,0.120000*%
%ADD13R,1.150000X1.200000*%
%ADD14R,1.200000X1.150000*%
%ADD15R,1.600000X1.300000*%
%ADD16R,1.400000X2.000000*%
%ADD17R,2.430000X1.540000*%
%ADD18C,2.150000*%
%ADD19R,2.305000X2.305000*%
%ADD20C,2.305000*%
%ADD21C,2.650000*%
%ADD22C,4.387800*%
%ADD23C,2.650000*%
%ADD24R,1.700000X1.100000*%
%ADD25R,1.100000X1.700000*%
%ADD26R,2.200000X1.500000*%
%ADD27R,1.100000X1.000000*%
%ADD28R,1.100000X1.400000*%
%ADD29O,1.400000X2.000000*%
%ADD30O,1.400000X2.500000*%
%ADD31C,1.050000*%
%ADD32R,0.700000X1.850000*%
%ADD33R,1.000000X1.850000*%
%ADD34R,1.800000X1.600000*%
%ADD35C,3.448000*%
%ADD36R,2.125000X2.125000*%
%ADD37R,1.100000X0.650000*%
%ADD38R,0.650000X1.100000*%
%ADD39R,1.300000X1.200000*%
G04 APERTURE END LIST*
D10*
X85485714Y-25583630D02*
X85152380Y-26583630D01*
X84819047Y-25583630D01*
X84342857Y-26583630D02*
X84438095Y-26536011D01*
X84485714Y-26488392D01*
X84533333Y-26393154D01*
X84533333Y-26107440D01*
X84485714Y-26012202D01*
X84438095Y-25964583D01*
X84342857Y-25916964D01*
X84200000Y-25916964D01*
X84104761Y-25964583D01*
X84057142Y-26012202D01*
X84009523Y-26107440D01*
X84009523Y-26393154D01*
X84057142Y-26488392D01*
X84104761Y-26536011D01*
X84200000Y-26583630D01*
X84342857Y-26583630D01*
X83676190Y-25916964D02*
X83438095Y-26583630D01*
X83200000Y-25916964D02*
X83438095Y-26583630D01*
X83533333Y-26821726D01*
X83580952Y-26869345D01*
X83676190Y-26916964D01*
X82390476Y-26583630D02*
X82390476Y-26059821D01*
X82438095Y-25964583D01*
X82533333Y-25916964D01*
X82723809Y-25916964D01*
X82819047Y-25964583D01*
X82390476Y-26536011D02*
X82485714Y-26583630D01*
X82723809Y-26583630D01*
X82819047Y-26536011D01*
X82866666Y-26440773D01*
X82866666Y-26345535D01*
X82819047Y-26250297D01*
X82723809Y-26202678D01*
X82485714Y-26202678D01*
X82390476Y-26155059D01*
X81485714Y-25916964D02*
X81485714Y-26726488D01*
X81533333Y-26821726D01*
X81580952Y-26869345D01*
X81676190Y-26916964D01*
X81819047Y-26916964D01*
X81914285Y-26869345D01*
X81485714Y-26536011D02*
X81580952Y-26583630D01*
X81771428Y-26583630D01*
X81866666Y-26536011D01*
X81914285Y-26488392D01*
X81961904Y-26393154D01*
X81961904Y-26107440D01*
X81914285Y-26012202D01*
X81866666Y-25964583D01*
X81771428Y-25916964D01*
X81580952Y-25916964D01*
X81485714Y-25964583D01*
X80628571Y-26536011D02*
X80723809Y-26583630D01*
X80914285Y-26583630D01*
X81009523Y-26536011D01*
X81057142Y-26440773D01*
X81057142Y-26059821D01*
X81009523Y-25964583D01*
X80914285Y-25916964D01*
X80723809Y-25916964D01*
X80628571Y-25964583D01*
X80580952Y-26059821D01*
X80580952Y-26155059D01*
X81057142Y-26250297D01*
X80152380Y-26583630D02*
X80152380Y-25916964D01*
X80152380Y-26107440D02*
X80104761Y-26012202D01*
X80057142Y-25964583D01*
X79961904Y-25916964D01*
X79866666Y-25916964D01*
X79580952Y-25678869D02*
X79533333Y-25631250D01*
X79438095Y-25583630D01*
X79200000Y-25583630D01*
X79104761Y-25631250D01*
X79057142Y-25678869D01*
X79009523Y-25774107D01*
X79009523Y-25869345D01*
X79057142Y-26012202D01*
X79628571Y-26583630D01*
X79009523Y-26583630D01*
X78390476Y-25583630D02*
X78295238Y-25583630D01*
X78200000Y-25631250D01*
X78152380Y-25678869D01*
X78104761Y-25774107D01*
X78057142Y-25964583D01*
X78057142Y-26202678D01*
X78104761Y-26393154D01*
X78152380Y-26488392D01*
X78200000Y-26536011D01*
X78295238Y-26583630D01*
X78390476Y-26583630D01*
X78485714Y-26536011D01*
X78533333Y-26488392D01*
X78580952Y-26393154D01*
X78628571Y-26202678D01*
X78628571Y-25964583D01*
X78580952Y-25774107D01*
X78533333Y-25678869D01*
X78485714Y-25631250D01*
X78390476Y-25583630D01*
X76866666Y-26583630D02*
X76866666Y-25583630D01*
X76485714Y-25583630D01*
X76390476Y-25631250D01*
X76342857Y-25678869D01*
X76295238Y-25774107D01*
X76295238Y-25916964D01*
X76342857Y-26012202D01*
X76390476Y-26059821D01*
X76485714Y-26107440D01*
X76866666Y-26107440D01*
X75295238Y-26488392D02*
X75342857Y-26536011D01*
X75485714Y-26583630D01*
X75580952Y-26583630D01*
X75723809Y-26536011D01*
X75819047Y-26440773D01*
X75866666Y-26345535D01*
X75914285Y-26155059D01*
X75914285Y-26012202D01*
X75866666Y-25821726D01*
X75819047Y-25726488D01*
X75723809Y-25631250D01*
X75580952Y-25583630D01*
X75485714Y-25583630D01*
X75342857Y-25631250D01*
X75295238Y-25678869D01*
X74533333Y-26059821D02*
X74390476Y-26107440D01*
X74342857Y-26155059D01*
X74295238Y-26250297D01*
X74295238Y-26393154D01*
X74342857Y-26488392D01*
X74390476Y-26536011D01*
X74485714Y-26583630D01*
X74866666Y-26583630D01*
X74866666Y-25583630D01*
X74533333Y-25583630D01*
X74438095Y-25631250D01*
X74390476Y-25678869D01*
X74342857Y-25774107D01*
X74342857Y-25869345D01*
X74390476Y-25964583D01*
X74438095Y-26012202D01*
X74533333Y-26059821D01*
X74866666Y-26059821D01*
X72533333Y-26583630D02*
X72866666Y-26107440D01*
X73104761Y-26583630D02*
X73104761Y-25583630D01*
X72723809Y-25583630D01*
X72628571Y-25631250D01*
X72580952Y-25678869D01*
X72533333Y-25774107D01*
X72533333Y-25916964D01*
X72580952Y-26012202D01*
X72628571Y-26059821D01*
X72723809Y-26107440D01*
X73104761Y-26107440D01*
X71723809Y-26536011D02*
X71819047Y-26583630D01*
X72009523Y-26583630D01*
X72104761Y-26536011D01*
X72152380Y-26440773D01*
X72152380Y-26059821D01*
X72104761Y-25964583D01*
X72009523Y-25916964D01*
X71819047Y-25916964D01*
X71723809Y-25964583D01*
X71676190Y-26059821D01*
X71676190Y-26155059D01*
X72152380Y-26250297D01*
X71342857Y-25916964D02*
X71104761Y-26583630D01*
X70866666Y-25916964D01*
X69200000Y-26583630D02*
X69771428Y-26583630D01*
X69485714Y-26583630D02*
X69485714Y-25583630D01*
X69580952Y-25726488D01*
X69676190Y-25821726D01*
X69771428Y-25869345D01*
X68771428Y-26488392D02*
X68723809Y-26536011D01*
X68771428Y-26583630D01*
X68819047Y-26536011D01*
X68771428Y-26488392D01*
X68771428Y-26583630D01*
X68104761Y-25583630D02*
X68009523Y-25583630D01*
X67914285Y-25631250D01*
X67866666Y-25678869D01*
X67819047Y-25774107D01*
X67771428Y-25964583D01*
X67771428Y-26202678D01*
X67819047Y-26393154D01*
X67866666Y-26488392D01*
X67914285Y-26536011D01*
X68009523Y-26583630D01*
X68104761Y-26583630D01*
X68200000Y-26536011D01*
X68247619Y-26488392D01*
X68295238Y-26393154D01*
X68342857Y-26202678D01*
X68342857Y-25964583D01*
X68295238Y-25774107D01*
X68247619Y-25678869D01*
X68200000Y-25631250D01*
X68104761Y-25583630D01*
X79819047Y-27328869D02*
X79771428Y-27281250D01*
X79676190Y-27233630D01*
X79438095Y-27233630D01*
X79342857Y-27281250D01*
X79295238Y-27328869D01*
X79247619Y-27424107D01*
X79247619Y-27519345D01*
X79295238Y-27662202D01*
X79866666Y-28233630D01*
X79247619Y-28233630D01*
X78628571Y-27233630D02*
X78533333Y-27233630D01*
X78438095Y-27281250D01*
X78390476Y-27328869D01*
X78342857Y-27424107D01*
X78295238Y-27614583D01*
X78295238Y-27852678D01*
X78342857Y-28043154D01*
X78390476Y-28138392D01*
X78438095Y-28186011D01*
X78533333Y-28233630D01*
X78628571Y-28233630D01*
X78723809Y-28186011D01*
X78771428Y-28138392D01*
X78819047Y-28043154D01*
X78866666Y-27852678D01*
X78866666Y-27614583D01*
X78819047Y-27424107D01*
X78771428Y-27328869D01*
X78723809Y-27281250D01*
X78628571Y-27233630D01*
X77342857Y-28233630D02*
X77914285Y-28233630D01*
X77628571Y-28233630D02*
X77628571Y-27233630D01*
X77723809Y-27376488D01*
X77819047Y-27471726D01*
X77914285Y-27519345D01*
X76866666Y-28233630D02*
X76676190Y-28233630D01*
X76580952Y-28186011D01*
X76533333Y-28138392D01*
X76438095Y-27995535D01*
X76390476Y-27805059D01*
X76390476Y-27424107D01*
X76438095Y-27328869D01*
X76485714Y-27281250D01*
X76580952Y-27233630D01*
X76771428Y-27233630D01*
X76866666Y-27281250D01*
X76914285Y-27328869D01*
X76961904Y-27424107D01*
X76961904Y-27662202D01*
X76914285Y-27757440D01*
X76866666Y-27805059D01*
X76771428Y-27852678D01*
X76580952Y-27852678D01*
X76485714Y-27805059D01*
X76438095Y-27757440D01*
X76390476Y-27662202D01*
X75771428Y-27233630D02*
X75676190Y-27233630D01*
X75580952Y-27281250D01*
X75533333Y-27328869D01*
X75485714Y-27424107D01*
X75438095Y-27614583D01*
X75438095Y-27852678D01*
X75485714Y-28043154D01*
X75533333Y-28138392D01*
X75580952Y-28186011D01*
X75676190Y-28233630D01*
X75771428Y-28233630D01*
X75866666Y-28186011D01*
X75914285Y-28138392D01*
X75961904Y-28043154D01*
X76009523Y-27852678D01*
X76009523Y-27614583D01*
X75961904Y-27424107D01*
X75914285Y-27328869D01*
X75866666Y-27281250D01*
X75771428Y-27233630D01*
X74485714Y-28233630D02*
X75057142Y-28233630D01*
X74771428Y-28233630D02*
X74771428Y-27233630D01*
X74866666Y-27376488D01*
X74961904Y-27471726D01*
X75057142Y-27519345D01*
X74104761Y-27328869D02*
X74057142Y-27281250D01*
X73961904Y-27233630D01*
X73723809Y-27233630D01*
X73628571Y-27281250D01*
X73580952Y-27328869D01*
X73533333Y-27424107D01*
X73533333Y-27519345D01*
X73580952Y-27662202D01*
X74152380Y-28233630D01*
X73533333Y-28233630D01*
X72676190Y-27233630D02*
X72866666Y-27233630D01*
X72961904Y-27281250D01*
X73009523Y-27328869D01*
X73104761Y-27471726D01*
X73152380Y-27662202D01*
X73152380Y-28043154D01*
X73104761Y-28138392D01*
X73057142Y-28186011D01*
X72961904Y-28233630D01*
X72771428Y-28233630D01*
X72676190Y-28186011D01*
X72628571Y-28138392D01*
X72580952Y-28043154D01*
X72580952Y-27805059D01*
X72628571Y-27709821D01*
X72676190Y-27662202D01*
X72771428Y-27614583D01*
X72961904Y-27614583D01*
X73057142Y-27662202D01*
X73104761Y-27709821D01*
X73152380Y-27805059D01*
X80033333Y-29883630D02*
X80033333Y-28883630D01*
X79938095Y-29502678D02*
X79652380Y-29883630D01*
X79652380Y-29216964D02*
X80033333Y-29597916D01*
X79223809Y-29883630D02*
X79223809Y-28883630D01*
X79223809Y-29264583D02*
X79128571Y-29216964D01*
X78938095Y-29216964D01*
X78842857Y-29264583D01*
X78795238Y-29312202D01*
X78747619Y-29407440D01*
X78747619Y-29693154D01*
X78795238Y-29788392D01*
X78842857Y-29836011D01*
X78938095Y-29883630D01*
X79128571Y-29883630D01*
X79223809Y-29836011D01*
X78319047Y-29788392D02*
X78271428Y-29836011D01*
X78319047Y-29883630D01*
X78366666Y-29836011D01*
X78319047Y-29788392D01*
X78319047Y-29883630D01*
X77414285Y-29883630D02*
X77414285Y-29359821D01*
X77461904Y-29264583D01*
X77557142Y-29216964D01*
X77747619Y-29216964D01*
X77842857Y-29264583D01*
X77414285Y-29836011D02*
X77509523Y-29883630D01*
X77747619Y-29883630D01*
X77842857Y-29836011D01*
X77890476Y-29740773D01*
X77890476Y-29645535D01*
X77842857Y-29550297D01*
X77747619Y-29502678D01*
X77509523Y-29502678D01*
X77414285Y-29455059D01*
X76938095Y-29883630D02*
X76938095Y-29216964D01*
X76938095Y-28883630D02*
X76985714Y-28931250D01*
X76938095Y-28978869D01*
X76890476Y-28931250D01*
X76938095Y-28883630D01*
X76938095Y-28978869D01*
X76271428Y-28883630D02*
X76176190Y-28883630D01*
X76080952Y-28931250D01*
X76033333Y-28978869D01*
X75985714Y-29074107D01*
X75938095Y-29264583D01*
X75938095Y-29502678D01*
X75985714Y-29693154D01*
X76033333Y-29788392D01*
X76080952Y-29836011D01*
X76176190Y-29883630D01*
X76271428Y-29883630D01*
X76366666Y-29836011D01*
X76414285Y-29788392D01*
X76461904Y-29693154D01*
X76509523Y-29502678D01*
X76509523Y-29264583D01*
X76461904Y-29074107D01*
X76414285Y-28978869D01*
X76366666Y-28931250D01*
X76271428Y-28883630D01*
X75604761Y-28883630D02*
X74985714Y-28883630D01*
X75319047Y-29264583D01*
X75176190Y-29264583D01*
X75080952Y-29312202D01*
X75033333Y-29359821D01*
X74985714Y-29455059D01*
X74985714Y-29693154D01*
X75033333Y-29788392D01*
X75080952Y-29836011D01*
X75176190Y-29883630D01*
X75461904Y-29883630D01*
X75557142Y-29836011D01*
X75604761Y-29788392D01*
X74557142Y-29788392D02*
X74509523Y-29836011D01*
X74557142Y-29883630D01*
X74604761Y-29836011D01*
X74557142Y-29788392D01*
X74557142Y-29883630D01*
X74080952Y-29883630D02*
X74080952Y-29216964D01*
X74080952Y-29312202D02*
X74033333Y-29264583D01*
X73938095Y-29216964D01*
X73795238Y-29216964D01*
X73700000Y-29264583D01*
X73652380Y-29359821D01*
X73652380Y-29883630D01*
X73652380Y-29359821D02*
X73604761Y-29264583D01*
X73509523Y-29216964D01*
X73366666Y-29216964D01*
X73271428Y-29264583D01*
X73223809Y-29359821D01*
X73223809Y-29883630D01*
X72366666Y-29836011D02*
X72461904Y-29883630D01*
X72652380Y-29883630D01*
X72747619Y-29836011D01*
X72795238Y-29740773D01*
X72795238Y-29359821D01*
X72747619Y-29264583D01*
X72652380Y-29216964D01*
X72461904Y-29216964D01*
X72366666Y-29264583D01*
X72319047Y-29359821D01*
X72319047Y-29455059D01*
X72795238Y-29550297D01*
D11*
X55753000Y-98298000D02*
G75*
G03X55753000Y-98298000I-254000J0D01*
G01*
X90678000Y-98298000D02*
G75*
G03X90678000Y-98298000I-254000J0D01*
G01*
X91440000Y-24384000D02*
G75*
G03X91440000Y-24384000I-254000J0D01*
G01*
X56642000Y-24511000D02*
G75*
G03X56642000Y-24511000I-254000J0D01*
G01*
X74549000Y-65532000D02*
G75*
G03X74549000Y-65532000I-254000J0D01*
G01*
D12*
X75530000Y-57246000D02*
X75530000Y-56546000D01*
X74330000Y-56546000D02*
X74330000Y-57246000D01*
X76870000Y-56546000D02*
X76870000Y-57246000D01*
X78070000Y-57246000D02*
X78070000Y-56546000D01*
X73371000Y-71089000D02*
X73371000Y-70389000D01*
X72171000Y-70389000D02*
X72171000Y-71089000D01*
X81245000Y-63088000D02*
X81245000Y-62388000D01*
X80045000Y-62388000D02*
X80045000Y-63088000D01*
X71532000Y-68037000D02*
X72232000Y-68037000D01*
X72232000Y-66837000D02*
X71532000Y-66837000D01*
X71282000Y-63912000D02*
X71282000Y-64612000D01*
X72482000Y-64612000D02*
X72482000Y-63912000D01*
X59181250Y-34731250D02*
X59881250Y-34731250D01*
X59881250Y-33531250D02*
X59181250Y-33531250D01*
X99818750Y-28925000D02*
X99818750Y-28225000D01*
X98618750Y-28225000D02*
X98618750Y-28925000D01*
X64100000Y-106712500D02*
X64100000Y-106012500D01*
X62900000Y-106012500D02*
X62900000Y-106712500D01*
X88300000Y-106012500D02*
X88300000Y-106712500D01*
X89500000Y-106712500D02*
X89500000Y-106012500D01*
X43068750Y-45906250D02*
X43068750Y-42006250D01*
X41068750Y-45906250D02*
X41068750Y-42006250D01*
X43068750Y-45906250D02*
X41068750Y-45906250D01*
X75612500Y-41937500D02*
X73612500Y-41937500D01*
X73612500Y-41937500D02*
X73612500Y-38037500D01*
X75612500Y-41937500D02*
X75612500Y-38037500D01*
X78787500Y-41937500D02*
X78787500Y-38037500D01*
X76787500Y-41937500D02*
X76787500Y-38037500D01*
X78787500Y-41937500D02*
X76787500Y-41937500D01*
X94662500Y-41937500D02*
X92662500Y-41937500D01*
X92662500Y-41937500D02*
X92662500Y-38037500D01*
X94662500Y-41937500D02*
X94662500Y-38037500D01*
X43068750Y-64956250D02*
X41068750Y-64956250D01*
X41068750Y-64956250D02*
X41068750Y-61056250D01*
X43068750Y-64956250D02*
X43068750Y-61056250D01*
X59737500Y-60987500D02*
X59737500Y-57087500D01*
X57737500Y-60987500D02*
X57737500Y-57087500D01*
X59737500Y-60987500D02*
X57737500Y-60987500D01*
X93868750Y-64956250D02*
X91868750Y-64956250D01*
X91868750Y-64956250D02*
X91868750Y-61056250D01*
X93868750Y-64956250D02*
X93868750Y-61056250D01*
X97043750Y-64956250D02*
X97043750Y-61056250D01*
X95043750Y-64956250D02*
X95043750Y-61056250D01*
X97043750Y-64956250D02*
X95043750Y-64956250D01*
X56931250Y-25075000D02*
X57931250Y-25075000D01*
X56931250Y-32075000D02*
X56931250Y-25075000D01*
X62131250Y-32075000D02*
X62131250Y-25075000D01*
X56562500Y-80037500D02*
X54562500Y-80037500D01*
X54562500Y-80037500D02*
X54562500Y-76137500D01*
X56562500Y-80037500D02*
X56562500Y-76137500D01*
X59737500Y-80037500D02*
X59737500Y-76137500D01*
X57737500Y-80037500D02*
X57737500Y-76137500D01*
X59737500Y-80037500D02*
X57737500Y-80037500D01*
X93868750Y-76068750D02*
X93868750Y-72168750D01*
X91868750Y-76068750D02*
X91868750Y-72168750D01*
X93868750Y-76068750D02*
X91868750Y-76068750D01*
X97043750Y-76068750D02*
X95043750Y-76068750D01*
X95043750Y-76068750D02*
X95043750Y-72168750D01*
X97043750Y-76068750D02*
X97043750Y-72168750D01*
X56562500Y-91943750D02*
X54562500Y-91943750D01*
X54562500Y-91943750D02*
X54562500Y-88043750D01*
X56562500Y-91943750D02*
X56562500Y-88043750D01*
X59737500Y-91943750D02*
X59737500Y-88043750D01*
X57737500Y-91943750D02*
X57737500Y-88043750D01*
X59737500Y-91943750D02*
X57737500Y-91943750D01*
X78787500Y-99087500D02*
X78787500Y-95187500D01*
X76787500Y-99087500D02*
X76787500Y-95187500D01*
X78787500Y-99087500D02*
X76787500Y-99087500D01*
X75612500Y-99087500D02*
X73612500Y-99087500D01*
X73612500Y-99087500D02*
X73612500Y-95187500D01*
X75612500Y-99087500D02*
X75612500Y-95187500D01*
X97056250Y-32075000D02*
X97056250Y-25075000D01*
X91856250Y-32075000D02*
X91856250Y-25075000D01*
X91856250Y-25075000D02*
X92856250Y-25075000D01*
X54975000Y-106231250D02*
X54975000Y-102331250D01*
X52975000Y-106231250D02*
X52975000Y-102331250D01*
X54975000Y-106231250D02*
X52975000Y-106231250D01*
X75612500Y-116550000D02*
X73612500Y-116550000D01*
X73612500Y-116550000D02*
X73612500Y-112650000D01*
X75612500Y-116550000D02*
X75612500Y-112650000D01*
X78787500Y-116550000D02*
X78787500Y-112650000D01*
X76787500Y-116550000D02*
X76787500Y-112650000D01*
X78787500Y-116550000D02*
X76787500Y-116550000D01*
X95456250Y-113375000D02*
X93456250Y-113375000D01*
X93456250Y-113375000D02*
X93456250Y-109475000D01*
X95456250Y-113375000D02*
X95456250Y-109475000D01*
X91062500Y-98893750D02*
X92062500Y-98893750D01*
X91062500Y-105893750D02*
X91062500Y-98893750D01*
X96262500Y-105893750D02*
X96262500Y-98893750D01*
X61337500Y-105893750D02*
X61337500Y-98893750D01*
X56137500Y-105893750D02*
X56137500Y-98893750D01*
X56137500Y-98893750D02*
X57137500Y-98893750D01*
X53457500Y-28781250D02*
X53457500Y-26781250D01*
X51317500Y-26781250D02*
X51317500Y-28781250D01*
X89780000Y-87912500D02*
X89780000Y-86712500D01*
X88020000Y-86712500D02*
X88020000Y-87912500D01*
X61718750Y-65795000D02*
X60518750Y-65795000D01*
X60518750Y-67555000D02*
X61718750Y-67555000D01*
X61718750Y-68970000D02*
X60518750Y-68970000D01*
X60518750Y-70730000D02*
X61718750Y-70730000D01*
X61998750Y-19650000D02*
X61998750Y-18450000D01*
X60238750Y-18450000D02*
X60238750Y-19650000D01*
X84871000Y-69333000D02*
X86071000Y-69333000D01*
X86071000Y-67573000D02*
X84871000Y-67573000D01*
X49920000Y-15275000D02*
X49920000Y-16475000D01*
X51680000Y-16475000D02*
X51680000Y-15275000D01*
X48225000Y-48332500D02*
X47025000Y-48332500D01*
X47025000Y-50092500D02*
X48225000Y-50092500D01*
X73732500Y-44643750D02*
X73732500Y-45843750D01*
X75492500Y-45843750D02*
X75492500Y-44643750D01*
X78667500Y-45843750D02*
X78667500Y-44643750D01*
X76907500Y-44643750D02*
X76907500Y-45843750D01*
X95957500Y-39087500D02*
X95957500Y-40287500D01*
X97717500Y-40287500D02*
X97717500Y-39087500D01*
X52301250Y-63693750D02*
X52301250Y-64893750D01*
X54061250Y-64893750D02*
X54061250Y-63693750D01*
X68970000Y-58137500D02*
X68970000Y-59337500D01*
X70730000Y-59337500D02*
X70730000Y-58137500D01*
X91988750Y-67662500D02*
X91988750Y-68862500D01*
X93748750Y-68862500D02*
X93748750Y-67662500D01*
X96923750Y-68862500D02*
X96923750Y-67662500D01*
X95163750Y-67662500D02*
X95163750Y-68862500D01*
X56442500Y-83943750D02*
X56442500Y-82743750D01*
X54682500Y-82743750D02*
X54682500Y-83943750D01*
X57857500Y-82743750D02*
X57857500Y-83943750D01*
X59617500Y-83943750D02*
X59617500Y-82743750D01*
X81048750Y-83943750D02*
X81048750Y-82743750D01*
X79288750Y-82743750D02*
X79288750Y-83943750D01*
X104175000Y-88192500D02*
X105375000Y-88192500D01*
X105375000Y-86432500D02*
X104175000Y-86432500D01*
X56442500Y-95850000D02*
X56442500Y-94650000D01*
X54682500Y-94650000D02*
X54682500Y-95850000D01*
X59617500Y-95850000D02*
X59617500Y-94650000D01*
X57857500Y-94650000D02*
X57857500Y-95850000D01*
X78667500Y-102993750D02*
X78667500Y-101793750D01*
X76907500Y-101793750D02*
X76907500Y-102993750D01*
X75492500Y-102993750D02*
X75492500Y-101793750D01*
X73732500Y-101793750D02*
X73732500Y-102993750D01*
X51507500Y-118462500D02*
X51507500Y-119662500D01*
X53267500Y-119662500D02*
X53267500Y-118462500D01*
X62792500Y-119662500D02*
X62792500Y-118462500D01*
X61032500Y-118462500D02*
X61032500Y-119662500D01*
X76907500Y-119256250D02*
X76907500Y-120456250D01*
X78667500Y-120456250D02*
X78667500Y-119256250D01*
X92161250Y-120456250D02*
X92161250Y-119256250D01*
X90401250Y-119256250D02*
X90401250Y-120456250D01*
D10*
X96250000Y-87312500D02*
G75*
G03X96250000Y-87312500I-1000000J0D01*
G01*
X92650000Y-84712500D02*
X92650000Y-89912500D01*
X97850000Y-84712500D02*
X92650000Y-84712500D01*
X97850000Y-89912500D02*
X97850000Y-84712500D01*
X92650000Y-89912500D02*
X97850000Y-89912500D01*
X57800000Y-17325000D02*
X56500000Y-17325000D01*
X57800000Y-14425000D02*
X57800000Y-17325000D01*
X56500000Y-14425000D02*
X57800000Y-14425000D01*
X56500000Y-14425000D02*
X56500000Y-17325000D01*
D12*
X74200000Y-59468750D02*
X78200000Y-59468750D01*
X74200000Y-62768750D02*
X74200000Y-59468750D01*
D10*
X75162500Y-71681250D02*
X75162500Y-71156250D01*
X80412500Y-71681250D02*
X80412500Y-71156250D01*
X80412500Y-66431250D02*
X80412500Y-66956250D01*
X75162500Y-66431250D02*
X75162500Y-66956250D01*
X80412500Y-71681250D02*
X79887500Y-71681250D01*
X80412500Y-66431250D02*
X79887500Y-66431250D01*
X75162500Y-71681250D02*
X75687500Y-71681250D01*
D12*
X73852500Y-88098750D02*
X75312500Y-88098750D01*
X73852500Y-84938750D02*
X76012500Y-84938750D01*
X73852500Y-84938750D02*
X73852500Y-85868750D01*
X73852500Y-88098750D02*
X73852500Y-87168750D01*
X75212500Y-81670000D02*
X74012500Y-81670000D01*
X74012500Y-83430000D02*
X75212500Y-83430000D01*
X43068750Y-22093750D02*
X41068750Y-22093750D01*
X41068750Y-22093750D02*
X41068750Y-18193750D01*
X43068750Y-22093750D02*
X43068750Y-18193750D01*
X75612500Y-18125000D02*
X75612500Y-14225000D01*
X73612500Y-18125000D02*
X73612500Y-14225000D01*
X75612500Y-18125000D02*
X73612500Y-18125000D01*
X94662500Y-18125000D02*
X92662500Y-18125000D01*
X92662500Y-18125000D02*
X92662500Y-14225000D01*
X94662500Y-18125000D02*
X94662500Y-14225000D01*
X97837500Y-18125000D02*
X97837500Y-14225000D01*
X95837500Y-18125000D02*
X95837500Y-14225000D01*
X97837500Y-18125000D02*
X95837500Y-18125000D01*
X41188750Y-24800000D02*
X41188750Y-26000000D01*
X42948750Y-26000000D02*
X42948750Y-24800000D01*
X75492500Y-22031250D02*
X75492500Y-20831250D01*
X73732500Y-20831250D02*
X73732500Y-22031250D01*
X92782500Y-20831250D02*
X92782500Y-22031250D01*
X94542500Y-22031250D02*
X94542500Y-20831250D01*
X97717500Y-22031250D02*
X97717500Y-20831250D01*
X95957500Y-20831250D02*
X95957500Y-22031250D01*
D10*
X75263142Y-54189333D02*
X75310761Y-54141714D01*
X75358380Y-53998857D01*
X75358380Y-53903619D01*
X75310761Y-53760761D01*
X75215523Y-53665523D01*
X75120285Y-53617904D01*
X74929809Y-53570285D01*
X74786952Y-53570285D01*
X74596476Y-53617904D01*
X74501238Y-53665523D01*
X74406000Y-53760761D01*
X74358380Y-53903619D01*
X74358380Y-53998857D01*
X74406000Y-54141714D01*
X74453619Y-54189333D01*
X75358380Y-55141714D02*
X75358380Y-54570285D01*
X75358380Y-54856000D02*
X74358380Y-54856000D01*
X74501238Y-54760761D01*
X74596476Y-54665523D01*
X74644095Y-54570285D01*
X77803142Y-54189333D02*
X77850761Y-54141714D01*
X77898380Y-53998857D01*
X77898380Y-53903619D01*
X77850761Y-53760761D01*
X77755523Y-53665523D01*
X77660285Y-53617904D01*
X77469809Y-53570285D01*
X77326952Y-53570285D01*
X77136476Y-53617904D01*
X77041238Y-53665523D01*
X76946000Y-53760761D01*
X76898380Y-53903619D01*
X76898380Y-53998857D01*
X76946000Y-54141714D01*
X76993619Y-54189333D01*
X76993619Y-54570285D02*
X76946000Y-54617904D01*
X76898380Y-54713142D01*
X76898380Y-54951238D01*
X76946000Y-55046476D01*
X76993619Y-55094095D01*
X77088857Y-55141714D01*
X77184095Y-55141714D01*
X77326952Y-55094095D01*
X77898380Y-54522666D01*
X77898380Y-55141714D01*
X71731142Y-70572333D02*
X71778761Y-70524714D01*
X71826380Y-70381857D01*
X71826380Y-70286619D01*
X71778761Y-70143761D01*
X71683523Y-70048523D01*
X71588285Y-70000904D01*
X71397809Y-69953285D01*
X71254952Y-69953285D01*
X71064476Y-70000904D01*
X70969238Y-70048523D01*
X70874000Y-70143761D01*
X70826380Y-70286619D01*
X70826380Y-70381857D01*
X70874000Y-70524714D01*
X70921619Y-70572333D01*
X70826380Y-70905666D02*
X70826380Y-71524714D01*
X71207333Y-71191380D01*
X71207333Y-71334238D01*
X71254952Y-71429476D01*
X71302571Y-71477095D01*
X71397809Y-71524714D01*
X71635904Y-71524714D01*
X71731142Y-71477095D01*
X71778761Y-71429476D01*
X71826380Y-71334238D01*
X71826380Y-71048523D01*
X71778761Y-70953285D01*
X71731142Y-70905666D01*
X82502142Y-62571333D02*
X82549761Y-62523714D01*
X82597380Y-62380857D01*
X82597380Y-62285619D01*
X82549761Y-62142761D01*
X82454523Y-62047523D01*
X82359285Y-61999904D01*
X82168809Y-61952285D01*
X82025952Y-61952285D01*
X81835476Y-61999904D01*
X81740238Y-62047523D01*
X81645000Y-62142761D01*
X81597380Y-62285619D01*
X81597380Y-62380857D01*
X81645000Y-62523714D01*
X81692619Y-62571333D01*
X81930714Y-63428476D02*
X82597380Y-63428476D01*
X81549761Y-63190380D02*
X82264047Y-62952285D01*
X82264047Y-63571333D01*
X69381666Y-67794142D02*
X69429285Y-67841761D01*
X69572142Y-67889380D01*
X69667380Y-67889380D01*
X69810238Y-67841761D01*
X69905476Y-67746523D01*
X69953095Y-67651285D01*
X70000714Y-67460809D01*
X70000714Y-67317952D01*
X69953095Y-67127476D01*
X69905476Y-67032238D01*
X69810238Y-66937000D01*
X69667380Y-66889380D01*
X69572142Y-66889380D01*
X69429285Y-66937000D01*
X69381666Y-66984619D01*
X68476904Y-66889380D02*
X68953095Y-66889380D01*
X69000714Y-67365571D01*
X68953095Y-67317952D01*
X68857857Y-67270333D01*
X68619761Y-67270333D01*
X68524523Y-67317952D01*
X68476904Y-67365571D01*
X68429285Y-67460809D01*
X68429285Y-67698904D01*
X68476904Y-67794142D01*
X68524523Y-67841761D01*
X68619761Y-67889380D01*
X68857857Y-67889380D01*
X68953095Y-67841761D01*
X69000714Y-67794142D01*
X73739142Y-64095333D02*
X73786761Y-64047714D01*
X73834380Y-63904857D01*
X73834380Y-63809619D01*
X73786761Y-63666761D01*
X73691523Y-63571523D01*
X73596285Y-63523904D01*
X73405809Y-63476285D01*
X73262952Y-63476285D01*
X73072476Y-63523904D01*
X72977238Y-63571523D01*
X72882000Y-63666761D01*
X72834380Y-63809619D01*
X72834380Y-63904857D01*
X72882000Y-64047714D01*
X72929619Y-64095333D01*
X72834380Y-64952476D02*
X72834380Y-64762000D01*
X72882000Y-64666761D01*
X72929619Y-64619142D01*
X73072476Y-64523904D01*
X73262952Y-64476285D01*
X73643904Y-64476285D01*
X73739142Y-64523904D01*
X73786761Y-64571523D01*
X73834380Y-64666761D01*
X73834380Y-64857238D01*
X73786761Y-64952476D01*
X73739142Y-65000095D01*
X73643904Y-65047714D01*
X73405809Y-65047714D01*
X73310571Y-65000095D01*
X73262952Y-64952476D01*
X73215333Y-64857238D01*
X73215333Y-64666761D01*
X73262952Y-64571523D01*
X73310571Y-64523904D01*
X73405809Y-64476285D01*
X57086416Y-34488392D02*
X57134035Y-34536011D01*
X57276892Y-34583630D01*
X57372130Y-34583630D01*
X57514988Y-34536011D01*
X57610226Y-34440773D01*
X57657845Y-34345535D01*
X57705464Y-34155059D01*
X57705464Y-34012202D01*
X57657845Y-33821726D01*
X57610226Y-33726488D01*
X57514988Y-33631250D01*
X57372130Y-33583630D01*
X57276892Y-33583630D01*
X57134035Y-33631250D01*
X57086416Y-33678869D01*
X56086416Y-34583630D02*
X56419750Y-34107440D01*
X56657845Y-34583630D02*
X56657845Y-33583630D01*
X56276892Y-33583630D01*
X56181654Y-33631250D01*
X56134035Y-33678869D01*
X56086416Y-33774107D01*
X56086416Y-33916964D01*
X56134035Y-34012202D01*
X56181654Y-34059821D01*
X56276892Y-34107440D01*
X56657845Y-34107440D01*
X55134035Y-34583630D02*
X55705464Y-34583630D01*
X55419750Y-34583630D02*
X55419750Y-33583630D01*
X55514988Y-33726488D01*
X55610226Y-33821726D01*
X55705464Y-33869345D01*
X101075892Y-27908333D02*
X101123511Y-27860714D01*
X101171130Y-27717857D01*
X101171130Y-27622619D01*
X101123511Y-27479761D01*
X101028273Y-27384523D01*
X100933035Y-27336904D01*
X100742559Y-27289285D01*
X100599702Y-27289285D01*
X100409226Y-27336904D01*
X100313988Y-27384523D01*
X100218750Y-27479761D01*
X100171130Y-27622619D01*
X100171130Y-27717857D01*
X100218750Y-27860714D01*
X100266369Y-27908333D01*
X101171130Y-28908333D02*
X100694940Y-28575000D01*
X101171130Y-28336904D02*
X100171130Y-28336904D01*
X100171130Y-28717857D01*
X100218750Y-28813095D01*
X100266369Y-28860714D01*
X100361607Y-28908333D01*
X100504464Y-28908333D01*
X100599702Y-28860714D01*
X100647321Y-28813095D01*
X100694940Y-28717857D01*
X100694940Y-28336904D01*
X100266369Y-29289285D02*
X100218750Y-29336904D01*
X100171130Y-29432142D01*
X100171130Y-29670238D01*
X100218750Y-29765476D01*
X100266369Y-29813095D01*
X100361607Y-29860714D01*
X100456845Y-29860714D01*
X100599702Y-29813095D01*
X101171130Y-29241666D01*
X101171130Y-29860714D01*
X65357142Y-105695833D02*
X65404761Y-105648214D01*
X65452380Y-105505357D01*
X65452380Y-105410119D01*
X65404761Y-105267261D01*
X65309523Y-105172023D01*
X65214285Y-105124404D01*
X65023809Y-105076785D01*
X64880952Y-105076785D01*
X64690476Y-105124404D01*
X64595238Y-105172023D01*
X64500000Y-105267261D01*
X64452380Y-105410119D01*
X64452380Y-105505357D01*
X64500000Y-105648214D01*
X64547619Y-105695833D01*
X65452380Y-106695833D02*
X64976190Y-106362500D01*
X65452380Y-106124404D02*
X64452380Y-106124404D01*
X64452380Y-106505357D01*
X64500000Y-106600595D01*
X64547619Y-106648214D01*
X64642857Y-106695833D01*
X64785714Y-106695833D01*
X64880952Y-106648214D01*
X64928571Y-106600595D01*
X64976190Y-106505357D01*
X64976190Y-106124404D01*
X64452380Y-107029166D02*
X64452380Y-107648214D01*
X64833333Y-107314880D01*
X64833333Y-107457738D01*
X64880952Y-107552976D01*
X64928571Y-107600595D01*
X65023809Y-107648214D01*
X65261904Y-107648214D01*
X65357142Y-107600595D01*
X65404761Y-107552976D01*
X65452380Y-107457738D01*
X65452380Y-107172023D01*
X65404761Y-107076785D01*
X65357142Y-107029166D01*
X87860142Y-105695833D02*
X87907761Y-105648214D01*
X87955380Y-105505357D01*
X87955380Y-105410119D01*
X87907761Y-105267261D01*
X87812523Y-105172023D01*
X87717285Y-105124404D01*
X87526809Y-105076785D01*
X87383952Y-105076785D01*
X87193476Y-105124404D01*
X87098238Y-105172023D01*
X87003000Y-105267261D01*
X86955380Y-105410119D01*
X86955380Y-105505357D01*
X87003000Y-105648214D01*
X87050619Y-105695833D01*
X87955380Y-106695833D02*
X87479190Y-106362500D01*
X87955380Y-106124404D02*
X86955380Y-106124404D01*
X86955380Y-106505357D01*
X87003000Y-106600595D01*
X87050619Y-106648214D01*
X87145857Y-106695833D01*
X87288714Y-106695833D01*
X87383952Y-106648214D01*
X87431571Y-106600595D01*
X87479190Y-106505357D01*
X87479190Y-106124404D01*
X87288714Y-107552976D02*
X87955380Y-107552976D01*
X86907761Y-107314880D02*
X87622047Y-107076785D01*
X87622047Y-107695833D01*
X44521130Y-42918154D02*
X43521130Y-42918154D01*
X43521130Y-43156250D01*
X43568750Y-43299107D01*
X43663988Y-43394345D01*
X43759226Y-43441964D01*
X43949702Y-43489583D01*
X44092559Y-43489583D01*
X44283035Y-43441964D01*
X44378273Y-43394345D01*
X44473511Y-43299107D01*
X44521130Y-43156250D01*
X44521130Y-42918154D01*
X44521130Y-44441964D02*
X44521130Y-43870535D01*
X44521130Y-44156250D02*
X43521130Y-44156250D01*
X43663988Y-44061011D01*
X43759226Y-43965773D01*
X43806845Y-43870535D01*
X75032880Y-35329904D02*
X74032880Y-35329904D01*
X74032880Y-35568000D01*
X74080500Y-35710857D01*
X74175738Y-35806095D01*
X74270976Y-35853714D01*
X74461452Y-35901333D01*
X74604309Y-35901333D01*
X74794785Y-35853714D01*
X74890023Y-35806095D01*
X74985261Y-35710857D01*
X75032880Y-35568000D01*
X75032880Y-35329904D01*
X74128119Y-36282285D02*
X74080500Y-36329904D01*
X74032880Y-36425142D01*
X74032880Y-36663238D01*
X74080500Y-36758476D01*
X74128119Y-36806095D01*
X74223357Y-36853714D01*
X74318595Y-36853714D01*
X74461452Y-36806095D01*
X75032880Y-36234666D01*
X75032880Y-36853714D01*
X78207880Y-35329904D02*
X77207880Y-35329904D01*
X77207880Y-35568000D01*
X77255500Y-35710857D01*
X77350738Y-35806095D01*
X77445976Y-35853714D01*
X77636452Y-35901333D01*
X77779309Y-35901333D01*
X77969785Y-35853714D01*
X78065023Y-35806095D01*
X78160261Y-35710857D01*
X78207880Y-35568000D01*
X78207880Y-35329904D01*
X77207880Y-36234666D02*
X77207880Y-36853714D01*
X77588833Y-36520380D01*
X77588833Y-36663238D01*
X77636452Y-36758476D01*
X77684071Y-36806095D01*
X77779309Y-36853714D01*
X78017404Y-36853714D01*
X78112642Y-36806095D01*
X78160261Y-36758476D01*
X78207880Y-36663238D01*
X78207880Y-36377523D01*
X78160261Y-36282285D01*
X78112642Y-36234666D01*
X94051380Y-35456904D02*
X93051380Y-35456904D01*
X93051380Y-35695000D01*
X93099000Y-35837857D01*
X93194238Y-35933095D01*
X93289476Y-35980714D01*
X93479952Y-36028333D01*
X93622809Y-36028333D01*
X93813285Y-35980714D01*
X93908523Y-35933095D01*
X94003761Y-35837857D01*
X94051380Y-35695000D01*
X94051380Y-35456904D01*
X93384714Y-36885476D02*
X94051380Y-36885476D01*
X93003761Y-36647380D02*
X93718047Y-36409285D01*
X93718047Y-37028333D01*
X44521130Y-61968154D02*
X43521130Y-61968154D01*
X43521130Y-62206250D01*
X43568750Y-62349107D01*
X43663988Y-62444345D01*
X43759226Y-62491964D01*
X43949702Y-62539583D01*
X44092559Y-62539583D01*
X44283035Y-62491964D01*
X44378273Y-62444345D01*
X44473511Y-62349107D01*
X44521130Y-62206250D01*
X44521130Y-61968154D01*
X43521130Y-63444345D02*
X43521130Y-62968154D01*
X43997321Y-62920535D01*
X43949702Y-62968154D01*
X43902083Y-63063392D01*
X43902083Y-63301488D01*
X43949702Y-63396726D01*
X43997321Y-63444345D01*
X44092559Y-63491964D01*
X44330654Y-63491964D01*
X44425892Y-63444345D01*
X44473511Y-63396726D01*
X44521130Y-63301488D01*
X44521130Y-63063392D01*
X44473511Y-62968154D01*
X44425892Y-62920535D01*
X59126380Y-61618904D02*
X58126380Y-61618904D01*
X58126380Y-61857000D01*
X58174000Y-61999857D01*
X58269238Y-62095095D01*
X58364476Y-62142714D01*
X58554952Y-62190333D01*
X58697809Y-62190333D01*
X58888285Y-62142714D01*
X58983523Y-62095095D01*
X59078761Y-61999857D01*
X59126380Y-61857000D01*
X59126380Y-61618904D01*
X58126380Y-63047476D02*
X58126380Y-62857000D01*
X58174000Y-62761761D01*
X58221619Y-62714142D01*
X58364476Y-62618904D01*
X58554952Y-62571285D01*
X58935904Y-62571285D01*
X59031142Y-62618904D01*
X59078761Y-62666523D01*
X59126380Y-62761761D01*
X59126380Y-62952238D01*
X59078761Y-63047476D01*
X59031142Y-63095095D01*
X58935904Y-63142714D01*
X58697809Y-63142714D01*
X58602571Y-63095095D01*
X58554952Y-63047476D01*
X58507333Y-62952238D01*
X58507333Y-62761761D01*
X58554952Y-62666523D01*
X58602571Y-62618904D01*
X58697809Y-62571285D01*
X91384380Y-61968154D02*
X90384380Y-61968154D01*
X90384380Y-62206250D01*
X90432000Y-62349107D01*
X90527238Y-62444345D01*
X90622476Y-62491964D01*
X90812952Y-62539583D01*
X90955809Y-62539583D01*
X91146285Y-62491964D01*
X91241523Y-62444345D01*
X91336761Y-62349107D01*
X91384380Y-62206250D01*
X91384380Y-61968154D01*
X90384380Y-62872916D02*
X90384380Y-63539583D01*
X91384380Y-63111011D01*
X98496130Y-61968154D02*
X97496130Y-61968154D01*
X97496130Y-62206250D01*
X97543750Y-62349107D01*
X97638988Y-62444345D01*
X97734226Y-62491964D01*
X97924702Y-62539583D01*
X98067559Y-62539583D01*
X98258035Y-62491964D01*
X98353273Y-62444345D01*
X98448511Y-62349107D01*
X98496130Y-62206250D01*
X98496130Y-61968154D01*
X97924702Y-63111011D02*
X97877083Y-63015773D01*
X97829464Y-62968154D01*
X97734226Y-62920535D01*
X97686607Y-62920535D01*
X97591369Y-62968154D01*
X97543750Y-63015773D01*
X97496130Y-63111011D01*
X97496130Y-63301488D01*
X97543750Y-63396726D01*
X97591369Y-63444345D01*
X97686607Y-63491964D01*
X97734226Y-63491964D01*
X97829464Y-63444345D01*
X97877083Y-63396726D01*
X97924702Y-63301488D01*
X97924702Y-63111011D01*
X97972321Y-63015773D01*
X98019940Y-62968154D01*
X98115178Y-62920535D01*
X98305654Y-62920535D01*
X98400892Y-62968154D01*
X98448511Y-63015773D01*
X98496130Y-63111011D01*
X98496130Y-63301488D01*
X98448511Y-63396726D01*
X98400892Y-63444345D01*
X98305654Y-63491964D01*
X98115178Y-63491964D01*
X98019940Y-63444345D01*
X97972321Y-63396726D01*
X97924702Y-63301488D01*
X63483630Y-27836904D02*
X62483630Y-27836904D01*
X62483630Y-28075000D01*
X62531250Y-28217857D01*
X62626488Y-28313095D01*
X62721726Y-28360714D01*
X62912202Y-28408333D01*
X63055059Y-28408333D01*
X63245535Y-28360714D01*
X63340773Y-28313095D01*
X63436011Y-28217857D01*
X63483630Y-28075000D01*
X63483630Y-27836904D01*
X63483630Y-28884523D02*
X63483630Y-29075000D01*
X63436011Y-29170238D01*
X63388392Y-29217857D01*
X63245535Y-29313095D01*
X63055059Y-29360714D01*
X62674107Y-29360714D01*
X62578869Y-29313095D01*
X62531250Y-29265476D01*
X62483630Y-29170238D01*
X62483630Y-28979761D01*
X62531250Y-28884523D01*
X62578869Y-28836904D01*
X62674107Y-28789285D01*
X62912202Y-28789285D01*
X63007440Y-28836904D01*
X63055059Y-28884523D01*
X63102678Y-28979761D01*
X63102678Y-29170238D01*
X63055059Y-29265476D01*
X63007440Y-29313095D01*
X62912202Y-29360714D01*
X55982880Y-72763214D02*
X54982880Y-72763214D01*
X54982880Y-73001309D01*
X55030500Y-73144166D01*
X55125738Y-73239404D01*
X55220976Y-73287023D01*
X55411452Y-73334642D01*
X55554309Y-73334642D01*
X55744785Y-73287023D01*
X55840023Y-73239404D01*
X55935261Y-73144166D01*
X55982880Y-73001309D01*
X55982880Y-72763214D01*
X55982880Y-74287023D02*
X55982880Y-73715595D01*
X55982880Y-74001309D02*
X54982880Y-74001309D01*
X55125738Y-73906071D01*
X55220976Y-73810833D01*
X55268595Y-73715595D01*
X54982880Y-74906071D02*
X54982880Y-75001309D01*
X55030500Y-75096547D01*
X55078119Y-75144166D01*
X55173357Y-75191785D01*
X55363833Y-75239404D01*
X55601928Y-75239404D01*
X55792404Y-75191785D01*
X55887642Y-75144166D01*
X55935261Y-75096547D01*
X55982880Y-75001309D01*
X55982880Y-74906071D01*
X55935261Y-74810833D01*
X55887642Y-74763214D01*
X55792404Y-74715595D01*
X55601928Y-74667976D01*
X55363833Y-74667976D01*
X55173357Y-74715595D01*
X55078119Y-74763214D01*
X55030500Y-74810833D01*
X54982880Y-74906071D01*
X59157880Y-72763214D02*
X58157880Y-72763214D01*
X58157880Y-73001309D01*
X58205500Y-73144166D01*
X58300738Y-73239404D01*
X58395976Y-73287023D01*
X58586452Y-73334642D01*
X58729309Y-73334642D01*
X58919785Y-73287023D01*
X59015023Y-73239404D01*
X59110261Y-73144166D01*
X59157880Y-73001309D01*
X59157880Y-72763214D01*
X59157880Y-74287023D02*
X59157880Y-73715595D01*
X59157880Y-74001309D02*
X58157880Y-74001309D01*
X58300738Y-73906071D01*
X58395976Y-73810833D01*
X58443595Y-73715595D01*
X59157880Y-75239404D02*
X59157880Y-74667976D01*
X59157880Y-74953690D02*
X58157880Y-74953690D01*
X58300738Y-74858452D01*
X58395976Y-74763214D01*
X58443595Y-74667976D01*
X91257380Y-72572714D02*
X90257380Y-72572714D01*
X90257380Y-72810809D01*
X90305000Y-72953666D01*
X90400238Y-73048904D01*
X90495476Y-73096523D01*
X90685952Y-73144142D01*
X90828809Y-73144142D01*
X91019285Y-73096523D01*
X91114523Y-73048904D01*
X91209761Y-72953666D01*
X91257380Y-72810809D01*
X91257380Y-72572714D01*
X91257380Y-74096523D02*
X91257380Y-73525095D01*
X91257380Y-73810809D02*
X90257380Y-73810809D01*
X90400238Y-73715571D01*
X90495476Y-73620333D01*
X90543095Y-73525095D01*
X90352619Y-74477476D02*
X90305000Y-74525095D01*
X90257380Y-74620333D01*
X90257380Y-74858428D01*
X90305000Y-74953666D01*
X90352619Y-75001285D01*
X90447857Y-75048904D01*
X90543095Y-75048904D01*
X90685952Y-75001285D01*
X91257380Y-74429857D01*
X91257380Y-75048904D01*
X98496130Y-72604464D02*
X97496130Y-72604464D01*
X97496130Y-72842559D01*
X97543750Y-72985416D01*
X97638988Y-73080654D01*
X97734226Y-73128273D01*
X97924702Y-73175892D01*
X98067559Y-73175892D01*
X98258035Y-73128273D01*
X98353273Y-73080654D01*
X98448511Y-72985416D01*
X98496130Y-72842559D01*
X98496130Y-72604464D01*
X98496130Y-74128273D02*
X98496130Y-73556845D01*
X98496130Y-73842559D02*
X97496130Y-73842559D01*
X97638988Y-73747321D01*
X97734226Y-73652083D01*
X97781845Y-73556845D01*
X97496130Y-74461607D02*
X97496130Y-75080654D01*
X97877083Y-74747321D01*
X97877083Y-74890178D01*
X97924702Y-74985416D01*
X97972321Y-75033035D01*
X98067559Y-75080654D01*
X98305654Y-75080654D01*
X98400892Y-75033035D01*
X98448511Y-74985416D01*
X98496130Y-74890178D01*
X98496130Y-74604464D01*
X98448511Y-74509226D01*
X98400892Y-74461607D01*
X54046380Y-88479464D02*
X53046380Y-88479464D01*
X53046380Y-88717559D01*
X53094000Y-88860416D01*
X53189238Y-88955654D01*
X53284476Y-89003273D01*
X53474952Y-89050892D01*
X53617809Y-89050892D01*
X53808285Y-89003273D01*
X53903523Y-88955654D01*
X53998761Y-88860416D01*
X54046380Y-88717559D01*
X54046380Y-88479464D01*
X54046380Y-90003273D02*
X54046380Y-89431845D01*
X54046380Y-89717559D02*
X53046380Y-89717559D01*
X53189238Y-89622321D01*
X53284476Y-89527083D01*
X53332095Y-89431845D01*
X53379714Y-90860416D02*
X54046380Y-90860416D01*
X52998761Y-90622321D02*
X53713047Y-90384226D01*
X53713047Y-91003273D01*
X61189880Y-88479464D02*
X60189880Y-88479464D01*
X60189880Y-88717559D01*
X60237500Y-88860416D01*
X60332738Y-88955654D01*
X60427976Y-89003273D01*
X60618452Y-89050892D01*
X60761309Y-89050892D01*
X60951785Y-89003273D01*
X61047023Y-88955654D01*
X61142261Y-88860416D01*
X61189880Y-88717559D01*
X61189880Y-88479464D01*
X61189880Y-90003273D02*
X61189880Y-89431845D01*
X61189880Y-89717559D02*
X60189880Y-89717559D01*
X60332738Y-89622321D01*
X60427976Y-89527083D01*
X60475595Y-89431845D01*
X60189880Y-90908035D02*
X60189880Y-90431845D01*
X60666071Y-90384226D01*
X60618452Y-90431845D01*
X60570833Y-90527083D01*
X60570833Y-90765178D01*
X60618452Y-90860416D01*
X60666071Y-90908035D01*
X60761309Y-90955654D01*
X60999404Y-90955654D01*
X61094642Y-90908035D01*
X61142261Y-90860416D01*
X61189880Y-90765178D01*
X61189880Y-90527083D01*
X61142261Y-90431845D01*
X61094642Y-90384226D01*
X78207880Y-91559214D02*
X77207880Y-91559214D01*
X77207880Y-91797309D01*
X77255500Y-91940166D01*
X77350738Y-92035404D01*
X77445976Y-92083023D01*
X77636452Y-92130642D01*
X77779309Y-92130642D01*
X77969785Y-92083023D01*
X78065023Y-92035404D01*
X78160261Y-91940166D01*
X78207880Y-91797309D01*
X78207880Y-91559214D01*
X78207880Y-93083023D02*
X78207880Y-92511595D01*
X78207880Y-92797309D02*
X77207880Y-92797309D01*
X77350738Y-92702071D01*
X77445976Y-92606833D01*
X77493595Y-92511595D01*
X77207880Y-93940166D02*
X77207880Y-93749690D01*
X77255500Y-93654452D01*
X77303119Y-93606833D01*
X77445976Y-93511595D01*
X77636452Y-93463976D01*
X78017404Y-93463976D01*
X78112642Y-93511595D01*
X78160261Y-93559214D01*
X78207880Y-93654452D01*
X78207880Y-93844928D01*
X78160261Y-93940166D01*
X78112642Y-93987785D01*
X78017404Y-94035404D01*
X77779309Y-94035404D01*
X77684071Y-93987785D01*
X77636452Y-93940166D01*
X77588833Y-93844928D01*
X77588833Y-93654452D01*
X77636452Y-93559214D01*
X77684071Y-93511595D01*
X77779309Y-93463976D01*
X75032880Y-91559214D02*
X74032880Y-91559214D01*
X74032880Y-91797309D01*
X74080500Y-91940166D01*
X74175738Y-92035404D01*
X74270976Y-92083023D01*
X74461452Y-92130642D01*
X74604309Y-92130642D01*
X74794785Y-92083023D01*
X74890023Y-92035404D01*
X74985261Y-91940166D01*
X75032880Y-91797309D01*
X75032880Y-91559214D01*
X75032880Y-93083023D02*
X75032880Y-92511595D01*
X75032880Y-92797309D02*
X74032880Y-92797309D01*
X74175738Y-92702071D01*
X74270976Y-92606833D01*
X74318595Y-92511595D01*
X74032880Y-93416357D02*
X74032880Y-94083023D01*
X75032880Y-93654452D01*
X91289130Y-27328964D02*
X90289130Y-27328964D01*
X90289130Y-27567059D01*
X90336750Y-27709916D01*
X90431988Y-27805154D01*
X90527226Y-27852773D01*
X90717702Y-27900392D01*
X90860559Y-27900392D01*
X91051035Y-27852773D01*
X91146273Y-27805154D01*
X91241511Y-27709916D01*
X91289130Y-27567059D01*
X91289130Y-27328964D01*
X91289130Y-28852773D02*
X91289130Y-28281345D01*
X91289130Y-28567059D02*
X90289130Y-28567059D01*
X90431988Y-28471821D01*
X90527226Y-28376583D01*
X90574845Y-28281345D01*
X90717702Y-29424202D02*
X90670083Y-29328964D01*
X90622464Y-29281345D01*
X90527226Y-29233726D01*
X90479607Y-29233726D01*
X90384369Y-29281345D01*
X90336750Y-29328964D01*
X90289130Y-29424202D01*
X90289130Y-29614678D01*
X90336750Y-29709916D01*
X90384369Y-29757535D01*
X90479607Y-29805154D01*
X90527226Y-29805154D01*
X90622464Y-29757535D01*
X90670083Y-29709916D01*
X90717702Y-29614678D01*
X90717702Y-29424202D01*
X90765321Y-29328964D01*
X90812940Y-29281345D01*
X90908178Y-29233726D01*
X91098654Y-29233726D01*
X91193892Y-29281345D01*
X91241511Y-29328964D01*
X91289130Y-29424202D01*
X91289130Y-29614678D01*
X91241511Y-29709916D01*
X91193892Y-29757535D01*
X91098654Y-29805154D01*
X90908178Y-29805154D01*
X90812940Y-29757535D01*
X90765321Y-29709916D01*
X90717702Y-29614678D01*
X52395380Y-102766964D02*
X51395380Y-102766964D01*
X51395380Y-103005059D01*
X51443000Y-103147916D01*
X51538238Y-103243154D01*
X51633476Y-103290773D01*
X51823952Y-103338392D01*
X51966809Y-103338392D01*
X52157285Y-103290773D01*
X52252523Y-103243154D01*
X52347761Y-103147916D01*
X52395380Y-103005059D01*
X52395380Y-102766964D01*
X52395380Y-104290773D02*
X52395380Y-103719345D01*
X52395380Y-104005059D02*
X51395380Y-104005059D01*
X51538238Y-103909821D01*
X51633476Y-103814583D01*
X51681095Y-103719345D01*
X52395380Y-104766964D02*
X52395380Y-104957440D01*
X52347761Y-105052678D01*
X52300142Y-105100297D01*
X52157285Y-105195535D01*
X51966809Y-105243154D01*
X51585857Y-105243154D01*
X51490619Y-105195535D01*
X51443000Y-105147916D01*
X51395380Y-105052678D01*
X51395380Y-104862202D01*
X51443000Y-104766964D01*
X51490619Y-104719345D01*
X51585857Y-104671726D01*
X51823952Y-104671726D01*
X51919190Y-104719345D01*
X51966809Y-104766964D01*
X52014428Y-104862202D01*
X52014428Y-105052678D01*
X51966809Y-105147916D01*
X51919190Y-105195535D01*
X51823952Y-105243154D01*
X75128380Y-109021714D02*
X74128380Y-109021714D01*
X74128380Y-109259809D01*
X74176000Y-109402666D01*
X74271238Y-109497904D01*
X74366476Y-109545523D01*
X74556952Y-109593142D01*
X74699809Y-109593142D01*
X74890285Y-109545523D01*
X74985523Y-109497904D01*
X75080761Y-109402666D01*
X75128380Y-109259809D01*
X75128380Y-109021714D01*
X74223619Y-109974095D02*
X74176000Y-110021714D01*
X74128380Y-110116952D01*
X74128380Y-110355047D01*
X74176000Y-110450285D01*
X74223619Y-110497904D01*
X74318857Y-110545523D01*
X74414095Y-110545523D01*
X74556952Y-110497904D01*
X75128380Y-109926476D01*
X75128380Y-110545523D01*
X74128380Y-111164571D02*
X74128380Y-111259809D01*
X74176000Y-111355047D01*
X74223619Y-111402666D01*
X74318857Y-111450285D01*
X74509333Y-111497904D01*
X74747428Y-111497904D01*
X74937904Y-111450285D01*
X75033142Y-111402666D01*
X75080761Y-111355047D01*
X75128380Y-111259809D01*
X75128380Y-111164571D01*
X75080761Y-111069333D01*
X75033142Y-111021714D01*
X74937904Y-110974095D01*
X74747428Y-110926476D01*
X74509333Y-110926476D01*
X74318857Y-110974095D01*
X74223619Y-111021714D01*
X74176000Y-111069333D01*
X74128380Y-111164571D01*
X78303380Y-109021714D02*
X77303380Y-109021714D01*
X77303380Y-109259809D01*
X77351000Y-109402666D01*
X77446238Y-109497904D01*
X77541476Y-109545523D01*
X77731952Y-109593142D01*
X77874809Y-109593142D01*
X78065285Y-109545523D01*
X78160523Y-109497904D01*
X78255761Y-109402666D01*
X78303380Y-109259809D01*
X78303380Y-109021714D01*
X77398619Y-109974095D02*
X77351000Y-110021714D01*
X77303380Y-110116952D01*
X77303380Y-110355047D01*
X77351000Y-110450285D01*
X77398619Y-110497904D01*
X77493857Y-110545523D01*
X77589095Y-110545523D01*
X77731952Y-110497904D01*
X78303380Y-109926476D01*
X78303380Y-110545523D01*
X78303380Y-111497904D02*
X78303380Y-110926476D01*
X78303380Y-111212190D02*
X77303380Y-111212190D01*
X77446238Y-111116952D01*
X77541476Y-111021714D01*
X77589095Y-110926476D01*
X96908630Y-109910714D02*
X95908630Y-109910714D01*
X95908630Y-110148809D01*
X95956250Y-110291666D01*
X96051488Y-110386904D01*
X96146726Y-110434523D01*
X96337202Y-110482142D01*
X96480059Y-110482142D01*
X96670535Y-110434523D01*
X96765773Y-110386904D01*
X96861011Y-110291666D01*
X96908630Y-110148809D01*
X96908630Y-109910714D01*
X96003869Y-110863095D02*
X95956250Y-110910714D01*
X95908630Y-111005952D01*
X95908630Y-111244047D01*
X95956250Y-111339285D01*
X96003869Y-111386904D01*
X96099107Y-111434523D01*
X96194345Y-111434523D01*
X96337202Y-111386904D01*
X96908630Y-110815476D01*
X96908630Y-111434523D01*
X96003869Y-111815476D02*
X95956250Y-111863095D01*
X95908630Y-111958333D01*
X95908630Y-112196428D01*
X95956250Y-112291666D01*
X96003869Y-112339285D01*
X96099107Y-112386904D01*
X96194345Y-112386904D01*
X96337202Y-112339285D01*
X96908630Y-111767857D01*
X96908630Y-112386904D01*
X97614880Y-101179464D02*
X96614880Y-101179464D01*
X96614880Y-101417559D01*
X96662500Y-101560416D01*
X96757738Y-101655654D01*
X96852976Y-101703273D01*
X97043452Y-101750892D01*
X97186309Y-101750892D01*
X97376785Y-101703273D01*
X97472023Y-101655654D01*
X97567261Y-101560416D01*
X97614880Y-101417559D01*
X97614880Y-101179464D01*
X96710119Y-102131845D02*
X96662500Y-102179464D01*
X96614880Y-102274702D01*
X96614880Y-102512797D01*
X96662500Y-102608035D01*
X96710119Y-102655654D01*
X96805357Y-102703273D01*
X96900595Y-102703273D01*
X97043452Y-102655654D01*
X97614880Y-102084226D01*
X97614880Y-102703273D01*
X96614880Y-103036607D02*
X96614880Y-103655654D01*
X96995833Y-103322321D01*
X96995833Y-103465178D01*
X97043452Y-103560416D01*
X97091071Y-103608035D01*
X97186309Y-103655654D01*
X97424404Y-103655654D01*
X97519642Y-103608035D01*
X97567261Y-103560416D01*
X97614880Y-103465178D01*
X97614880Y-103179464D01*
X97567261Y-103084226D01*
X97519642Y-103036607D01*
X62689880Y-101179464D02*
X61689880Y-101179464D01*
X61689880Y-101417559D01*
X61737500Y-101560416D01*
X61832738Y-101655654D01*
X61927976Y-101703273D01*
X62118452Y-101750892D01*
X62261309Y-101750892D01*
X62451785Y-101703273D01*
X62547023Y-101655654D01*
X62642261Y-101560416D01*
X62689880Y-101417559D01*
X62689880Y-101179464D01*
X61785119Y-102131845D02*
X61737500Y-102179464D01*
X61689880Y-102274702D01*
X61689880Y-102512797D01*
X61737500Y-102608035D01*
X61785119Y-102655654D01*
X61880357Y-102703273D01*
X61975595Y-102703273D01*
X62118452Y-102655654D01*
X62689880Y-102084226D01*
X62689880Y-102703273D01*
X62023214Y-103560416D02*
X62689880Y-103560416D01*
X61642261Y-103322321D02*
X62356547Y-103084226D01*
X62356547Y-103703273D01*
X54411571Y-27511416D02*
X54411571Y-27178083D01*
X54935380Y-27178083D02*
X53935380Y-27178083D01*
X53935380Y-27654273D01*
X54935380Y-28559035D02*
X54935380Y-27987607D01*
X54935380Y-28273321D02*
X53935380Y-28273321D01*
X54078238Y-28178083D01*
X54173476Y-28082845D01*
X54221095Y-27987607D01*
X87702380Y-87145833D02*
X87226190Y-86812500D01*
X87702380Y-86574404D02*
X86702380Y-86574404D01*
X86702380Y-86955357D01*
X86750000Y-87050595D01*
X86797619Y-87098214D01*
X86892857Y-87145833D01*
X87035714Y-87145833D01*
X87130952Y-87098214D01*
X87178571Y-87050595D01*
X87226190Y-86955357D01*
X87226190Y-86574404D01*
X87702380Y-88098214D02*
X87702380Y-87526785D01*
X87702380Y-87812500D02*
X86702380Y-87812500D01*
X86845238Y-87717261D01*
X86940476Y-87622023D01*
X86988095Y-87526785D01*
X61285416Y-65477380D02*
X61618750Y-65001190D01*
X61856845Y-65477380D02*
X61856845Y-64477380D01*
X61475892Y-64477380D01*
X61380654Y-64525000D01*
X61333035Y-64572619D01*
X61285416Y-64667857D01*
X61285416Y-64810714D01*
X61333035Y-64905952D01*
X61380654Y-64953571D01*
X61475892Y-65001190D01*
X61856845Y-65001190D01*
X60904464Y-64572619D02*
X60856845Y-64525000D01*
X60761607Y-64477380D01*
X60523511Y-64477380D01*
X60428273Y-64525000D01*
X60380654Y-64572619D01*
X60333035Y-64667857D01*
X60333035Y-64763095D01*
X60380654Y-64905952D01*
X60952083Y-65477380D01*
X60333035Y-65477380D01*
X61285416Y-71952380D02*
X61618750Y-71476190D01*
X61856845Y-71952380D02*
X61856845Y-70952380D01*
X61475892Y-70952380D01*
X61380654Y-71000000D01*
X61333035Y-71047619D01*
X61285416Y-71142857D01*
X61285416Y-71285714D01*
X61333035Y-71380952D01*
X61380654Y-71428571D01*
X61475892Y-71476190D01*
X61856845Y-71476190D01*
X60952083Y-70952380D02*
X60333035Y-70952380D01*
X60666369Y-71333333D01*
X60523511Y-71333333D01*
X60428273Y-71380952D01*
X60380654Y-71428571D01*
X60333035Y-71523809D01*
X60333035Y-71761904D01*
X60380654Y-71857142D01*
X60428273Y-71904761D01*
X60523511Y-71952380D01*
X60809226Y-71952380D01*
X60904464Y-71904761D01*
X60952083Y-71857142D01*
X59921130Y-18883333D02*
X59444940Y-18550000D01*
X59921130Y-18311904D02*
X58921130Y-18311904D01*
X58921130Y-18692857D01*
X58968750Y-18788095D01*
X59016369Y-18835714D01*
X59111607Y-18883333D01*
X59254464Y-18883333D01*
X59349702Y-18835714D01*
X59397321Y-18788095D01*
X59444940Y-18692857D01*
X59444940Y-18311904D01*
X59254464Y-19740476D02*
X59921130Y-19740476D01*
X58873511Y-19502380D02*
X59587797Y-19264285D01*
X59587797Y-19883333D01*
X85637666Y-67255380D02*
X85971000Y-66779190D01*
X86209095Y-67255380D02*
X86209095Y-66255380D01*
X85828142Y-66255380D01*
X85732904Y-66303000D01*
X85685285Y-66350619D01*
X85637666Y-66445857D01*
X85637666Y-66588714D01*
X85685285Y-66683952D01*
X85732904Y-66731571D01*
X85828142Y-66779190D01*
X86209095Y-66779190D01*
X84732904Y-66255380D02*
X85209095Y-66255380D01*
X85256714Y-66731571D01*
X85209095Y-66683952D01*
X85113857Y-66636333D01*
X84875761Y-66636333D01*
X84780523Y-66683952D01*
X84732904Y-66731571D01*
X84685285Y-66826809D01*
X84685285Y-67064904D01*
X84732904Y-67160142D01*
X84780523Y-67207761D01*
X84875761Y-67255380D01*
X85113857Y-67255380D01*
X85209095Y-67207761D01*
X85256714Y-67160142D01*
X51252380Y-18438833D02*
X50776190Y-18105500D01*
X51252380Y-17867404D02*
X50252380Y-17867404D01*
X50252380Y-18248357D01*
X50300000Y-18343595D01*
X50347619Y-18391214D01*
X50442857Y-18438833D01*
X50585714Y-18438833D01*
X50680952Y-18391214D01*
X50728571Y-18343595D01*
X50776190Y-18248357D01*
X50776190Y-17867404D01*
X50252380Y-19295976D02*
X50252380Y-19105500D01*
X50300000Y-19010261D01*
X50347619Y-18962642D01*
X50490476Y-18867404D01*
X50680952Y-18819785D01*
X51061904Y-18819785D01*
X51157142Y-18867404D01*
X51204761Y-18915023D01*
X51252380Y-19010261D01*
X51252380Y-19200738D01*
X51204761Y-19295976D01*
X51157142Y-19343595D01*
X51061904Y-19391214D01*
X50823809Y-19391214D01*
X50728571Y-19343595D01*
X50680952Y-19295976D01*
X50633333Y-19200738D01*
X50633333Y-19010261D01*
X50680952Y-18915023D01*
X50728571Y-18867404D01*
X50823809Y-18819785D01*
X47791666Y-48014880D02*
X48125000Y-47538690D01*
X48363095Y-48014880D02*
X48363095Y-47014880D01*
X47982142Y-47014880D01*
X47886904Y-47062500D01*
X47839285Y-47110119D01*
X47791666Y-47205357D01*
X47791666Y-47348214D01*
X47839285Y-47443452D01*
X47886904Y-47491071D01*
X47982142Y-47538690D01*
X48363095Y-47538690D01*
X47458333Y-47014880D02*
X46791666Y-47014880D01*
X47220238Y-48014880D01*
X73350380Y-45077083D02*
X72874190Y-44743750D01*
X73350380Y-44505654D02*
X72350380Y-44505654D01*
X72350380Y-44886607D01*
X72398000Y-44981845D01*
X72445619Y-45029464D01*
X72540857Y-45077083D01*
X72683714Y-45077083D01*
X72778952Y-45029464D01*
X72826571Y-44981845D01*
X72874190Y-44886607D01*
X72874190Y-44505654D01*
X72778952Y-45648511D02*
X72731333Y-45553273D01*
X72683714Y-45505654D01*
X72588476Y-45458035D01*
X72540857Y-45458035D01*
X72445619Y-45505654D01*
X72398000Y-45553273D01*
X72350380Y-45648511D01*
X72350380Y-45838988D01*
X72398000Y-45934226D01*
X72445619Y-45981845D01*
X72540857Y-46029464D01*
X72588476Y-46029464D01*
X72683714Y-45981845D01*
X72731333Y-45934226D01*
X72778952Y-45838988D01*
X72778952Y-45648511D01*
X72826571Y-45553273D01*
X72874190Y-45505654D01*
X72969428Y-45458035D01*
X73159904Y-45458035D01*
X73255142Y-45505654D01*
X73302761Y-45553273D01*
X73350380Y-45648511D01*
X73350380Y-45838988D01*
X73302761Y-45934226D01*
X73255142Y-45981845D01*
X73159904Y-46029464D01*
X72969428Y-46029464D01*
X72874190Y-45981845D01*
X72826571Y-45934226D01*
X72778952Y-45838988D01*
X79889880Y-45077083D02*
X79413690Y-44743750D01*
X79889880Y-44505654D02*
X78889880Y-44505654D01*
X78889880Y-44886607D01*
X78937500Y-44981845D01*
X78985119Y-45029464D01*
X79080357Y-45077083D01*
X79223214Y-45077083D01*
X79318452Y-45029464D01*
X79366071Y-44981845D01*
X79413690Y-44886607D01*
X79413690Y-44505654D01*
X79889880Y-45553273D02*
X79889880Y-45743750D01*
X79842261Y-45838988D01*
X79794642Y-45886607D01*
X79651785Y-45981845D01*
X79461309Y-46029464D01*
X79080357Y-46029464D01*
X78985119Y-45981845D01*
X78937500Y-45934226D01*
X78889880Y-45838988D01*
X78889880Y-45648511D01*
X78937500Y-45553273D01*
X78985119Y-45505654D01*
X79080357Y-45458035D01*
X79318452Y-45458035D01*
X79413690Y-45505654D01*
X79461309Y-45553273D01*
X79508928Y-45648511D01*
X79508928Y-45838988D01*
X79461309Y-45934226D01*
X79413690Y-45981845D01*
X79318452Y-46029464D01*
X97226380Y-35806142D02*
X96750190Y-35472809D01*
X97226380Y-35234714D02*
X96226380Y-35234714D01*
X96226380Y-35615666D01*
X96274000Y-35710904D01*
X96321619Y-35758523D01*
X96416857Y-35806142D01*
X96559714Y-35806142D01*
X96654952Y-35758523D01*
X96702571Y-35710904D01*
X96750190Y-35615666D01*
X96750190Y-35234714D01*
X97226380Y-36758523D02*
X97226380Y-36187095D01*
X97226380Y-36472809D02*
X96226380Y-36472809D01*
X96369238Y-36377571D01*
X96464476Y-36282333D01*
X96512095Y-36187095D01*
X96226380Y-37377571D02*
X96226380Y-37472809D01*
X96274000Y-37568047D01*
X96321619Y-37615666D01*
X96416857Y-37663285D01*
X96607333Y-37710904D01*
X96845428Y-37710904D01*
X97035904Y-37663285D01*
X97131142Y-37615666D01*
X97178761Y-37568047D01*
X97226380Y-37472809D01*
X97226380Y-37377571D01*
X97178761Y-37282333D01*
X97131142Y-37234714D01*
X97035904Y-37187095D01*
X96845428Y-37139476D01*
X96607333Y-37139476D01*
X96416857Y-37187095D01*
X96321619Y-37234714D01*
X96274000Y-37282333D01*
X96226380Y-37377571D01*
X55283630Y-63650892D02*
X54807440Y-63317559D01*
X55283630Y-63079464D02*
X54283630Y-63079464D01*
X54283630Y-63460416D01*
X54331250Y-63555654D01*
X54378869Y-63603273D01*
X54474107Y-63650892D01*
X54616964Y-63650892D01*
X54712202Y-63603273D01*
X54759821Y-63555654D01*
X54807440Y-63460416D01*
X54807440Y-63079464D01*
X55283630Y-64603273D02*
X55283630Y-64031845D01*
X55283630Y-64317559D02*
X54283630Y-64317559D01*
X54426488Y-64222321D01*
X54521726Y-64127083D01*
X54569345Y-64031845D01*
X55283630Y-65555654D02*
X55283630Y-64984226D01*
X55283630Y-65269940D02*
X54283630Y-65269940D01*
X54426488Y-65174702D01*
X54521726Y-65079464D01*
X54569345Y-64984226D01*
X70302380Y-61206142D02*
X69826190Y-60872809D01*
X70302380Y-60634714D02*
X69302380Y-60634714D01*
X69302380Y-61015666D01*
X69350000Y-61110904D01*
X69397619Y-61158523D01*
X69492857Y-61206142D01*
X69635714Y-61206142D01*
X69730952Y-61158523D01*
X69778571Y-61110904D01*
X69826190Y-61015666D01*
X69826190Y-60634714D01*
X70302380Y-62158523D02*
X70302380Y-61587095D01*
X70302380Y-61872809D02*
X69302380Y-61872809D01*
X69445238Y-61777571D01*
X69540476Y-61682333D01*
X69588095Y-61587095D01*
X69397619Y-62539476D02*
X69350000Y-62587095D01*
X69302380Y-62682333D01*
X69302380Y-62920428D01*
X69350000Y-63015666D01*
X69397619Y-63063285D01*
X69492857Y-63110904D01*
X69588095Y-63110904D01*
X69730952Y-63063285D01*
X70302380Y-62491857D01*
X70302380Y-63110904D01*
X91638380Y-67619642D02*
X91162190Y-67286309D01*
X91638380Y-67048214D02*
X90638380Y-67048214D01*
X90638380Y-67429166D01*
X90686000Y-67524404D01*
X90733619Y-67572023D01*
X90828857Y-67619642D01*
X90971714Y-67619642D01*
X91066952Y-67572023D01*
X91114571Y-67524404D01*
X91162190Y-67429166D01*
X91162190Y-67048214D01*
X91638380Y-68572023D02*
X91638380Y-68000595D01*
X91638380Y-68286309D02*
X90638380Y-68286309D01*
X90781238Y-68191071D01*
X90876476Y-68095833D01*
X90924095Y-68000595D01*
X90638380Y-68905357D02*
X90638380Y-69524404D01*
X91019333Y-69191071D01*
X91019333Y-69333928D01*
X91066952Y-69429166D01*
X91114571Y-69476785D01*
X91209809Y-69524404D01*
X91447904Y-69524404D01*
X91543142Y-69476785D01*
X91590761Y-69429166D01*
X91638380Y-69333928D01*
X91638380Y-69048214D01*
X91590761Y-68952976D01*
X91543142Y-68905357D01*
X98146130Y-67619642D02*
X97669940Y-67286309D01*
X98146130Y-67048214D02*
X97146130Y-67048214D01*
X97146130Y-67429166D01*
X97193750Y-67524404D01*
X97241369Y-67572023D01*
X97336607Y-67619642D01*
X97479464Y-67619642D01*
X97574702Y-67572023D01*
X97622321Y-67524404D01*
X97669940Y-67429166D01*
X97669940Y-67048214D01*
X98146130Y-68572023D02*
X98146130Y-68000595D01*
X98146130Y-68286309D02*
X97146130Y-68286309D01*
X97288988Y-68191071D01*
X97384226Y-68095833D01*
X97431845Y-68000595D01*
X97479464Y-69429166D02*
X98146130Y-69429166D01*
X97098511Y-69191071D02*
X97812797Y-68952976D01*
X97812797Y-69572023D01*
X54300380Y-82700892D02*
X53824190Y-82367559D01*
X54300380Y-82129464D02*
X53300380Y-82129464D01*
X53300380Y-82510416D01*
X53348000Y-82605654D01*
X53395619Y-82653273D01*
X53490857Y-82700892D01*
X53633714Y-82700892D01*
X53728952Y-82653273D01*
X53776571Y-82605654D01*
X53824190Y-82510416D01*
X53824190Y-82129464D01*
X54300380Y-83653273D02*
X54300380Y-83081845D01*
X54300380Y-83367559D02*
X53300380Y-83367559D01*
X53443238Y-83272321D01*
X53538476Y-83177083D01*
X53586095Y-83081845D01*
X53300380Y-84558035D02*
X53300380Y-84081845D01*
X53776571Y-84034226D01*
X53728952Y-84081845D01*
X53681333Y-84177083D01*
X53681333Y-84415178D01*
X53728952Y-84510416D01*
X53776571Y-84558035D01*
X53871809Y-84605654D01*
X54109904Y-84605654D01*
X54205142Y-84558035D01*
X54252761Y-84510416D01*
X54300380Y-84415178D01*
X54300380Y-84177083D01*
X54252761Y-84081845D01*
X54205142Y-84034226D01*
X60839880Y-82700892D02*
X60363690Y-82367559D01*
X60839880Y-82129464D02*
X59839880Y-82129464D01*
X59839880Y-82510416D01*
X59887500Y-82605654D01*
X59935119Y-82653273D01*
X60030357Y-82700892D01*
X60173214Y-82700892D01*
X60268452Y-82653273D01*
X60316071Y-82605654D01*
X60363690Y-82510416D01*
X60363690Y-82129464D01*
X60839880Y-83653273D02*
X60839880Y-83081845D01*
X60839880Y-83367559D02*
X59839880Y-83367559D01*
X59982738Y-83272321D01*
X60077976Y-83177083D01*
X60125595Y-83081845D01*
X59839880Y-84510416D02*
X59839880Y-84319940D01*
X59887500Y-84224702D01*
X59935119Y-84177083D01*
X60077976Y-84081845D01*
X60268452Y-84034226D01*
X60649404Y-84034226D01*
X60744642Y-84081845D01*
X60792261Y-84129464D01*
X60839880Y-84224702D01*
X60839880Y-84415178D01*
X60792261Y-84510416D01*
X60744642Y-84558035D01*
X60649404Y-84605654D01*
X60411309Y-84605654D01*
X60316071Y-84558035D01*
X60268452Y-84510416D01*
X60220833Y-84415178D01*
X60220833Y-84224702D01*
X60268452Y-84129464D01*
X60316071Y-84081845D01*
X60411309Y-84034226D01*
X82271130Y-82700892D02*
X81794940Y-82367559D01*
X82271130Y-82129464D02*
X81271130Y-82129464D01*
X81271130Y-82510416D01*
X81318750Y-82605654D01*
X81366369Y-82653273D01*
X81461607Y-82700892D01*
X81604464Y-82700892D01*
X81699702Y-82653273D01*
X81747321Y-82605654D01*
X81794940Y-82510416D01*
X81794940Y-82129464D01*
X82271130Y-83653273D02*
X82271130Y-83081845D01*
X82271130Y-83367559D02*
X81271130Y-83367559D01*
X81413988Y-83272321D01*
X81509226Y-83177083D01*
X81556845Y-83081845D01*
X81271130Y-83986607D02*
X81271130Y-84653273D01*
X82271130Y-84224702D01*
X105417857Y-86114880D02*
X105751190Y-85638690D01*
X105989285Y-86114880D02*
X105989285Y-85114880D01*
X105608333Y-85114880D01*
X105513095Y-85162500D01*
X105465476Y-85210119D01*
X105417857Y-85305357D01*
X105417857Y-85448214D01*
X105465476Y-85543452D01*
X105513095Y-85591071D01*
X105608333Y-85638690D01*
X105989285Y-85638690D01*
X104465476Y-86114880D02*
X105036904Y-86114880D01*
X104751190Y-86114880D02*
X104751190Y-85114880D01*
X104846428Y-85257738D01*
X104941666Y-85352976D01*
X105036904Y-85400595D01*
X103894047Y-85543452D02*
X103989285Y-85495833D01*
X104036904Y-85448214D01*
X104084523Y-85352976D01*
X104084523Y-85305357D01*
X104036904Y-85210119D01*
X103989285Y-85162500D01*
X103894047Y-85114880D01*
X103703571Y-85114880D01*
X103608333Y-85162500D01*
X103560714Y-85210119D01*
X103513095Y-85305357D01*
X103513095Y-85352976D01*
X103560714Y-85448214D01*
X103608333Y-85495833D01*
X103703571Y-85543452D01*
X103894047Y-85543452D01*
X103989285Y-85591071D01*
X104036904Y-85638690D01*
X104084523Y-85733928D01*
X104084523Y-85924404D01*
X104036904Y-86019642D01*
X103989285Y-86067261D01*
X103894047Y-86114880D01*
X103703571Y-86114880D01*
X103608333Y-86067261D01*
X103560714Y-86019642D01*
X103513095Y-85924404D01*
X103513095Y-85733928D01*
X103560714Y-85638690D01*
X103608333Y-85591071D01*
X103703571Y-85543452D01*
X54300380Y-93718142D02*
X53824190Y-93384809D01*
X54300380Y-93146714D02*
X53300380Y-93146714D01*
X53300380Y-93527666D01*
X53348000Y-93622904D01*
X53395619Y-93670523D01*
X53490857Y-93718142D01*
X53633714Y-93718142D01*
X53728952Y-93670523D01*
X53776571Y-93622904D01*
X53824190Y-93527666D01*
X53824190Y-93146714D01*
X54300380Y-94670523D02*
X54300380Y-94099095D01*
X54300380Y-94384809D02*
X53300380Y-94384809D01*
X53443238Y-94289571D01*
X53538476Y-94194333D01*
X53586095Y-94099095D01*
X54300380Y-95146714D02*
X54300380Y-95337190D01*
X54252761Y-95432428D01*
X54205142Y-95480047D01*
X54062285Y-95575285D01*
X53871809Y-95622904D01*
X53490857Y-95622904D01*
X53395619Y-95575285D01*
X53348000Y-95527666D01*
X53300380Y-95432428D01*
X53300380Y-95241952D01*
X53348000Y-95146714D01*
X53395619Y-95099095D01*
X53490857Y-95051476D01*
X53728952Y-95051476D01*
X53824190Y-95099095D01*
X53871809Y-95146714D01*
X53919428Y-95241952D01*
X53919428Y-95432428D01*
X53871809Y-95527666D01*
X53824190Y-95575285D01*
X53728952Y-95622904D01*
X60839880Y-94607142D02*
X60363690Y-94273809D01*
X60839880Y-94035714D02*
X59839880Y-94035714D01*
X59839880Y-94416666D01*
X59887500Y-94511904D01*
X59935119Y-94559523D01*
X60030357Y-94607142D01*
X60173214Y-94607142D01*
X60268452Y-94559523D01*
X60316071Y-94511904D01*
X60363690Y-94416666D01*
X60363690Y-94035714D01*
X59935119Y-94988095D02*
X59887500Y-95035714D01*
X59839880Y-95130952D01*
X59839880Y-95369047D01*
X59887500Y-95464285D01*
X59935119Y-95511904D01*
X60030357Y-95559523D01*
X60125595Y-95559523D01*
X60268452Y-95511904D01*
X60839880Y-94940476D01*
X60839880Y-95559523D01*
X59839880Y-96178571D02*
X59839880Y-96273809D01*
X59887500Y-96369047D01*
X59935119Y-96416666D01*
X60030357Y-96464285D01*
X60220833Y-96511904D01*
X60458928Y-96511904D01*
X60649404Y-96464285D01*
X60744642Y-96416666D01*
X60792261Y-96369047D01*
X60839880Y-96273809D01*
X60839880Y-96178571D01*
X60792261Y-96083333D01*
X60744642Y-96035714D01*
X60649404Y-95988095D01*
X60458928Y-95940476D01*
X60220833Y-95940476D01*
X60030357Y-95988095D01*
X59935119Y-96035714D01*
X59887500Y-96083333D01*
X59839880Y-96178571D01*
X78238880Y-104925892D02*
X77762690Y-104592559D01*
X78238880Y-104354464D02*
X77238880Y-104354464D01*
X77238880Y-104735416D01*
X77286500Y-104830654D01*
X77334119Y-104878273D01*
X77429357Y-104925892D01*
X77572214Y-104925892D01*
X77667452Y-104878273D01*
X77715071Y-104830654D01*
X77762690Y-104735416D01*
X77762690Y-104354464D01*
X77334119Y-105306845D02*
X77286500Y-105354464D01*
X77238880Y-105449702D01*
X77238880Y-105687797D01*
X77286500Y-105783035D01*
X77334119Y-105830654D01*
X77429357Y-105878273D01*
X77524595Y-105878273D01*
X77667452Y-105830654D01*
X78238880Y-105259226D01*
X78238880Y-105878273D01*
X78238880Y-106830654D02*
X78238880Y-106259226D01*
X78238880Y-106544940D02*
X77238880Y-106544940D01*
X77381738Y-106449702D01*
X77476976Y-106354464D01*
X77524595Y-106259226D01*
X75063880Y-104925892D02*
X74587690Y-104592559D01*
X75063880Y-104354464D02*
X74063880Y-104354464D01*
X74063880Y-104735416D01*
X74111500Y-104830654D01*
X74159119Y-104878273D01*
X74254357Y-104925892D01*
X74397214Y-104925892D01*
X74492452Y-104878273D01*
X74540071Y-104830654D01*
X74587690Y-104735416D01*
X74587690Y-104354464D01*
X74159119Y-105306845D02*
X74111500Y-105354464D01*
X74063880Y-105449702D01*
X74063880Y-105687797D01*
X74111500Y-105783035D01*
X74159119Y-105830654D01*
X74254357Y-105878273D01*
X74349595Y-105878273D01*
X74492452Y-105830654D01*
X75063880Y-105259226D01*
X75063880Y-105878273D01*
X74159119Y-106259226D02*
X74111500Y-106306845D01*
X74063880Y-106402083D01*
X74063880Y-106640178D01*
X74111500Y-106735416D01*
X74159119Y-106783035D01*
X74254357Y-106830654D01*
X74349595Y-106830654D01*
X74492452Y-106783035D01*
X75063880Y-106211607D01*
X75063880Y-106830654D01*
X54489880Y-118419642D02*
X54013690Y-118086309D01*
X54489880Y-117848214D02*
X53489880Y-117848214D01*
X53489880Y-118229166D01*
X53537500Y-118324404D01*
X53585119Y-118372023D01*
X53680357Y-118419642D01*
X53823214Y-118419642D01*
X53918452Y-118372023D01*
X53966071Y-118324404D01*
X54013690Y-118229166D01*
X54013690Y-117848214D01*
X53585119Y-118800595D02*
X53537500Y-118848214D01*
X53489880Y-118943452D01*
X53489880Y-119181547D01*
X53537500Y-119276785D01*
X53585119Y-119324404D01*
X53680357Y-119372023D01*
X53775595Y-119372023D01*
X53918452Y-119324404D01*
X54489880Y-118752976D01*
X54489880Y-119372023D01*
X53489880Y-119705357D02*
X53489880Y-120324404D01*
X53870833Y-119991071D01*
X53870833Y-120133928D01*
X53918452Y-120229166D01*
X53966071Y-120276785D01*
X54061309Y-120324404D01*
X54299404Y-120324404D01*
X54394642Y-120276785D01*
X54442261Y-120229166D01*
X54489880Y-120133928D01*
X54489880Y-119848214D01*
X54442261Y-119752976D01*
X54394642Y-119705357D01*
X64014880Y-118419642D02*
X63538690Y-118086309D01*
X64014880Y-117848214D02*
X63014880Y-117848214D01*
X63014880Y-118229166D01*
X63062500Y-118324404D01*
X63110119Y-118372023D01*
X63205357Y-118419642D01*
X63348214Y-118419642D01*
X63443452Y-118372023D01*
X63491071Y-118324404D01*
X63538690Y-118229166D01*
X63538690Y-117848214D01*
X63110119Y-118800595D02*
X63062500Y-118848214D01*
X63014880Y-118943452D01*
X63014880Y-119181547D01*
X63062500Y-119276785D01*
X63110119Y-119324404D01*
X63205357Y-119372023D01*
X63300595Y-119372023D01*
X63443452Y-119324404D01*
X64014880Y-118752976D01*
X64014880Y-119372023D01*
X63348214Y-120229166D02*
X64014880Y-120229166D01*
X62967261Y-119991071D02*
X63681547Y-119752976D01*
X63681547Y-120372023D01*
X79889880Y-119213392D02*
X79413690Y-118880059D01*
X79889880Y-118641964D02*
X78889880Y-118641964D01*
X78889880Y-119022916D01*
X78937500Y-119118154D01*
X78985119Y-119165773D01*
X79080357Y-119213392D01*
X79223214Y-119213392D01*
X79318452Y-119165773D01*
X79366071Y-119118154D01*
X79413690Y-119022916D01*
X79413690Y-118641964D01*
X78985119Y-119594345D02*
X78937500Y-119641964D01*
X78889880Y-119737202D01*
X78889880Y-119975297D01*
X78937500Y-120070535D01*
X78985119Y-120118154D01*
X79080357Y-120165773D01*
X79175595Y-120165773D01*
X79318452Y-120118154D01*
X79889880Y-119546726D01*
X79889880Y-120165773D01*
X78889880Y-121070535D02*
X78889880Y-120594345D01*
X79366071Y-120546726D01*
X79318452Y-120594345D01*
X79270833Y-120689583D01*
X79270833Y-120927678D01*
X79318452Y-121022916D01*
X79366071Y-121070535D01*
X79461309Y-121118154D01*
X79699404Y-121118154D01*
X79794642Y-121070535D01*
X79842261Y-121022916D01*
X79889880Y-120927678D01*
X79889880Y-120689583D01*
X79842261Y-120594345D01*
X79794642Y-120546726D01*
X93383630Y-119213392D02*
X92907440Y-118880059D01*
X93383630Y-118641964D02*
X92383630Y-118641964D01*
X92383630Y-119022916D01*
X92431250Y-119118154D01*
X92478869Y-119165773D01*
X92574107Y-119213392D01*
X92716964Y-119213392D01*
X92812202Y-119165773D01*
X92859821Y-119118154D01*
X92907440Y-119022916D01*
X92907440Y-118641964D01*
X92478869Y-119594345D02*
X92431250Y-119641964D01*
X92383630Y-119737202D01*
X92383630Y-119975297D01*
X92431250Y-120070535D01*
X92478869Y-120118154D01*
X92574107Y-120165773D01*
X92669345Y-120165773D01*
X92812202Y-120118154D01*
X93383630Y-119546726D01*
X93383630Y-120165773D01*
X92383630Y-121022916D02*
X92383630Y-120832440D01*
X92431250Y-120737202D01*
X92478869Y-120689583D01*
X92621726Y-120594345D01*
X92812202Y-120546726D01*
X93193154Y-120546726D01*
X93288392Y-120594345D01*
X93336011Y-120641964D01*
X93383630Y-120737202D01*
X93383630Y-120927678D01*
X93336011Y-121022916D01*
X93288392Y-121070535D01*
X93193154Y-121118154D01*
X92955059Y-121118154D01*
X92859821Y-121070535D01*
X92812202Y-121022916D01*
X92764583Y-120927678D01*
X92764583Y-120737202D01*
X92812202Y-120641964D01*
X92859821Y-120594345D01*
X92955059Y-120546726D01*
X96583333Y-83653261D02*
X96440476Y-83700880D01*
X96202380Y-83700880D01*
X96107142Y-83653261D01*
X96059523Y-83605642D01*
X96011904Y-83510404D01*
X96011904Y-83415166D01*
X96059523Y-83319928D01*
X96107142Y-83272309D01*
X96202380Y-83224690D01*
X96392857Y-83177071D01*
X96488095Y-83129452D01*
X96535714Y-83081833D01*
X96583333Y-82986595D01*
X96583333Y-82891357D01*
X96535714Y-82796119D01*
X96488095Y-82748500D01*
X96392857Y-82700880D01*
X96154761Y-82700880D01*
X96011904Y-82748500D01*
X95678571Y-82700880D02*
X95440476Y-83700880D01*
X95250000Y-82986595D01*
X95059523Y-83700880D01*
X94821428Y-82700880D01*
X93916666Y-83700880D02*
X94488095Y-83700880D01*
X94202380Y-83700880D02*
X94202380Y-82700880D01*
X94297619Y-82843738D01*
X94392857Y-82938976D01*
X94488095Y-82986595D01*
X57911904Y-17676880D02*
X57911904Y-18486404D01*
X57864285Y-18581642D01*
X57816666Y-18629261D01*
X57721428Y-18676880D01*
X57530952Y-18676880D01*
X57435714Y-18629261D01*
X57388095Y-18581642D01*
X57340476Y-18486404D01*
X57340476Y-17676880D01*
X56911904Y-17772119D02*
X56864285Y-17724500D01*
X56769047Y-17676880D01*
X56530952Y-17676880D01*
X56435714Y-17724500D01*
X56388095Y-17772119D01*
X56340476Y-17867357D01*
X56340476Y-17962595D01*
X56388095Y-18105452D01*
X56959523Y-18676880D01*
X56340476Y-18676880D01*
X58888095Y-12215880D02*
X58888095Y-13025404D01*
X58840476Y-13120642D01*
X58792857Y-13168261D01*
X58697619Y-13215880D01*
X58507142Y-13215880D01*
X58411904Y-13168261D01*
X58364285Y-13120642D01*
X58316666Y-13025404D01*
X58316666Y-12215880D01*
X57888095Y-13168261D02*
X57745238Y-13215880D01*
X57507142Y-13215880D01*
X57411904Y-13168261D01*
X57364285Y-13120642D01*
X57316666Y-13025404D01*
X57316666Y-12930166D01*
X57364285Y-12834928D01*
X57411904Y-12787309D01*
X57507142Y-12739690D01*
X57697619Y-12692071D01*
X57792857Y-12644452D01*
X57840476Y-12596833D01*
X57888095Y-12501595D01*
X57888095Y-12406357D01*
X57840476Y-12311119D01*
X57792857Y-12263500D01*
X57697619Y-12215880D01*
X57459523Y-12215880D01*
X57316666Y-12263500D01*
X56554761Y-12692071D02*
X56411904Y-12739690D01*
X56364285Y-12787309D01*
X56316666Y-12882547D01*
X56316666Y-13025404D01*
X56364285Y-13120642D01*
X56411904Y-13168261D01*
X56507142Y-13215880D01*
X56888095Y-13215880D01*
X56888095Y-12215880D01*
X56554761Y-12215880D01*
X56459523Y-12263500D01*
X56411904Y-12311119D01*
X56364285Y-12406357D01*
X56364285Y-12501595D01*
X56411904Y-12596833D01*
X56459523Y-12644452D01*
X56554761Y-12692071D01*
X56888095Y-12692071D01*
X55364285Y-13215880D02*
X55935714Y-13215880D01*
X55650000Y-13215880D02*
X55650000Y-12215880D01*
X55745238Y-12358738D01*
X55840476Y-12453976D01*
X55935714Y-12501595D01*
X76676190Y-63544940D02*
X76676190Y-64021130D01*
X77009523Y-63021130D02*
X76676190Y-63544940D01*
X76342857Y-63021130D01*
X75485714Y-64021130D02*
X76057142Y-64021130D01*
X75771428Y-64021130D02*
X75771428Y-63021130D01*
X75866666Y-63163988D01*
X75961904Y-63259226D01*
X76057142Y-63306845D01*
X76453904Y-64730380D02*
X76453904Y-65539904D01*
X76406285Y-65635142D01*
X76358666Y-65682761D01*
X76263428Y-65730380D01*
X76072952Y-65730380D01*
X75977714Y-65682761D01*
X75930095Y-65635142D01*
X75882476Y-65539904D01*
X75882476Y-64730380D01*
X74882476Y-65730380D02*
X75453904Y-65730380D01*
X75168190Y-65730380D02*
X75168190Y-64730380D01*
X75263428Y-64873238D01*
X75358666Y-64968476D01*
X75453904Y-65016095D01*
X74707738Y-89574619D02*
X74802976Y-89527000D01*
X74898214Y-89431761D01*
X75041071Y-89288904D01*
X75136309Y-89241285D01*
X75231547Y-89241285D01*
X75183928Y-89479380D02*
X75279166Y-89431761D01*
X75374404Y-89336523D01*
X75422023Y-89146047D01*
X75422023Y-88812714D01*
X75374404Y-88622238D01*
X75279166Y-88527000D01*
X75183928Y-88479380D01*
X74993452Y-88479380D01*
X74898214Y-88527000D01*
X74802976Y-88622238D01*
X74755357Y-88812714D01*
X74755357Y-89146047D01*
X74802976Y-89336523D01*
X74898214Y-89431761D01*
X74993452Y-89479380D01*
X75183928Y-89479380D01*
X73802976Y-89479380D02*
X74374404Y-89479380D01*
X74088690Y-89479380D02*
X74088690Y-88479380D01*
X74183928Y-88622238D01*
X74279166Y-88717476D01*
X74374404Y-88765095D01*
X75255357Y-81352380D02*
X75588690Y-80876190D01*
X75826785Y-81352380D02*
X75826785Y-80352380D01*
X75445833Y-80352380D01*
X75350595Y-80400000D01*
X75302976Y-80447619D01*
X75255357Y-80542857D01*
X75255357Y-80685714D01*
X75302976Y-80780952D01*
X75350595Y-80828571D01*
X75445833Y-80876190D01*
X75826785Y-80876190D01*
X74874404Y-80447619D02*
X74826785Y-80400000D01*
X74731547Y-80352380D01*
X74493452Y-80352380D01*
X74398214Y-80400000D01*
X74350595Y-80447619D01*
X74302976Y-80542857D01*
X74302976Y-80638095D01*
X74350595Y-80780952D01*
X74922023Y-81352380D01*
X74302976Y-81352380D01*
X73969642Y-80352380D02*
X73302976Y-80352380D01*
X73731547Y-81352380D01*
X44521130Y-18629464D02*
X43521130Y-18629464D01*
X43521130Y-18867559D01*
X43568750Y-19010416D01*
X43663988Y-19105654D01*
X43759226Y-19153273D01*
X43949702Y-19200892D01*
X44092559Y-19200892D01*
X44283035Y-19153273D01*
X44378273Y-19105654D01*
X44473511Y-19010416D01*
X44521130Y-18867559D01*
X44521130Y-18629464D01*
X43616369Y-19581845D02*
X43568750Y-19629464D01*
X43521130Y-19724702D01*
X43521130Y-19962797D01*
X43568750Y-20058035D01*
X43616369Y-20105654D01*
X43711607Y-20153273D01*
X43806845Y-20153273D01*
X43949702Y-20105654D01*
X44521130Y-19534226D01*
X44521130Y-20153273D01*
X43521130Y-21058035D02*
X43521130Y-20581845D01*
X43997321Y-20534226D01*
X43949702Y-20581845D01*
X43902083Y-20677083D01*
X43902083Y-20915178D01*
X43949702Y-21010416D01*
X43997321Y-21058035D01*
X44092559Y-21105654D01*
X44330654Y-21105654D01*
X44425892Y-21058035D01*
X44473511Y-21010416D01*
X44521130Y-20915178D01*
X44521130Y-20677083D01*
X44473511Y-20581845D01*
X44425892Y-20534226D01*
X77064880Y-14660714D02*
X76064880Y-14660714D01*
X76064880Y-14898809D01*
X76112500Y-15041666D01*
X76207738Y-15136904D01*
X76302976Y-15184523D01*
X76493452Y-15232142D01*
X76636309Y-15232142D01*
X76826785Y-15184523D01*
X76922023Y-15136904D01*
X77017261Y-15041666D01*
X77064880Y-14898809D01*
X77064880Y-14660714D01*
X76160119Y-15613095D02*
X76112500Y-15660714D01*
X76064880Y-15755952D01*
X76064880Y-15994047D01*
X76112500Y-16089285D01*
X76160119Y-16136904D01*
X76255357Y-16184523D01*
X76350595Y-16184523D01*
X76493452Y-16136904D01*
X77064880Y-15565476D01*
X77064880Y-16184523D01*
X76064880Y-17041666D02*
X76064880Y-16851190D01*
X76112500Y-16755952D01*
X76160119Y-16708333D01*
X76302976Y-16613095D01*
X76493452Y-16565476D01*
X76874404Y-16565476D01*
X76969642Y-16613095D01*
X77017261Y-16660714D01*
X77064880Y-16755952D01*
X77064880Y-16946428D01*
X77017261Y-17041666D01*
X76969642Y-17089285D01*
X76874404Y-17136904D01*
X76636309Y-17136904D01*
X76541071Y-17089285D01*
X76493452Y-17041666D01*
X76445833Y-16946428D01*
X76445833Y-16755952D01*
X76493452Y-16660714D01*
X76541071Y-16613095D01*
X76636309Y-16565476D01*
X96114880Y-14660714D02*
X95114880Y-14660714D01*
X95114880Y-14898809D01*
X95162500Y-15041666D01*
X95257738Y-15136904D01*
X95352976Y-15184523D01*
X95543452Y-15232142D01*
X95686309Y-15232142D01*
X95876785Y-15184523D01*
X95972023Y-15136904D01*
X96067261Y-15041666D01*
X96114880Y-14898809D01*
X96114880Y-14660714D01*
X95210119Y-15613095D02*
X95162500Y-15660714D01*
X95114880Y-15755952D01*
X95114880Y-15994047D01*
X95162500Y-16089285D01*
X95210119Y-16136904D01*
X95305357Y-16184523D01*
X95400595Y-16184523D01*
X95543452Y-16136904D01*
X96114880Y-15565476D01*
X96114880Y-16184523D01*
X95114880Y-16517857D02*
X95114880Y-17184523D01*
X96114880Y-16755952D01*
X99289880Y-14660714D02*
X98289880Y-14660714D01*
X98289880Y-14898809D01*
X98337500Y-15041666D01*
X98432738Y-15136904D01*
X98527976Y-15184523D01*
X98718452Y-15232142D01*
X98861309Y-15232142D01*
X99051785Y-15184523D01*
X99147023Y-15136904D01*
X99242261Y-15041666D01*
X99289880Y-14898809D01*
X99289880Y-14660714D01*
X98385119Y-15613095D02*
X98337500Y-15660714D01*
X98289880Y-15755952D01*
X98289880Y-15994047D01*
X98337500Y-16089285D01*
X98385119Y-16136904D01*
X98480357Y-16184523D01*
X98575595Y-16184523D01*
X98718452Y-16136904D01*
X99289880Y-15565476D01*
X99289880Y-16184523D01*
X98718452Y-16755952D02*
X98670833Y-16660714D01*
X98623214Y-16613095D01*
X98527976Y-16565476D01*
X98480357Y-16565476D01*
X98385119Y-16613095D01*
X98337500Y-16660714D01*
X98289880Y-16755952D01*
X98289880Y-16946428D01*
X98337500Y-17041666D01*
X98385119Y-17089285D01*
X98480357Y-17136904D01*
X98527976Y-17136904D01*
X98623214Y-17089285D01*
X98670833Y-17041666D01*
X98718452Y-16946428D01*
X98718452Y-16755952D01*
X98766071Y-16660714D01*
X98813690Y-16613095D01*
X98908928Y-16565476D01*
X99099404Y-16565476D01*
X99194642Y-16613095D01*
X99242261Y-16660714D01*
X99289880Y-16755952D01*
X99289880Y-16946428D01*
X99242261Y-17041666D01*
X99194642Y-17089285D01*
X99099404Y-17136904D01*
X98908928Y-17136904D01*
X98813690Y-17089285D01*
X98766071Y-17041666D01*
X98718452Y-16946428D01*
X44171130Y-24757142D02*
X43694940Y-24423809D01*
X44171130Y-24185714D02*
X43171130Y-24185714D01*
X43171130Y-24566666D01*
X43218750Y-24661904D01*
X43266369Y-24709523D01*
X43361607Y-24757142D01*
X43504464Y-24757142D01*
X43599702Y-24709523D01*
X43647321Y-24661904D01*
X43694940Y-24566666D01*
X43694940Y-24185714D01*
X43266369Y-25138095D02*
X43218750Y-25185714D01*
X43171130Y-25280952D01*
X43171130Y-25519047D01*
X43218750Y-25614285D01*
X43266369Y-25661904D01*
X43361607Y-25709523D01*
X43456845Y-25709523D01*
X43599702Y-25661904D01*
X44171130Y-25090476D01*
X44171130Y-25709523D01*
X43599702Y-26280952D02*
X43552083Y-26185714D01*
X43504464Y-26138095D01*
X43409226Y-26090476D01*
X43361607Y-26090476D01*
X43266369Y-26138095D01*
X43218750Y-26185714D01*
X43171130Y-26280952D01*
X43171130Y-26471428D01*
X43218750Y-26566666D01*
X43266369Y-26614285D01*
X43361607Y-26661904D01*
X43409226Y-26661904D01*
X43504464Y-26614285D01*
X43552083Y-26566666D01*
X43599702Y-26471428D01*
X43599702Y-26280952D01*
X43647321Y-26185714D01*
X43694940Y-26138095D01*
X43790178Y-26090476D01*
X43980654Y-26090476D01*
X44075892Y-26138095D01*
X44123511Y-26185714D01*
X44171130Y-26280952D01*
X44171130Y-26471428D01*
X44123511Y-26566666D01*
X44075892Y-26614285D01*
X43980654Y-26661904D01*
X43790178Y-26661904D01*
X43694940Y-26614285D01*
X43647321Y-26566666D01*
X43599702Y-26471428D01*
X76714880Y-20788392D02*
X76238690Y-20455059D01*
X76714880Y-20216964D02*
X75714880Y-20216964D01*
X75714880Y-20597916D01*
X75762500Y-20693154D01*
X75810119Y-20740773D01*
X75905357Y-20788392D01*
X76048214Y-20788392D01*
X76143452Y-20740773D01*
X76191071Y-20693154D01*
X76238690Y-20597916D01*
X76238690Y-20216964D01*
X75810119Y-21169345D02*
X75762500Y-21216964D01*
X75714880Y-21312202D01*
X75714880Y-21550297D01*
X75762500Y-21645535D01*
X75810119Y-21693154D01*
X75905357Y-21740773D01*
X76000595Y-21740773D01*
X76143452Y-21693154D01*
X76714880Y-21121726D01*
X76714880Y-21740773D01*
X76714880Y-22216964D02*
X76714880Y-22407440D01*
X76667261Y-22502678D01*
X76619642Y-22550297D01*
X76476785Y-22645535D01*
X76286309Y-22693154D01*
X75905357Y-22693154D01*
X75810119Y-22645535D01*
X75762500Y-22597916D01*
X75714880Y-22502678D01*
X75714880Y-22312202D01*
X75762500Y-22216964D01*
X75810119Y-22169345D01*
X75905357Y-22121726D01*
X76143452Y-22121726D01*
X76238690Y-22169345D01*
X76286309Y-22216964D01*
X76333928Y-22312202D01*
X76333928Y-22502678D01*
X76286309Y-22597916D01*
X76238690Y-22645535D01*
X76143452Y-22693154D01*
X95764880Y-20788392D02*
X95288690Y-20455059D01*
X95764880Y-20216964D02*
X94764880Y-20216964D01*
X94764880Y-20597916D01*
X94812500Y-20693154D01*
X94860119Y-20740773D01*
X94955357Y-20788392D01*
X95098214Y-20788392D01*
X95193452Y-20740773D01*
X95241071Y-20693154D01*
X95288690Y-20597916D01*
X95288690Y-20216964D01*
X94764880Y-21121726D02*
X94764880Y-21740773D01*
X95145833Y-21407440D01*
X95145833Y-21550297D01*
X95193452Y-21645535D01*
X95241071Y-21693154D01*
X95336309Y-21740773D01*
X95574404Y-21740773D01*
X95669642Y-21693154D01*
X95717261Y-21645535D01*
X95764880Y-21550297D01*
X95764880Y-21264583D01*
X95717261Y-21169345D01*
X95669642Y-21121726D01*
X94764880Y-22359821D02*
X94764880Y-22455059D01*
X94812500Y-22550297D01*
X94860119Y-22597916D01*
X94955357Y-22645535D01*
X95145833Y-22693154D01*
X95383928Y-22693154D01*
X95574404Y-22645535D01*
X95669642Y-22597916D01*
X95717261Y-22550297D01*
X95764880Y-22455059D01*
X95764880Y-22359821D01*
X95717261Y-22264583D01*
X95669642Y-22216964D01*
X95574404Y-22169345D01*
X95383928Y-22121726D01*
X95145833Y-22121726D01*
X94955357Y-22169345D01*
X94860119Y-22216964D01*
X94812500Y-22264583D01*
X94764880Y-22359821D01*
X98939880Y-20788392D02*
X98463690Y-20455059D01*
X98939880Y-20216964D02*
X97939880Y-20216964D01*
X97939880Y-20597916D01*
X97987500Y-20693154D01*
X98035119Y-20740773D01*
X98130357Y-20788392D01*
X98273214Y-20788392D01*
X98368452Y-20740773D01*
X98416071Y-20693154D01*
X98463690Y-20597916D01*
X98463690Y-20216964D01*
X97939880Y-21121726D02*
X97939880Y-21740773D01*
X98320833Y-21407440D01*
X98320833Y-21550297D01*
X98368452Y-21645535D01*
X98416071Y-21693154D01*
X98511309Y-21740773D01*
X98749404Y-21740773D01*
X98844642Y-21693154D01*
X98892261Y-21645535D01*
X98939880Y-21550297D01*
X98939880Y-21264583D01*
X98892261Y-21169345D01*
X98844642Y-21121726D01*
X98939880Y-22693154D02*
X98939880Y-22121726D01*
X98939880Y-22407440D02*
X97939880Y-22407440D01*
X98082738Y-22312202D01*
X98177976Y-22216964D01*
X98225595Y-22121726D01*
%LPC*%
D13*
X74930000Y-57646000D03*
X74930000Y-56146000D03*
X77470000Y-56146000D03*
X77470000Y-57646000D03*
X72771000Y-71489000D03*
X72771000Y-69989000D03*
X80645000Y-63488000D03*
X80645000Y-61988000D03*
D14*
X71132000Y-67437000D03*
X72632000Y-67437000D03*
D13*
X71882000Y-63512000D03*
X71882000Y-65012000D03*
D14*
X58781250Y-34131250D03*
X60281250Y-34131250D03*
D13*
X99218750Y-29325000D03*
X99218750Y-27825000D03*
X63500000Y-107112500D03*
X63500000Y-105612500D03*
X88900000Y-105612500D03*
X88900000Y-107112500D03*
D15*
X42068750Y-42006250D03*
X42068750Y-45306250D03*
X74612500Y-41337500D03*
X74612500Y-38037500D03*
X77787500Y-38037500D03*
X77787500Y-41337500D03*
X93662500Y-41337500D03*
X93662500Y-38037500D03*
X42068750Y-64356250D03*
X42068750Y-61056250D03*
X58737500Y-57087500D03*
X58737500Y-60387500D03*
X92868750Y-64356250D03*
X92868750Y-61056250D03*
X96043750Y-61056250D03*
X96043750Y-64356250D03*
D16*
X61131250Y-31075000D03*
X57931250Y-31075000D03*
X61131250Y-26075000D03*
X57931250Y-26075000D03*
D15*
X55562500Y-79437500D03*
X55562500Y-76137500D03*
X58737500Y-76137500D03*
X58737500Y-79437500D03*
X92868750Y-72168750D03*
X92868750Y-75468750D03*
X96043750Y-75468750D03*
X96043750Y-72168750D03*
X55562500Y-91343750D03*
X55562500Y-88043750D03*
X58737500Y-88043750D03*
X58737500Y-91343750D03*
X77787500Y-95187500D03*
X77787500Y-98487500D03*
X74612500Y-98487500D03*
X74612500Y-95187500D03*
D16*
X92856250Y-26075000D03*
X96056250Y-26075000D03*
X92856250Y-31075000D03*
X96056250Y-31075000D03*
D15*
X53975000Y-102331250D03*
X53975000Y-105631250D03*
X74612500Y-115950000D03*
X74612500Y-112650000D03*
X77787500Y-112650000D03*
X77787500Y-115950000D03*
X94456250Y-112775000D03*
X94456250Y-109475000D03*
D16*
X95262500Y-104893750D03*
X92062500Y-104893750D03*
X95262500Y-99893750D03*
X92062500Y-99893750D03*
X57137500Y-99893750D03*
X60337500Y-99893750D03*
X57137500Y-104893750D03*
X60337500Y-104893750D03*
D17*
X52387500Y-26581250D03*
X52387500Y-28981250D03*
D18*
X52705000Y-39687500D03*
X42545000Y-39687500D03*
D19*
X48895000Y-44767500D03*
D20*
X46355000Y-44767500D03*
D21*
X45125000Y-35687500D03*
D22*
X47625000Y-39687500D03*
D21*
X44470001Y-36417500D03*
D23*
X43815000Y-37147500D02*
X45125002Y-35687500D01*
D21*
X50165000Y-34607500D03*
X50145000Y-34897500D03*
D23*
X50125000Y-35187500D02*
X50165000Y-34607500D01*
D18*
X71755000Y-39687500D03*
X61595000Y-39687500D03*
D19*
X67945000Y-44767500D03*
D20*
X65405000Y-44767500D03*
D21*
X64175000Y-35687500D03*
D22*
X66675000Y-39687500D03*
D21*
X63520001Y-36417500D03*
D23*
X62865000Y-37147500D02*
X64175002Y-35687500D01*
D21*
X69215000Y-34607500D03*
X69195000Y-34897500D03*
D23*
X69175000Y-35187500D02*
X69215000Y-34607500D01*
D21*
X88245000Y-34897500D03*
D23*
X88225000Y-35187500D02*
X88265000Y-34607500D01*
D21*
X88265000Y-34607500D03*
X82570001Y-36417500D03*
D23*
X81915000Y-37147500D02*
X83225002Y-35687500D01*
D22*
X85725000Y-39687500D03*
D21*
X83225000Y-35687500D03*
D20*
X84455000Y-44767500D03*
D19*
X86995000Y-44767500D03*
D18*
X80645000Y-39687500D03*
X90805000Y-39687500D03*
D21*
X107295000Y-34897500D03*
D23*
X107275000Y-35187500D02*
X107315000Y-34607500D01*
D21*
X107315000Y-34607500D03*
X101620001Y-36417500D03*
D23*
X100965000Y-37147500D02*
X102275002Y-35687500D01*
D22*
X104775000Y-39687500D03*
D21*
X102275000Y-35687500D03*
D20*
X103505000Y-44767500D03*
D19*
X106045000Y-44767500D03*
D18*
X99695000Y-39687500D03*
X109855000Y-39687500D03*
X52705000Y-58737500D03*
X42545000Y-58737500D03*
D19*
X48895000Y-63817500D03*
D20*
X46355000Y-63817500D03*
D21*
X45125000Y-54737500D03*
D22*
X47625000Y-58737500D03*
D21*
X44470001Y-55467500D03*
D23*
X43815000Y-56197500D02*
X45125002Y-54737500D01*
D21*
X50165000Y-53657500D03*
X50145000Y-53947500D03*
D23*
X50125000Y-54237500D02*
X50165000Y-53657500D01*
D21*
X69195000Y-53947500D03*
D23*
X69175000Y-54237500D02*
X69215000Y-53657500D01*
D21*
X69215000Y-53657500D03*
X63520001Y-55467500D03*
D23*
X62865000Y-56197500D02*
X64175002Y-54737500D01*
D22*
X66675000Y-58737500D03*
D21*
X64175000Y-54737500D03*
D20*
X65405000Y-63817500D03*
D19*
X67945000Y-63817500D03*
D18*
X61595000Y-58737500D03*
X71755000Y-58737500D03*
D21*
X88245000Y-53947500D03*
D23*
X88225000Y-54237500D02*
X88265000Y-53657500D01*
D21*
X88265000Y-53657500D03*
X82570001Y-55467500D03*
D23*
X81915000Y-56197500D02*
X83225002Y-54737500D01*
D22*
X85725000Y-58737500D03*
D21*
X83225000Y-54737500D03*
D20*
X84455000Y-63817500D03*
D19*
X86995000Y-63817500D03*
D18*
X80645000Y-58737500D03*
X90805000Y-58737500D03*
D21*
X107295000Y-53947500D03*
D23*
X107275000Y-54237500D02*
X107315000Y-53657500D01*
D21*
X107315000Y-53657500D03*
X101620001Y-55467500D03*
D23*
X100965000Y-56197500D02*
X102275002Y-54737500D01*
D22*
X104775000Y-58737500D03*
D21*
X102275000Y-54737500D03*
D20*
X103505000Y-63817500D03*
D19*
X106045000Y-63817500D03*
D18*
X99695000Y-58737500D03*
X109855000Y-58737500D03*
X52705000Y-77787500D03*
X42545000Y-77787500D03*
D19*
X48895000Y-82867500D03*
D20*
X46355000Y-82867500D03*
D21*
X45125000Y-73787500D03*
D22*
X47625000Y-77787500D03*
D21*
X44470001Y-74517500D03*
D23*
X43815000Y-75247500D02*
X45125002Y-73787500D01*
D21*
X50165000Y-72707500D03*
X50145000Y-72997500D03*
D23*
X50125000Y-73287500D02*
X50165000Y-72707500D01*
D21*
X69195000Y-72997500D03*
D23*
X69175000Y-73287500D02*
X69215000Y-72707500D01*
D21*
X69215000Y-72707500D03*
X63520001Y-74517500D03*
D23*
X62865000Y-75247500D02*
X64175002Y-73787500D01*
D22*
X66675000Y-77787500D03*
D21*
X64175000Y-73787500D03*
D20*
X65405000Y-82867500D03*
D19*
X67945000Y-82867500D03*
D18*
X61595000Y-77787500D03*
X71755000Y-77787500D03*
X90805000Y-77787500D03*
X80645000Y-77787500D03*
D19*
X86995000Y-82867500D03*
D20*
X84455000Y-82867500D03*
D21*
X83225000Y-73787500D03*
D22*
X85725000Y-77787500D03*
D21*
X82570001Y-74517500D03*
D23*
X81915000Y-75247500D02*
X83225002Y-73787500D01*
D21*
X88265000Y-72707500D03*
X88245000Y-72997500D03*
D23*
X88225000Y-73287500D02*
X88265000Y-72707500D01*
D18*
X109855000Y-77787500D03*
X99695000Y-77787500D03*
D19*
X106045000Y-82867500D03*
D20*
X103505000Y-82867500D03*
D21*
X102275000Y-73787500D03*
D22*
X104775000Y-77787500D03*
D21*
X101620001Y-74517500D03*
D23*
X100965000Y-75247500D02*
X102275002Y-73787500D01*
D21*
X107315000Y-72707500D03*
X107295000Y-72997500D03*
D23*
X107275000Y-73287500D02*
X107315000Y-72707500D01*
D18*
X52705000Y-96837500D03*
X42545000Y-96837500D03*
D19*
X48895000Y-101917500D03*
D20*
X46355000Y-101917500D03*
D21*
X45125000Y-92837500D03*
D22*
X47625000Y-96837500D03*
D21*
X44470001Y-93567500D03*
D23*
X43815000Y-94297500D02*
X45125002Y-92837500D01*
D21*
X50165000Y-91757500D03*
X50145000Y-92047500D03*
D23*
X50125000Y-92337500D02*
X50165000Y-91757500D01*
D21*
X69195000Y-92047500D03*
D23*
X69175000Y-92337500D02*
X69215000Y-91757500D01*
D21*
X69215000Y-91757500D03*
X63520001Y-93567500D03*
D23*
X62865000Y-94297500D02*
X64175002Y-92837500D01*
D22*
X66675000Y-96837500D03*
D21*
X64175000Y-92837500D03*
D20*
X65405000Y-101917500D03*
D19*
X67945000Y-101917500D03*
D18*
X61595000Y-96837500D03*
X71755000Y-96837500D03*
X90805000Y-96837500D03*
X80645000Y-96837500D03*
D19*
X86995000Y-101917500D03*
D20*
X84455000Y-101917500D03*
D21*
X83225000Y-92837500D03*
D22*
X85725000Y-96837500D03*
D21*
X82570001Y-93567500D03*
D23*
X81915000Y-94297500D02*
X83225002Y-92837500D01*
D21*
X88265000Y-91757500D03*
X88245000Y-92047500D03*
D23*
X88225000Y-92337500D02*
X88265000Y-91757500D01*
D21*
X107295000Y-92047500D03*
D23*
X107275000Y-92337500D02*
X107315000Y-91757500D01*
D21*
X107315000Y-91757500D03*
X101620001Y-93567500D03*
D23*
X100965000Y-94297500D02*
X102275002Y-92837500D01*
D22*
X104775000Y-96837500D03*
D21*
X102275000Y-92837500D03*
D20*
X103505000Y-101917500D03*
D19*
X106045000Y-101917500D03*
D18*
X99695000Y-96837500D03*
X109855000Y-96837500D03*
D21*
X50145000Y-111097500D03*
D23*
X50125000Y-111387500D02*
X50165000Y-110807500D01*
D21*
X50165000Y-110807500D03*
X44470001Y-112617500D03*
D23*
X43815000Y-113347500D02*
X45125002Y-111887500D01*
D22*
X47625000Y-115887500D03*
D21*
X45125000Y-111887500D03*
D20*
X46355000Y-120967500D03*
D19*
X48895000Y-120967500D03*
D18*
X42545000Y-115887500D03*
X52705000Y-115887500D03*
X71755000Y-115887500D03*
X61595000Y-115887500D03*
D19*
X67945000Y-120967500D03*
D20*
X65405000Y-120967500D03*
D21*
X64175000Y-111887500D03*
D22*
X66675000Y-115887500D03*
D21*
X63520001Y-112617500D03*
D23*
X62865000Y-113347500D02*
X64175002Y-111887500D01*
D21*
X69215000Y-110807500D03*
X69195000Y-111097500D03*
D23*
X69175000Y-111387500D02*
X69215000Y-110807500D01*
D21*
X88245000Y-111097500D03*
D23*
X88225000Y-111387500D02*
X88265000Y-110807500D01*
D21*
X88265000Y-110807500D03*
X82570001Y-112617500D03*
D23*
X81915000Y-113347500D02*
X83225002Y-111887500D01*
D22*
X85725000Y-115887500D03*
D21*
X83225000Y-111887500D03*
D20*
X84455000Y-120967500D03*
D19*
X86995000Y-120967500D03*
D18*
X80645000Y-115887500D03*
X90805000Y-115887500D03*
X109855000Y-115887500D03*
X99695000Y-115887500D03*
D19*
X106045000Y-120967500D03*
D20*
X103505000Y-120967500D03*
D21*
X102275000Y-111887500D03*
D22*
X104775000Y-115887500D03*
D21*
X101620001Y-112617500D03*
D23*
X100965000Y-113347500D02*
X102275002Y-111887500D01*
D21*
X107315000Y-110807500D03*
X107295000Y-111097500D03*
D23*
X107275000Y-111387500D02*
X107315000Y-110807500D01*
D24*
X88900000Y-86362500D03*
X88900000Y-88262500D03*
D25*
X60168750Y-66675000D03*
X62068750Y-66675000D03*
X60168750Y-69850000D03*
X62068750Y-69850000D03*
D24*
X61118750Y-18100000D03*
X61118750Y-20000000D03*
D25*
X86421000Y-68453000D03*
X84521000Y-68453000D03*
D24*
X50800000Y-16825000D03*
X50800000Y-14925000D03*
D25*
X46675000Y-49212500D03*
X48575000Y-49212500D03*
D24*
X74612500Y-46193750D03*
X74612500Y-44293750D03*
X77787500Y-44293750D03*
X77787500Y-46193750D03*
X96837500Y-40637500D03*
X96837500Y-38737500D03*
X53181250Y-65243750D03*
X53181250Y-63343750D03*
X69850000Y-59687500D03*
X69850000Y-57787500D03*
X92868750Y-69212500D03*
X92868750Y-67312500D03*
X96043750Y-67312500D03*
X96043750Y-69212500D03*
X55562500Y-82393750D03*
X55562500Y-84293750D03*
X58737500Y-84293750D03*
X58737500Y-82393750D03*
X80168750Y-82393750D03*
X80168750Y-84293750D03*
D25*
X105725000Y-87312500D03*
X103825000Y-87312500D03*
D24*
X55562500Y-94300000D03*
X55562500Y-96200000D03*
X58737500Y-94300000D03*
X58737500Y-96200000D03*
X77787500Y-101443750D03*
X77787500Y-103343750D03*
X74612500Y-101443750D03*
X74612500Y-103343750D03*
X52387500Y-120012500D03*
X52387500Y-118112500D03*
X61912500Y-118112500D03*
X61912500Y-120012500D03*
X77787500Y-120806250D03*
X77787500Y-118906250D03*
X91281250Y-118906250D03*
X91281250Y-120806250D03*
D26*
X98350000Y-85462500D03*
X92150000Y-89162500D03*
X98350000Y-89162500D03*
X92150000Y-85462500D03*
D27*
X56150000Y-16825000D03*
X58150000Y-16825000D03*
X56150000Y-14925000D03*
D28*
X58150000Y-15125000D03*
D29*
X61470000Y-5775000D03*
X52830000Y-5775000D03*
D30*
X61470000Y-9955000D03*
X52830000Y-9955000D03*
D31*
X54260000Y-9425000D03*
X60040000Y-9425000D03*
D32*
X56900000Y-10870000D03*
X57400000Y-10870000D03*
X57900000Y-10870000D03*
X56400000Y-10870000D03*
X58400000Y-10870000D03*
X55900000Y-10870000D03*
X58900000Y-10870000D03*
X55400000Y-10870000D03*
D33*
X54700000Y-10870000D03*
X59600000Y-10870000D03*
X53925000Y-10870000D03*
X60375000Y-10870000D03*
D34*
X75100000Y-61968750D03*
X77300000Y-61968750D03*
X77300000Y-60268750D03*
X75100000Y-60268750D03*
D21*
X99985000Y-65742500D03*
D23*
X100275000Y-65762500D02*
X99695000Y-65722500D01*
D21*
X99695000Y-65722500D03*
X101505000Y-71417499D03*
D23*
X102235000Y-72072500D02*
X100775000Y-70762498D01*
D22*
X104775000Y-68262500D03*
D21*
X100775000Y-70762500D03*
D20*
X109855000Y-69532500D03*
D19*
X109855000Y-66992500D03*
D18*
X104775000Y-73342500D03*
X104775000Y-63182500D03*
D35*
X111760000Y-80200500D03*
X111760000Y-56324500D03*
D22*
X96520000Y-80200500D03*
X96520000Y-56324500D03*
X96520000Y-94424500D03*
X96520000Y-118300500D03*
D35*
X111760000Y-94424500D03*
X111760000Y-118300500D03*
D18*
X104775000Y-101282500D03*
X104775000Y-111442500D03*
D19*
X109855000Y-105092500D03*
D20*
X109855000Y-107632500D03*
D21*
X100775000Y-108862500D03*
D22*
X104775000Y-106362500D03*
D21*
X101505000Y-109517499D03*
D23*
X102235000Y-110172500D02*
X100775000Y-108862498D01*
D21*
X99695000Y-103822500D03*
X99985000Y-103842500D03*
D23*
X100275000Y-103862500D02*
X99695000Y-103822500D01*
D21*
X59670000Y-111097500D03*
D23*
X59650000Y-111387500D02*
X59690000Y-110807500D01*
D21*
X59690000Y-110807500D03*
X53995001Y-112617500D03*
D23*
X53340000Y-113347500D02*
X54650002Y-111887500D01*
D22*
X57150000Y-115887500D03*
D21*
X54650000Y-111887500D03*
D20*
X55880000Y-120967500D03*
D19*
X58420000Y-120967500D03*
D18*
X52070000Y-115887500D03*
X62230000Y-115887500D03*
D35*
X45212000Y-122872500D03*
X69088000Y-122872500D03*
D22*
X45212000Y-107632500D03*
X69088000Y-107632500D03*
D36*
X76925000Y-68193750D03*
X78650000Y-68193750D03*
X76925000Y-69918750D03*
X78650000Y-69918750D03*
D37*
X75387500Y-67306250D03*
X75387500Y-67806250D03*
X75387500Y-68306250D03*
X75387500Y-68806250D03*
X75387500Y-69306250D03*
X75387500Y-69806250D03*
X75387500Y-70306250D03*
X75387500Y-70806250D03*
D38*
X76037500Y-71456250D03*
X76537500Y-71456250D03*
X77037500Y-71456250D03*
X77537500Y-71456250D03*
X78037500Y-71456250D03*
X78537500Y-71456250D03*
X79037500Y-71456250D03*
X79537500Y-71456250D03*
D37*
X80187500Y-70806250D03*
X80187500Y-70306250D03*
X80187500Y-69806250D03*
X80187500Y-69306250D03*
X80187500Y-68806250D03*
X80187500Y-68306250D03*
X80187500Y-67806250D03*
X80187500Y-67306250D03*
D38*
X79537500Y-66656250D03*
X79037500Y-66656250D03*
X78537500Y-66656250D03*
X78037500Y-66656250D03*
X77537500Y-66656250D03*
X77037500Y-66656250D03*
X76537500Y-66656250D03*
X76037500Y-66656250D03*
D39*
X73612500Y-86518750D03*
X75612500Y-87468750D03*
X75612500Y-85568750D03*
D25*
X73662500Y-82550000D03*
X75562500Y-82550000D03*
D15*
X42068750Y-21493750D03*
X42068750Y-18193750D03*
X74612500Y-14225000D03*
X74612500Y-17525000D03*
X93662500Y-17525000D03*
X93662500Y-14225000D03*
X96837500Y-14225000D03*
X96837500Y-17525000D03*
D21*
X50145000Y-11085000D03*
D23*
X50125000Y-11375000D02*
X50165000Y-10795000D01*
D21*
X50165000Y-10795000D03*
X44470001Y-12605000D03*
D23*
X43815000Y-13335000D02*
X45125002Y-11875000D01*
D22*
X47625000Y-15875000D03*
D21*
X45125000Y-11875000D03*
D20*
X46355000Y-20955000D03*
D19*
X48895000Y-20955000D03*
D18*
X42545000Y-15875000D03*
X52705000Y-15875000D03*
X71755000Y-15875000D03*
X61595000Y-15875000D03*
D19*
X67945000Y-20955000D03*
D20*
X65405000Y-20955000D03*
D21*
X64175000Y-11875000D03*
D22*
X66675000Y-15875000D03*
D21*
X63520001Y-12605000D03*
D23*
X62865000Y-13335000D02*
X64175002Y-11875000D01*
D21*
X69215000Y-10795000D03*
X69195000Y-11085000D03*
D23*
X69175000Y-11375000D02*
X69215000Y-10795000D01*
D21*
X88245000Y-11085000D03*
D23*
X88225000Y-11375000D02*
X88265000Y-10795000D01*
D21*
X88265000Y-10795000D03*
X82570001Y-12605000D03*
D23*
X81915000Y-13335000D02*
X83225002Y-11875000D01*
D22*
X85725000Y-15875000D03*
D21*
X83225000Y-11875000D03*
D20*
X84455000Y-20955000D03*
D19*
X86995000Y-20955000D03*
D18*
X80645000Y-15875000D03*
X90805000Y-15875000D03*
X109855000Y-15875000D03*
X99695000Y-15875000D03*
D19*
X106045000Y-20955000D03*
D20*
X103505000Y-20955000D03*
D21*
X102275000Y-11875000D03*
D22*
X104775000Y-15875000D03*
D21*
X101620001Y-12605000D03*
D23*
X100965000Y-13335000D02*
X102275002Y-11875000D01*
D21*
X107315000Y-10795000D03*
X107295000Y-11085000D03*
D23*
X107275000Y-11375000D02*
X107315000Y-10795000D01*
D24*
X42068750Y-26350000D03*
X42068750Y-24450000D03*
X74612500Y-20481250D03*
X74612500Y-22381250D03*
X93662500Y-22381250D03*
X93662500Y-20481250D03*
X96837500Y-20481250D03*
X96837500Y-22381250D03*
M02*
