M48
;DRILL file {KiCad (5.0.0)} date 01/26/19 20:31:18
;FORMAT={-:-/ absolute / inch / decimal}
FMAT,2
INCH,TZ
T1C0.0256
T2C0.0689
T3C0.1200
T4C0.1570
%
G90
G05
M72
T1
X2.1362Y-0.3711
X2.3638Y-0.3711
T2
X2.425Y-0.625
X2.825Y-0.625
X3.175Y-4.5625
X3.575Y-4.5625
X3.925Y-3.0625
X4.325Y-3.0625
X3.925Y-1.5625
X4.325Y-1.5625
X1.675Y-0.625
X2.075Y-0.625
X3.925Y-4.5625
X4.325Y-4.5625
X2.425Y-4.5625
X2.825Y-4.5625
X2.05Y-4.5625
X2.45Y-4.5625
X3.175Y-3.0625
X3.575Y-3.0625
X2.425Y-1.5625
X2.825Y-1.5625
X2.425Y-3.8125
X2.825Y-3.8125
X1.675Y-4.5625
X2.075Y-4.5625
X2.425Y-3.0625
X2.825Y-3.0625
X1.675Y-1.5625
X2.075Y-1.5625
X3.175Y-1.5625
X3.575Y-1.5625
X3.925Y-3.8125
X4.325Y-3.8125
X4.125Y-3.9875
X4.125Y-4.3875
X3.175Y-2.3125
X3.575Y-2.3125
X4.125Y-2.4875
X4.125Y-2.8875
X3.175Y-3.8125
X3.575Y-3.8125
X1.675Y-3.0625
X2.075Y-3.0625
X2.425Y-2.3125
X2.825Y-2.3125
X1.675Y-2.3125
X2.075Y-2.3125
X3.175Y-0.625
X3.575Y-0.625
X3.925Y-0.625
X4.325Y-0.625
X1.675Y-3.8125
X2.075Y-3.8125
X3.925Y-2.3125
X4.325Y-2.3125
T3
X1.78Y-4.8375
X2.72Y-4.8375
X4.4Y-3.7175
X4.4Y-4.6575
X4.4Y-2.2175
X4.4Y-3.1575
T4
X1.875Y-1.5625
X3.375Y-1.5625
X4.125Y-3.8125
X3.8Y-3.7175
X3.8Y-4.6575
X4.125Y-4.1875
X3.375Y-2.3125
X3.8Y-2.2175
X3.8Y-3.1575
X4.125Y-2.6875
X3.375Y-3.8125
X1.875Y-3.0625
X2.625Y-2.3125
X1.875Y-2.3125
X3.375Y-0.625
X4.125Y-0.625
X1.875Y-3.8125
X4.125Y-2.3125
X2.625Y-0.625
X3.375Y-4.5625
X4.125Y-3.0625
X4.125Y-1.5625
X1.875Y-0.625
X4.125Y-4.5625
X2.625Y-4.5625
X1.78Y-4.2375
X2.25Y-4.5625
X2.72Y-4.2375
X3.375Y-3.0625
X2.625Y-1.5625
X2.625Y-3.8125
X1.875Y-4.5625
X2.625Y-3.0625
T0
M30
