%TF.GenerationSoftware,KiCad,Pcbnew,(5.0.0)*%
%TF.CreationDate,2019-02-04T23:31:24-08:00*%
%TF.ProjectId,Voyager20,566F796167657232302E6B696361645F,rev?*%
%TF.SameCoordinates,Original*%
%TF.FileFunction,Copper,L2,Bot,Signal*%
%TF.FilePolarity,Positive*%
%FSLAX46Y46*%
G04 Gerber Fmt 4.6, Leading zero omitted, Abs format (unit mm)*
G04 Created by KiCad (PCBNEW (5.0.0)) date 02/04/19 23:31:24*
%MOMM*%
%LPD*%
G01*
G04 APERTURE LIST*
%ADD10R,1.905000X1.905000*%
%ADD11C,1.905000*%
%ADD12C,2.250000*%
%ADD13C,2.250000*%
%ADD14R,0.800000X0.750000*%
%ADD15R,1.200000X0.900000*%
%ADD16R,1.140000X2.030000*%
%ADD17R,0.700000X1.300000*%
%ADD18R,1.300000X0.700000*%
%ADD19R,1.100000X1.800000*%
%ADD20R,0.700000X1.000000*%
%ADD21R,0.700000X0.600000*%
%ADD22R,1.200000X1.400000*%
%ADD23R,0.900000X0.800000*%
%ADD24O,1.700000X1.700000*%
%ADD25R,1.700000X1.700000*%
%ADD26R,0.550000X1.600000*%
%ADD27R,1.600000X0.550000*%
%ADD28R,1.500000X1.500000*%
%ADD29C,0.600000*%
%ADD30C,0.254000*%
%ADD31C,0.381000*%
%ADD32C,0.203200*%
G04 APERTURE END LIST*
D10*
X86995000Y-101917500D03*
D11*
X84455000Y-101917500D03*
D12*
X83225000Y-92837500D03*
X82570001Y-93567500D03*
D13*
X81915000Y-94297500D02*
X83225002Y-92837500D01*
D12*
X88265000Y-91757500D03*
X88245000Y-92047500D03*
D13*
X88225000Y-92337500D02*
X88265000Y-91757500D01*
D14*
X70274750Y-15176500D03*
X71774750Y-15176500D03*
X71774750Y-17716500D03*
X70274750Y-17716500D03*
X54018750Y-11112500D03*
X55518750Y-11112500D03*
X65925000Y-21431250D03*
X67425000Y-21431250D03*
X63456250Y-12700000D03*
X61956250Y-12700000D03*
X63456250Y-10318750D03*
X61956250Y-10318750D03*
D15*
X42068750Y-42006250D03*
X42068750Y-45306250D03*
X74612500Y-39750000D03*
X74612500Y-36450000D03*
X77787500Y-36450000D03*
X77787500Y-39750000D03*
X96837500Y-39750000D03*
X96837500Y-36450000D03*
X55562500Y-58800000D03*
X55562500Y-55500000D03*
X74612500Y-55500000D03*
X74612500Y-58800000D03*
X77787500Y-58800000D03*
X77787500Y-55500000D03*
X95250000Y-61056250D03*
X95250000Y-64356250D03*
X55562500Y-77850000D03*
X55562500Y-74550000D03*
X74612500Y-74550000D03*
X74612500Y-77850000D03*
X77787500Y-74550000D03*
X77787500Y-77850000D03*
X95250000Y-76262500D03*
X95250000Y-72962500D03*
X55562500Y-96900000D03*
X55562500Y-93600000D03*
X58737500Y-93600000D03*
X58737500Y-96900000D03*
X93662500Y-98362500D03*
X93662500Y-101662500D03*
X74612500Y-96900000D03*
X74612500Y-93600000D03*
X78581250Y-99156250D03*
X78581250Y-102456250D03*
X74612500Y-115950000D03*
X74612500Y-112650000D03*
X77787500Y-112650000D03*
X77787500Y-115950000D03*
X94456250Y-114362500D03*
X94456250Y-111062500D03*
D16*
X65475000Y8731250D03*
X67875000Y8731250D03*
D10*
X48895000Y-44767500D03*
D11*
X46355000Y-44767500D03*
D12*
X45125000Y-35687500D03*
X44470001Y-36417500D03*
D13*
X43815000Y-37147500D02*
X45125002Y-35687500D01*
D12*
X50165000Y-34607500D03*
X50145000Y-34897500D03*
D13*
X50125000Y-35187500D02*
X50165000Y-34607500D01*
D10*
X67945000Y-44767500D03*
D11*
X65405000Y-44767500D03*
D12*
X64175000Y-35687500D03*
X63520001Y-36417500D03*
D13*
X62865000Y-37147500D02*
X64175002Y-35687500D01*
D12*
X69215000Y-34607500D03*
X69195000Y-34897500D03*
D13*
X69175000Y-35187500D02*
X69215000Y-34607500D01*
D12*
X88245000Y-34897500D03*
D13*
X88225000Y-35187500D02*
X88265000Y-34607500D01*
D12*
X88265000Y-34607500D03*
X82570001Y-36417500D03*
D13*
X81915000Y-37147500D02*
X83225002Y-35687500D01*
D12*
X83225000Y-35687500D03*
D11*
X84455000Y-44767500D03*
D10*
X86995000Y-44767500D03*
D12*
X107295000Y-34897500D03*
D13*
X107275000Y-35187500D02*
X107315000Y-34607500D01*
D12*
X107315000Y-34607500D03*
X101620001Y-36417500D03*
D13*
X100965000Y-37147500D02*
X102275002Y-35687500D01*
D12*
X102275000Y-35687500D03*
D11*
X103505000Y-44767500D03*
D10*
X106045000Y-44767500D03*
X48895000Y-63817500D03*
D11*
X46355000Y-63817500D03*
D12*
X45125000Y-54737500D03*
X44470001Y-55467500D03*
D13*
X43815000Y-56197500D02*
X45125002Y-54737500D01*
D12*
X50165000Y-53657500D03*
X50145000Y-53947500D03*
D13*
X50125000Y-54237500D02*
X50165000Y-53657500D01*
D12*
X69195000Y-53947500D03*
D13*
X69175000Y-54237500D02*
X69215000Y-53657500D01*
D12*
X69215000Y-53657500D03*
X63520001Y-55467500D03*
D13*
X62865000Y-56197500D02*
X64175002Y-54737500D01*
D12*
X64175000Y-54737500D03*
D11*
X65405000Y-63817500D03*
D10*
X67945000Y-63817500D03*
D12*
X88245000Y-53947500D03*
D13*
X88225000Y-54237500D02*
X88265000Y-53657500D01*
D12*
X88265000Y-53657500D03*
X82570001Y-55467500D03*
D13*
X81915000Y-56197500D02*
X83225002Y-54737500D01*
D12*
X83225000Y-54737500D03*
D11*
X84455000Y-63817500D03*
D10*
X86995000Y-63817500D03*
D12*
X107295000Y-53947500D03*
D13*
X107275000Y-54237500D02*
X107315000Y-53657500D01*
D12*
X107315000Y-53657500D03*
X101620001Y-55467500D03*
D13*
X100965000Y-56197500D02*
X102275002Y-54737500D01*
D12*
X102275000Y-54737500D03*
D11*
X103505000Y-63817500D03*
D10*
X106045000Y-63817500D03*
X48895000Y-82867500D03*
D11*
X46355000Y-82867500D03*
D12*
X45125000Y-73787500D03*
X44470001Y-74517500D03*
D13*
X43815000Y-75247500D02*
X45125002Y-73787500D01*
D12*
X50165000Y-72707500D03*
X50145000Y-72997500D03*
D13*
X50125000Y-73287500D02*
X50165000Y-72707500D01*
D12*
X69195000Y-72997500D03*
D13*
X69175000Y-73287500D02*
X69215000Y-72707500D01*
D12*
X69215000Y-72707500D03*
X63520001Y-74517500D03*
D13*
X62865000Y-75247500D02*
X64175002Y-73787500D01*
D12*
X64175000Y-73787500D03*
D11*
X65405000Y-82867500D03*
D10*
X67945000Y-82867500D03*
X86995000Y-82867500D03*
D11*
X84455000Y-82867500D03*
D12*
X83225000Y-73787500D03*
X82570001Y-74517500D03*
D13*
X81915000Y-75247500D02*
X83225002Y-73787500D01*
D12*
X88265000Y-72707500D03*
X88245000Y-72997500D03*
D13*
X88225000Y-73287500D02*
X88265000Y-72707500D01*
D10*
X106045000Y-82867500D03*
D11*
X103505000Y-82867500D03*
D12*
X102275000Y-73787500D03*
X101620001Y-74517500D03*
D13*
X100965000Y-75247500D02*
X102275002Y-73787500D01*
D12*
X107315000Y-72707500D03*
X107295000Y-72997500D03*
D13*
X107275000Y-73287500D02*
X107315000Y-72707500D01*
D10*
X48895000Y-101917500D03*
D11*
X46355000Y-101917500D03*
D12*
X45125000Y-92837500D03*
X44470001Y-93567500D03*
D13*
X43815000Y-94297500D02*
X45125002Y-92837500D01*
D12*
X50165000Y-91757500D03*
X50145000Y-92047500D03*
D13*
X50125000Y-92337500D02*
X50165000Y-91757500D01*
D12*
X69195000Y-92047500D03*
D13*
X69175000Y-92337500D02*
X69215000Y-91757500D01*
D12*
X69215000Y-91757500D03*
X63520001Y-93567500D03*
D13*
X62865000Y-94297500D02*
X64175002Y-92837500D01*
D12*
X64175000Y-92837500D03*
D11*
X65405000Y-101917500D03*
D10*
X67945000Y-101917500D03*
D12*
X107295000Y-92047500D03*
D13*
X107275000Y-92337500D02*
X107315000Y-91757500D01*
D12*
X107315000Y-91757500D03*
X101620001Y-93567500D03*
D13*
X100965000Y-94297500D02*
X102275002Y-92837500D01*
D12*
X102275000Y-92837500D03*
D11*
X103505000Y-101917500D03*
D10*
X106045000Y-101917500D03*
D12*
X50145000Y-111097500D03*
D13*
X50125000Y-111387500D02*
X50165000Y-110807500D01*
D12*
X50165000Y-110807500D03*
X44470001Y-112617500D03*
D13*
X43815000Y-113347500D02*
X45125002Y-111887500D01*
D12*
X45125000Y-111887500D03*
D11*
X46355000Y-120967500D03*
D10*
X48895000Y-120967500D03*
X67945000Y-120967500D03*
D11*
X65405000Y-120967500D03*
D12*
X64175000Y-111887500D03*
X63520001Y-112617500D03*
D13*
X62865000Y-113347500D02*
X64175002Y-111887500D01*
D12*
X69215000Y-110807500D03*
X69195000Y-111097500D03*
D13*
X69175000Y-111387500D02*
X69215000Y-110807500D01*
D12*
X88245000Y-111097500D03*
D13*
X88225000Y-111387500D02*
X88265000Y-110807500D01*
D12*
X88265000Y-110807500D03*
X82570001Y-112617500D03*
D13*
X81915000Y-113347500D02*
X83225002Y-111887500D01*
D12*
X83225000Y-111887500D03*
D11*
X84455000Y-120967500D03*
D10*
X86995000Y-120967500D03*
X106045000Y-120967500D03*
D11*
X103505000Y-120967500D03*
D12*
X102275000Y-111887500D03*
X101620001Y-112617500D03*
D13*
X100965000Y-113347500D02*
X102275002Y-111887500D01*
D12*
X107315000Y-110807500D03*
X107295000Y-111097500D03*
D13*
X107275000Y-111387500D02*
X107315000Y-110807500D01*
D17*
X42769750Y-27813000D03*
X44669750Y-27813000D03*
D18*
X58737500Y-6193750D03*
X58737500Y-8093750D03*
X55562500Y-6193750D03*
X55562500Y-8093750D03*
X56356250Y-29525000D03*
X56356250Y-27625000D03*
D17*
X43812500Y-49212500D03*
X41912500Y-49212500D03*
D18*
X74612500Y-44606250D03*
X74612500Y-42706250D03*
X77787500Y-42706250D03*
X77787500Y-44606250D03*
X96837500Y-44606250D03*
X96837500Y-42706250D03*
X55562500Y-63656250D03*
X55562500Y-61756250D03*
X74612500Y-63656250D03*
X74612500Y-61756250D03*
X77787500Y-63656250D03*
X77787500Y-61756250D03*
X92075000Y-62550000D03*
X92075000Y-64450000D03*
X55562500Y-80806250D03*
X55562500Y-82706250D03*
X74612500Y-82706250D03*
X74612500Y-80806250D03*
X77787500Y-80806250D03*
X77787500Y-82706250D03*
X91281250Y-82706250D03*
X91281250Y-80806250D03*
X55562500Y-99856250D03*
X55562500Y-101756250D03*
X58737500Y-99856250D03*
X58737500Y-101756250D03*
X96837500Y-98268750D03*
X96837500Y-100168750D03*
X74612500Y-99856250D03*
X74612500Y-101756250D03*
X52387500Y-120012500D03*
X52387500Y-118112500D03*
X61912500Y-118112500D03*
X61912500Y-120012500D03*
X77787500Y-120806250D03*
X77787500Y-118906250D03*
X74612500Y-118906250D03*
X74612500Y-120806250D03*
D19*
X41869750Y-17569250D03*
X45569750Y-23769250D03*
X45569750Y-17569250D03*
X41869750Y-23769250D03*
D20*
X56150000Y6393750D03*
D21*
X58150000Y6193750D03*
X56150000Y8093750D03*
X58150000Y8093750D03*
D22*
X65952000Y-15346500D03*
X65952000Y-17546500D03*
X67652000Y-17546500D03*
X67652000Y-15346500D03*
D12*
X99985000Y-65742500D03*
D13*
X100275000Y-65762500D02*
X99695000Y-65722500D01*
D12*
X99695000Y-65722500D03*
X101505000Y-71417499D03*
D13*
X102235000Y-72072500D02*
X100775000Y-70762498D01*
D12*
X100775000Y-70762500D03*
D11*
X109855000Y-69532500D03*
D10*
X109855000Y-66992500D03*
X109855000Y-105092500D03*
D11*
X109855000Y-107632500D03*
D12*
X100775000Y-108862500D03*
X101505000Y-109517499D03*
D13*
X102235000Y-110172500D02*
X100775000Y-108862498D01*
D12*
X99695000Y-103822500D03*
X99985000Y-103842500D03*
D13*
X100275000Y-103862500D02*
X99695000Y-103822500D01*
D12*
X59670000Y-111097500D03*
D13*
X59650000Y-111387500D02*
X59690000Y-110807500D01*
D12*
X59690000Y-110807500D03*
X53995001Y-112617500D03*
D13*
X53340000Y-113347500D02*
X54650002Y-111887500D01*
D12*
X54650000Y-111887500D03*
D11*
X55880000Y-120967500D03*
D10*
X58420000Y-120967500D03*
D23*
X44529500Y10604500D03*
X46529500Y9654500D03*
X46529500Y11554500D03*
D17*
X44579500Y14573250D03*
X46479500Y14573250D03*
D15*
X42068750Y-8000000D03*
X42068750Y-4700000D03*
X74612500Y62500D03*
X74612500Y-3237500D03*
X93662500Y-3237500D03*
X93662500Y62500D03*
X96837500Y62500D03*
X96837500Y-3237500D03*
D12*
X50145000Y2808800D03*
D13*
X50125000Y2518800D02*
X50165000Y3098800D01*
D12*
X50165000Y3098800D03*
X44470001Y1288800D03*
D13*
X43815000Y558800D02*
X45125002Y2018800D01*
D12*
X45125000Y2018800D03*
D11*
X46355000Y-7061200D03*
D10*
X48895000Y-7061200D03*
X67945000Y-7061200D03*
D11*
X65405000Y-7061200D03*
D12*
X64175000Y2018800D03*
X63520001Y1288800D03*
D13*
X62865000Y558800D02*
X64175002Y2018800D01*
D12*
X69215000Y3098800D03*
X69195000Y2808800D03*
D13*
X69175000Y2518800D02*
X69215000Y3098800D01*
D12*
X88245000Y2808800D03*
D13*
X88225000Y2518800D02*
X88265000Y3098800D01*
D12*
X88265000Y3098800D03*
X82570001Y1288800D03*
D13*
X81915000Y558800D02*
X83225002Y2018800D01*
D12*
X83225000Y2018800D03*
D11*
X84455000Y-7061200D03*
D10*
X86995000Y-7061200D03*
X106045000Y-7061200D03*
D11*
X103505000Y-7061200D03*
D12*
X102275000Y2018800D03*
X101620001Y1288800D03*
D13*
X100965000Y558800D02*
X102275002Y2018800D01*
D12*
X107315000Y3098800D03*
X107295000Y2808800D03*
D13*
X107275000Y2518800D02*
X107315000Y3098800D01*
D18*
X42068750Y-12856250D03*
X42068750Y-10956250D03*
X74612500Y-6193750D03*
X74612500Y-8093750D03*
X93662500Y-8093750D03*
X93662500Y-6193750D03*
X96837500Y-6193750D03*
X96837500Y-8093750D03*
D24*
X60801250Y13493750D03*
X58261250Y13493750D03*
X55721250Y13493750D03*
D25*
X53181250Y13493750D03*
D26*
X59696000Y-14863500D03*
X58896000Y-14863500D03*
X58096000Y-14863500D03*
X57296000Y-14863500D03*
X56496000Y-14863500D03*
X55696000Y-14863500D03*
X54896000Y-14863500D03*
X54096000Y-14863500D03*
D27*
X52646000Y-16313500D03*
X52646000Y-17113500D03*
X52646000Y-17913500D03*
X52646000Y-18713500D03*
X52646000Y-19513500D03*
X52646000Y-20313500D03*
X52646000Y-21113500D03*
X52646000Y-21913500D03*
D26*
X54096000Y-23363500D03*
X54896000Y-23363500D03*
X55696000Y-23363500D03*
X56496000Y-23363500D03*
X57296000Y-23363500D03*
X58096000Y-23363500D03*
X58896000Y-23363500D03*
X59696000Y-23363500D03*
D27*
X61146000Y-21913500D03*
X61146000Y-21113500D03*
X61146000Y-20313500D03*
X61146000Y-19513500D03*
X61146000Y-18713500D03*
X61146000Y-17913500D03*
X61146000Y-17113500D03*
X61146000Y-16313500D03*
D28*
X53975000Y-48362500D03*
X53975000Y-50062500D03*
X57150000Y-50062500D03*
X57150000Y-48362500D03*
D29*
X56134000Y-12192000D03*
X64643000Y-10287000D03*
X54864000Y-29591000D03*
X46990000Y-16002000D03*
X51054000Y-11938000D03*
X56896000Y-19113500D03*
X65913000Y-22606000D03*
X61849000Y-8255000D03*
X53340000Y-31750000D03*
X97155000Y-64770000D03*
X71247000Y8763000D03*
X59436000Y-41656000D03*
X59690000Y-60960000D03*
X55880000Y-41656000D03*
X56134000Y-76581000D03*
X56769000Y-41656000D03*
X56769000Y-95250000D03*
X44069000Y-12700000D03*
X53213000Y-13335000D03*
X54229000Y-26035000D03*
X62738000Y-26035000D03*
X82169000Y-26035000D03*
X54229000Y-25146000D03*
X62738000Y-25146000D03*
X101219000Y-25146000D03*
X72517000Y-99314000D03*
X72390000Y-105029000D03*
X80137000Y-102489000D03*
X79121000Y-116967000D03*
X57658000Y-41656000D03*
X57785000Y-103759000D03*
X79756000Y-104267000D03*
X61595000Y-5207000D03*
X52705000Y-5207000D03*
X76200000Y-99822000D03*
X76200000Y-80391000D03*
X76200000Y-61341000D03*
X76200000Y-42291000D03*
X74549000Y-5080000D03*
X76200000Y-118491000D03*
X76581000Y-92710000D03*
X51054000Y-18923000D03*
X43434000Y14605000D03*
X52705000Y-4318000D03*
X61595000Y-4318000D03*
X61087000Y-23368000D03*
X58547000Y-41656000D03*
X58166000Y-52070000D03*
D30*
X67822000Y-15176500D02*
X67652000Y-15346500D01*
X70274750Y-15176500D02*
X67822000Y-15176500D01*
X67652000Y-14693000D02*
X67652000Y-15346500D01*
X61146000Y-16313500D02*
X62807500Y-16313500D01*
X65024000Y-14097000D02*
X67056000Y-14097000D01*
X67056000Y-14097000D02*
X67652000Y-14693000D01*
X62807500Y-16313500D02*
X65024000Y-14097000D01*
D31*
X56496000Y-12089750D02*
X55518750Y-11112500D01*
X56496000Y-14863500D02*
X56496000Y-12089750D01*
X65952000Y-15346500D02*
X65952000Y-15596500D01*
X67652000Y-17296500D02*
X67652000Y-17546500D01*
D32*
X65952000Y-15596500D02*
X67652000Y-17296500D01*
D31*
X67652000Y-17546500D02*
X68559500Y-17546500D01*
X69659500Y-16446500D02*
X71774750Y-16446500D01*
X68559500Y-17546500D02*
X69659500Y-16446500D01*
X71774750Y-15176500D02*
X71774750Y-16446500D01*
X71774750Y-16446500D02*
X71774750Y-17716500D01*
X61146000Y-17913500D02*
X64014500Y-17913500D01*
X64014500Y-17913500D02*
X65532000Y-19431000D01*
X65532000Y-19431000D02*
X70866000Y-19431000D01*
X71774750Y-18522250D02*
X71774750Y-17716500D01*
X70866000Y-19431000D02*
X71774750Y-18522250D01*
X67425000Y-21431250D02*
X67425000Y-20689000D01*
X66167000Y-19431000D02*
X65532000Y-19431000D01*
X67425000Y-20689000D02*
X66167000Y-19431000D01*
X63456250Y-10318750D02*
X63456250Y-12700000D01*
X56393750Y-12192000D02*
X56496000Y-12089750D01*
X56134000Y-12192000D02*
X56393750Y-12192000D01*
X56150000Y5858000D02*
X54229000Y3937000D01*
X53181250Y9362500D02*
X56150000Y6393750D01*
X56150000Y6393750D02*
X56150000Y5858000D01*
X53181250Y13493750D02*
X53181250Y9362500D01*
X58426500Y-17913500D02*
X61146000Y-17913500D01*
X57601000Y-17913500D02*
X58426500Y-17913500D01*
X56496000Y-14863500D02*
X56496000Y-16808500D01*
X56496000Y-16808500D02*
X57601000Y-17913500D01*
X63456250Y-10318750D02*
X64611250Y-10318750D01*
X64611250Y-10318750D02*
X64643000Y-10287000D01*
X56356250Y-29525000D02*
X54930000Y-29525000D01*
X54930000Y-29525000D02*
X54864000Y-29591000D01*
X41869750Y-17569250D02*
X41869750Y-16423250D01*
X41869750Y-16423250D02*
X42291000Y-16002000D01*
X42291000Y-16002000D02*
X46990000Y-16002000D01*
X54229000Y3937000D02*
X54229000Y-8890000D01*
X54229000Y-8890000D02*
X52959000Y-10160000D01*
X52959000Y-10160000D02*
X51181000Y-11938000D01*
X51181000Y-11938000D02*
X51054000Y-11938000D01*
X53181250Y13493750D02*
X51212750Y13493750D01*
X47373500Y9654500D02*
X46529500Y9654500D01*
X51212750Y13493750D02*
X47373500Y9654500D01*
X56896000Y-18618500D02*
X57601000Y-17913500D01*
X56896000Y-19113500D02*
X56896000Y-18618500D01*
D30*
X65519000Y-17113500D02*
X65952000Y-17546500D01*
X61146000Y-17113500D02*
X65519000Y-17113500D01*
X65952000Y-17546500D02*
X65952000Y-18073000D01*
X65952000Y-18073000D02*
X66675000Y-18796000D01*
X66675000Y-18796000D02*
X68707000Y-18796000D01*
X69786500Y-17716500D02*
X70274750Y-17716500D01*
X68707000Y-18796000D02*
X69786500Y-17716500D01*
X55696000Y-14863500D02*
X55696000Y-13151000D01*
X54018750Y-11473750D02*
X54018750Y-11112500D01*
X55696000Y-13151000D02*
X54018750Y-11473750D01*
D31*
X60706000Y-12700000D02*
X61956250Y-12700000D01*
X59696000Y-13710000D02*
X60706000Y-12700000D01*
X59696000Y-14863500D02*
X59696000Y-13710000D01*
X61956250Y-10433750D02*
X61956250Y-10318750D01*
X58896000Y-14863500D02*
X58896000Y-13494000D01*
X58896000Y-13494000D02*
X61956250Y-10433750D01*
X61956250Y-10318750D02*
X61956250Y-12700000D01*
X61146000Y-18713500D02*
X63798500Y-18713500D01*
X65925000Y-20840000D02*
X65925000Y-21431250D01*
X63798500Y-18713500D02*
X65925000Y-20840000D01*
X65925000Y-21431250D02*
X65925000Y-22594000D01*
X65925000Y-22594000D02*
X65913000Y-22606000D01*
X67875000Y7436000D02*
X67297000Y6858000D01*
X67875000Y8731250D02*
X67875000Y7436000D01*
X67297000Y6858000D02*
X66421000Y6858000D01*
X66421000Y6858000D02*
X60071000Y508000D01*
X60071000Y508000D02*
X60071000Y-4826000D01*
X61849000Y-6604000D02*
X60071000Y-4826000D01*
X61849000Y-8255000D02*
X61849000Y-6604000D01*
X61849000Y-10211500D02*
X61956250Y-10318750D01*
X61849000Y-8255000D02*
X61849000Y-10211500D01*
X65405000Y-7061200D02*
X65405000Y-7683500D01*
X65405000Y-7683500D02*
X66865500Y-9144000D01*
X82372200Y-9144000D02*
X84455000Y-7061200D01*
X66865500Y-9144000D02*
X82372200Y-9144000D01*
X42769750Y-27813000D02*
X42769750Y-28799750D01*
X42769750Y-28799750D02*
X43180000Y-29210000D01*
X43180000Y-29210000D02*
X50927000Y-29210000D01*
X50927000Y-29210000D02*
X53340000Y-31623000D01*
X53340000Y-31623000D02*
X53340000Y-31750000D01*
X46355000Y-64389000D02*
X46355000Y-63817500D01*
X47371000Y-65405000D02*
X46355000Y-64389000D01*
X65024000Y-65405000D02*
X47371000Y-65405000D01*
X65405000Y-65024000D02*
X65024000Y-65405000D01*
X65405000Y-63817500D02*
X65405000Y-65024000D01*
X84455000Y-65024000D02*
X84455000Y-63817500D01*
X84074000Y-65405000D02*
X84455000Y-65024000D01*
X65405000Y-65024000D02*
X65786000Y-65405000D01*
X65786000Y-65405000D02*
X84074000Y-65405000D01*
X103505000Y-63817500D02*
X101790500Y-63817500D01*
X101790500Y-63817500D02*
X101346000Y-63373000D01*
X101346000Y-63373000D02*
X98679000Y-63373000D01*
X98679000Y-63373000D02*
X97282000Y-64770000D01*
X97282000Y-64770000D02*
X97155000Y-64770000D01*
X67875000Y8731250D02*
X71215250Y8731250D01*
X71215250Y8731250D02*
X71247000Y8763000D01*
X65405000Y-120967500D02*
X65214500Y-120967500D01*
X65214500Y-120967500D02*
X63627000Y-122555000D01*
X63627000Y-122555000D02*
X56896000Y-122555000D01*
X55880000Y-121539000D02*
X55880000Y-120967500D01*
X56896000Y-122555000D02*
X55880000Y-121539000D01*
D30*
X42068750Y-45306250D02*
X42196750Y-45306250D01*
X42196750Y-45306250D02*
X45212000Y-42291000D01*
X74612500Y-39750000D02*
X73788000Y-39750000D01*
X71247000Y-42291000D02*
X69342000Y-42291000D01*
X73788000Y-39750000D02*
X71247000Y-42291000D01*
X77787500Y-39750000D02*
X78612000Y-39750000D01*
X81153000Y-42291000D02*
X82550000Y-42291000D01*
X78612000Y-39750000D02*
X81153000Y-42291000D01*
X96837500Y-39750000D02*
X96013000Y-39750000D01*
X93472000Y-42291000D02*
X92075000Y-42291000D01*
X96013000Y-39750000D02*
X93472000Y-42291000D01*
X82550000Y-42291000D02*
X92075000Y-42291000D01*
X61146000Y-21113500D02*
X62261500Y-21113500D01*
X62261500Y-21113500D02*
X62484000Y-21336000D01*
X62484000Y-21336000D02*
X62484000Y-23749000D01*
X62484000Y-23749000D02*
X59944000Y-26289000D01*
X59944000Y-26289000D02*
X59944000Y-41021000D01*
X59944000Y-41021000D02*
X60071000Y-41148000D01*
X60198000Y-41275000D02*
X60071000Y-41148000D01*
X59817000Y-42291000D02*
X60198000Y-41910000D01*
X60198000Y-41910000D02*
X60198000Y-41275000D01*
X45212000Y-42291000D02*
X59817000Y-42291000D01*
X60579000Y-42291000D02*
X60198000Y-41910000D01*
X60706000Y-42291000D02*
X60579000Y-42291000D01*
X60706000Y-42291000D02*
X69342000Y-42291000D01*
X77787500Y-39750000D02*
X74612500Y-39750000D01*
X74612500Y-58800000D02*
X73788000Y-58800000D01*
X73788000Y-58800000D02*
X71247000Y-61341000D01*
X56387000Y-58800000D02*
X55562500Y-58800000D01*
X58928000Y-61341000D02*
X56387000Y-58800000D01*
X74612500Y-58800000D02*
X77787500Y-58800000D01*
X59690000Y-60960000D02*
X59690000Y-61341000D01*
X71247000Y-61341000D02*
X59690000Y-61341000D01*
X59690000Y-61341000D02*
X58928000Y-61341000D01*
X61664500Y-21913500D02*
X61146000Y-21913500D01*
X61976000Y-22225000D02*
X61664500Y-21913500D01*
X61976000Y-23495000D02*
X61976000Y-22225000D01*
X59436000Y-26035000D02*
X61976000Y-23495000D01*
X59436000Y-41656000D02*
X59436000Y-26035000D01*
X77787500Y-58800000D02*
X78612000Y-58800000D01*
X78612000Y-58800000D02*
X81026000Y-61214000D01*
X92837000Y-61214000D02*
X93726000Y-62103000D01*
X94328250Y-64356250D02*
X95250000Y-64356250D01*
X93726000Y-62103000D02*
X93726000Y-63754000D01*
X81026000Y-61214000D02*
X92837000Y-61214000D01*
X93726000Y-63754000D02*
X94328250Y-64356250D01*
X55562500Y-77850000D02*
X56387000Y-77850000D01*
X56387000Y-77850000D02*
X58928000Y-80391000D01*
X58928000Y-80391000D02*
X71247000Y-80391000D01*
X73788000Y-77850000D02*
X74612500Y-77850000D01*
X71247000Y-80391000D02*
X73788000Y-77850000D01*
X74612500Y-77850000D02*
X77787500Y-77850000D01*
X94552500Y-76262500D02*
X95250000Y-76262500D01*
X77787500Y-77850000D02*
X78612000Y-77850000D01*
X78612000Y-77850000D02*
X81153000Y-80391000D01*
X81153000Y-80391000D02*
X89662000Y-80391000D01*
X89662000Y-80391000D02*
X90805000Y-79248000D01*
X90805000Y-79248000D02*
X91567000Y-79248000D01*
X91567000Y-79248000D02*
X94552500Y-76262500D01*
X55562500Y-77152500D02*
X55562500Y-77850000D01*
X56134000Y-76581000D02*
X55562500Y-77152500D01*
X55880000Y-41402000D02*
X55880000Y-41656000D01*
X56388000Y-40894000D02*
X55880000Y-41402000D01*
X56388000Y-33782000D02*
X56388000Y-40894000D01*
X52646000Y-17113500D02*
X50958500Y-17113500D01*
X50958500Y-17113500D02*
X49657000Y-18415000D01*
X49657000Y-18415000D02*
X49657000Y-19939000D01*
X49657000Y-19939000D02*
X50292000Y-20574000D01*
X50292000Y-20574000D02*
X50292000Y-27686000D01*
X50292000Y-27686000D02*
X56388000Y-33782000D01*
X93662500Y-101662500D02*
X92772500Y-101662500D01*
X92772500Y-101662500D02*
X90551000Y-99441000D01*
X90551000Y-99441000D02*
X81153000Y-99441000D01*
X78612000Y-96900000D02*
X74612500Y-96900000D01*
X81153000Y-99441000D02*
X78612000Y-96900000D01*
X74612500Y-96900000D02*
X73788000Y-96900000D01*
X73788000Y-96900000D02*
X71247000Y-99441000D01*
X71247000Y-99441000D02*
X62103000Y-99441000D01*
X59562000Y-96900000D02*
X58737500Y-96900000D01*
X62103000Y-99441000D02*
X59562000Y-96900000D01*
X58737500Y-96900000D02*
X55562500Y-96900000D01*
X55562500Y-96456500D02*
X55562500Y-96900000D01*
X56769000Y-95250000D02*
X55562500Y-96456500D01*
X51555500Y-17913500D02*
X52646000Y-17913500D01*
X50920500Y-17913500D02*
X51555500Y-17913500D01*
X50165000Y-18669000D02*
X50920500Y-17913500D01*
X56896000Y-41529000D02*
X56896000Y-33528000D01*
X56896000Y-33528000D02*
X50800000Y-27432000D01*
X56769000Y-41656000D02*
X56896000Y-41529000D01*
X50800000Y-27432000D02*
X50800000Y-20320000D01*
X50800000Y-20320000D02*
X50165000Y-19685000D01*
X50165000Y-19685000D02*
X50165000Y-18669000D01*
D31*
X62105500Y6193750D02*
X64643000Y8731250D01*
X60801250Y9112250D02*
X60801250Y9525000D01*
X60801250Y13493750D02*
X60801250Y9525000D01*
X58150000Y6193750D02*
X58150000Y6461000D01*
X58150000Y6461000D02*
X60801250Y9112250D01*
X58150000Y6193750D02*
X62105500Y6193750D01*
X64643000Y8731250D02*
X65475000Y8731250D01*
D30*
X53340000Y-113347500D02*
X43815000Y-113347500D01*
X54896000Y-14863500D02*
X54896000Y-13748000D01*
X53848000Y-12700000D02*
X44069000Y-12700000D01*
X54896000Y-13748000D02*
X53848000Y-12700000D01*
X54096000Y-14863500D02*
X54096000Y-13710000D01*
X53721000Y-13335000D02*
X53213000Y-13335000D01*
X54096000Y-13710000D02*
X53721000Y-13335000D01*
X52646000Y-21913500D02*
X52646000Y-24706000D01*
X52646000Y-24706000D02*
X53975000Y-26035000D01*
X53975000Y-26035000D02*
X54229000Y-26035000D01*
X81915000Y-25781000D02*
X82169000Y-26035000D01*
X62738000Y-26035000D02*
X62992000Y-25781000D01*
X62992000Y-25781000D02*
X72263000Y-25781000D01*
X72263000Y-25781000D02*
X73279000Y-26797000D01*
X73279000Y-26797000D02*
X78867000Y-26797000D01*
X78867000Y-26797000D02*
X79883000Y-25781000D01*
X79883000Y-25781000D02*
X81915000Y-25781000D01*
X54096000Y-23363500D02*
X54096000Y-25013000D01*
X54096000Y-25013000D02*
X54229000Y-25146000D01*
X101092000Y-25273000D02*
X101219000Y-25146000D01*
X62738000Y-25146000D02*
X62865000Y-25273000D01*
X72517000Y-25273000D02*
X73533000Y-26289000D01*
X73533000Y-26289000D02*
X78613000Y-26289000D01*
X62865000Y-25273000D02*
X72517000Y-25273000D01*
X78613000Y-26289000D02*
X79629000Y-25273000D01*
X79629000Y-25273000D02*
X101092000Y-25273000D01*
X45569750Y-23391250D02*
X45569750Y-23769250D01*
X46736000Y-22225000D02*
X45569750Y-23391250D01*
X46736000Y-17272000D02*
X46736000Y-22225000D01*
X52646000Y-16313500D02*
X47694500Y-16313500D01*
X47694500Y-16313500D02*
X46736000Y-17272000D01*
X44669750Y-27813000D02*
X44669750Y-26450250D01*
X45569750Y-25550250D02*
X45569750Y-23769250D01*
X44669750Y-26450250D02*
X45569750Y-25550250D01*
X56496000Y-27485250D02*
X56356250Y-27625000D01*
X56496000Y-23363500D02*
X56496000Y-27485250D01*
X48378500Y-35187500D02*
X50125000Y-35187500D01*
X44069000Y-39497000D02*
X48378500Y-35187500D01*
X44069000Y-40259000D02*
X44069000Y-39497000D01*
X42068750Y-42006250D02*
X42321750Y-42006250D01*
X42321750Y-42006250D02*
X44069000Y-40259000D01*
X69175000Y-35187500D02*
X71762500Y-35187500D01*
X73350000Y-35187500D02*
X74612500Y-36450000D01*
X71762500Y-35187500D02*
X73350000Y-35187500D01*
X88225000Y-35187500D02*
X88225000Y-34758000D01*
X88225000Y-34758000D02*
X87376000Y-33909000D01*
X87376000Y-33909000D02*
X81916000Y-33909000D01*
X80328500Y-33909000D02*
X77787500Y-36450000D01*
X81916000Y-33909000D02*
X80328500Y-33909000D01*
X107275000Y-35187500D02*
X107275000Y-34377000D01*
X107275000Y-34377000D02*
X106807000Y-33909000D01*
X106807000Y-33909000D02*
X100966000Y-33909000D01*
X99378500Y-33909000D02*
X96837500Y-36450000D01*
X100966000Y-33909000D02*
X99378500Y-33909000D01*
X54300000Y-54237500D02*
X55562500Y-55500000D01*
X50125000Y-54237500D02*
X54300000Y-54237500D01*
X73350000Y-54237500D02*
X74612500Y-55500000D01*
X69175000Y-54237500D02*
X73350000Y-54237500D01*
X88225000Y-53697500D02*
X88265000Y-53657500D01*
X88225000Y-54237500D02*
X88225000Y-53697500D01*
X88225000Y-54237500D02*
X88225000Y-53173000D01*
X88225000Y-53173000D02*
X88011000Y-52959000D01*
X80328500Y-52959000D02*
X77787500Y-55500000D01*
X88011000Y-52959000D02*
X80328500Y-52959000D01*
X107275000Y-54237500D02*
X105401500Y-54237500D01*
X105401500Y-54237500D02*
X101219000Y-58420000D01*
X101219000Y-58420000D02*
X101219000Y-59309000D01*
X99471750Y-61056250D02*
X95250000Y-61056250D01*
X101219000Y-59309000D02*
X99471750Y-61056250D01*
X54300000Y-73287500D02*
X55562500Y-74550000D01*
X50125000Y-73287500D02*
X54300000Y-73287500D01*
X73350000Y-73287500D02*
X74612500Y-74550000D01*
X69175000Y-73287500D02*
X73350000Y-73287500D01*
X88225000Y-73287500D02*
X88225000Y-72223000D01*
X88225000Y-72223000D02*
X88011000Y-72009000D01*
X80328500Y-72009000D02*
X77787500Y-74550000D01*
X88011000Y-72009000D02*
X80328500Y-72009000D01*
X107275000Y-73287500D02*
X107275000Y-73239000D01*
X107275000Y-73239000D02*
X105918000Y-71882000D01*
X105918000Y-71882000D02*
X104521000Y-71882000D01*
X104521000Y-71882000D02*
X101600000Y-68961000D01*
X100275000Y-65762500D02*
X100275000Y-67937500D01*
X96201500Y-72962500D02*
X100203000Y-68961000D01*
X95250000Y-72962500D02*
X96201500Y-72962500D01*
X100275000Y-68889000D02*
X100203000Y-68961000D01*
X100275000Y-67937500D02*
X100275000Y-68889000D01*
X101528000Y-68889000D02*
X101600000Y-68961000D01*
X100275000Y-68889000D02*
X101528000Y-68889000D01*
X54300000Y-92337500D02*
X55562500Y-93600000D01*
X50125000Y-92337500D02*
X54300000Y-92337500D01*
X69175000Y-92337500D02*
X69175000Y-92035000D01*
X69175000Y-92035000D02*
X68199000Y-91059000D01*
X61278500Y-91059000D02*
X58737500Y-93600000D01*
X68199000Y-91059000D02*
X61278500Y-91059000D01*
X93662500Y-98362500D02*
X93662500Y-96202500D01*
X89797500Y-92337500D02*
X88225000Y-92337500D01*
X93662500Y-96202500D02*
X89797500Y-92337500D01*
X78677500Y-89535000D02*
X74612500Y-93600000D01*
X78931500Y-89281000D02*
X78677500Y-89535000D01*
X105410000Y-89281000D02*
X78931500Y-89281000D01*
X107275000Y-91146000D02*
X105410000Y-89281000D01*
X107275000Y-92337500D02*
X107275000Y-91146000D01*
X50125000Y-111387500D02*
X50125000Y-110657000D01*
X50125000Y-110657000D02*
X50673000Y-110109000D01*
X58991500Y-110109000D02*
X59690000Y-110807500D01*
X50673000Y-110109000D02*
X58991500Y-110109000D01*
X78581250Y-99156250D02*
X77947250Y-99156250D01*
X77947250Y-99156250D02*
X77597000Y-98806000D01*
X77597000Y-98806000D02*
X73025000Y-98806000D01*
X73025000Y-98806000D02*
X72517000Y-99314000D01*
X59650000Y-110022000D02*
X59650000Y-111387500D01*
X59737000Y-110109000D02*
X59650000Y-110022000D01*
X62865000Y-110109000D02*
X59737000Y-110109000D01*
X69342000Y-105029000D02*
X67945000Y-105029000D01*
X67945000Y-105029000D02*
X62865000Y-110109000D01*
X72390000Y-105029000D02*
X69342000Y-105029000D01*
X73350000Y-111387500D02*
X74612500Y-112650000D01*
X69175000Y-111387500D02*
X73350000Y-111387500D01*
X88225000Y-111387500D02*
X88225000Y-110069000D01*
X88225000Y-110069000D02*
X88185000Y-110109000D01*
X80328500Y-110109000D02*
X77787500Y-112650000D01*
X88185000Y-110109000D02*
X80328500Y-110109000D01*
X100275000Y-103862500D02*
X100275000Y-106354000D01*
X94456250Y-111062500D02*
X96074500Y-111062500D01*
X96074500Y-111062500D02*
X100076000Y-107061000D01*
X100275000Y-106862000D02*
X100076000Y-107061000D01*
X100275000Y-106354000D02*
X100275000Y-106862000D01*
X106815500Y-111387500D02*
X107275000Y-111387500D01*
X105410000Y-109982000D02*
X106815500Y-111387500D01*
X104648000Y-109982000D02*
X105410000Y-109982000D01*
X100275000Y-106862000D02*
X101528000Y-106862000D01*
X101528000Y-106862000D02*
X104648000Y-109982000D01*
X58096000Y-13589000D02*
X58096000Y-14863500D01*
X57648009Y-13141009D02*
X58096000Y-13589000D01*
X57648009Y-10033000D02*
X57648009Y-13141009D01*
X58737500Y-8943509D02*
X57648009Y-10033000D01*
X58737500Y-8093750D02*
X58737500Y-8943509D01*
X55562500Y-8509000D02*
X55562500Y-8093750D01*
X57143999Y-10090499D02*
X55562500Y-8509000D01*
X57296000Y-13614001D02*
X57143999Y-13462000D01*
X57296000Y-14863500D02*
X57296000Y-13614001D01*
X57143999Y-13462000D02*
X57143999Y-10090499D01*
X77787500Y-115950000D02*
X78612000Y-115950000D01*
X81153000Y-118491000D02*
X91059000Y-118491000D01*
X94456250Y-115093750D02*
X94456250Y-114362500D01*
X91059000Y-118491000D02*
X94456250Y-115093750D01*
X77787500Y-115950000D02*
X76200000Y-115950000D01*
X76200000Y-115950000D02*
X74612500Y-115950000D01*
X78581250Y-102456250D02*
X80104250Y-102456250D01*
X80104250Y-102456250D02*
X80137000Y-102489000D01*
X79121000Y-116967000D02*
X79375000Y-116713000D01*
X78612000Y-115950000D02*
X79375000Y-116713000D01*
X79375000Y-116713000D02*
X81153000Y-118491000D01*
X57785000Y-103759000D02*
X58039000Y-104013000D01*
X58039000Y-104013000D02*
X67183000Y-104013000D01*
X67183000Y-104013000D02*
X68834000Y-104013000D01*
X79502000Y-104013000D02*
X79756000Y-104267000D01*
X79248000Y-104013000D02*
X79502000Y-104013000D01*
X68834000Y-104013000D02*
X79248000Y-104013000D01*
X51606500Y-19513500D02*
X52646000Y-19513500D01*
X51308000Y-19812000D02*
X51606500Y-19513500D01*
X51308000Y-27178000D02*
X51308000Y-19812000D01*
X57404000Y-33274000D02*
X51308000Y-27178000D01*
X57404000Y-41402000D02*
X57404000Y-33274000D01*
X57658000Y-41656000D02*
X57404000Y-41402000D01*
X68106250Y-44606250D02*
X67945000Y-44767500D01*
X74612500Y-44606250D02*
X68106250Y-44606250D01*
X85568750Y-46193750D02*
X86995000Y-44767500D01*
X78041500Y-44606250D02*
X79629000Y-46193750D01*
X77787500Y-44606250D02*
X78041500Y-44606250D01*
X79629000Y-46193750D02*
X85568750Y-46193750D01*
X96837500Y-44606250D02*
X97184250Y-44606250D01*
X97184250Y-44606250D02*
X98806000Y-46228000D01*
X104584500Y-46228000D02*
X106045000Y-44767500D01*
X98806000Y-46228000D02*
X104584500Y-46228000D01*
X49056250Y-63656250D02*
X48895000Y-63817500D01*
X55562500Y-63656250D02*
X49056250Y-63656250D01*
X68106250Y-63656250D02*
X67945000Y-63817500D01*
X74612500Y-63656250D02*
X68106250Y-63656250D01*
X77787500Y-63656250D02*
X78710750Y-63656250D01*
X78710750Y-63656250D02*
X80010000Y-62357000D01*
X85534500Y-62357000D02*
X86995000Y-63817500D01*
X80010000Y-62357000D02*
X85534500Y-62357000D01*
X106045000Y-63817500D02*
X105981500Y-63817500D01*
X105981500Y-63817500D02*
X104394000Y-65405000D01*
X104394000Y-65405000D02*
X102489000Y-65405000D01*
X102489000Y-65405000D02*
X101092000Y-64008000D01*
X101092000Y-64008000D02*
X98933000Y-64008000D01*
X98933000Y-64008000D02*
X97536000Y-65405000D01*
X93030000Y-65405000D02*
X92075000Y-64450000D01*
X97536000Y-65405000D02*
X93030000Y-65405000D01*
X49056250Y-82706250D02*
X48895000Y-82867500D01*
X55562500Y-82706250D02*
X49056250Y-82706250D01*
X68106250Y-82706250D02*
X67945000Y-82867500D01*
X74612500Y-82706250D02*
X68106250Y-82706250D01*
X77787500Y-82706250D02*
X78134250Y-82706250D01*
X78134250Y-82706250D02*
X79756000Y-84328000D01*
X85534500Y-84328000D02*
X86995000Y-82867500D01*
X79756000Y-84328000D02*
X85534500Y-84328000D01*
X49056250Y-101756250D02*
X48895000Y-101917500D01*
X55562500Y-101756250D02*
X49056250Y-101756250D01*
X58737500Y-101756250D02*
X59084250Y-101756250D01*
X59084250Y-101756250D02*
X60833000Y-103505000D01*
X66357500Y-103505000D02*
X67945000Y-101917500D01*
X60833000Y-103505000D02*
X66357500Y-103505000D01*
X88074500Y-102997000D02*
X86995000Y-101917500D01*
X94361000Y-102997000D02*
X88074500Y-102997000D01*
X96837500Y-100168750D02*
X96837500Y-100520500D01*
X96837500Y-100520500D02*
X94361000Y-102997000D01*
X74832250Y-101756250D02*
X74612500Y-101756250D01*
X76581000Y-103505000D02*
X74832250Y-101756250D01*
X94615000Y-103505000D02*
X76581000Y-103505000D01*
X106045000Y-101917500D02*
X106045000Y-101981000D01*
X106045000Y-101981000D02*
X104648000Y-103378000D01*
X104648000Y-103378000D02*
X102616000Y-103378000D01*
X102616000Y-103378000D02*
X101346000Y-102108000D01*
X101346000Y-102108000D02*
X96012000Y-102108000D01*
X96012000Y-102108000D02*
X94615000Y-103505000D01*
X61912500Y-120012500D02*
X62867500Y-120012500D01*
X62867500Y-120012500D02*
X63627000Y-119253000D01*
X66230500Y-119253000D02*
X67945000Y-120967500D01*
X63627000Y-119253000D02*
X66230500Y-119253000D01*
X77787500Y-120806250D02*
X78075750Y-120806250D01*
X78075750Y-120806250D02*
X79697500Y-122428000D01*
X85534500Y-122428000D02*
X86995000Y-120967500D01*
X79697500Y-122428000D02*
X85534500Y-122428000D01*
D31*
X96837500Y-6193750D02*
X93662500Y-6193750D01*
X93662500Y-6193750D02*
X92807750Y-6193750D01*
X92807750Y-6193750D02*
X91821000Y-5207000D01*
X91821000Y-5207000D02*
X76581000Y-5207000D01*
X75594250Y-6193750D02*
X74612500Y-6193750D01*
X76581000Y-5207000D02*
X75594250Y-6193750D01*
X74612500Y-6193750D02*
X73630750Y-6193750D01*
X73630750Y-6193750D02*
X72644000Y-5207000D01*
X72644000Y-5207000D02*
X61595000Y-5207000D01*
X42383750Y-10956250D02*
X42068750Y-10956250D01*
X43434000Y-9906000D02*
X42383750Y-10956250D01*
X43434000Y-7747000D02*
X43434000Y-9906000D01*
X52705000Y-5207000D02*
X45974000Y-5207000D01*
X45974000Y-5207000D02*
X43434000Y-7747000D01*
X94488000Y-42926000D02*
X80137000Y-42926000D01*
X72263000Y-42926000D02*
X62357000Y-42926000D01*
X57150000Y-50062500D02*
X58395500Y-50062500D01*
X60325000Y-48133000D02*
X60325000Y-44958000D01*
X58395500Y-50062500D02*
X60325000Y-48133000D01*
X62357000Y-42926000D02*
X60325000Y-44958000D01*
X91281250Y-80806250D02*
X90262750Y-80806250D01*
X90262750Y-80806250D02*
X90043000Y-81026000D01*
X78647250Y-80806250D02*
X78867000Y-81026000D01*
X77787500Y-80806250D02*
X78647250Y-80806250D01*
X90043000Y-81026000D02*
X78867000Y-81026000D01*
X74612500Y-80806250D02*
X73752750Y-80806250D01*
X73752750Y-80806250D02*
X73533000Y-81026000D01*
X73533000Y-81026000D02*
X58674000Y-81026000D01*
X58454250Y-80806250D02*
X55562500Y-80806250D01*
X58674000Y-81026000D02*
X58454250Y-80806250D01*
X74612500Y-61756250D02*
X73625750Y-61756250D01*
X73625750Y-61756250D02*
X73406000Y-61976000D01*
X73406000Y-61976000D02*
X56769000Y-61976000D01*
X56549250Y-61756250D02*
X55562500Y-61756250D01*
X56769000Y-61976000D02*
X56549250Y-61756250D01*
X53342500Y-118112500D02*
X52387500Y-118112500D01*
X53848000Y-118618000D02*
X53342500Y-118112500D01*
X60452000Y-118618000D02*
X53848000Y-118618000D01*
X61912500Y-118112500D02*
X60957500Y-118112500D01*
X60957500Y-118112500D02*
X60452000Y-118618000D01*
X61912500Y-118112500D02*
X62867500Y-118112500D01*
X62867500Y-118112500D02*
X63373000Y-118618000D01*
X63373000Y-118618000D02*
X73279000Y-118618000D01*
X73567250Y-118906250D02*
X74612500Y-118906250D01*
X73279000Y-118618000D02*
X73567250Y-118906250D01*
X55562500Y-99856250D02*
X58737500Y-99856250D01*
X58737500Y-99856250D02*
X59724250Y-99856250D01*
X59724250Y-99856250D02*
X59944000Y-100076000D01*
X59944000Y-100076000D02*
X73406000Y-100076000D01*
X73625750Y-99856250D02*
X74612500Y-99856250D01*
X73406000Y-100076000D02*
X73625750Y-99856250D01*
X74612500Y-42706250D02*
X73625750Y-42706250D01*
X73406000Y-42926000D02*
X72263000Y-42926000D01*
X73625750Y-42706250D02*
X73406000Y-42926000D01*
X77787500Y-42706250D02*
X78774250Y-42706250D01*
X78994000Y-42926000D02*
X80137000Y-42926000D01*
X78774250Y-42706250D02*
X78994000Y-42926000D01*
X96837500Y-42706250D02*
X95850750Y-42706250D01*
X95631000Y-42926000D02*
X94488000Y-42926000D01*
X95850750Y-42706250D02*
X95631000Y-42926000D01*
X74612500Y-99856250D02*
X76165750Y-99856250D01*
X76165750Y-99856250D02*
X76200000Y-99822000D01*
X76200000Y-80391000D02*
X76200000Y-80806250D01*
X77787500Y-80806250D02*
X76200000Y-80806250D01*
X76200000Y-80806250D02*
X74612500Y-80806250D01*
X76200000Y-61341000D02*
X76200000Y-61756250D01*
X77787500Y-61756250D02*
X76200000Y-61756250D01*
X76200000Y-61756250D02*
X74612500Y-61756250D01*
X76200000Y-42291000D02*
X76200000Y-42706250D01*
X77787500Y-42706250D02*
X76200000Y-42706250D01*
X76200000Y-42706250D02*
X74612500Y-42706250D01*
X74549000Y-6130250D02*
X74612500Y-6193750D01*
X74549000Y-5080000D02*
X74549000Y-6130250D01*
X76200000Y-118491000D02*
X76200000Y-118906250D01*
X74612500Y-118906250D02*
X76200000Y-118906250D01*
X76200000Y-118906250D02*
X77787500Y-118906250D01*
X77816750Y-61785500D02*
X77787500Y-61756250D01*
X90995500Y-61785500D02*
X77816750Y-61785500D01*
X91760000Y-62550000D02*
X90995500Y-61785500D01*
X92075000Y-62550000D02*
X91760000Y-62550000D01*
X44529500Y10604500D02*
X44529500Y4270500D01*
X44529500Y4270500D02*
X40386000Y127000D01*
X40386000Y127000D02*
X40386000Y-10160000D01*
X41182250Y-10956250D02*
X42068750Y-10956250D01*
X40386000Y-10160000D02*
X41182250Y-10956250D01*
X96837500Y-98268750D02*
X96617750Y-98268750D01*
X96617750Y-98268750D02*
X90043000Y-91694000D01*
X90043000Y-91694000D02*
X90043000Y-90932000D01*
X90043000Y-90932000D02*
X89789000Y-90678000D01*
X89789000Y-90678000D02*
X89281000Y-90170000D01*
X89281000Y-90170000D02*
X89027000Y-89916000D01*
X89027000Y-89916000D02*
X79248000Y-89916000D01*
X79248000Y-89916000D02*
X76581000Y-92583000D01*
X76581000Y-92583000D02*
X76581000Y-92710000D01*
D30*
X91281250Y-82706250D02*
X91596250Y-82706250D01*
X91596250Y-82706250D02*
X93218000Y-84328000D01*
X104584500Y-84328000D02*
X106045000Y-82867500D01*
X93218000Y-84328000D02*
X104584500Y-84328000D01*
X74612500Y-120806250D02*
X74959250Y-120806250D01*
X74959250Y-120806250D02*
X77089000Y-122936000D01*
X104076500Y-122936000D02*
X106045000Y-120967500D01*
X77089000Y-122936000D02*
X104076500Y-122936000D01*
X48895000Y-120967500D02*
X51117500Y-120967500D01*
X52072500Y-120012500D02*
X52387500Y-120012500D01*
X51117500Y-120967500D02*
X52072500Y-120012500D01*
X52387500Y-120012500D02*
X53342500Y-120012500D01*
X53342500Y-120012500D02*
X54102000Y-119253000D01*
X56705500Y-119253000D02*
X58420000Y-120967500D01*
X54102000Y-119253000D02*
X56705500Y-119253000D01*
X46529500Y14523250D02*
X46479500Y14573250D01*
X46529500Y11554500D02*
X46529500Y14523250D01*
X52646000Y-18713500D02*
X51263500Y-18713500D01*
X51263500Y-18713500D02*
X51054000Y-18923000D01*
X44547750Y14605000D02*
X44579500Y14573250D01*
X43434000Y14605000D02*
X44547750Y14605000D01*
X42068750Y-8000000D02*
X42292000Y-8000000D01*
X42292000Y-8000000D02*
X45720000Y-4572000D01*
X45720000Y-4572000D02*
X52451000Y-4572000D01*
X52451000Y-4572000D02*
X52705000Y-4318000D01*
X73724500Y-3237500D02*
X74612500Y-3237500D01*
X72390000Y-4572000D02*
X73724500Y-3237500D01*
X61595000Y-4318000D02*
X61849000Y-4572000D01*
X61849000Y-4572000D02*
X72390000Y-4572000D01*
X74612500Y-3237500D02*
X75500500Y-3237500D01*
X75500500Y-3237500D02*
X76835000Y-4572000D01*
X76835000Y-4572000D02*
X91440000Y-4572000D01*
X92774500Y-3237500D02*
X93662500Y-3237500D01*
X91440000Y-4572000D02*
X92774500Y-3237500D01*
X93662500Y-3237500D02*
X96837500Y-3237500D01*
X59696000Y-23363500D02*
X61082500Y-23363500D01*
X61082500Y-23363500D02*
X61087000Y-23368000D01*
X50125000Y2518800D02*
X48365800Y2518800D01*
X48365800Y2518800D02*
X44069000Y-1778000D01*
X44069000Y-2699750D02*
X42068750Y-4700000D01*
X44069000Y-1778000D02*
X44069000Y-2699750D01*
X72156200Y2518800D02*
X74612500Y62500D01*
X69175000Y2518800D02*
X72156200Y2518800D01*
X91206200Y2518800D02*
X93662500Y62500D01*
X88225000Y2518800D02*
X91206200Y2518800D01*
X107275000Y2518800D02*
X107275000Y2961000D01*
X107275000Y2961000D02*
X106426000Y3810000D01*
X100585000Y3810000D02*
X96837500Y62500D01*
X106426000Y3810000D02*
X100585000Y3810000D01*
X42068750Y-12856250D02*
X42896750Y-12856250D01*
X48691800Y-7061200D02*
X48895000Y-7061200D01*
X42896750Y-12856250D02*
X48691800Y-7061200D01*
X68977550Y-8093750D02*
X67945000Y-7061200D01*
X74612500Y-8093750D02*
X68977550Y-8093750D01*
X88027550Y-8093750D02*
X86995000Y-7061200D01*
X93662500Y-8093750D02*
X88027550Y-8093750D01*
X106045000Y-7061200D02*
X104597200Y-8509000D01*
X97120750Y-8093750D02*
X97536000Y-8509000D01*
X96837500Y-8093750D02*
X97120750Y-8093750D01*
X104597200Y-8509000D02*
X97536000Y-8509000D01*
X57404000Y-4860250D02*
X58737500Y-6193750D01*
X58150000Y9681250D02*
X58150000Y13382500D01*
X58150000Y13382500D02*
X58261250Y13493750D01*
X58131750Y8093750D02*
X57404000Y7366000D01*
X58150000Y9681250D02*
X58150000Y8093750D01*
X58150000Y8093750D02*
X58131750Y8093750D01*
X57404000Y7366000D02*
X57404000Y-4860250D01*
X56896000Y-4860250D02*
X55562500Y-6193750D01*
X56896000Y7347750D02*
X56150000Y8093750D01*
X56150000Y10160000D02*
X56150000Y8093750D01*
X56150000Y10160000D02*
X56150000Y13065000D01*
X56150000Y13065000D02*
X55721250Y13493750D01*
X56896000Y5556250D02*
X56896000Y7347750D01*
X56896000Y5556250D02*
X56896000Y-4860250D01*
X57150000Y-48362500D02*
X53975000Y-48362500D01*
X43812500Y-48897500D02*
X43812500Y-49212500D01*
X44450000Y-48260000D02*
X43812500Y-48897500D01*
X53975000Y-48362500D02*
X53872500Y-48260000D01*
X53872500Y-48260000D02*
X44450000Y-48260000D01*
X58896000Y-23363500D02*
X58896000Y-24987000D01*
X58896000Y-24987000D02*
X58928000Y-25019000D01*
X58928000Y-25019000D02*
X58928000Y-41021000D01*
X58928000Y-41021000D02*
X58547000Y-41402000D01*
X58547000Y-41402000D02*
X58547000Y-41656000D01*
X53975000Y-50062500D02*
X53975000Y-51054000D01*
X53975000Y-51054000D02*
X54991000Y-52070000D01*
X54991000Y-52070000D02*
X58166000Y-52070000D01*
X48895000Y-44831000D02*
X48895000Y-44767500D01*
X45974000Y-47752000D02*
X48895000Y-44831000D01*
X42418000Y-47752000D02*
X45974000Y-47752000D01*
X41912500Y-48257500D02*
X42418000Y-47752000D01*
X41912500Y-49212500D02*
X41912500Y-48257500D01*
G36*
X56569815Y-16114685D02*
X56666506Y-16194037D01*
X56689667Y-16206417D01*
X56781750Y-16298500D01*
X56833542Y-16298500D01*
X56889870Y-16287295D01*
X56896518Y-16289312D01*
X57021000Y-16301572D01*
X57571000Y-16301572D01*
X57695482Y-16289312D01*
X57696000Y-16289155D01*
X57696518Y-16289312D01*
X57821000Y-16301572D01*
X58371000Y-16301572D01*
X58495482Y-16289312D01*
X58496000Y-16289155D01*
X58496518Y-16289312D01*
X58621000Y-16301572D01*
X59171000Y-16301572D01*
X59295482Y-16289312D01*
X59296000Y-16289155D01*
X59296518Y-16289312D01*
X59421000Y-16301572D01*
X59707928Y-16301572D01*
X59707928Y-16588500D01*
X59720188Y-16712982D01*
X59720345Y-16713500D01*
X59720188Y-16714018D01*
X59707928Y-16838500D01*
X59707928Y-17388500D01*
X59720188Y-17512982D01*
X59722205Y-17519630D01*
X59711000Y-17575958D01*
X59711000Y-17627750D01*
X59803083Y-17719833D01*
X59815463Y-17742994D01*
X59894815Y-17839685D01*
X59984759Y-17913500D01*
X59894815Y-17987315D01*
X59815463Y-18084006D01*
X59803083Y-18107167D01*
X59711000Y-18199250D01*
X59711000Y-18251042D01*
X59722205Y-18307370D01*
X59720188Y-18314018D01*
X59707928Y-18438500D01*
X59707928Y-18988500D01*
X59720188Y-19112982D01*
X59720345Y-19113500D01*
X59720188Y-19114018D01*
X59707928Y-19238500D01*
X59707928Y-19788500D01*
X59720188Y-19912982D01*
X59720345Y-19913500D01*
X59720188Y-19914018D01*
X59707928Y-20038500D01*
X59707928Y-20588500D01*
X59720188Y-20712982D01*
X59720345Y-20713500D01*
X59720188Y-20714018D01*
X59707928Y-20838500D01*
X59707928Y-21388500D01*
X59720188Y-21512982D01*
X59720345Y-21513500D01*
X59720188Y-21514018D01*
X59707928Y-21638500D01*
X59707928Y-21925428D01*
X59421000Y-21925428D01*
X59296518Y-21937688D01*
X59296000Y-21937845D01*
X59295482Y-21937688D01*
X59171000Y-21925428D01*
X58621000Y-21925428D01*
X58496518Y-21937688D01*
X58496000Y-21937845D01*
X58495482Y-21937688D01*
X58371000Y-21925428D01*
X57821000Y-21925428D01*
X57696518Y-21937688D01*
X57696000Y-21937845D01*
X57695482Y-21937688D01*
X57571000Y-21925428D01*
X57021000Y-21925428D01*
X56896518Y-21937688D01*
X56896000Y-21937845D01*
X56895482Y-21937688D01*
X56771000Y-21925428D01*
X56221000Y-21925428D01*
X56096518Y-21937688D01*
X56096000Y-21937845D01*
X56095482Y-21937688D01*
X55971000Y-21925428D01*
X55421000Y-21925428D01*
X55296518Y-21937688D01*
X55296000Y-21937845D01*
X55295482Y-21937688D01*
X55171000Y-21925428D01*
X54621000Y-21925428D01*
X54496518Y-21937688D01*
X54496000Y-21937845D01*
X54495482Y-21937688D01*
X54371000Y-21925428D01*
X54084072Y-21925428D01*
X54084072Y-21638500D01*
X54071812Y-21514018D01*
X54071655Y-21513500D01*
X54071812Y-21512982D01*
X54084072Y-21388500D01*
X54084072Y-20838500D01*
X54071812Y-20714018D01*
X54071655Y-20713500D01*
X54071812Y-20712982D01*
X54084072Y-20588500D01*
X54084072Y-20038500D01*
X54071812Y-19914018D01*
X54071655Y-19913500D01*
X54071812Y-19912982D01*
X54084072Y-19788500D01*
X54084072Y-19238500D01*
X54071812Y-19114018D01*
X54071655Y-19113500D01*
X54071812Y-19112982D01*
X54084072Y-18988500D01*
X54084072Y-18438500D01*
X54071812Y-18314018D01*
X54071655Y-18313500D01*
X54071812Y-18312982D01*
X54084072Y-18188500D01*
X54084072Y-17638500D01*
X54071812Y-17514018D01*
X54071655Y-17513500D01*
X54071812Y-17512982D01*
X54084072Y-17388500D01*
X54084072Y-16838500D01*
X54071812Y-16714018D01*
X54071655Y-16713500D01*
X54071812Y-16712982D01*
X54084072Y-16588500D01*
X54084072Y-16301572D01*
X54371000Y-16301572D01*
X54495482Y-16289312D01*
X54496000Y-16289155D01*
X54496518Y-16289312D01*
X54621000Y-16301572D01*
X55171000Y-16301572D01*
X55295482Y-16289312D01*
X55296000Y-16289155D01*
X55296518Y-16289312D01*
X55421000Y-16301572D01*
X55971000Y-16301572D01*
X56095482Y-16289312D01*
X56102130Y-16287295D01*
X56158458Y-16298500D01*
X56210250Y-16298500D01*
X56302333Y-16206417D01*
X56325494Y-16194037D01*
X56422185Y-16114685D01*
X56496000Y-16024741D01*
X56569815Y-16114685D01*
X56569815Y-16114685D01*
G37*
X56569815Y-16114685D02*
X56666506Y-16194037D01*
X56689667Y-16206417D01*
X56781750Y-16298500D01*
X56833542Y-16298500D01*
X56889870Y-16287295D01*
X56896518Y-16289312D01*
X57021000Y-16301572D01*
X57571000Y-16301572D01*
X57695482Y-16289312D01*
X57696000Y-16289155D01*
X57696518Y-16289312D01*
X57821000Y-16301572D01*
X58371000Y-16301572D01*
X58495482Y-16289312D01*
X58496000Y-16289155D01*
X58496518Y-16289312D01*
X58621000Y-16301572D01*
X59171000Y-16301572D01*
X59295482Y-16289312D01*
X59296000Y-16289155D01*
X59296518Y-16289312D01*
X59421000Y-16301572D01*
X59707928Y-16301572D01*
X59707928Y-16588500D01*
X59720188Y-16712982D01*
X59720345Y-16713500D01*
X59720188Y-16714018D01*
X59707928Y-16838500D01*
X59707928Y-17388500D01*
X59720188Y-17512982D01*
X59722205Y-17519630D01*
X59711000Y-17575958D01*
X59711000Y-17627750D01*
X59803083Y-17719833D01*
X59815463Y-17742994D01*
X59894815Y-17839685D01*
X59984759Y-17913500D01*
X59894815Y-17987315D01*
X59815463Y-18084006D01*
X59803083Y-18107167D01*
X59711000Y-18199250D01*
X59711000Y-18251042D01*
X59722205Y-18307370D01*
X59720188Y-18314018D01*
X59707928Y-18438500D01*
X59707928Y-18988500D01*
X59720188Y-19112982D01*
X59720345Y-19113500D01*
X59720188Y-19114018D01*
X59707928Y-19238500D01*
X59707928Y-19788500D01*
X59720188Y-19912982D01*
X59720345Y-19913500D01*
X59720188Y-19914018D01*
X59707928Y-20038500D01*
X59707928Y-20588500D01*
X59720188Y-20712982D01*
X59720345Y-20713500D01*
X59720188Y-20714018D01*
X59707928Y-20838500D01*
X59707928Y-21388500D01*
X59720188Y-21512982D01*
X59720345Y-21513500D01*
X59720188Y-21514018D01*
X59707928Y-21638500D01*
X59707928Y-21925428D01*
X59421000Y-21925428D01*
X59296518Y-21937688D01*
X59296000Y-21937845D01*
X59295482Y-21937688D01*
X59171000Y-21925428D01*
X58621000Y-21925428D01*
X58496518Y-21937688D01*
X58496000Y-21937845D01*
X58495482Y-21937688D01*
X58371000Y-21925428D01*
X57821000Y-21925428D01*
X57696518Y-21937688D01*
X57696000Y-21937845D01*
X57695482Y-21937688D01*
X57571000Y-21925428D01*
X57021000Y-21925428D01*
X56896518Y-21937688D01*
X56896000Y-21937845D01*
X56895482Y-21937688D01*
X56771000Y-21925428D01*
X56221000Y-21925428D01*
X56096518Y-21937688D01*
X56096000Y-21937845D01*
X56095482Y-21937688D01*
X55971000Y-21925428D01*
X55421000Y-21925428D01*
X55296518Y-21937688D01*
X55296000Y-21937845D01*
X55295482Y-21937688D01*
X55171000Y-21925428D01*
X54621000Y-21925428D01*
X54496518Y-21937688D01*
X54496000Y-21937845D01*
X54495482Y-21937688D01*
X54371000Y-21925428D01*
X54084072Y-21925428D01*
X54084072Y-21638500D01*
X54071812Y-21514018D01*
X54071655Y-21513500D01*
X54071812Y-21512982D01*
X54084072Y-21388500D01*
X54084072Y-20838500D01*
X54071812Y-20714018D01*
X54071655Y-20713500D01*
X54071812Y-20712982D01*
X54084072Y-20588500D01*
X54084072Y-20038500D01*
X54071812Y-19914018D01*
X54071655Y-19913500D01*
X54071812Y-19912982D01*
X54084072Y-19788500D01*
X54084072Y-19238500D01*
X54071812Y-19114018D01*
X54071655Y-19113500D01*
X54071812Y-19112982D01*
X54084072Y-18988500D01*
X54084072Y-18438500D01*
X54071812Y-18314018D01*
X54071655Y-18313500D01*
X54071812Y-18312982D01*
X54084072Y-18188500D01*
X54084072Y-17638500D01*
X54071812Y-17514018D01*
X54071655Y-17513500D01*
X54071812Y-17512982D01*
X54084072Y-17388500D01*
X54084072Y-16838500D01*
X54071812Y-16714018D01*
X54071655Y-16713500D01*
X54071812Y-16712982D01*
X54084072Y-16588500D01*
X54084072Y-16301572D01*
X54371000Y-16301572D01*
X54495482Y-16289312D01*
X54496000Y-16289155D01*
X54496518Y-16289312D01*
X54621000Y-16301572D01*
X55171000Y-16301572D01*
X55295482Y-16289312D01*
X55296000Y-16289155D01*
X55296518Y-16289312D01*
X55421000Y-16301572D01*
X55971000Y-16301572D01*
X56095482Y-16289312D01*
X56102130Y-16287295D01*
X56158458Y-16298500D01*
X56210250Y-16298500D01*
X56302333Y-16206417D01*
X56325494Y-16194037D01*
X56422185Y-16114685D01*
X56496000Y-16024741D01*
X56569815Y-16114685D01*
G36*
X74485500Y-18436025D02*
X74340327Y-18517159D01*
X73856549Y-18928887D01*
X73461956Y-19426740D01*
X73171578Y-19991755D01*
X73022830Y-20510500D01*
X68151197Y-20510500D01*
X68125785Y-20493520D01*
X68010223Y-20445653D01*
X67887542Y-20421250D01*
X67710750Y-20421250D01*
X67621500Y-20510500D01*
X67228500Y-20510500D01*
X67139250Y-20421250D01*
X66962458Y-20421250D01*
X66839777Y-20445653D01*
X66724215Y-20493520D01*
X66698802Y-20510500D01*
X66684903Y-20510500D01*
X66614699Y-20379157D01*
X66537391Y-20284958D01*
X66511541Y-20253459D01*
X66480041Y-20227608D01*
X65066173Y-18813741D01*
X65107820Y-18836002D01*
X65227518Y-18872312D01*
X65352000Y-18884572D01*
X65685942Y-18884572D01*
X66109720Y-19308351D01*
X66133578Y-19337422D01*
X66249608Y-19432645D01*
X66381985Y-19503402D01*
X66525622Y-19546974D01*
X66637574Y-19558000D01*
X66637576Y-19558000D01*
X66674999Y-19561686D01*
X66712422Y-19558000D01*
X68669577Y-19558000D01*
X68707000Y-19561686D01*
X68744423Y-19558000D01*
X68744426Y-19558000D01*
X68856378Y-19546974D01*
X69000015Y-19503402D01*
X69132392Y-19432645D01*
X69248422Y-19337422D01*
X69272284Y-19308346D01*
X69853182Y-18727448D01*
X69874750Y-18729572D01*
X70674750Y-18729572D01*
X70799232Y-18717312D01*
X70918930Y-18681002D01*
X71027322Y-18623064D01*
X71073965Y-18654230D01*
X71189527Y-18702097D01*
X71312208Y-18726500D01*
X71489000Y-18726500D01*
X71647750Y-18567750D01*
X71647750Y-17843500D01*
X71901750Y-17843500D01*
X71901750Y-18567750D01*
X72060500Y-18726500D01*
X72237292Y-18726500D01*
X72359973Y-18702097D01*
X72475535Y-18654230D01*
X72579539Y-18584737D01*
X72667987Y-18496289D01*
X72737480Y-18392285D01*
X72785347Y-18276723D01*
X72809750Y-18154042D01*
X72809750Y-18002250D01*
X72651000Y-17843500D01*
X71901750Y-17843500D01*
X71647750Y-17843500D01*
X71627750Y-17843500D01*
X71627750Y-17589500D01*
X71647750Y-17589500D01*
X71647750Y-16865250D01*
X71901750Y-16865250D01*
X71901750Y-17589500D01*
X72651000Y-17589500D01*
X72809750Y-17430750D01*
X72809750Y-17278958D01*
X72785347Y-17156277D01*
X72737480Y-17040715D01*
X72667987Y-16936711D01*
X72579539Y-16848263D01*
X72475535Y-16778770D01*
X72359973Y-16730903D01*
X72237292Y-16706500D01*
X72060500Y-16706500D01*
X71901750Y-16865250D01*
X71647750Y-16865250D01*
X71489000Y-16706500D01*
X71312208Y-16706500D01*
X71189527Y-16730903D01*
X71073965Y-16778770D01*
X71027322Y-16809936D01*
X70918930Y-16751998D01*
X70799232Y-16715688D01*
X70674750Y-16703428D01*
X69874750Y-16703428D01*
X69750268Y-16715688D01*
X69630570Y-16751998D01*
X69520256Y-16810963D01*
X69423565Y-16890315D01*
X69344213Y-16987006D01*
X69285248Y-17097320D01*
X69267157Y-17156958D01*
X69245078Y-17175078D01*
X69221216Y-17204154D01*
X68887000Y-17538370D01*
X68887000Y-17419498D01*
X68728252Y-17419498D01*
X68887000Y-17260750D01*
X68887000Y-16783958D01*
X68862597Y-16661277D01*
X68814730Y-16545715D01*
X68746980Y-16444320D01*
X68782537Y-16400994D01*
X68841502Y-16290680D01*
X68877812Y-16170982D01*
X68890072Y-16046500D01*
X68890072Y-15938500D01*
X69370890Y-15938500D01*
X69423565Y-16002685D01*
X69520256Y-16082037D01*
X69630570Y-16141002D01*
X69750268Y-16177312D01*
X69874750Y-16189572D01*
X70674750Y-16189572D01*
X70799232Y-16177312D01*
X70918930Y-16141002D01*
X71027322Y-16083064D01*
X71073965Y-16114230D01*
X71189527Y-16162097D01*
X71312208Y-16186500D01*
X71489000Y-16186500D01*
X71647750Y-16027750D01*
X71647750Y-15303500D01*
X71901750Y-15303500D01*
X71901750Y-16027750D01*
X72060500Y-16186500D01*
X72237292Y-16186500D01*
X72359973Y-16162097D01*
X72475535Y-16114230D01*
X72579539Y-16044737D01*
X72667987Y-15956289D01*
X72737480Y-15852285D01*
X72785347Y-15736723D01*
X72809750Y-15614042D01*
X72809750Y-15462250D01*
X72651000Y-15303500D01*
X71901750Y-15303500D01*
X71647750Y-15303500D01*
X71627750Y-15303500D01*
X71627750Y-15049500D01*
X71647750Y-15049500D01*
X71647750Y-14325250D01*
X71901750Y-14325250D01*
X71901750Y-15049500D01*
X72651000Y-15049500D01*
X72809750Y-14890750D01*
X72809750Y-14738958D01*
X72785347Y-14616277D01*
X72737480Y-14500715D01*
X72667987Y-14396711D01*
X72579539Y-14308263D01*
X72475535Y-14238770D01*
X72359973Y-14190903D01*
X72237292Y-14166500D01*
X72060500Y-14166500D01*
X71901750Y-14325250D01*
X71647750Y-14325250D01*
X71489000Y-14166500D01*
X71312208Y-14166500D01*
X71189527Y-14190903D01*
X71073965Y-14238770D01*
X71027322Y-14269936D01*
X70918930Y-14211998D01*
X70799232Y-14175688D01*
X70674750Y-14163428D01*
X69874750Y-14163428D01*
X69750268Y-14175688D01*
X69630570Y-14211998D01*
X69520256Y-14270963D01*
X69423565Y-14350315D01*
X69370890Y-14414500D01*
X68845197Y-14414500D01*
X68841502Y-14402320D01*
X68782537Y-14292006D01*
X68703185Y-14195315D01*
X68606494Y-14115963D01*
X68496180Y-14056998D01*
X68376482Y-14020688D01*
X68252000Y-14008428D01*
X68045059Y-14008428D01*
X67621283Y-13584653D01*
X67597422Y-13555578D01*
X67481392Y-13460355D01*
X67349015Y-13389598D01*
X67205378Y-13346026D01*
X67093426Y-13335000D01*
X67093423Y-13335000D01*
X67056000Y-13331314D01*
X67018577Y-13335000D01*
X65061422Y-13335000D01*
X65023999Y-13331314D01*
X64986576Y-13335000D01*
X64986574Y-13335000D01*
X64874622Y-13346026D01*
X64730985Y-13389598D01*
X64598608Y-13460355D01*
X64482578Y-13555578D01*
X64458721Y-13584648D01*
X62491870Y-15551500D01*
X62353544Y-15551500D01*
X62300494Y-15507963D01*
X62190180Y-15448998D01*
X62070482Y-15412688D01*
X62039500Y-15409637D01*
X62039500Y-13713072D01*
X62356250Y-13713072D01*
X62480732Y-13700812D01*
X62600430Y-13664502D01*
X62682282Y-13620750D01*
X62730053Y-13620750D01*
X62755465Y-13637730D01*
X62871027Y-13685597D01*
X62993708Y-13710000D01*
X63170500Y-13710000D01*
X63259750Y-13620750D01*
X63652750Y-13620750D01*
X63742000Y-13710000D01*
X63918792Y-13710000D01*
X64041473Y-13685597D01*
X64157035Y-13637730D01*
X64182447Y-13620750D01*
X64293750Y-13620750D01*
X64318526Y-13618310D01*
X64342351Y-13611083D01*
X64364307Y-13599347D01*
X64383553Y-13583553D01*
X64399347Y-13564307D01*
X64411083Y-13542351D01*
X64418310Y-13518526D01*
X64420750Y-13493750D01*
X64420750Y-13371512D01*
X64466847Y-13260223D01*
X64491250Y-13137542D01*
X64491250Y-12985750D01*
X64420750Y-12915250D01*
X64420750Y-12484750D01*
X64491250Y-12414250D01*
X64491250Y-12262458D01*
X64466847Y-12139777D01*
X64422722Y-12033250D01*
X74485500Y-12033250D01*
X74485500Y-18436025D01*
X74485500Y-18436025D01*
G37*
X74485500Y-18436025D02*
X74340327Y-18517159D01*
X73856549Y-18928887D01*
X73461956Y-19426740D01*
X73171578Y-19991755D01*
X73022830Y-20510500D01*
X68151197Y-20510500D01*
X68125785Y-20493520D01*
X68010223Y-20445653D01*
X67887542Y-20421250D01*
X67710750Y-20421250D01*
X67621500Y-20510500D01*
X67228500Y-20510500D01*
X67139250Y-20421250D01*
X66962458Y-20421250D01*
X66839777Y-20445653D01*
X66724215Y-20493520D01*
X66698802Y-20510500D01*
X66684903Y-20510500D01*
X66614699Y-20379157D01*
X66537391Y-20284958D01*
X66511541Y-20253459D01*
X66480041Y-20227608D01*
X65066173Y-18813741D01*
X65107820Y-18836002D01*
X65227518Y-18872312D01*
X65352000Y-18884572D01*
X65685942Y-18884572D01*
X66109720Y-19308351D01*
X66133578Y-19337422D01*
X66249608Y-19432645D01*
X66381985Y-19503402D01*
X66525622Y-19546974D01*
X66637574Y-19558000D01*
X66637576Y-19558000D01*
X66674999Y-19561686D01*
X66712422Y-19558000D01*
X68669577Y-19558000D01*
X68707000Y-19561686D01*
X68744423Y-19558000D01*
X68744426Y-19558000D01*
X68856378Y-19546974D01*
X69000015Y-19503402D01*
X69132392Y-19432645D01*
X69248422Y-19337422D01*
X69272284Y-19308346D01*
X69853182Y-18727448D01*
X69874750Y-18729572D01*
X70674750Y-18729572D01*
X70799232Y-18717312D01*
X70918930Y-18681002D01*
X71027322Y-18623064D01*
X71073965Y-18654230D01*
X71189527Y-18702097D01*
X71312208Y-18726500D01*
X71489000Y-18726500D01*
X71647750Y-18567750D01*
X71647750Y-17843500D01*
X71901750Y-17843500D01*
X71901750Y-18567750D01*
X72060500Y-18726500D01*
X72237292Y-18726500D01*
X72359973Y-18702097D01*
X72475535Y-18654230D01*
X72579539Y-18584737D01*
X72667987Y-18496289D01*
X72737480Y-18392285D01*
X72785347Y-18276723D01*
X72809750Y-18154042D01*
X72809750Y-18002250D01*
X72651000Y-17843500D01*
X71901750Y-17843500D01*
X71647750Y-17843500D01*
X71627750Y-17843500D01*
X71627750Y-17589500D01*
X71647750Y-17589500D01*
X71647750Y-16865250D01*
X71901750Y-16865250D01*
X71901750Y-17589500D01*
X72651000Y-17589500D01*
X72809750Y-17430750D01*
X72809750Y-17278958D01*
X72785347Y-17156277D01*
X72737480Y-17040715D01*
X72667987Y-16936711D01*
X72579539Y-16848263D01*
X72475535Y-16778770D01*
X72359973Y-16730903D01*
X72237292Y-16706500D01*
X72060500Y-16706500D01*
X71901750Y-16865250D01*
X71647750Y-16865250D01*
X71489000Y-16706500D01*
X71312208Y-16706500D01*
X71189527Y-16730903D01*
X71073965Y-16778770D01*
X71027322Y-16809936D01*
X70918930Y-16751998D01*
X70799232Y-16715688D01*
X70674750Y-16703428D01*
X69874750Y-16703428D01*
X69750268Y-16715688D01*
X69630570Y-16751998D01*
X69520256Y-16810963D01*
X69423565Y-16890315D01*
X69344213Y-16987006D01*
X69285248Y-17097320D01*
X69267157Y-17156958D01*
X69245078Y-17175078D01*
X69221216Y-17204154D01*
X68887000Y-17538370D01*
X68887000Y-17419498D01*
X68728252Y-17419498D01*
X68887000Y-17260750D01*
X68887000Y-16783958D01*
X68862597Y-16661277D01*
X68814730Y-16545715D01*
X68746980Y-16444320D01*
X68782537Y-16400994D01*
X68841502Y-16290680D01*
X68877812Y-16170982D01*
X68890072Y-16046500D01*
X68890072Y-15938500D01*
X69370890Y-15938500D01*
X69423565Y-16002685D01*
X69520256Y-16082037D01*
X69630570Y-16141002D01*
X69750268Y-16177312D01*
X69874750Y-16189572D01*
X70674750Y-16189572D01*
X70799232Y-16177312D01*
X70918930Y-16141002D01*
X71027322Y-16083064D01*
X71073965Y-16114230D01*
X71189527Y-16162097D01*
X71312208Y-16186500D01*
X71489000Y-16186500D01*
X71647750Y-16027750D01*
X71647750Y-15303500D01*
X71901750Y-15303500D01*
X71901750Y-16027750D01*
X72060500Y-16186500D01*
X72237292Y-16186500D01*
X72359973Y-16162097D01*
X72475535Y-16114230D01*
X72579539Y-16044737D01*
X72667987Y-15956289D01*
X72737480Y-15852285D01*
X72785347Y-15736723D01*
X72809750Y-15614042D01*
X72809750Y-15462250D01*
X72651000Y-15303500D01*
X71901750Y-15303500D01*
X71647750Y-15303500D01*
X71627750Y-15303500D01*
X71627750Y-15049500D01*
X71647750Y-15049500D01*
X71647750Y-14325250D01*
X71901750Y-14325250D01*
X71901750Y-15049500D01*
X72651000Y-15049500D01*
X72809750Y-14890750D01*
X72809750Y-14738958D01*
X72785347Y-14616277D01*
X72737480Y-14500715D01*
X72667987Y-14396711D01*
X72579539Y-14308263D01*
X72475535Y-14238770D01*
X72359973Y-14190903D01*
X72237292Y-14166500D01*
X72060500Y-14166500D01*
X71901750Y-14325250D01*
X71647750Y-14325250D01*
X71489000Y-14166500D01*
X71312208Y-14166500D01*
X71189527Y-14190903D01*
X71073965Y-14238770D01*
X71027322Y-14269936D01*
X70918930Y-14211998D01*
X70799232Y-14175688D01*
X70674750Y-14163428D01*
X69874750Y-14163428D01*
X69750268Y-14175688D01*
X69630570Y-14211998D01*
X69520256Y-14270963D01*
X69423565Y-14350315D01*
X69370890Y-14414500D01*
X68845197Y-14414500D01*
X68841502Y-14402320D01*
X68782537Y-14292006D01*
X68703185Y-14195315D01*
X68606494Y-14115963D01*
X68496180Y-14056998D01*
X68376482Y-14020688D01*
X68252000Y-14008428D01*
X68045059Y-14008428D01*
X67621283Y-13584653D01*
X67597422Y-13555578D01*
X67481392Y-13460355D01*
X67349015Y-13389598D01*
X67205378Y-13346026D01*
X67093426Y-13335000D01*
X67093423Y-13335000D01*
X67056000Y-13331314D01*
X67018577Y-13335000D01*
X65061422Y-13335000D01*
X65023999Y-13331314D01*
X64986576Y-13335000D01*
X64986574Y-13335000D01*
X64874622Y-13346026D01*
X64730985Y-13389598D01*
X64598608Y-13460355D01*
X64482578Y-13555578D01*
X64458721Y-13584648D01*
X62491870Y-15551500D01*
X62353544Y-15551500D01*
X62300494Y-15507963D01*
X62190180Y-15448998D01*
X62070482Y-15412688D01*
X62039500Y-15409637D01*
X62039500Y-13713072D01*
X62356250Y-13713072D01*
X62480732Y-13700812D01*
X62600430Y-13664502D01*
X62682282Y-13620750D01*
X62730053Y-13620750D01*
X62755465Y-13637730D01*
X62871027Y-13685597D01*
X62993708Y-13710000D01*
X63170500Y-13710000D01*
X63259750Y-13620750D01*
X63652750Y-13620750D01*
X63742000Y-13710000D01*
X63918792Y-13710000D01*
X64041473Y-13685597D01*
X64157035Y-13637730D01*
X64182447Y-13620750D01*
X64293750Y-13620750D01*
X64318526Y-13618310D01*
X64342351Y-13611083D01*
X64364307Y-13599347D01*
X64383553Y-13583553D01*
X64399347Y-13564307D01*
X64411083Y-13542351D01*
X64418310Y-13518526D01*
X64420750Y-13493750D01*
X64420750Y-13371512D01*
X64466847Y-13260223D01*
X64491250Y-13137542D01*
X64491250Y-12985750D01*
X64420750Y-12915250D01*
X64420750Y-12484750D01*
X64491250Y-12414250D01*
X64491250Y-12262458D01*
X64466847Y-12139777D01*
X64422722Y-12033250D01*
X74485500Y-12033250D01*
X74485500Y-18436025D01*
G36*
X64713928Y-18246500D02*
X64726188Y-18370982D01*
X64762498Y-18490680D01*
X64784759Y-18532327D01*
X64410898Y-18158466D01*
X64385041Y-18126959D01*
X64259342Y-18023801D01*
X64115934Y-17947147D01*
X63960326Y-17899944D01*
X63839053Y-17888000D01*
X63839050Y-17888000D01*
X63798500Y-17884006D01*
X63757950Y-17888000D01*
X62581000Y-17888000D01*
X62581000Y-17875500D01*
X64713928Y-17875500D01*
X64713928Y-18246500D01*
X64713928Y-18246500D01*
G37*
X64713928Y-18246500D02*
X64726188Y-18370982D01*
X64762498Y-18490680D01*
X64784759Y-18532327D01*
X64410898Y-18158466D01*
X64385041Y-18126959D01*
X64259342Y-18023801D01*
X64115934Y-17947147D01*
X63960326Y-17899944D01*
X63839053Y-17888000D01*
X63839050Y-17888000D01*
X63798500Y-17884006D01*
X63757950Y-17888000D01*
X62581000Y-17888000D01*
X62581000Y-17875500D01*
X64713928Y-17875500D01*
X64713928Y-18246500D01*
G36*
X67779000Y-17419500D02*
X67799000Y-17419500D01*
X67799000Y-17673500D01*
X67779000Y-17673500D01*
X67779000Y-17693500D01*
X67525000Y-17693500D01*
X67525000Y-17673500D01*
X67505000Y-17673500D01*
X67505000Y-17419500D01*
X67525000Y-17419500D01*
X67525000Y-17399500D01*
X67779000Y-17399500D01*
X67779000Y-17419500D01*
X67779000Y-17419500D01*
G37*
X67779000Y-17419500D02*
X67799000Y-17419500D01*
X67799000Y-17673500D01*
X67779000Y-17673500D01*
X67779000Y-17693500D01*
X67525000Y-17693500D01*
X67525000Y-17673500D01*
X67505000Y-17673500D01*
X67505000Y-17419500D01*
X67525000Y-17419500D01*
X67525000Y-17399500D01*
X67779000Y-17399500D01*
X67779000Y-17419500D01*
G36*
X68740060Y-17685310D02*
X68728252Y-17673502D01*
X68751868Y-17673502D01*
X68740060Y-17685310D01*
X68740060Y-17685310D01*
G37*
X68740060Y-17685310D02*
X68728252Y-17673502D01*
X68751868Y-17673502D01*
X68740060Y-17685310D01*
G36*
X66079000Y-15219500D02*
X66099000Y-15219500D01*
X66099000Y-15473500D01*
X66079000Y-15473500D01*
X66079000Y-15493500D01*
X65825000Y-15493500D01*
X65825000Y-15473500D01*
X65805000Y-15473500D01*
X65805000Y-15219500D01*
X65825000Y-15219500D01*
X65825000Y-15199500D01*
X66079000Y-15199500D01*
X66079000Y-15219500D01*
X66079000Y-15219500D01*
G37*
X66079000Y-15219500D02*
X66099000Y-15219500D01*
X66099000Y-15473500D01*
X66079000Y-15473500D01*
X66079000Y-15493500D01*
X65825000Y-15493500D01*
X65825000Y-15473500D01*
X65805000Y-15473500D01*
X65805000Y-15219500D01*
X65825000Y-15219500D01*
X65825000Y-15199500D01*
X66079000Y-15199500D01*
X66079000Y-15219500D01*
M02*
