%TF.GenerationSoftware,KiCad,Pcbnew,(5.0.0)*%
%TF.CreationDate,2019-02-04T23:42:10-08:00*%
%TF.ProjectId,Voyager20,566F796167657232302E6B696361645F,rev?*%
%TF.SameCoordinates,Original*%
%TF.FileFunction,Soldermask,Top*%
%TF.FilePolarity,Negative*%
%FSLAX46Y46*%
G04 Gerber Fmt 4.6, Leading zero omitted, Abs format (unit mm)*
G04 Created by KiCad (PCBNEW (5.0.0)) date 02/04/19 23:42:10*
%MOMM*%
%LPD*%
G01*
G04 APERTURE LIST*
%ADD10C,2.150000*%
%ADD11C,4.387800*%
%ADD12C,3.448000*%
%ADD13O,2.100000X2.100000*%
%ADD14R,2.100000X2.100000*%
%ADD15C,3.600000*%
G04 APERTURE END LIST*
D10*
X90805000Y-96837500D03*
X80645000Y-96837500D03*
D11*
X85725000Y-96837500D03*
D10*
X52705000Y-39687500D03*
X42545000Y-39687500D03*
D11*
X47625000Y-39687500D03*
D10*
X71755000Y-39687500D03*
X61595000Y-39687500D03*
D11*
X66675000Y-39687500D03*
X85725000Y-39687500D03*
D10*
X80645000Y-39687500D03*
X90805000Y-39687500D03*
D11*
X104775000Y-39687500D03*
D10*
X99695000Y-39687500D03*
X109855000Y-39687500D03*
X52705000Y-58737500D03*
X42545000Y-58737500D03*
D11*
X47625000Y-58737500D03*
X66675000Y-58737500D03*
D10*
X61595000Y-58737500D03*
X71755000Y-58737500D03*
D11*
X85725000Y-58737500D03*
D10*
X80645000Y-58737500D03*
X90805000Y-58737500D03*
D11*
X104775000Y-58737500D03*
D10*
X99695000Y-58737500D03*
X109855000Y-58737500D03*
X52705000Y-77787500D03*
X42545000Y-77787500D03*
D11*
X47625000Y-77787500D03*
X66675000Y-77787500D03*
D10*
X61595000Y-77787500D03*
X71755000Y-77787500D03*
X90805000Y-77787500D03*
X80645000Y-77787500D03*
D11*
X85725000Y-77787500D03*
D10*
X109855000Y-77787500D03*
X99695000Y-77787500D03*
D11*
X104775000Y-77787500D03*
D10*
X52705000Y-96837500D03*
X42545000Y-96837500D03*
D11*
X47625000Y-96837500D03*
X66675000Y-96837500D03*
D10*
X61595000Y-96837500D03*
X71755000Y-96837500D03*
D11*
X104775000Y-96837500D03*
D10*
X99695000Y-96837500D03*
X109855000Y-96837500D03*
D11*
X47625000Y-115887500D03*
D10*
X42545000Y-115887500D03*
X52705000Y-115887500D03*
X71755000Y-115887500D03*
X61595000Y-115887500D03*
D11*
X66675000Y-115887500D03*
X85725000Y-115887500D03*
D10*
X80645000Y-115887500D03*
X90805000Y-115887500D03*
X109855000Y-115887500D03*
X99695000Y-115887500D03*
D11*
X104775000Y-115887500D03*
X104775000Y-68262500D03*
D10*
X104775000Y-73342500D03*
X104775000Y-63182500D03*
D12*
X111760000Y-80200500D03*
X111760000Y-56324500D03*
D11*
X96520000Y-80200500D03*
X96520000Y-56324500D03*
X96520000Y-94424500D03*
X96520000Y-118300500D03*
D12*
X111760000Y-94424500D03*
X111760000Y-118300500D03*
D10*
X104775000Y-101282500D03*
X104775000Y-111442500D03*
D11*
X104775000Y-106362500D03*
X57150000Y-115887500D03*
D10*
X52070000Y-115887500D03*
X62230000Y-115887500D03*
D12*
X45212000Y-122872500D03*
X69088000Y-122872500D03*
D11*
X45212000Y-107632500D03*
X69088000Y-107632500D03*
X47625000Y-1981200D03*
D10*
X42545000Y-1981200D03*
X52705000Y-1981200D03*
X71755000Y-1981200D03*
X61595000Y-1981200D03*
D11*
X66675000Y-1981200D03*
X85725000Y-1981200D03*
D10*
X80645000Y-1981200D03*
X90805000Y-1981200D03*
X109855000Y-1981200D03*
X99695000Y-1981200D03*
D11*
X104775000Y-1981200D03*
D13*
X60801250Y13493750D03*
X58261250Y13493750D03*
X55721250Y13493750D03*
D14*
X53181250Y13493750D03*
D15*
X71437500Y15081250D03*
X80962500Y15081250D03*
M02*
