M48
;DRILL file {KiCad (5.0.0)} date 02/05/19 01:12:52
;FORMAT={-:-/ absolute / inch / decimal}
FMAT,2
INCH,TZ
T1C0.0157
T2C0.0394
T3C0.0409
T4C0.0579
T5C0.1575
%
G90
G05
M72
T1
X1.485Y-0.585
X1.52Y-0.585
X1.535Y-1.19
X1.535Y-1.225
X1.84Y-0.61
X1.94Y-1.135
X1.985Y-1.045
X1.995Y-1.14
X2.085Y-0.165
X2.085Y-0.235
X2.12Y-0.515
X2.125Y-2.05
X2.1975Y-0.7475
X2.23Y-0.35
X2.28Y-1.295
X2.355Y-1.1
X2.38Y-0.24
X2.395Y-0.19
X2.43Y-0.775
X2.44Y-0.2874
X2.44Y-0.49
X2.455Y-1.065
X2.46Y-1.29
X2.475Y-0.49
X2.485Y-1.03
X2.53Y-0.58
X2.565Y-0.58
X2.59Y-0.935
X2.605Y-0.835
X2.64Y-0.835
X2.675Y-0.835
X2.85Y-4.135
X2.855Y-3.91
X2.88Y-2.01
X2.88Y-3.11
X2.935Y-3.86
X2.935Y-4.615
X3.Y-1.665
X3.Y-2.415
X3.Y-3.165
X3.Y-3.93
X3.Y-4.665
X3.015Y-3.65
X3.06Y-4.615
X3.155Y-4.035
X3.195Y-0.41
X3.485Y-0.955
X3.775Y-0.45
X3.81Y-0.2
X3.81Y-1.64
X3.825Y-2.55
X3.94Y-1.865
X3.985Y-0.42
T2
X2.8438Y-0.5312
X2.9438Y-0.5312
X3.0437Y-0.5312
X3.1437Y-0.5312
T3
X1.825Y-4.7625
X1.925Y-4.7625
X1.825Y-3.2625
X1.925Y-3.2625
X1.825Y-2.5125
X1.925Y-2.5125
X1.825Y-0.278
X1.925Y-0.278
X3.325Y-3.2625
X3.425Y-3.2625
X4.075Y-3.2625
X4.175Y-3.2625
X4.075Y-0.278
X4.175Y-0.278
X2.575Y-4.7625
X2.675Y-4.7625
X4.325Y-4.1375
X4.325Y-4.2375
X4.075Y-4.7625
X4.175Y-4.7625
X4.075Y-2.5125
X4.175Y-2.5125
X4.325Y-2.6375
X4.325Y-2.7375
X4.075Y-4.0125
X4.175Y-4.0125
X3.325Y-4.7625
X3.425Y-4.7625
X2.575Y-2.5125
X2.675Y-2.5125
X3.325Y-1.7625
X3.425Y-1.7625
X2.575Y-0.278
X2.675Y-0.278
X3.325Y-0.278
X3.425Y-0.278
X2.575Y-3.2625
X2.675Y-3.2625
X2.575Y-4.0125
X2.675Y-4.0125
X2.575Y-1.7625
X2.675Y-1.7625
X4.075Y-1.7625
X4.175Y-1.7625
X2.2Y-4.7625
X2.3Y-4.7625
X1.825Y-4.0125
X1.925Y-4.0125
X1.825Y-1.7625
X1.925Y-1.7625
X3.325Y-4.0125
X3.425Y-4.0125
X3.325Y-2.5125
X3.425Y-2.5125
T4
X2.475Y0.022
X2.5266Y0.0795
X2.7234Y0.0992
X2.725Y0.122
X3.225Y0.022
X3.2766Y0.0795
X3.4734Y0.0992
X3.475Y0.122
X2.475Y-2.9625
X2.5266Y-2.905
X2.7234Y-2.8853
X2.725Y-2.8625
X2.475Y-3.7125
X2.5266Y-3.655
X2.7234Y-3.6353
X2.725Y-3.6125
X2.475Y-1.4625
X2.5266Y-1.405
X2.7234Y-1.3853
X2.725Y-1.3625
X3.975Y-1.4625
X4.0266Y-1.405
X4.2234Y-1.3853
X4.225Y-1.3625
X2.1Y-4.4625
X2.1516Y-4.405
X2.3484Y-4.3853
X2.35Y-4.3625
X1.725Y-3.7125
X1.7766Y-3.655
X1.9734Y-3.6353
X1.975Y-3.6125
X1.725Y-1.4625
X1.7766Y-1.405
X1.9734Y-1.3853
X1.975Y-1.3625
X3.225Y-3.7125
X3.2766Y-3.655
X3.4734Y-3.6353
X3.475Y-3.6125
X3.225Y-2.2125
X3.2766Y-2.155
X3.4734Y-2.1353
X3.475Y-2.1125
X1.725Y-4.4625
X1.7766Y-4.405
X1.9734Y-4.3853
X1.975Y-4.3625
X1.725Y-2.9625
X1.7766Y-2.905
X1.9734Y-2.8853
X1.975Y-2.8625
X1.725Y-2.2125
X1.7766Y-2.155
X1.9734Y-2.1353
X1.975Y-2.1125
X1.725Y0.022
X1.7766Y0.0795
X1.9734Y0.0992
X1.975Y0.122
X3.225Y-2.9625
X3.2766Y-2.905
X3.4734Y-2.8853
X3.475Y-2.8625
X3.975Y-2.9625
X4.0266Y-2.905
X4.2234Y-2.8853
X4.225Y-2.8625
X3.975Y0.022
X4.0266Y0.0795
X4.2234Y0.0992
X4.225Y0.122
X2.475Y-4.4625
X2.5266Y-4.405
X2.7234Y-4.3853
X2.725Y-4.3625
X3.925Y-4.0875
X3.9478Y-4.0891
X3.9675Y-4.2859
X4.025Y-4.3375
X3.975Y-4.4625
X4.0266Y-4.405
X4.2234Y-4.3853
X4.225Y-4.3625
X3.975Y-2.2125
X4.0266Y-2.155
X4.2234Y-2.1353
X4.225Y-2.1125
X3.925Y-2.5875
X3.9478Y-2.5891
X3.9675Y-2.7859
X4.025Y-2.8375
X3.975Y-3.7125
X4.0266Y-3.655
X4.2234Y-3.6353
X4.225Y-3.6125
X3.225Y-4.4625
X3.2766Y-4.405
X3.4734Y-4.3853
X3.475Y-4.3625
X2.475Y-2.2125
X2.5266Y-2.155
X2.7234Y-2.1353
X2.725Y-2.1125
X3.225Y-1.4625
X3.2766Y-1.405
X3.4734Y-1.3853
X3.475Y-1.3625
T5
X3.1562Y0.5312
X2.8438Y0.5312
T0
M30
