M48
;DRILL file {KiCad (5.0.0)} date 01/26/19 19:51:49
;FORMAT={-:-/ absolute / inch / decimal}
FMAT,2
INCH,TZ
T1C0.0157
T2C0.0236
T3C0.0409
T4C0.0579
%
G90
G05
M72
T1
X1.84Y-1.88
X1.98Y-2.405
X2.Y-1.48
X2.03Y-1.68
X2.06Y-1.63
X2.065Y-2.035
X2.145Y-2.61
X2.145Y-4.65
X2.15Y-1.705
X2.185Y-1.705
X2.185Y-3.2
X2.185Y-3.67
X2.195Y-1.425
X2.195Y-1.46
X2.25Y-2.065
X2.305Y-1.425
X2.305Y-1.46
X2.325Y-2.625
X2.325Y-2.75
X2.335Y-1.56
X2.355Y-1.71
X2.36Y-1.655
X2.47Y-1.88
X2.54Y-4.215
X2.58Y-1.86
X2.755Y-2.605
X2.755Y-2.655
X2.775Y-2.555
X2.82Y-2.755
X2.825Y-3.13
X2.825Y-3.165
X2.825Y-3.225
X2.825Y-3.74
X2.86Y-2.605
X2.935Y-3.5
X2.935Y-3.95
X3.005Y-3.32
X3.005Y-4.555
X3.1Y-2.86
X3.175Y-2.545
X3.175Y-3.165
X3.215Y-2.755
X3.22Y-1.645
X3.22Y-2.03
X3.22Y-3.485
X3.29Y-3.4
X3.29Y-4.18
X3.545Y-4.155
X3.625Y-2.07
X3.625Y-3.99
X3.655Y-2.605
X3.655Y-3.5665
X3.69Y-3.275
X3.695Y-1.89
X3.7Y-3.93
X3.74Y-1.695
X3.75Y-2.79
X3.935Y-3.365
T3
X4.325Y-2.6375
X4.325Y-2.7375
X2.575Y-4.0125
X2.675Y-4.0125
X3.325Y-3.2625
X3.425Y-3.2625
X1.825Y-1.7625
X1.925Y-1.7625
X3.325Y-4.7625
X3.425Y-4.7625
X4.075Y-4.7625
X4.175Y-4.7625
X2.575Y-3.2625
X2.675Y-3.2625
X3.325Y-1.7625
X3.425Y-1.7625
X1.825Y-4.0125
X1.925Y-4.0125
X1.825Y-3.2625
X1.925Y-3.2625
X2.575Y-4.7625
X2.675Y-4.7625
X2.2Y-4.7625
X2.3Y-4.7625
X4.075Y-2.5125
X4.175Y-2.5125
X4.075Y-1.7625
X4.175Y-1.7625
X3.325Y-4.0125
X3.425Y-4.0125
X3.325Y-2.5125
X3.425Y-2.5125
X2.575Y-1.7625
X2.675Y-1.7625
X1.825Y-4.7625
X1.925Y-4.7625
X4.075Y-3.2625
X4.175Y-3.2625
X2.575Y-2.5125
X2.675Y-2.5125
X4.325Y-4.1375
X4.325Y-4.2375
X4.075Y-4.0125
X4.175Y-4.0125
X1.825Y-2.5125
X1.925Y-2.5125
T4
X2.475Y-4.4625
X2.5266Y-4.405
X2.7234Y-4.3853
X2.725Y-4.3625
X2.1Y-4.4625
X2.1516Y-4.405
X2.3484Y-4.3853
X2.35Y-4.3625
X3.975Y-2.2125
X4.0266Y-2.155
X4.2234Y-2.1353
X4.225Y-2.1125
X3.975Y-1.4625
X4.0266Y-1.405
X4.2234Y-1.3853
X4.225Y-1.3625
X3.225Y-3.7125
X3.2766Y-3.655
X3.4734Y-3.6353
X3.475Y-3.6125
X3.225Y-2.2125
X3.2766Y-2.155
X3.4734Y-2.1353
X3.475Y-2.1125
X2.475Y-1.4625
X2.5266Y-1.405
X2.7234Y-1.3853
X2.725Y-1.3625
X1.725Y-4.4625
X1.7766Y-4.405
X1.9734Y-4.3853
X1.975Y-4.3625
X3.975Y-2.9625
X4.0266Y-2.905
X4.2234Y-2.8853
X4.225Y-2.8625
X2.475Y-2.2125
X2.5266Y-2.155
X2.7234Y-2.1353
X2.725Y-2.1125
X3.925Y-4.0875
X3.9478Y-4.0891
X3.9675Y-4.2859
X4.025Y-4.3375
X3.975Y-3.7125
X4.0266Y-3.655
X4.2234Y-3.6353
X4.225Y-3.6125
X1.725Y-2.2125
X1.7766Y-2.155
X1.9734Y-2.1353
X1.975Y-2.1125
X3.925Y-2.5875
X3.9478Y-2.5891
X3.9675Y-2.7859
X4.025Y-2.8375
X2.475Y-3.7125
X2.5266Y-3.655
X2.7234Y-3.6353
X2.725Y-3.6125
X3.225Y-2.9625
X3.2766Y-2.905
X3.4734Y-2.8853
X3.475Y-2.8625
X1.725Y-1.4625
X1.7766Y-1.405
X1.9734Y-1.3853
X1.975Y-1.3625
X3.225Y-4.4625
X3.2766Y-4.405
X3.4734Y-4.3853
X3.475Y-4.3625
X3.975Y-4.4625
X4.0266Y-4.405
X4.2234Y-4.3853
X4.225Y-4.3625
X2.475Y-2.9625
X2.5266Y-2.905
X2.7234Y-2.8853
X2.725Y-2.8625
X3.225Y-1.4625
X3.2766Y-1.405
X3.4734Y-1.3853
X3.475Y-1.3625
X1.725Y-3.7125
X1.7766Y-3.655
X1.9734Y-3.6353
X1.975Y-3.6125
X1.725Y-2.9625
X1.7766Y-2.905
X1.9734Y-2.8853
X1.975Y-2.8625
T2
X2.0799Y-1.1531G85X2.0799Y-1.1767
G05
X2.0799Y-1.3078G85X2.0799Y-1.3511
G05
X2.4201Y-1.1531G85X2.4201Y-1.1767
G05
X2.4201Y-1.3078G85X2.4201Y-1.3511
G05
T0
M30
