%TF.GenerationSoftware,KiCad,Pcbnew,(5.0.0)*%
%TF.CreationDate,2019-01-26T20:31:16-08:00*%
%TF.ProjectId,Voyager20,566F796167657232302E6B696361645F,rev?*%
%TF.SameCoordinates,Original*%
%TF.FileFunction,Copper,L1,Top,Signal*%
%TF.FilePolarity,Positive*%
%FSLAX46Y46*%
G04 Gerber Fmt 4.6, Leading zero omitted, Abs format (unit mm)*
G04 Created by KiCad (PCBNEW (5.0.0)) date 01/26/19 20:31:16*
%MOMM*%
%LPD*%
G01*
G04 APERTURE LIST*
%ADD10R,1.905000X1.905000*%
%ADD11C,1.905000*%
%ADD12C,2.250000*%
%ADD13C,2.250000*%
%ADD14O,1.000000X1.600000*%
%ADD15O,1.000000X2.100000*%
%ADD16C,0.600000*%
%ADD17C,0.381000*%
%ADD18C,0.254000*%
G04 APERTURE END LIST*
D10*
X48895000Y-44767500D03*
D11*
X46355000Y-44767500D03*
D12*
X45125000Y-35687500D03*
X44470001Y-36417500D03*
D13*
X43815000Y-37147500D02*
X45125002Y-35687500D01*
D12*
X50165000Y-34607500D03*
X50145000Y-34897500D03*
D13*
X50125000Y-35187500D02*
X50165000Y-34607500D01*
D10*
X67945000Y-44767500D03*
D11*
X65405000Y-44767500D03*
D12*
X64175000Y-35687500D03*
X63520001Y-36417500D03*
D13*
X62865000Y-37147500D02*
X64175002Y-35687500D01*
D12*
X69215000Y-34607500D03*
X69195000Y-34897500D03*
D13*
X69175000Y-35187500D02*
X69215000Y-34607500D01*
D12*
X88245000Y-34897500D03*
D13*
X88225000Y-35187500D02*
X88265000Y-34607500D01*
D12*
X88265000Y-34607500D03*
X82570001Y-36417500D03*
D13*
X81915000Y-37147500D02*
X83225002Y-35687500D01*
D12*
X83225000Y-35687500D03*
D11*
X84455000Y-44767500D03*
D10*
X86995000Y-44767500D03*
D12*
X107295000Y-34897500D03*
D13*
X107275000Y-35187500D02*
X107315000Y-34607500D01*
D12*
X107315000Y-34607500D03*
X101620001Y-36417500D03*
D13*
X100965000Y-37147500D02*
X102275002Y-35687500D01*
D12*
X102275000Y-35687500D03*
D11*
X103505000Y-44767500D03*
D10*
X106045000Y-44767500D03*
X48895000Y-63817500D03*
D11*
X46355000Y-63817500D03*
D12*
X45125000Y-54737500D03*
X44470001Y-55467500D03*
D13*
X43815000Y-56197500D02*
X45125002Y-54737500D01*
D12*
X50165000Y-53657500D03*
X50145000Y-53947500D03*
D13*
X50125000Y-54237500D02*
X50165000Y-53657500D01*
D12*
X69195000Y-53947500D03*
D13*
X69175000Y-54237500D02*
X69215000Y-53657500D01*
D12*
X69215000Y-53657500D03*
X63520001Y-55467500D03*
D13*
X62865000Y-56197500D02*
X64175002Y-54737500D01*
D12*
X64175000Y-54737500D03*
D11*
X65405000Y-63817500D03*
D10*
X67945000Y-63817500D03*
D12*
X88245000Y-53947500D03*
D13*
X88225000Y-54237500D02*
X88265000Y-53657500D01*
D12*
X88265000Y-53657500D03*
X82570001Y-55467500D03*
D13*
X81915000Y-56197500D02*
X83225002Y-54737500D01*
D12*
X83225000Y-54737500D03*
D11*
X84455000Y-63817500D03*
D10*
X86995000Y-63817500D03*
D12*
X107295000Y-53947500D03*
D13*
X107275000Y-54237500D02*
X107315000Y-53657500D01*
D12*
X107315000Y-53657500D03*
X101620001Y-55467500D03*
D13*
X100965000Y-56197500D02*
X102275002Y-54737500D01*
D12*
X102275000Y-54737500D03*
D11*
X103505000Y-63817500D03*
D10*
X106045000Y-63817500D03*
X48895000Y-82867500D03*
D11*
X46355000Y-82867500D03*
D12*
X45125000Y-73787500D03*
X44470001Y-74517500D03*
D13*
X43815000Y-75247500D02*
X45125002Y-73787500D01*
D12*
X50165000Y-72707500D03*
X50145000Y-72997500D03*
D13*
X50125000Y-73287500D02*
X50165000Y-72707500D01*
D12*
X69195000Y-72997500D03*
D13*
X69175000Y-73287500D02*
X69215000Y-72707500D01*
D12*
X69215000Y-72707500D03*
X63520001Y-74517500D03*
D13*
X62865000Y-75247500D02*
X64175002Y-73787500D01*
D12*
X64175000Y-73787500D03*
D11*
X65405000Y-82867500D03*
D10*
X67945000Y-82867500D03*
X86995000Y-82867500D03*
D11*
X84455000Y-82867500D03*
D12*
X83225000Y-73787500D03*
X82570001Y-74517500D03*
D13*
X81915000Y-75247500D02*
X83225002Y-73787500D01*
D12*
X88265000Y-72707500D03*
X88245000Y-72997500D03*
D13*
X88225000Y-73287500D02*
X88265000Y-72707500D01*
D10*
X106045000Y-82867500D03*
D11*
X103505000Y-82867500D03*
D12*
X102275000Y-73787500D03*
X101620001Y-74517500D03*
D13*
X100965000Y-75247500D02*
X102275002Y-73787500D01*
D12*
X107315000Y-72707500D03*
X107295000Y-72997500D03*
D13*
X107275000Y-73287500D02*
X107315000Y-72707500D01*
D10*
X48895000Y-101917500D03*
D11*
X46355000Y-101917500D03*
D12*
X45125000Y-92837500D03*
X44470001Y-93567500D03*
D13*
X43815000Y-94297500D02*
X45125002Y-92837500D01*
D12*
X50165000Y-91757500D03*
X50145000Y-92047500D03*
D13*
X50125000Y-92337500D02*
X50165000Y-91757500D01*
D12*
X69195000Y-92047500D03*
D13*
X69175000Y-92337500D02*
X69215000Y-91757500D01*
D12*
X69215000Y-91757500D03*
X63520001Y-93567500D03*
D13*
X62865000Y-94297500D02*
X64175002Y-92837500D01*
D12*
X64175000Y-92837500D03*
D11*
X65405000Y-101917500D03*
D10*
X67945000Y-101917500D03*
X86995000Y-101917500D03*
D11*
X84455000Y-101917500D03*
D12*
X83225000Y-92837500D03*
X82570001Y-93567500D03*
D13*
X81915000Y-94297500D02*
X83225002Y-92837500D01*
D12*
X88265000Y-91757500D03*
X88245000Y-92047500D03*
D13*
X88225000Y-92337500D02*
X88265000Y-91757500D01*
D12*
X107295000Y-92047500D03*
D13*
X107275000Y-92337500D02*
X107315000Y-91757500D01*
D12*
X107315000Y-91757500D03*
X101620001Y-93567500D03*
D13*
X100965000Y-94297500D02*
X102275002Y-92837500D01*
D12*
X102275000Y-92837500D03*
D11*
X103505000Y-101917500D03*
D10*
X106045000Y-101917500D03*
D12*
X50145000Y-111097500D03*
D13*
X50125000Y-111387500D02*
X50165000Y-110807500D01*
D12*
X50165000Y-110807500D03*
X44470001Y-112617500D03*
D13*
X43815000Y-113347500D02*
X45125002Y-111887500D01*
D12*
X45125000Y-111887500D03*
D11*
X46355000Y-120967500D03*
D10*
X48895000Y-120967500D03*
X67945000Y-120967500D03*
D11*
X65405000Y-120967500D03*
D12*
X64175000Y-111887500D03*
X63520001Y-112617500D03*
D13*
X62865000Y-113347500D02*
X64175002Y-111887500D01*
D12*
X69215000Y-110807500D03*
X69195000Y-111097500D03*
D13*
X69175000Y-111387500D02*
X69215000Y-110807500D01*
D12*
X88245000Y-111097500D03*
D13*
X88225000Y-111387500D02*
X88265000Y-110807500D01*
D12*
X88265000Y-110807500D03*
X82570001Y-112617500D03*
D13*
X81915000Y-113347500D02*
X83225002Y-111887500D01*
D12*
X83225000Y-111887500D03*
D11*
X84455000Y-120967500D03*
D10*
X86995000Y-120967500D03*
X106045000Y-120967500D03*
D11*
X103505000Y-120967500D03*
D12*
X102275000Y-111887500D03*
X101620001Y-112617500D03*
D13*
X100965000Y-113347500D02*
X102275002Y-111887500D01*
D12*
X107315000Y-110807500D03*
X107295000Y-111097500D03*
D13*
X107275000Y-111387500D02*
X107315000Y-110807500D01*
D14*
X61470000Y-5775000D03*
X52830000Y-5775000D03*
D15*
X61470000Y-9955000D03*
X52830000Y-9955000D03*
D12*
X99985000Y-65742500D03*
D13*
X100275000Y-65762500D02*
X99695000Y-65722500D01*
D12*
X99695000Y-65722500D03*
X101505000Y-71417499D03*
D13*
X102235000Y-72072500D02*
X100775000Y-70762498D01*
D12*
X100775000Y-70762500D03*
D11*
X109855000Y-69532500D03*
D10*
X109855000Y-66992500D03*
X109855000Y-105092500D03*
D11*
X109855000Y-107632500D03*
D12*
X100775000Y-108862500D03*
X101505000Y-109517499D03*
D13*
X102235000Y-110172500D02*
X100775000Y-108862498D01*
D12*
X99695000Y-103822500D03*
X99985000Y-103842500D03*
D13*
X100275000Y-103862500D02*
X99695000Y-103822500D01*
D12*
X59670000Y-111097500D03*
D13*
X59650000Y-111387500D02*
X59690000Y-110807500D01*
D12*
X59690000Y-110807500D03*
X53995001Y-112617500D03*
D13*
X53340000Y-113347500D02*
X54650002Y-111887500D01*
D12*
X54650000Y-111887500D03*
D11*
X55880000Y-120967500D03*
D10*
X58420000Y-120967500D03*
D12*
X50145000Y-11085000D03*
D13*
X50125000Y-11375000D02*
X50165000Y-10795000D01*
D12*
X50165000Y-10795000D03*
X44470001Y-12605000D03*
D13*
X43815000Y-13335000D02*
X45125002Y-11875000D01*
D12*
X45125000Y-11875000D03*
D11*
X46355000Y-20955000D03*
D10*
X48895000Y-20955000D03*
X67945000Y-20955000D03*
D11*
X65405000Y-20955000D03*
D12*
X64175000Y-11875000D03*
X63520001Y-12605000D03*
D13*
X62865000Y-13335000D02*
X64175002Y-11875000D01*
D12*
X69215000Y-10795000D03*
X69195000Y-11085000D03*
D13*
X69175000Y-11375000D02*
X69215000Y-10795000D01*
D12*
X88245000Y-11085000D03*
D13*
X88225000Y-11375000D02*
X88265000Y-10795000D01*
D12*
X88265000Y-10795000D03*
X82570001Y-12605000D03*
D13*
X81915000Y-13335000D02*
X83225002Y-11875000D01*
D12*
X83225000Y-11875000D03*
D11*
X84455000Y-20955000D03*
D10*
X86995000Y-20955000D03*
X106045000Y-20955000D03*
D11*
X103505000Y-20955000D03*
D12*
X102275000Y-11875000D03*
X101620001Y-12605000D03*
D13*
X100965000Y-13335000D02*
X102275002Y-11875000D01*
D12*
X107315000Y-10795000D03*
X107295000Y-11085000D03*
D13*
X107275000Y-11375000D02*
X107315000Y-10795000D01*
D16*
X69977000Y-67437000D03*
X71628000Y-69977000D03*
X90043000Y-105537000D03*
X92075000Y-101346000D03*
X99949000Y-85471000D03*
X70485000Y-64897000D03*
X81661000Y-69977000D03*
X93726000Y-83185000D03*
X52197000Y-17399000D03*
X96393000Y-28321000D03*
X96393000Y-24003000D03*
X72644000Y-66167000D03*
X54483000Y-66294000D03*
X64516000Y-107061000D03*
X83566000Y-106172000D03*
X83566000Y-86360000D03*
X80645000Y-64643000D03*
X69977000Y-66167000D03*
X64516000Y-31115000D03*
X102616000Y-29337000D03*
X45466000Y-28956000D03*
X52451000Y-30353000D03*
X81788000Y-51562000D03*
X81788000Y-41783000D03*
X71755000Y-80391000D03*
X80645000Y-80137000D03*
X71755000Y-81915000D03*
X71755000Y-94996000D03*
X58547000Y-13335000D03*
X55880000Y-13335000D03*
X95250000Y-70866000D03*
X81788000Y-88519000D03*
X71755000Y-79502000D03*
X78740000Y-72644000D03*
X65532000Y-47244000D03*
X59690000Y-45847000D03*
X59690000Y-26162000D03*
X93980000Y-99822000D03*
X92837000Y-32766000D03*
X55245000Y-19177000D03*
X59055000Y-66675000D03*
X56134000Y-19177000D03*
X59055000Y-69850000D03*
X58547000Y-12446000D03*
X60198000Y-17018000D03*
X55880000Y-12446000D03*
X52197000Y-14097000D03*
X76327000Y-84328000D03*
X76327000Y-115697000D03*
X55499000Y-81280000D03*
X50292000Y-61087000D03*
X55499000Y-93218000D03*
X54483000Y-118110000D03*
X74549000Y-100330000D03*
X74549000Y-88900000D03*
X92837000Y-66167000D03*
X46736000Y-47752000D03*
X92837000Y-90589090D03*
X94996000Y-43053000D03*
X52705000Y-19177000D03*
X63373000Y-19304000D03*
X98298000Y-20447000D03*
X98298000Y-38735000D03*
X52705000Y-18161000D03*
X63373000Y-18161000D03*
X89154000Y-67310000D03*
X91694000Y-18034000D03*
D17*
X69977000Y-68326000D02*
X71628000Y-69977000D01*
X69977000Y-67437000D02*
X69977000Y-68326000D01*
X90043000Y-105537000D02*
X90043000Y-104394000D01*
X90043000Y-104394000D02*
X90043000Y-103378000D01*
X90043000Y-103378000D02*
X92075000Y-101346000D01*
X99949000Y-85471000D02*
X99949000Y-80010000D01*
X99949000Y-80010000D02*
X93599000Y-73660000D01*
X71628000Y-69977000D02*
X81661000Y-69977000D01*
X93599000Y-73660000D02*
X93599000Y-83058000D01*
X93599000Y-83058000D02*
X93726000Y-83185000D01*
X92583000Y-101346000D02*
X92075000Y-101346000D01*
X93726000Y-83185000D02*
X93599000Y-83312000D01*
X93599000Y-83312000D02*
X93599000Y-98298000D01*
X93599000Y-98298000D02*
X94742000Y-99441000D01*
X94742000Y-99441000D02*
X94742000Y-100203000D01*
X94742000Y-100203000D02*
X93599000Y-101346000D01*
X93599000Y-101346000D02*
X92583000Y-101346000D01*
X52197000Y-17399000D02*
X51943000Y-17399000D01*
X51943000Y-17399000D02*
X51054000Y-16510000D01*
X51054000Y-16510000D02*
X51054000Y-13589000D01*
X52830000Y-11813000D02*
X52830000Y-9955000D01*
X51054000Y-13589000D02*
X52830000Y-11813000D01*
X96393000Y-24003000D02*
X96393000Y-28321000D01*
X70104000Y-64516000D02*
X70485000Y-64897000D01*
X70104000Y-57658000D02*
X70104000Y-64516000D01*
X67437000Y-54991000D02*
X70104000Y-57658000D01*
X67437000Y-48514000D02*
X67437000Y-54991000D01*
X69596000Y-46355000D02*
X67437000Y-48514000D01*
X69596000Y-37465000D02*
X69596000Y-46355000D01*
X64819000Y-9955000D02*
X69596000Y-14732000D01*
X69596000Y-14732000D02*
X69596000Y-32385000D01*
X61470000Y-9955000D02*
X64819000Y-9955000D01*
X69596000Y-32385000D02*
X70993000Y-33782000D01*
X70993000Y-33782000D02*
X70993000Y-36068000D01*
X70993000Y-36068000D02*
X69596000Y-37465000D01*
X96393000Y-43053000D02*
X96393000Y-28321000D01*
X93599000Y-45847000D02*
X96393000Y-43053000D01*
X93599000Y-73660000D02*
X93599000Y-45847000D01*
X45085000Y-46037500D02*
X46355000Y-44767500D01*
X46355000Y-63817500D02*
X45085000Y-62547500D01*
X45085000Y-62547500D02*
X45085000Y-57404000D01*
X45085000Y-57404000D02*
X46863000Y-55626000D01*
X46863000Y-53975000D02*
X45085000Y-52197000D01*
X46863000Y-55626000D02*
X46863000Y-53975000D01*
X45085000Y-52197000D02*
X45085000Y-46037500D01*
X46355000Y-63881000D02*
X46355000Y-63817500D01*
X45085000Y-65151000D02*
X46355000Y-63881000D01*
X46355000Y-82867500D02*
X45085000Y-81597500D01*
X45085000Y-76454000D02*
X46863000Y-74676000D01*
X46863000Y-74676000D02*
X46863000Y-73025000D01*
X45085000Y-81597500D02*
X45085000Y-76454000D01*
X46863000Y-73025000D02*
X45085000Y-71247000D01*
X45085000Y-71247000D02*
X45085000Y-65151000D01*
X46355000Y-82867500D02*
X46291500Y-82867500D01*
X46291500Y-82867500D02*
X45085000Y-84074000D01*
X45085000Y-84074000D02*
X45085000Y-90170000D01*
X45085000Y-90170000D02*
X46863000Y-91948000D01*
X46863000Y-91948000D02*
X46863000Y-93726000D01*
X46863000Y-93726000D02*
X45085000Y-95504000D01*
X45085000Y-100647500D02*
X46355000Y-101917500D01*
X45085000Y-95504000D02*
X45085000Y-100647500D01*
X46355000Y-104013000D02*
X46355000Y-101917500D01*
X48641000Y-106299000D02*
X46355000Y-104013000D01*
X46863000Y-112776000D02*
X46863000Y-110998000D01*
X45085000Y-114554000D02*
X46863000Y-112776000D01*
X46863000Y-110998000D02*
X48641000Y-109220000D01*
X48641000Y-109220000D02*
X48641000Y-106299000D01*
X65405000Y-63817500D02*
X65341500Y-63817500D01*
X65341500Y-63817500D02*
X64135000Y-62611000D01*
X64135000Y-62611000D02*
X64135000Y-57404000D01*
X64135000Y-57404000D02*
X65913000Y-55626000D01*
X65913000Y-55626000D02*
X65913000Y-53975000D01*
X65913000Y-53975000D02*
X64135000Y-52197000D01*
X64135000Y-46037500D02*
X65405000Y-44767500D01*
X64135000Y-52197000D02*
X64135000Y-46037500D01*
X103505000Y-101917500D02*
X103441500Y-101917500D01*
X103505000Y-101917500D02*
X103505000Y-101854000D01*
X103505000Y-101854000D02*
X102235000Y-100584000D01*
X102235000Y-100584000D02*
X102235000Y-95631000D01*
X102235000Y-95631000D02*
X104013000Y-93853000D01*
X104013000Y-93853000D02*
X104013000Y-92075000D01*
X104013000Y-92075000D02*
X102235000Y-90297000D01*
X102235000Y-84137500D02*
X103505000Y-82867500D01*
X102235000Y-90297000D02*
X102235000Y-84137500D01*
X103505000Y-82296000D02*
X103505000Y-82867500D01*
X104521000Y-81280000D02*
X103505000Y-82296000D01*
X105029000Y-81280000D02*
X104521000Y-81280000D01*
X109918500Y-69532500D02*
X110744000Y-70358000D01*
X109855000Y-69532500D02*
X109918500Y-69532500D01*
X110744000Y-70358000D02*
X110744000Y-72390000D01*
X110744000Y-72390000D02*
X107823000Y-75311000D01*
X107823000Y-75311000D02*
X107823000Y-78486000D01*
X107823000Y-78486000D02*
X105029000Y-81280000D01*
X103505000Y-44767500D02*
X103505000Y-44831000D01*
X103505000Y-44831000D02*
X102235000Y-46101000D01*
X102235000Y-46101000D02*
X102235000Y-52070000D01*
X102235000Y-52070000D02*
X104013000Y-53848000D01*
X104013000Y-53848000D02*
X104013000Y-55753000D01*
X104013000Y-55753000D02*
X102235000Y-57531000D01*
X102235000Y-62547500D02*
X103505000Y-63817500D01*
X102235000Y-57531000D02*
X102235000Y-62547500D01*
X103505000Y-63817500D02*
X103505000Y-64389000D01*
X103505000Y-64389000D02*
X104775000Y-65659000D01*
X104775000Y-65659000D02*
X105918000Y-65659000D01*
X105918000Y-65659000D02*
X108204000Y-67945000D01*
X108204000Y-67945000D02*
X108204000Y-68453000D01*
X109283500Y-69532500D02*
X109855000Y-69532500D01*
X108204000Y-68453000D02*
X109283500Y-69532500D01*
X77724000Y-68072000D02*
X79756000Y-66040000D01*
X74549000Y-68072000D02*
X77724000Y-68072000D01*
X72644000Y-66167000D02*
X74549000Y-68072000D01*
X103505000Y-101917500D02*
X103505000Y-102362000D01*
X103505000Y-102362000D02*
X104775000Y-103632000D01*
X109283500Y-107632500D02*
X109855000Y-107632500D01*
X104775000Y-103632000D02*
X105918000Y-103632000D01*
X105918000Y-103632000D02*
X108204000Y-105918000D01*
X108204000Y-105918000D02*
X108204000Y-106553000D01*
X108204000Y-106553000D02*
X109283500Y-107632500D01*
X109855000Y-107632500D02*
X109855000Y-108077000D01*
X103505000Y-120967500D02*
X103505000Y-120523000D01*
X103505000Y-120523000D02*
X104648000Y-119380000D01*
X104648000Y-119380000D02*
X105029000Y-119380000D01*
X105029000Y-119380000D02*
X107823000Y-116586000D01*
X107823000Y-116586000D02*
X107823000Y-114935000D01*
X107823000Y-114935000D02*
X110744000Y-112014000D01*
X110744000Y-108521500D02*
X109855000Y-107632500D01*
X110744000Y-112014000D02*
X110744000Y-108521500D01*
X55880000Y-120967500D02*
X55880000Y-120904000D01*
X65405000Y-120967500D02*
X65405000Y-120904000D01*
X65405000Y-120904000D02*
X64135000Y-119634000D01*
X64135000Y-119634000D02*
X64135000Y-114554000D01*
X64135000Y-114554000D02*
X65913000Y-112776000D01*
X65913000Y-112776000D02*
X65913000Y-111125000D01*
X65913000Y-111125000D02*
X64135000Y-109347000D01*
X64135000Y-103187500D02*
X65405000Y-101917500D01*
X65405000Y-101917500D02*
X65341500Y-101917500D01*
X65341500Y-101917500D02*
X64135000Y-100711000D01*
X64135000Y-100711000D02*
X64135000Y-95504000D01*
X64135000Y-95504000D02*
X65913000Y-93726000D01*
X65913000Y-93726000D02*
X65913000Y-92075000D01*
X65913000Y-92075000D02*
X64135000Y-90297000D01*
X64135000Y-84137500D02*
X65405000Y-82867500D01*
X64135000Y-90297000D02*
X64135000Y-84137500D01*
X84455000Y-44767500D02*
X84455000Y-44831000D01*
X84455000Y-44831000D02*
X83185000Y-46101000D01*
X83185000Y-46101000D02*
X83185000Y-52197000D01*
X83185000Y-52197000D02*
X84963000Y-53975000D01*
X84963000Y-53975000D02*
X84963000Y-55626000D01*
X84963000Y-55626000D02*
X83185000Y-57404000D01*
X83185000Y-62547500D02*
X84455000Y-63817500D01*
X83185000Y-57404000D02*
X83185000Y-62547500D01*
X84455000Y-82867500D02*
X84391500Y-82867500D01*
X84391500Y-82867500D02*
X83185000Y-84074000D01*
X83185000Y-90297000D02*
X84963000Y-92075000D01*
X84963000Y-92075000D02*
X84963000Y-93726000D01*
X84963000Y-93726000D02*
X83185000Y-95504000D01*
X83185000Y-100647500D02*
X84455000Y-101917500D01*
X83185000Y-95504000D02*
X83185000Y-100647500D01*
X84455000Y-101917500D02*
X84391500Y-101917500D01*
X84391500Y-101917500D02*
X83185000Y-103124000D01*
X83185000Y-109347000D02*
X84963000Y-111125000D01*
X84963000Y-111125000D02*
X84963000Y-112903000D01*
X84963000Y-112903000D02*
X83185000Y-114681000D01*
X83185000Y-119697500D02*
X84455000Y-120967500D01*
X83185000Y-114681000D02*
X83185000Y-119697500D01*
X52451000Y-56769000D02*
X52451000Y-55245000D01*
X51181000Y-58039000D02*
X52451000Y-56769000D01*
X51181000Y-63373000D02*
X51181000Y-58039000D01*
X52451000Y-55245000D02*
X52451000Y-51689000D01*
X54483000Y-66294000D02*
X54102000Y-66294000D01*
X54102000Y-66294000D02*
X51181000Y-63373000D01*
X65405000Y-63817500D02*
X65405000Y-63881000D01*
X65405000Y-63881000D02*
X64135000Y-65151000D01*
X64135000Y-65151000D02*
X64135000Y-71247000D01*
X64135000Y-71247000D02*
X65913000Y-73025000D01*
X65913000Y-73025000D02*
X65913000Y-74676000D01*
X65913000Y-74676000D02*
X64135000Y-76454000D01*
X64135000Y-81597500D02*
X65405000Y-82867500D01*
X64135000Y-76454000D02*
X64135000Y-81597500D01*
X64516000Y-107061000D02*
X64135000Y-107061000D01*
X64135000Y-109347000D02*
X64135000Y-107061000D01*
X64135000Y-107061000D02*
X64135000Y-103187500D01*
X83566000Y-106172000D02*
X83185000Y-106172000D01*
X83185000Y-103124000D02*
X83185000Y-106172000D01*
X83185000Y-106172000D02*
X83185000Y-109347000D01*
X55880000Y-119761000D02*
X55880000Y-120967500D01*
X56261000Y-119380000D02*
X55880000Y-119761000D01*
X64135000Y-119634000D02*
X63881000Y-119380000D01*
X63881000Y-119380000D02*
X56261000Y-119380000D01*
X55499000Y-119380000D02*
X55880000Y-119761000D01*
X46736000Y-119380000D02*
X55499000Y-119380000D01*
X46355000Y-119761000D02*
X46736000Y-119380000D01*
X46355000Y-120967500D02*
X46355000Y-119761000D01*
X45085000Y-118491000D02*
X46355000Y-119761000D01*
X45085000Y-117602000D02*
X45085000Y-118491000D01*
X45085000Y-117602000D02*
X45085000Y-114554000D01*
X83566000Y-86360000D02*
X83185000Y-86360000D01*
X83185000Y-84074000D02*
X83185000Y-86360000D01*
X83185000Y-86360000D02*
X83185000Y-90297000D01*
X80645000Y-65151000D02*
X79756000Y-66040000D01*
X80645000Y-64643000D02*
X80645000Y-65151000D01*
X70231000Y-66167000D02*
X69977000Y-66167000D01*
X72644000Y-66167000D02*
X70231000Y-66167000D01*
X83185000Y-81597500D02*
X84455000Y-82867500D01*
X83185000Y-76454000D02*
X83185000Y-81597500D01*
X84391500Y-63817500D02*
X83185000Y-65024000D01*
X83185000Y-65024000D02*
X83185000Y-71247000D01*
X83185000Y-71247000D02*
X84963000Y-73025000D01*
X84455000Y-63817500D02*
X84391500Y-63817500D01*
X84963000Y-73025000D02*
X84963000Y-74676000D01*
X84963000Y-74676000D02*
X83185000Y-76454000D01*
X103505000Y-44767500D02*
X103505000Y-44704000D01*
X103505000Y-44704000D02*
X102235000Y-43434000D01*
X102235000Y-43434000D02*
X102235000Y-38481000D01*
X102235000Y-38481000D02*
X104013000Y-36703000D01*
X104013000Y-36703000D02*
X104013000Y-34925000D01*
X104013000Y-34925000D02*
X102235000Y-33147000D01*
X102235000Y-22225000D02*
X103505000Y-20955000D01*
X84455000Y-44767500D02*
X84391500Y-44767500D01*
X84391500Y-44767500D02*
X83185000Y-43561000D01*
X83185000Y-43561000D02*
X83185000Y-38354000D01*
X83185000Y-38354000D02*
X84963000Y-36576000D01*
X84963000Y-36576000D02*
X84963000Y-34925000D01*
X84963000Y-34925000D02*
X83185000Y-33147000D01*
X83185000Y-22225000D02*
X84455000Y-20955000D01*
X83185000Y-33147000D02*
X83185000Y-22225000D01*
X65405000Y-20955000D02*
X64135000Y-22225000D01*
X64135000Y-43497500D02*
X65405000Y-44767500D01*
X65913000Y-34925000D02*
X65913000Y-36703000D01*
X65913000Y-36703000D02*
X64135000Y-38481000D01*
X64135000Y-33147000D02*
X65913000Y-34925000D01*
X64135000Y-38481000D02*
X64135000Y-43497500D01*
X45085000Y-22225000D02*
X46355000Y-20955000D01*
X45085000Y-43497500D02*
X45085000Y-38354000D01*
X46355000Y-44767500D02*
X45085000Y-43497500D01*
X45085000Y-38354000D02*
X46863000Y-36576000D01*
X46863000Y-36576000D02*
X46863000Y-34925000D01*
X46863000Y-34925000D02*
X45085000Y-33147000D01*
X64516000Y-31115000D02*
X64135000Y-31115000D01*
X64135000Y-22225000D02*
X64135000Y-31115000D01*
X64135000Y-31115000D02*
X64135000Y-33147000D01*
X102616000Y-29337000D02*
X102235000Y-29337000D01*
X102235000Y-33147000D02*
X102235000Y-29337000D01*
X102235000Y-29337000D02*
X102235000Y-22225000D01*
X45466000Y-28956000D02*
X45085000Y-28956000D01*
X45085000Y-33147000D02*
X45085000Y-28956000D01*
X45085000Y-28956000D02*
X45085000Y-22225000D01*
X52451000Y-51689000D02*
X52451000Y-41656000D01*
X52451000Y-41656000D02*
X51181000Y-40386000D01*
X51181000Y-40386000D02*
X51181000Y-38989000D01*
X51181000Y-38989000D02*
X52451000Y-37719000D01*
X52451000Y-37719000D02*
X52451000Y-30353000D01*
D18*
X82042000Y-51308000D02*
X81788000Y-51562000D01*
X82042000Y-42037000D02*
X82042000Y-51308000D01*
X81788000Y-41783000D02*
X82042000Y-42037000D01*
X80391000Y-80391000D02*
X80137000Y-80391000D01*
X80645000Y-80137000D02*
X80391000Y-80391000D01*
X80137000Y-80391000D02*
X71755000Y-80391000D01*
X71755000Y-81915000D02*
X71755000Y-94996000D01*
D17*
X58547000Y-13335000D02*
X56515000Y-13335000D01*
X56515000Y-13335000D02*
X55880000Y-13335000D01*
D18*
X43815000Y-113347500D02*
X43815000Y-113157000D01*
X43815000Y-113157000D02*
X48006000Y-108966000D01*
X48006000Y-108966000D02*
X48006000Y-106553000D01*
X48006000Y-106553000D02*
X44450000Y-102997000D01*
X44450000Y-94932500D02*
X43815000Y-94297500D01*
X44450000Y-102997000D02*
X44450000Y-94932500D01*
X44450000Y-93662500D02*
X43815000Y-94297500D01*
X43815000Y-75247500D02*
X44450000Y-75882500D01*
X44450000Y-75882500D02*
X44450000Y-93662500D01*
X44450000Y-74612500D02*
X43815000Y-75247500D01*
X43815000Y-56197500D02*
X44450000Y-56832500D01*
X44450000Y-56832500D02*
X44450000Y-74612500D01*
X44450000Y-37782500D02*
X43815000Y-37147500D01*
X44450000Y-53213000D02*
X44450000Y-37782500D01*
X44450000Y-54062500D02*
X45125000Y-54737500D01*
X44450000Y-53213000D02*
X44450000Y-54062500D01*
X44450000Y-13970000D02*
X43815000Y-13335000D01*
X44450000Y-36512500D02*
X44450000Y-13970000D01*
X43815000Y-37147500D02*
X44450000Y-36512500D01*
X63500000Y-55562500D02*
X62865000Y-56197500D01*
X62865000Y-37147500D02*
X63500000Y-37782500D01*
X63500000Y-37782500D02*
X63500000Y-55562500D01*
X63500000Y-74612500D02*
X62865000Y-75247500D01*
X63500000Y-58293000D02*
X63500000Y-74612500D01*
X62865000Y-56197500D02*
X62865000Y-57658000D01*
X62865000Y-57658000D02*
X63500000Y-58293000D01*
X63500000Y-93662500D02*
X62865000Y-94297500D01*
X62865000Y-75247500D02*
X63500000Y-75882500D01*
X63500000Y-75882500D02*
X63500000Y-93662500D01*
X63500000Y-94932500D02*
X62865000Y-94297500D01*
X63500000Y-112712500D02*
X63500000Y-94932500D01*
X62865000Y-113347500D02*
X63500000Y-112712500D01*
X63500000Y-36512500D02*
X62865000Y-37147500D01*
X63500000Y-20574000D02*
X63500000Y-36512500D01*
X64135000Y-19939000D02*
X63500000Y-20574000D01*
X64135000Y-14605000D02*
X64135000Y-19939000D01*
X62865000Y-13335000D02*
X64135000Y-14605000D01*
X82550000Y-55562500D02*
X81915000Y-56197500D01*
X82550000Y-37782500D02*
X82550000Y-55562500D01*
X81915000Y-37147500D02*
X82550000Y-37782500D01*
X82550000Y-112712500D02*
X81915000Y-113347500D01*
X81915000Y-94297500D02*
X82550000Y-94932500D01*
X82550000Y-94932500D02*
X82550000Y-112712500D01*
X82550000Y-93662500D02*
X81915000Y-94297500D01*
X81915000Y-75247500D02*
X82550000Y-75882500D01*
X82550000Y-75882500D02*
X82550000Y-93662500D01*
X82550000Y-74612500D02*
X81915000Y-75247500D01*
X81915000Y-56197500D02*
X82550000Y-56832500D01*
X82550000Y-56832500D02*
X82550000Y-74612500D01*
X82550000Y-13970000D02*
X81915000Y-13335000D01*
X81915000Y-37147500D02*
X82550000Y-36512500D01*
X82550000Y-36512500D02*
X82550000Y-13970000D01*
X102235000Y-73977500D02*
X100965000Y-75247500D01*
X102235000Y-72072500D02*
X102235000Y-73977500D01*
X101600000Y-93662500D02*
X100965000Y-94297500D01*
X100965000Y-75247500D02*
X101600000Y-75882500D01*
X101600000Y-75882500D02*
X101600000Y-93662500D01*
X101600000Y-94932500D02*
X100965000Y-94297500D01*
X101600000Y-108037500D02*
X101600000Y-105029000D01*
X100775000Y-108862500D02*
X101600000Y-108037500D01*
X101600000Y-105029000D02*
X101981000Y-104648000D01*
X101981000Y-104648000D02*
X101981000Y-103124000D01*
X101981000Y-103124000D02*
X101600000Y-102743000D01*
X101600000Y-102743000D02*
X101600000Y-94932500D01*
X101600000Y-56832500D02*
X100965000Y-56197500D01*
X100775000Y-70762500D02*
X101600000Y-69937500D01*
X101600000Y-69937500D02*
X101600000Y-66929000D01*
X101600000Y-66929000D02*
X101981000Y-66548000D01*
X101981000Y-66548000D02*
X101981000Y-65024000D01*
X101981000Y-65024000D02*
X101600000Y-64643000D01*
X101600000Y-64643000D02*
X101600000Y-56832500D01*
X101600000Y-37782500D02*
X100965000Y-37147500D01*
X100965000Y-56197500D02*
X101600000Y-55562500D01*
X101600000Y-55562500D02*
X101600000Y-37782500D01*
X102235000Y-72072500D02*
X96456500Y-72072500D01*
X96456500Y-72072500D02*
X95250000Y-70866000D01*
X101600000Y-13970000D02*
X100965000Y-13335000D01*
X101600000Y-36512500D02*
X101600000Y-13970000D01*
X100965000Y-37147500D02*
X101600000Y-36512500D01*
X74422000Y-81153000D02*
X81788000Y-88519000D01*
X71374000Y-81153000D02*
X74422000Y-81153000D01*
X71755000Y-79502000D02*
X71628000Y-79502000D01*
X70993000Y-80137000D02*
X70993000Y-80772000D01*
X71628000Y-79502000D02*
X70993000Y-80137000D01*
X70993000Y-80772000D02*
X71374000Y-81153000D01*
X78232000Y-72644000D02*
X78740000Y-72644000D01*
X72136000Y-72644000D02*
X78232000Y-72644000D01*
X68961000Y-69469000D02*
X72136000Y-72644000D01*
X66802000Y-48514000D02*
X66802000Y-55245000D01*
X65532000Y-47244000D02*
X66802000Y-48514000D01*
X69469000Y-57912000D02*
X69469000Y-65532000D01*
X66802000Y-55245000D02*
X69469000Y-57912000D01*
X69469000Y-65532000D02*
X68961000Y-66040000D01*
X68961000Y-66040000D02*
X68961000Y-69469000D01*
X59690000Y-45847000D02*
X59690000Y-45466000D01*
X59690000Y-45466000D02*
X59690000Y-26162000D01*
X92202000Y-90932000D02*
X92202000Y-52705000D01*
X92964000Y-91694000D02*
X92202000Y-90932000D01*
X92964000Y-98806000D02*
X92964000Y-91694000D01*
X93980000Y-99822000D02*
X92964000Y-98806000D01*
X92202000Y-52705000D02*
X92202000Y-33401000D01*
X92202000Y-33401000D02*
X92837000Y-32766000D01*
X59055000Y-66675000D02*
X59055000Y-66421000D01*
X55245000Y-62611000D02*
X55245000Y-61722000D01*
X59055000Y-66421000D02*
X55245000Y-62611000D01*
X55245000Y-19177000D02*
X55245000Y-61722000D01*
X55753000Y-19558000D02*
X56134000Y-19177000D01*
X55753000Y-62357000D02*
X55753000Y-19558000D01*
X59817000Y-66421000D02*
X55753000Y-62357000D01*
X59055000Y-69850000D02*
X59817000Y-69088000D01*
X59817000Y-69088000D02*
X59817000Y-66421000D01*
X58547000Y-12446000D02*
X60198000Y-14097000D01*
X60198000Y-14097000D02*
X60198000Y-16510000D01*
X60198000Y-17018000D02*
X60198000Y-16510000D01*
X55880000Y-12446000D02*
X53848000Y-12446000D01*
X53848000Y-12446000D02*
X52197000Y-14097000D01*
X76327000Y-84328000D02*
X76327000Y-85217000D01*
X76327000Y-85217000D02*
X76327000Y-115697000D01*
D17*
X55499000Y-81280000D02*
X55499000Y-77089000D01*
X55499000Y-77089000D02*
X55499000Y-68707000D01*
X55499000Y-68707000D02*
X50546000Y-63754000D01*
X50546000Y-63754000D02*
X50546000Y-61341000D01*
X50546000Y-61341000D02*
X50292000Y-61087000D01*
X55499000Y-81280000D02*
X55499000Y-93218000D01*
X55499000Y-93218000D02*
X55499000Y-110109000D01*
X55499000Y-110109000D02*
X56388000Y-110998000D01*
X56388000Y-110998000D02*
X56388000Y-112776000D01*
X56388000Y-112776000D02*
X54483000Y-114681000D01*
X54483000Y-114681000D02*
X54483000Y-118110000D01*
X74549000Y-100330000D02*
X74549000Y-99695000D01*
X74549000Y-99695000D02*
X74549000Y-88900000D01*
X92837000Y-66167000D02*
X92837000Y-67310000D01*
X92837000Y-67310000D02*
X92837000Y-87630000D01*
X46736000Y-47752000D02*
X45720000Y-48768000D01*
X45720000Y-48768000D02*
X45720000Y-51816000D01*
X45720000Y-51816000D02*
X47498000Y-53594000D01*
X47498000Y-53594000D02*
X47498000Y-54864000D01*
X47498000Y-54864000D02*
X50546000Y-57912000D01*
X50546000Y-60833000D02*
X50292000Y-61087000D01*
X50546000Y-57912000D02*
X50546000Y-60833000D01*
X50546000Y-60833000D02*
X50546000Y-61341000D01*
X92837000Y-87630000D02*
X92837000Y-90589090D01*
X52705000Y-19177000D02*
X52959000Y-19177000D01*
X52959000Y-19177000D02*
X54102000Y-18034000D01*
X54102000Y-18034000D02*
X58928000Y-18034000D01*
X58928000Y-18034000D02*
X59944000Y-19050000D01*
X63119000Y-19050000D02*
X63373000Y-19304000D01*
X59944000Y-19050000D02*
X63119000Y-19050000D01*
X98298000Y-20447000D02*
X98298000Y-20828000D01*
X98298000Y-20828000D02*
X98298000Y-38735000D01*
X94996000Y-43307000D02*
X92837000Y-45466000D01*
X94996000Y-43053000D02*
X94996000Y-43307000D01*
X92837000Y-66167000D02*
X92837000Y-45466000D01*
D18*
X109855000Y-67310000D02*
X109855000Y-66992500D01*
X106045000Y-82867500D02*
X106045000Y-81153000D01*
X106045000Y-81153000D02*
X108458000Y-78740000D01*
X108458000Y-78740000D02*
X108458000Y-75565000D01*
X108458000Y-75565000D02*
X111379000Y-72644000D01*
X111379000Y-72644000D02*
X111379000Y-68834000D01*
X111379000Y-68834000D02*
X109855000Y-67310000D01*
X109855000Y-105156000D02*
X109855000Y-105092500D01*
X106045000Y-120967500D02*
X106045000Y-119253000D01*
X108458000Y-116840000D02*
X108458000Y-115189000D01*
X106045000Y-119253000D02*
X108458000Y-116840000D01*
X108458000Y-115189000D02*
X111379000Y-112268000D01*
X111379000Y-112268000D02*
X111379000Y-106680000D01*
X111379000Y-106680000D02*
X109855000Y-105156000D01*
X63373000Y-18161000D02*
X63119000Y-18415000D01*
X63119000Y-18415000D02*
X60198000Y-18415000D01*
X60198000Y-18415000D02*
X59182000Y-17399000D01*
X59182000Y-17399000D02*
X53848000Y-17399000D01*
X53086000Y-18161000D02*
X52705000Y-18161000D01*
X53848000Y-17399000D02*
X53086000Y-18161000D01*
X89154000Y-67310000D02*
X89154000Y-66294000D01*
X89154000Y-66294000D02*
X89154000Y-57912000D01*
X89154000Y-57912000D02*
X91694000Y-55372000D01*
X91694000Y-55372000D02*
X91694000Y-42672000D01*
X91694000Y-42672000D02*
X89408000Y-40386000D01*
X89408000Y-40386000D02*
X89408000Y-38989000D01*
X89408000Y-38989000D02*
X91694000Y-36703000D01*
X91694000Y-36703000D02*
X91694000Y-18034000D01*
M02*
