%TF.GenerationSoftware,KiCad,Pcbnew,(5.0.0)*%
%TF.CreationDate,2019-02-05T01:12:51-08:00*%
%TF.ProjectId,Voyager20,566F796167657232302E6B696361645F,rev?*%
%TF.SameCoordinates,Original*%
%TF.FileFunction,Copper,L1,Top,Signal*%
%TF.FilePolarity,Positive*%
%FSLAX46Y46*%
G04 Gerber Fmt 4.6, Leading zero omitted, Abs format (unit mm)*
G04 Created by KiCad (PCBNEW (5.0.0)) date 02/05/19 01:12:51*
%MOMM*%
%LPD*%
G01*
G04 APERTURE LIST*
%ADD10C,0.150000*%
%ADD11C,0.500000*%
%ADD12C,0.300000*%
%ADD13C,0.010000*%
%ADD14R,1.905000X1.905000*%
%ADD15C,1.905000*%
%ADD16C,2.250000*%
%ADD17C,2.250000*%
%ADD18O,1.700000X1.700000*%
%ADD19R,1.700000X1.700000*%
%ADD20C,5.000000*%
%ADD21C,0.600000*%
%ADD22C,0.381000*%
%ADD23C,0.254000*%
G04 APERTURE END LIST*
D10*
X67247619Y-17391071D02*
X67390476Y-17438690D01*
X67438095Y-17486309D01*
X67485714Y-17581547D01*
X67485714Y-17724404D01*
X67438095Y-17819642D01*
X67390476Y-17867261D01*
X67295238Y-17914880D01*
X66914285Y-17914880D01*
X66914285Y-16914880D01*
X67247619Y-16914880D01*
X67342857Y-16962500D01*
X67390476Y-17010119D01*
X67438095Y-17105357D01*
X67438095Y-17200595D01*
X67390476Y-17295833D01*
X67342857Y-17343452D01*
X67247619Y-17391071D01*
X66914285Y-17391071D01*
X68390476Y-17914880D02*
X67914285Y-17914880D01*
X67914285Y-16914880D01*
X68676190Y-17629166D02*
X69152380Y-17629166D01*
X68580952Y-17914880D02*
X68914285Y-16914880D01*
X69247619Y-17914880D01*
X70152380Y-17819642D02*
X70104761Y-17867261D01*
X69961904Y-17914880D01*
X69866666Y-17914880D01*
X69723809Y-17867261D01*
X69628571Y-17772023D01*
X69580952Y-17676785D01*
X69533333Y-17486309D01*
X69533333Y-17343452D01*
X69580952Y-17152976D01*
X69628571Y-17057738D01*
X69723809Y-16962500D01*
X69866666Y-16914880D01*
X69961904Y-16914880D01*
X70104761Y-16962500D01*
X70152380Y-17010119D01*
X70580952Y-17914880D02*
X70580952Y-16914880D01*
X71152380Y-17914880D02*
X70723809Y-17343452D01*
X71152380Y-16914880D02*
X70580952Y-17486309D01*
X72866666Y-16962500D02*
X72771428Y-16914880D01*
X72628571Y-16914880D01*
X72485714Y-16962500D01*
X72390476Y-17057738D01*
X72342857Y-17152976D01*
X72295238Y-17343452D01*
X72295238Y-17486309D01*
X72342857Y-17676785D01*
X72390476Y-17772023D01*
X72485714Y-17867261D01*
X72628571Y-17914880D01*
X72723809Y-17914880D01*
X72866666Y-17867261D01*
X72914285Y-17819642D01*
X72914285Y-17486309D01*
X72723809Y-17486309D01*
X73914285Y-17914880D02*
X73580952Y-17438690D01*
X73342857Y-17914880D02*
X73342857Y-16914880D01*
X73723809Y-16914880D01*
X73819047Y-16962500D01*
X73866666Y-17010119D01*
X73914285Y-17105357D01*
X73914285Y-17248214D01*
X73866666Y-17343452D01*
X73819047Y-17391071D01*
X73723809Y-17438690D01*
X73342857Y-17438690D01*
X74342857Y-17391071D02*
X74676190Y-17391071D01*
X74819047Y-17914880D02*
X74342857Y-17914880D01*
X74342857Y-16914880D01*
X74819047Y-16914880D01*
X75247619Y-17391071D02*
X75580952Y-17391071D01*
X75723809Y-17914880D02*
X75247619Y-17914880D01*
X75247619Y-16914880D01*
X75723809Y-16914880D01*
X76152380Y-17914880D02*
X76152380Y-16914880D01*
X76723809Y-17914880D01*
X76723809Y-16914880D01*
X77866666Y-16914880D02*
X78104761Y-17914880D01*
X78295238Y-17200595D01*
X78485714Y-17914880D01*
X78723809Y-16914880D01*
X79104761Y-17914880D02*
X79104761Y-16914880D01*
X79104761Y-17391071D02*
X79676190Y-17391071D01*
X79676190Y-17914880D02*
X79676190Y-16914880D01*
X80152380Y-17914880D02*
X80152380Y-16914880D01*
X80485714Y-16914880D02*
X81057142Y-16914880D01*
X80771428Y-17914880D02*
X80771428Y-16914880D01*
X81390476Y-17391071D02*
X81723809Y-17391071D01*
X81866666Y-17914880D02*
X81390476Y-17914880D01*
X81390476Y-16914880D01*
X81866666Y-16914880D01*
X83628571Y-17914880D02*
X83295238Y-17438690D01*
X83057142Y-17914880D02*
X83057142Y-16914880D01*
X83438095Y-16914880D01*
X83533333Y-16962500D01*
X83580952Y-17010119D01*
X83628571Y-17105357D01*
X83628571Y-17248214D01*
X83580952Y-17343452D01*
X83533333Y-17391071D01*
X83438095Y-17438690D01*
X83057142Y-17438690D01*
X84057142Y-17391071D02*
X84390476Y-17391071D01*
X84533333Y-17914880D02*
X84057142Y-17914880D01*
X84057142Y-16914880D01*
X84533333Y-16914880D01*
X84961904Y-17914880D02*
X84961904Y-16914880D01*
X85200000Y-16914880D01*
X85342857Y-16962500D01*
X85438095Y-17057738D01*
X85485714Y-17152976D01*
X85533333Y-17343452D01*
X85533333Y-17486309D01*
X85485714Y-17676785D01*
X85438095Y-17772023D01*
X85342857Y-17867261D01*
X85200000Y-17914880D01*
X84961904Y-17914880D01*
D11*
X34966666Y15207976D02*
X36633333Y11207976D01*
X38300000Y15207976D01*
X40919047Y15207976D02*
X41871428Y15207976D01*
X42347619Y15017500D01*
X42823809Y14636547D01*
X43061904Y13874642D01*
X43061904Y12541309D01*
X42823809Y11779404D01*
X42347619Y11398452D01*
X41871428Y11207976D01*
X40919047Y11207976D01*
X40442857Y11398452D01*
X39966666Y11779404D01*
X39728571Y12541309D01*
X39728571Y13874642D01*
X39966666Y14636547D01*
X40442857Y15017500D01*
X40919047Y15207976D01*
X46157142Y13112738D02*
X46157142Y11207976D01*
X44490476Y15207976D02*
X46157142Y13112738D01*
X47823809Y15207976D01*
X49252380Y12350833D02*
X51633333Y12350833D01*
X48776190Y11207976D02*
X50442857Y15207976D01*
X52109523Y11207976D01*
X56395238Y15017500D02*
X55919047Y15207976D01*
X55204761Y15207976D01*
X54490476Y15017500D01*
X54014285Y14636547D01*
X53776190Y14255595D01*
X53538095Y13493690D01*
X53538095Y12922261D01*
X53776190Y12160357D01*
X54014285Y11779404D01*
X54490476Y11398452D01*
X55204761Y11207976D01*
X55680952Y11207976D01*
X56395238Y11398452D01*
X56633333Y11588928D01*
X56633333Y12922261D01*
X55680952Y12922261D01*
X58776190Y13303214D02*
X60442857Y13303214D01*
X61157142Y11207976D02*
X58776190Y11207976D01*
X58776190Y15207976D01*
X61157142Y15207976D01*
X66157142Y11207976D02*
X64490476Y13112738D01*
X63300000Y11207976D02*
X63300000Y15207976D01*
X65204761Y15207976D01*
X65680952Y15017500D01*
X65919047Y14827023D01*
X66157142Y14446071D01*
X66157142Y13874642D01*
X65919047Y13493690D01*
X65680952Y13303214D01*
X65204761Y13112738D01*
X63300000Y13112738D01*
D12*
X45871428Y9409821D02*
X45942857Y9481250D01*
X46085714Y9552678D01*
X46442857Y9552678D01*
X46585714Y9481250D01*
X46657142Y9409821D01*
X46728571Y9266964D01*
X46728571Y9124107D01*
X46657142Y8909821D01*
X45800000Y8052678D01*
X46728571Y8052678D01*
X47657142Y9552678D02*
X47800000Y9552678D01*
X47942857Y9481250D01*
X48014285Y9409821D01*
X48085714Y9266964D01*
X48157142Y8981250D01*
X48157142Y8624107D01*
X48085714Y8338392D01*
X48014285Y8195535D01*
X47942857Y8124107D01*
X47800000Y8052678D01*
X47657142Y8052678D01*
X47514285Y8124107D01*
X47442857Y8195535D01*
X47371428Y8338392D01*
X47300000Y8624107D01*
X47300000Y8981250D01*
X47371428Y9266964D01*
X47442857Y9409821D01*
X47514285Y9481250D01*
X47657142Y9552678D01*
X48800000Y8624107D02*
X49942857Y8624107D01*
X50514285Y9552678D02*
X51442857Y9552678D01*
X50942857Y8981250D01*
X51157142Y8981250D01*
X51300000Y8909821D01*
X51371428Y8838392D01*
X51442857Y8695535D01*
X51442857Y8338392D01*
X51371428Y8195535D01*
X51300000Y8124107D01*
X51157142Y8052678D01*
X50728571Y8052678D01*
X50585714Y8124107D01*
X50514285Y8195535D01*
X51942857Y9552678D02*
X52942857Y9552678D01*
X52300000Y8052678D01*
X53800000Y9552678D02*
X53942857Y9552678D01*
X54085714Y9481250D01*
X54157142Y9409821D01*
X54228571Y9266964D01*
X54300000Y8981250D01*
X54300000Y8624107D01*
X54228571Y8338392D01*
X54157142Y8195535D01*
X54085714Y8124107D01*
X53942857Y8052678D01*
X53800000Y8052678D01*
X53657142Y8124107D01*
X53585714Y8195535D01*
X53514285Y8338392D01*
X53442857Y8624107D01*
X53442857Y8981250D01*
X53514285Y9266964D01*
X53585714Y9409821D01*
X53657142Y9481250D01*
X53800000Y9552678D01*
X55228571Y9552678D02*
X55371428Y9552678D01*
X55514285Y9481250D01*
X55585714Y9409821D01*
X55657142Y9266964D01*
X55728571Y8981250D01*
X55728571Y8624107D01*
X55657142Y8338392D01*
X55585714Y8195535D01*
X55514285Y8124107D01*
X55371428Y8052678D01*
X55228571Y8052678D01*
X55085714Y8124107D01*
X55014285Y8195535D01*
X54942857Y8338392D01*
X54871428Y8624107D01*
X54871428Y8981250D01*
X54942857Y9266964D01*
X55014285Y9409821D01*
X55085714Y9481250D01*
X55228571Y9552678D01*
D10*
X70628571Y-15375000D02*
X70533333Y-15327380D01*
X70390476Y-15327380D01*
X70247619Y-15375000D01*
X70152380Y-15470238D01*
X70104761Y-15565476D01*
X70057142Y-15755952D01*
X70057142Y-15898809D01*
X70104761Y-16089285D01*
X70152380Y-16184523D01*
X70247619Y-16279761D01*
X70390476Y-16327380D01*
X70485714Y-16327380D01*
X70628571Y-16279761D01*
X70676190Y-16232142D01*
X70676190Y-15898809D01*
X70485714Y-15898809D01*
X71104761Y-16327380D02*
X71104761Y-15327380D01*
X71676190Y-16327380D01*
X71676190Y-15327380D01*
X72152380Y-16327380D02*
X72152380Y-15327380D01*
X72390476Y-15327380D01*
X72533333Y-15375000D01*
X72628571Y-15470238D01*
X72676190Y-15565476D01*
X72723809Y-15755952D01*
X72723809Y-15898809D01*
X72676190Y-16089285D01*
X72628571Y-16184523D01*
X72533333Y-16279761D01*
X72390476Y-16327380D01*
X72152380Y-16327380D01*
X73914285Y-16327380D02*
X73914285Y-15327380D01*
X74152380Y-15327380D01*
X74295238Y-15375000D01*
X74390476Y-15470238D01*
X74438095Y-15565476D01*
X74485714Y-15755952D01*
X74485714Y-15898809D01*
X74438095Y-16089285D01*
X74390476Y-16184523D01*
X74295238Y-16279761D01*
X74152380Y-16327380D01*
X73914285Y-16327380D01*
X74914285Y-15946428D02*
X75676190Y-15946428D01*
X75295238Y-16327380D02*
X75295238Y-15565476D01*
X76914285Y-16327380D02*
X76914285Y-15327380D01*
X77152380Y-15327380D01*
X77295238Y-15375000D01*
X77390476Y-15470238D01*
X77438095Y-15565476D01*
X77485714Y-15755952D01*
X77485714Y-15898809D01*
X77438095Y-16089285D01*
X77390476Y-16184523D01*
X77295238Y-16279761D01*
X77152380Y-16327380D01*
X76914285Y-16327380D01*
X77914285Y-15946428D02*
X78676190Y-15946428D01*
X79771428Y-15327380D02*
X80104761Y-16327380D01*
X80438095Y-15327380D01*
X81342857Y-16232142D02*
X81295238Y-16279761D01*
X81152380Y-16327380D01*
X81057142Y-16327380D01*
X80914285Y-16279761D01*
X80819047Y-16184523D01*
X80771428Y-16089285D01*
X80723809Y-15898809D01*
X80723809Y-15755952D01*
X80771428Y-15565476D01*
X80819047Y-15470238D01*
X80914285Y-15375000D01*
X81057142Y-15327380D01*
X81152380Y-15327380D01*
X81295238Y-15375000D01*
X81342857Y-15422619D01*
X82342857Y-16232142D02*
X82295238Y-16279761D01*
X82152380Y-16327380D01*
X82057142Y-16327380D01*
X81914285Y-16279761D01*
X81819047Y-16184523D01*
X81771428Y-16089285D01*
X81723809Y-15898809D01*
X81723809Y-15755952D01*
X81771428Y-15565476D01*
X81819047Y-15470238D01*
X81914285Y-15375000D01*
X82057142Y-15327380D01*
X82152380Y-15327380D01*
X82295238Y-15375000D01*
X82342857Y-15422619D01*
D13*
G36*
X113827093Y12930605D02*
X113145303Y12930605D01*
X113145303Y13612394D01*
X113827093Y13612394D01*
X113827093Y12930605D01*
X113827093Y12930605D01*
G37*
X113827093Y12930605D02*
X113145303Y12930605D01*
X113145303Y13612394D01*
X113827093Y13612394D01*
X113827093Y12930605D01*
G36*
X114508882Y11607131D02*
X113827093Y11607131D01*
X113827093Y12248815D01*
X114508882Y12248815D01*
X114508882Y11607131D01*
X114508882Y11607131D01*
G37*
X114508882Y11607131D02*
X113827093Y11607131D01*
X113827093Y12248815D01*
X114508882Y12248815D01*
X114508882Y11607131D01*
G36*
X113145303Y11607131D02*
X112503619Y11607131D01*
X112503619Y12248815D01*
X113145303Y12248815D01*
X113145303Y11607131D01*
X113145303Y11607131D01*
G37*
X113145303Y11607131D02*
X112503619Y11607131D01*
X112503619Y12248815D01*
X113145303Y12248815D01*
X113145303Y11607131D01*
G36*
X115150566Y10243552D02*
X114508882Y10243552D01*
X114508882Y10925342D01*
X115150566Y10925342D01*
X115150566Y10243552D01*
X115150566Y10243552D01*
G37*
X115150566Y10243552D02*
X114508882Y10243552D01*
X114508882Y10925342D01*
X115150566Y10925342D01*
X115150566Y10243552D01*
G36*
X113827093Y10243552D02*
X113145303Y10243552D01*
X113145303Y10925342D01*
X113827093Y10925342D01*
X113827093Y10243552D01*
X113827093Y10243552D01*
G37*
X113827093Y10243552D02*
X113145303Y10243552D01*
X113145303Y10925342D01*
X113827093Y10925342D01*
X113827093Y10243552D01*
G36*
X112503619Y10243552D02*
X111821829Y10243552D01*
X111821829Y10925342D01*
X112503619Y10925342D01*
X112503619Y10243552D01*
X112503619Y10243552D01*
G37*
X112503619Y10243552D02*
X111821829Y10243552D01*
X111821829Y10925342D01*
X112503619Y10925342D01*
X112503619Y10243552D01*
G36*
X115832356Y8920079D02*
X115150566Y8920079D01*
X115150566Y9601868D01*
X115832356Y9601868D01*
X115832356Y8920079D01*
X115832356Y8920079D01*
G37*
X115832356Y8920079D02*
X115150566Y8920079D01*
X115150566Y9601868D01*
X115832356Y9601868D01*
X115832356Y8920079D01*
G36*
X111821829Y8920079D02*
X111140040Y8920079D01*
X111140040Y9601868D01*
X111821829Y9601868D01*
X111821829Y8920079D01*
X111821829Y8920079D01*
G37*
X111821829Y8920079D02*
X111140040Y8920079D01*
X111140040Y9601868D01*
X111821829Y9601868D01*
X111821829Y8920079D01*
G36*
X113512935Y16117898D02*
X113721976Y16115590D01*
X113910122Y16108589D01*
X114082911Y16096215D01*
X114245881Y16077789D01*
X114404571Y16052630D01*
X114564519Y16020059D01*
X114731263Y15979395D01*
X114807521Y15958953D01*
X115158759Y15849078D01*
X115499118Y15715461D01*
X115827308Y15558769D01*
X116142039Y15379669D01*
X116442022Y15178830D01*
X116698266Y14980093D01*
X116963814Y14743082D01*
X117211960Y14488016D01*
X117441553Y14216694D01*
X117651443Y13930913D01*
X117840477Y13632472D01*
X118007505Y13323168D01*
X118151374Y13004799D01*
X118270933Y12679164D01*
X118353045Y12396199D01*
X118408742Y12160434D01*
X118451454Y11938226D01*
X118482431Y11720505D01*
X118502924Y11498195D01*
X118514184Y11262226D01*
X118515285Y11219447D01*
X118510705Y10851789D01*
X118480061Y10490049D01*
X118423363Y10134275D01*
X118340619Y9784519D01*
X118231840Y9440828D01*
X118123718Y9164732D01*
X118076422Y9054812D01*
X118035896Y8963599D01*
X117999064Y8884941D01*
X117962851Y8812688D01*
X117924181Y8740688D01*
X117879977Y8662790D01*
X117830924Y8579184D01*
X117630135Y8265464D01*
X117411011Y7971190D01*
X117173330Y7696138D01*
X116916869Y7440085D01*
X116641404Y7202807D01*
X116346712Y6984082D01*
X116039566Y6787826D01*
X115950590Y6735667D01*
X115873263Y6691917D01*
X115801433Y6653500D01*
X115728950Y6617340D01*
X115649663Y6580362D01*
X115557419Y6539489D01*
X115454018Y6495032D01*
X115291941Y6428425D01*
X115142522Y6372781D01*
X114995803Y6324802D01*
X114841826Y6281192D01*
X114702724Y6246273D01*
X114425643Y6186392D01*
X114161063Y6143147D01*
X113901311Y6115628D01*
X113638712Y6102924D01*
X113486198Y6101952D01*
X113399935Y6102819D01*
X113318889Y6104007D01*
X113248353Y6105409D01*
X113193623Y6106920D01*
X113159993Y6108432D01*
X113158671Y6108527D01*
X112794589Y6148867D01*
X112436262Y6214528D01*
X112085136Y6304977D01*
X111742659Y6419678D01*
X111410278Y6558097D01*
X111089439Y6719699D01*
X110781589Y6903950D01*
X110527348Y7080844D01*
X110236101Y7313849D01*
X109965476Y7563720D01*
X109715851Y7829907D01*
X109487604Y8111856D01*
X109281112Y8409016D01*
X109096753Y8720833D01*
X108934905Y9046756D01*
X108795945Y9386232D01*
X108680251Y9738710D01*
X108659797Y9811229D01*
X108615391Y9982671D01*
X108579374Y10144902D01*
X108551066Y10303460D01*
X108529787Y10463882D01*
X108514857Y10631708D01*
X108505597Y10812475D01*
X108501325Y11011723D01*
X108500852Y11105815D01*
X108501989Y11199055D01*
X109398114Y11199055D01*
X109398288Y11064086D01*
X109401093Y10929914D01*
X109406476Y10803385D01*
X109414387Y10691346D01*
X109420652Y10631236D01*
X109474334Y10298946D01*
X109552905Y9976225D01*
X109656063Y9663705D01*
X109783504Y9362018D01*
X109934927Y9071793D01*
X110110029Y8793663D01*
X110308509Y8528258D01*
X110530062Y8276210D01*
X110567680Y8237114D01*
X110793759Y8023094D01*
X111039152Y7824466D01*
X111299313Y7644559D01*
X111569693Y7486704D01*
X111646811Y7446809D01*
X111772130Y7385084D01*
X111882010Y7334189D01*
X111983900Y7291128D01*
X112085245Y7252906D01*
X112193494Y7216528D01*
X112303093Y7182853D01*
X112621767Y7099632D01*
X112934610Y7041609D01*
X113244065Y7008560D01*
X113552571Y7000260D01*
X113862569Y7016481D01*
X113974640Y7028237D01*
X114290146Y7076984D01*
X114592598Y7147399D01*
X114886220Y7240746D01*
X115175233Y7358287D01*
X115338530Y7436094D01*
X115625910Y7593431D01*
X115894400Y7768143D01*
X116145277Y7961386D01*
X116379816Y8174310D01*
X116599293Y8408071D01*
X116804986Y8663820D01*
X116987332Y8925957D01*
X117029648Y8995333D01*
X117079035Y9083127D01*
X117132425Y9183243D01*
X117186753Y9289584D01*
X117238955Y9396053D01*
X117285965Y9496556D01*
X117324718Y9584994D01*
X117347350Y9641973D01*
X117453232Y9964569D01*
X117533057Y10289181D01*
X117586755Y10614900D01*
X117614260Y10940811D01*
X117615502Y11266004D01*
X117590414Y11589567D01*
X117538928Y11910586D01*
X117522417Y11988131D01*
X117465745Y12217677D01*
X117401227Y12430196D01*
X117325542Y12635014D01*
X117235367Y12841456D01*
X117171941Y12971939D01*
X117014122Y13256315D01*
X116834207Y13526524D01*
X116633489Y13781354D01*
X116413261Y14019592D01*
X116174815Y14240026D01*
X115919445Y14441443D01*
X115648444Y14622630D01*
X115363104Y14782376D01*
X115120272Y14896113D01*
X114831213Y15007936D01*
X114540596Y15095511D01*
X114245039Y15159525D01*
X113941157Y15200666D01*
X113625569Y15219621D01*
X113519619Y15221119D01*
X113185986Y15210390D01*
X112863245Y15175621D01*
X112550091Y15116418D01*
X112245222Y15032388D01*
X111947334Y14923135D01*
X111655124Y14788266D01*
X111367289Y14627388D01*
X111197694Y14519246D01*
X110962859Y14348252D01*
X110736841Y14155400D01*
X110522404Y13943929D01*
X110322310Y13717079D01*
X110139322Y13478090D01*
X109976204Y13230200D01*
X109835719Y12976649D01*
X109777116Y12853838D01*
X109673700Y12609865D01*
X109589100Y12375358D01*
X109521299Y12143024D01*
X109468281Y11905571D01*
X109428029Y11655706D01*
X109413880Y11540289D01*
X109405858Y11444003D01*
X109400620Y11327976D01*
X109398114Y11199055D01*
X108501989Y11199055D01*
X108503791Y11346650D01*
X108513684Y11567057D01*
X108531493Y11772668D01*
X108558183Y11969114D01*
X108594718Y12162025D01*
X108642060Y12357031D01*
X108701174Y12559764D01*
X108773024Y12775854D01*
X108799457Y12850394D01*
X108931473Y13178342D01*
X109087836Y13495536D01*
X109268224Y13801535D01*
X109472318Y14095896D01*
X109699794Y14378178D01*
X109950333Y14647939D01*
X110223612Y14904736D01*
X110403549Y15056619D01*
X110548102Y15166923D01*
X110712379Y15280314D01*
X110890247Y15393068D01*
X111075575Y15501459D01*
X111262231Y15601763D01*
X111444084Y15690255D01*
X111454198Y15694875D01*
X111572026Y15745187D01*
X111708752Y15798047D01*
X111857016Y15850965D01*
X112009457Y15901448D01*
X112158716Y15947007D01*
X112297432Y15985150D01*
X112351135Y15998444D01*
X112508144Y16033421D01*
X112657996Y16061480D01*
X112806214Y16083190D01*
X112958325Y16099119D01*
X113119855Y16109835D01*
X113296330Y16115906D01*
X113493274Y16117900D01*
X113512935Y16117898D01*
X113512935Y16117898D01*
G37*
X113512935Y16117898D02*
X113721976Y16115590D01*
X113910122Y16108589D01*
X114082911Y16096215D01*
X114245881Y16077789D01*
X114404571Y16052630D01*
X114564519Y16020059D01*
X114731263Y15979395D01*
X114807521Y15958953D01*
X115158759Y15849078D01*
X115499118Y15715461D01*
X115827308Y15558769D01*
X116142039Y15379669D01*
X116442022Y15178830D01*
X116698266Y14980093D01*
X116963814Y14743082D01*
X117211960Y14488016D01*
X117441553Y14216694D01*
X117651443Y13930913D01*
X117840477Y13632472D01*
X118007505Y13323168D01*
X118151374Y13004799D01*
X118270933Y12679164D01*
X118353045Y12396199D01*
X118408742Y12160434D01*
X118451454Y11938226D01*
X118482431Y11720505D01*
X118502924Y11498195D01*
X118514184Y11262226D01*
X118515285Y11219447D01*
X118510705Y10851789D01*
X118480061Y10490049D01*
X118423363Y10134275D01*
X118340619Y9784519D01*
X118231840Y9440828D01*
X118123718Y9164732D01*
X118076422Y9054812D01*
X118035896Y8963599D01*
X117999064Y8884941D01*
X117962851Y8812688D01*
X117924181Y8740688D01*
X117879977Y8662790D01*
X117830924Y8579184D01*
X117630135Y8265464D01*
X117411011Y7971190D01*
X117173330Y7696138D01*
X116916869Y7440085D01*
X116641404Y7202807D01*
X116346712Y6984082D01*
X116039566Y6787826D01*
X115950590Y6735667D01*
X115873263Y6691917D01*
X115801433Y6653500D01*
X115728950Y6617340D01*
X115649663Y6580362D01*
X115557419Y6539489D01*
X115454018Y6495032D01*
X115291941Y6428425D01*
X115142522Y6372781D01*
X114995803Y6324802D01*
X114841826Y6281192D01*
X114702724Y6246273D01*
X114425643Y6186392D01*
X114161063Y6143147D01*
X113901311Y6115628D01*
X113638712Y6102924D01*
X113486198Y6101952D01*
X113399935Y6102819D01*
X113318889Y6104007D01*
X113248353Y6105409D01*
X113193623Y6106920D01*
X113159993Y6108432D01*
X113158671Y6108527D01*
X112794589Y6148867D01*
X112436262Y6214528D01*
X112085136Y6304977D01*
X111742659Y6419678D01*
X111410278Y6558097D01*
X111089439Y6719699D01*
X110781589Y6903950D01*
X110527348Y7080844D01*
X110236101Y7313849D01*
X109965476Y7563720D01*
X109715851Y7829907D01*
X109487604Y8111856D01*
X109281112Y8409016D01*
X109096753Y8720833D01*
X108934905Y9046756D01*
X108795945Y9386232D01*
X108680251Y9738710D01*
X108659797Y9811229D01*
X108615391Y9982671D01*
X108579374Y10144902D01*
X108551066Y10303460D01*
X108529787Y10463882D01*
X108514857Y10631708D01*
X108505597Y10812475D01*
X108501325Y11011723D01*
X108500852Y11105815D01*
X108501989Y11199055D01*
X109398114Y11199055D01*
X109398288Y11064086D01*
X109401093Y10929914D01*
X109406476Y10803385D01*
X109414387Y10691346D01*
X109420652Y10631236D01*
X109474334Y10298946D01*
X109552905Y9976225D01*
X109656063Y9663705D01*
X109783504Y9362018D01*
X109934927Y9071793D01*
X110110029Y8793663D01*
X110308509Y8528258D01*
X110530062Y8276210D01*
X110567680Y8237114D01*
X110793759Y8023094D01*
X111039152Y7824466D01*
X111299313Y7644559D01*
X111569693Y7486704D01*
X111646811Y7446809D01*
X111772130Y7385084D01*
X111882010Y7334189D01*
X111983900Y7291128D01*
X112085245Y7252906D01*
X112193494Y7216528D01*
X112303093Y7182853D01*
X112621767Y7099632D01*
X112934610Y7041609D01*
X113244065Y7008560D01*
X113552571Y7000260D01*
X113862569Y7016481D01*
X113974640Y7028237D01*
X114290146Y7076984D01*
X114592598Y7147399D01*
X114886220Y7240746D01*
X115175233Y7358287D01*
X115338530Y7436094D01*
X115625910Y7593431D01*
X115894400Y7768143D01*
X116145277Y7961386D01*
X116379816Y8174310D01*
X116599293Y8408071D01*
X116804986Y8663820D01*
X116987332Y8925957D01*
X117029648Y8995333D01*
X117079035Y9083127D01*
X117132425Y9183243D01*
X117186753Y9289584D01*
X117238955Y9396053D01*
X117285965Y9496556D01*
X117324718Y9584994D01*
X117347350Y9641973D01*
X117453232Y9964569D01*
X117533057Y10289181D01*
X117586755Y10614900D01*
X117614260Y10940811D01*
X117615502Y11266004D01*
X117590414Y11589567D01*
X117538928Y11910586D01*
X117522417Y11988131D01*
X117465745Y12217677D01*
X117401227Y12430196D01*
X117325542Y12635014D01*
X117235367Y12841456D01*
X117171941Y12971939D01*
X117014122Y13256315D01*
X116834207Y13526524D01*
X116633489Y13781354D01*
X116413261Y14019592D01*
X116174815Y14240026D01*
X115919445Y14441443D01*
X115648444Y14622630D01*
X115363104Y14782376D01*
X115120272Y14896113D01*
X114831213Y15007936D01*
X114540596Y15095511D01*
X114245039Y15159525D01*
X113941157Y15200666D01*
X113625569Y15219621D01*
X113519619Y15221119D01*
X113185986Y15210390D01*
X112863245Y15175621D01*
X112550091Y15116418D01*
X112245222Y15032388D01*
X111947334Y14923135D01*
X111655124Y14788266D01*
X111367289Y14627388D01*
X111197694Y14519246D01*
X110962859Y14348252D01*
X110736841Y14155400D01*
X110522404Y13943929D01*
X110322310Y13717079D01*
X110139322Y13478090D01*
X109976204Y13230200D01*
X109835719Y12976649D01*
X109777116Y12853838D01*
X109673700Y12609865D01*
X109589100Y12375358D01*
X109521299Y12143024D01*
X109468281Y11905571D01*
X109428029Y11655706D01*
X109413880Y11540289D01*
X109405858Y11444003D01*
X109400620Y11327976D01*
X109398114Y11199055D01*
X108501989Y11199055D01*
X108503791Y11346650D01*
X108513684Y11567057D01*
X108531493Y11772668D01*
X108558183Y11969114D01*
X108594718Y12162025D01*
X108642060Y12357031D01*
X108701174Y12559764D01*
X108773024Y12775854D01*
X108799457Y12850394D01*
X108931473Y13178342D01*
X109087836Y13495536D01*
X109268224Y13801535D01*
X109472318Y14095896D01*
X109699794Y14378178D01*
X109950333Y14647939D01*
X110223612Y14904736D01*
X110403549Y15056619D01*
X110548102Y15166923D01*
X110712379Y15280314D01*
X110890247Y15393068D01*
X111075575Y15501459D01*
X111262231Y15601763D01*
X111444084Y15690255D01*
X111454198Y15694875D01*
X111572026Y15745187D01*
X111708752Y15798047D01*
X111857016Y15850965D01*
X112009457Y15901448D01*
X112158716Y15947007D01*
X112297432Y15985150D01*
X112351135Y15998444D01*
X112508144Y16033421D01*
X112657996Y16061480D01*
X112806214Y16083190D01*
X112958325Y16099119D01*
X113119855Y16109835D01*
X113296330Y16115906D01*
X113493274Y16117900D01*
X113512935Y16117898D01*
D14*
X86995000Y-101917500D03*
D15*
X84455000Y-101917500D03*
D16*
X83225000Y-92837500D03*
X82570001Y-93567500D03*
D17*
X81915000Y-94297500D02*
X83225002Y-92837500D01*
D16*
X88265000Y-91757500D03*
X88245000Y-92047500D03*
D17*
X88225000Y-92337500D02*
X88265000Y-91757500D01*
D14*
X48895000Y-44767500D03*
D15*
X46355000Y-44767500D03*
D16*
X45125000Y-35687500D03*
X44470001Y-36417500D03*
D17*
X43815000Y-37147500D02*
X45125002Y-35687500D01*
D16*
X50165000Y-34607500D03*
X50145000Y-34897500D03*
D17*
X50125000Y-35187500D02*
X50165000Y-34607500D01*
D14*
X67945000Y-44767500D03*
D15*
X65405000Y-44767500D03*
D16*
X64175000Y-35687500D03*
X63520001Y-36417500D03*
D17*
X62865000Y-37147500D02*
X64175002Y-35687500D01*
D16*
X69215000Y-34607500D03*
X69195000Y-34897500D03*
D17*
X69175000Y-35187500D02*
X69215000Y-34607500D01*
D16*
X88245000Y-34897500D03*
D17*
X88225000Y-35187500D02*
X88265000Y-34607500D01*
D16*
X88265000Y-34607500D03*
X82570001Y-36417500D03*
D17*
X81915000Y-37147500D02*
X83225002Y-35687500D01*
D16*
X83225000Y-35687500D03*
D15*
X84455000Y-44767500D03*
D14*
X86995000Y-44767500D03*
D16*
X107295000Y-34897500D03*
D17*
X107275000Y-35187500D02*
X107315000Y-34607500D01*
D16*
X107315000Y-34607500D03*
X101620001Y-36417500D03*
D17*
X100965000Y-37147500D02*
X102275002Y-35687500D01*
D16*
X102275000Y-35687500D03*
D15*
X103505000Y-44767500D03*
D14*
X106045000Y-44767500D03*
X48895000Y-63817500D03*
D15*
X46355000Y-63817500D03*
D16*
X45125000Y-54737500D03*
X44470001Y-55467500D03*
D17*
X43815000Y-56197500D02*
X45125002Y-54737500D01*
D16*
X50165000Y-53657500D03*
X50145000Y-53947500D03*
D17*
X50125000Y-54237500D02*
X50165000Y-53657500D01*
D16*
X69195000Y-53947500D03*
D17*
X69175000Y-54237500D02*
X69215000Y-53657500D01*
D16*
X69215000Y-53657500D03*
X63520001Y-55467500D03*
D17*
X62865000Y-56197500D02*
X64175002Y-54737500D01*
D16*
X64175000Y-54737500D03*
D15*
X65405000Y-63817500D03*
D14*
X67945000Y-63817500D03*
D16*
X88245000Y-53947500D03*
D17*
X88225000Y-54237500D02*
X88265000Y-53657500D01*
D16*
X88265000Y-53657500D03*
X82570001Y-55467500D03*
D17*
X81915000Y-56197500D02*
X83225002Y-54737500D01*
D16*
X83225000Y-54737500D03*
D15*
X84455000Y-63817500D03*
D14*
X86995000Y-63817500D03*
D16*
X107295000Y-53947500D03*
D17*
X107275000Y-54237500D02*
X107315000Y-53657500D01*
D16*
X107315000Y-53657500D03*
X101620001Y-55467500D03*
D17*
X100965000Y-56197500D02*
X102275002Y-54737500D01*
D16*
X102275000Y-54737500D03*
D15*
X103505000Y-63817500D03*
D14*
X106045000Y-63817500D03*
X48895000Y-82867500D03*
D15*
X46355000Y-82867500D03*
D16*
X45125000Y-73787500D03*
X44470001Y-74517500D03*
D17*
X43815000Y-75247500D02*
X45125002Y-73787500D01*
D16*
X50165000Y-72707500D03*
X50145000Y-72997500D03*
D17*
X50125000Y-73287500D02*
X50165000Y-72707500D01*
D16*
X69195000Y-72997500D03*
D17*
X69175000Y-73287500D02*
X69215000Y-72707500D01*
D16*
X69215000Y-72707500D03*
X63520001Y-74517500D03*
D17*
X62865000Y-75247500D02*
X64175002Y-73787500D01*
D16*
X64175000Y-73787500D03*
D15*
X65405000Y-82867500D03*
D14*
X67945000Y-82867500D03*
X86995000Y-82867500D03*
D15*
X84455000Y-82867500D03*
D16*
X83225000Y-73787500D03*
X82570001Y-74517500D03*
D17*
X81915000Y-75247500D02*
X83225002Y-73787500D01*
D16*
X88265000Y-72707500D03*
X88245000Y-72997500D03*
D17*
X88225000Y-73287500D02*
X88265000Y-72707500D01*
D14*
X106045000Y-82867500D03*
D15*
X103505000Y-82867500D03*
D16*
X102275000Y-73787500D03*
X101620001Y-74517500D03*
D17*
X100965000Y-75247500D02*
X102275002Y-73787500D01*
D16*
X107315000Y-72707500D03*
X107295000Y-72997500D03*
D17*
X107275000Y-73287500D02*
X107315000Y-72707500D01*
D14*
X48895000Y-101917500D03*
D15*
X46355000Y-101917500D03*
D16*
X45125000Y-92837500D03*
X44470001Y-93567500D03*
D17*
X43815000Y-94297500D02*
X45125002Y-92837500D01*
D16*
X50165000Y-91757500D03*
X50145000Y-92047500D03*
D17*
X50125000Y-92337500D02*
X50165000Y-91757500D01*
D16*
X69195000Y-92047500D03*
D17*
X69175000Y-92337500D02*
X69215000Y-91757500D01*
D16*
X69215000Y-91757500D03*
X63520001Y-93567500D03*
D17*
X62865000Y-94297500D02*
X64175002Y-92837500D01*
D16*
X64175000Y-92837500D03*
D15*
X65405000Y-101917500D03*
D14*
X67945000Y-101917500D03*
D16*
X107295000Y-92047500D03*
D17*
X107275000Y-92337500D02*
X107315000Y-91757500D01*
D16*
X107315000Y-91757500D03*
X101620001Y-93567500D03*
D17*
X100965000Y-94297500D02*
X102275002Y-92837500D01*
D16*
X102275000Y-92837500D03*
D15*
X103505000Y-101917500D03*
D14*
X106045000Y-101917500D03*
D16*
X50145000Y-111097500D03*
D17*
X50125000Y-111387500D02*
X50165000Y-110807500D01*
D16*
X50165000Y-110807500D03*
X44470001Y-112617500D03*
D17*
X43815000Y-113347500D02*
X45125002Y-111887500D01*
D16*
X45125000Y-111887500D03*
D15*
X46355000Y-120967500D03*
D14*
X48895000Y-120967500D03*
X67945000Y-120967500D03*
D15*
X65405000Y-120967500D03*
D16*
X64175000Y-111887500D03*
X63520001Y-112617500D03*
D17*
X62865000Y-113347500D02*
X64175002Y-111887500D01*
D16*
X69215000Y-110807500D03*
X69195000Y-111097500D03*
D17*
X69175000Y-111387500D02*
X69215000Y-110807500D01*
D16*
X88245000Y-111097500D03*
D17*
X88225000Y-111387500D02*
X88265000Y-110807500D01*
D16*
X88265000Y-110807500D03*
X82570001Y-112617500D03*
D17*
X81915000Y-113347500D02*
X83225002Y-111887500D01*
D16*
X83225000Y-111887500D03*
D15*
X84455000Y-120967500D03*
D14*
X86995000Y-120967500D03*
X106045000Y-120967500D03*
D15*
X103505000Y-120967500D03*
D16*
X102275000Y-111887500D03*
X101620001Y-112617500D03*
D17*
X100965000Y-113347500D02*
X102275002Y-111887500D01*
D16*
X107315000Y-110807500D03*
X107295000Y-111097500D03*
D17*
X107275000Y-111387500D02*
X107315000Y-110807500D01*
D16*
X99985000Y-65742500D03*
D17*
X100275000Y-65762500D02*
X99695000Y-65722500D01*
D16*
X99695000Y-65722500D03*
X101505000Y-71417499D03*
D17*
X102235000Y-72072500D02*
X100775000Y-70762498D01*
D16*
X100775000Y-70762500D03*
D15*
X109855000Y-69532500D03*
D14*
X109855000Y-66992500D03*
X109855000Y-105092500D03*
D15*
X109855000Y-107632500D03*
D16*
X100775000Y-108862500D03*
X101505000Y-109517499D03*
D17*
X102235000Y-110172500D02*
X100775000Y-108862498D01*
D16*
X99695000Y-103822500D03*
X99985000Y-103842500D03*
D17*
X100275000Y-103862500D02*
X99695000Y-103822500D01*
D16*
X59670000Y-111097500D03*
D17*
X59650000Y-111387500D02*
X59690000Y-110807500D01*
D16*
X59690000Y-110807500D03*
X53995001Y-112617500D03*
D17*
X53340000Y-113347500D02*
X54650002Y-111887500D01*
D16*
X54650000Y-111887500D03*
D15*
X55880000Y-120967500D03*
D14*
X58420000Y-120967500D03*
D16*
X50145000Y2808800D03*
D17*
X50125000Y2518800D02*
X50165000Y3098800D01*
D16*
X50165000Y3098800D03*
X44470001Y1288800D03*
D17*
X43815000Y558800D02*
X45125002Y2018800D01*
D16*
X45125000Y2018800D03*
D15*
X46355000Y-7061200D03*
D14*
X48895000Y-7061200D03*
X67945000Y-7061200D03*
D15*
X65405000Y-7061200D03*
D16*
X64175000Y2018800D03*
X63520001Y1288800D03*
D17*
X62865000Y558800D02*
X64175002Y2018800D01*
D16*
X69215000Y3098800D03*
X69195000Y2808800D03*
D17*
X69175000Y2518800D02*
X69215000Y3098800D01*
D16*
X88245000Y2808800D03*
D17*
X88225000Y2518800D02*
X88265000Y3098800D01*
D16*
X88265000Y3098800D03*
X82570001Y1288800D03*
D17*
X81915000Y558800D02*
X83225002Y2018800D01*
D16*
X83225000Y2018800D03*
D15*
X84455000Y-7061200D03*
D14*
X86995000Y-7061200D03*
X106045000Y-7061200D03*
D15*
X103505000Y-7061200D03*
D16*
X102275000Y2018800D03*
X101620001Y1288800D03*
D17*
X100965000Y558800D02*
X102275002Y2018800D01*
D16*
X107315000Y3098800D03*
X107295000Y2808800D03*
D17*
X107275000Y2518800D02*
X107315000Y3098800D01*
D18*
X79851250Y-13493750D03*
X77311250Y-13493750D03*
X74771250Y-13493750D03*
D19*
X72231250Y-13493750D03*
D20*
X80168750Y13493750D03*
X72231250Y13493750D03*
D21*
X55816500Y-18986500D03*
X49276000Y-28829000D03*
X100076000Y-47371000D03*
X95885000Y-11430000D03*
X56642000Y-8890000D03*
X97155000Y-64770000D03*
X50419000Y-26543000D03*
X46736000Y-15494000D03*
X62357000Y-27051000D03*
X50673000Y-28956000D03*
X88519000Y-24257000D03*
X60452000Y-6096000D03*
X62484000Y-32766000D03*
X38608000Y-14859000D03*
X38989000Y-30226000D03*
X37719000Y-14859000D03*
X38989000Y-31115000D03*
X66167000Y-21209000D03*
X73152000Y-78994000D03*
X67056000Y-21209000D03*
X74549000Y-98044000D03*
X59817000Y-27940000D03*
X57912000Y-32893000D03*
X63119000Y-26162000D03*
X65151000Y-14732000D03*
X64262000Y-14732000D03*
X101219000Y-10668000D03*
X81153000Y-10414000D03*
X73152000Y-51054000D03*
X65786000Y-23749000D03*
X72517000Y-99314000D03*
X72390000Y-105029000D03*
X67945000Y-21209000D03*
X74549000Y-117221000D03*
X80137000Y-102489000D03*
X77724000Y-117221000D03*
X76200000Y-99822000D03*
X76200000Y-80391000D03*
X76200000Y-61341000D03*
X76200000Y-42291000D03*
X76200000Y-118491000D03*
X76581000Y-92710000D03*
X61976000Y-12446000D03*
X60833000Y-4826000D03*
X96774000Y-41656000D03*
X96774000Y-5080000D03*
X61722000Y-19685000D03*
X62865000Y-12446000D03*
X52959000Y-5969000D03*
X52959000Y-4191000D03*
X61976000Y-7300000D03*
X53975000Y-52070000D03*
X53848000Y-13081000D03*
D22*
X55816500Y-18986500D02*
X55816500Y-10477500D01*
X49276000Y-28575000D02*
X49276000Y-28829000D01*
X49911000Y-27940000D02*
X49276000Y-28575000D01*
X51054000Y-27940000D02*
X49911000Y-27940000D01*
X55816500Y-18986500D02*
X55816500Y-23177500D01*
X55816500Y-23177500D02*
X51054000Y-27940000D01*
X100076000Y-47371000D02*
X96012000Y-43307000D01*
X96012000Y-43307000D02*
X96012000Y-11557000D01*
X96012000Y-11557000D02*
X95885000Y-11430000D01*
X55816500Y-10477500D02*
X55816500Y-9715500D01*
X55816500Y-9715500D02*
X56642000Y-8890000D01*
X46355000Y-63817500D02*
X45085000Y-62547500D01*
X45085000Y-62547500D02*
X45085000Y-57404000D01*
X45085000Y-57404000D02*
X46863000Y-55626000D01*
X46863000Y-55626000D02*
X46863000Y-53975000D01*
X46863000Y-53975000D02*
X45085000Y-52197000D01*
X45085000Y-46037500D02*
X46355000Y-44767500D01*
X45085000Y-52197000D02*
X45085000Y-46037500D01*
X46355000Y-101917500D02*
X46355000Y-101854000D01*
X46355000Y-101854000D02*
X45085000Y-100584000D01*
X45085000Y-100584000D02*
X45085000Y-95504000D01*
X45085000Y-95504000D02*
X46863000Y-93726000D01*
X46863000Y-93726000D02*
X46863000Y-92075000D01*
X46863000Y-92075000D02*
X45085000Y-90297000D01*
X45085000Y-84137500D02*
X46355000Y-82867500D01*
X45085000Y-90297000D02*
X45085000Y-84137500D01*
X46355000Y-82867500D02*
X46355000Y-82804000D01*
X46355000Y-82804000D02*
X45085000Y-81534000D01*
X45085000Y-81534000D02*
X45085000Y-76581000D01*
X45085000Y-76581000D02*
X46863000Y-74803000D01*
X46863000Y-74803000D02*
X46863000Y-73025000D01*
X46863000Y-73025000D02*
X45085000Y-71247000D01*
X45085000Y-65087500D02*
X46355000Y-63817500D01*
X45085000Y-71247000D02*
X45085000Y-65087500D01*
X65405000Y-120967500D02*
X65405000Y-120904000D01*
X65405000Y-120904000D02*
X64135000Y-119634000D01*
X64135000Y-119634000D02*
X64135000Y-114681000D01*
X64135000Y-114681000D02*
X65913000Y-112903000D01*
X65913000Y-112903000D02*
X65913000Y-111125000D01*
X65913000Y-111125000D02*
X64135000Y-109347000D01*
X64135000Y-103187500D02*
X65405000Y-101917500D01*
X64135000Y-109347000D02*
X64135000Y-103187500D01*
X65405000Y-101917500D02*
X65405000Y-101854000D01*
X65405000Y-101854000D02*
X64135000Y-100584000D01*
X64135000Y-100584000D02*
X64135000Y-95504000D01*
X64135000Y-95504000D02*
X65913000Y-93726000D01*
X65913000Y-93726000D02*
X65913000Y-92075000D01*
X65913000Y-92075000D02*
X64135000Y-90297000D01*
X64135000Y-84137500D02*
X65405000Y-82867500D01*
X64135000Y-90297000D02*
X64135000Y-84137500D01*
X65405000Y-82867500D02*
X65405000Y-82804000D01*
X65405000Y-82804000D02*
X64135000Y-81534000D01*
X64135000Y-81534000D02*
X64135000Y-76454000D01*
X64135000Y-76454000D02*
X65913000Y-74676000D01*
X65913000Y-74676000D02*
X65913000Y-73025000D01*
X65913000Y-73025000D02*
X64135000Y-71247000D01*
X64135000Y-65087500D02*
X65405000Y-63817500D01*
X64135000Y-71247000D02*
X64135000Y-65087500D01*
X65405000Y-63817500D02*
X65341500Y-63817500D01*
X65341500Y-63817500D02*
X64135000Y-62611000D01*
X64135000Y-62611000D02*
X64135000Y-57404000D01*
X64135000Y-57404000D02*
X65913000Y-55626000D01*
X65913000Y-55626000D02*
X65913000Y-53975000D01*
X65913000Y-53975000D02*
X64135000Y-52197000D01*
X64135000Y-46037500D02*
X65405000Y-44767500D01*
X64135000Y-52197000D02*
X64135000Y-46037500D01*
X84455000Y-44767500D02*
X84455000Y-44831000D01*
X84455000Y-44831000D02*
X83185000Y-46101000D01*
X83185000Y-46101000D02*
X83185000Y-52324000D01*
X83185000Y-52324000D02*
X84963000Y-54102000D01*
X84963000Y-54102000D02*
X84963000Y-55626000D01*
X84963000Y-55626000D02*
X83185000Y-57404000D01*
X83185000Y-62547500D02*
X84455000Y-63817500D01*
X83185000Y-57404000D02*
X83185000Y-62547500D01*
X84455000Y-63817500D02*
X84391500Y-63817500D01*
X84391500Y-63817500D02*
X83185000Y-65024000D01*
X83185000Y-65024000D02*
X83185000Y-71120000D01*
X83185000Y-71120000D02*
X84963000Y-72898000D01*
X84963000Y-72898000D02*
X84963000Y-74676000D01*
X84963000Y-74676000D02*
X83185000Y-76454000D01*
X83185000Y-81597500D02*
X84455000Y-82867500D01*
X83185000Y-76454000D02*
X83185000Y-81597500D01*
X84455000Y-82867500D02*
X84455000Y-82931000D01*
X84455000Y-82931000D02*
X83185000Y-84201000D01*
X83185000Y-84201000D02*
X83185000Y-90297000D01*
X83185000Y-90297000D02*
X84963000Y-92075000D01*
X84963000Y-92075000D02*
X84963000Y-93726000D01*
X84963000Y-93726000D02*
X83185000Y-95504000D01*
X83185000Y-100647500D02*
X84455000Y-101917500D01*
X83185000Y-95504000D02*
X83185000Y-100647500D01*
X84455000Y-101917500D02*
X84455000Y-101981000D01*
X84455000Y-101981000D02*
X83185000Y-103251000D01*
X83185000Y-103251000D02*
X83185000Y-109347000D01*
X83185000Y-109347000D02*
X84963000Y-111125000D01*
X84963000Y-111125000D02*
X84963000Y-112776000D01*
X84963000Y-112776000D02*
X83185000Y-114554000D01*
X83185000Y-119697500D02*
X84455000Y-120967500D01*
X83185000Y-114554000D02*
X83185000Y-119697500D01*
X103505000Y-7061200D02*
X103505000Y-7112000D01*
X103505000Y-7112000D02*
X102235000Y-8382000D01*
X102235000Y-8382000D02*
X102235000Y-33020000D01*
X102235000Y-33020000D02*
X104013000Y-34798000D01*
X104013000Y-34798000D02*
X104013000Y-36703000D01*
X104013000Y-36703000D02*
X102235000Y-38481000D01*
X102235000Y-43497500D02*
X103505000Y-44767500D01*
X102235000Y-38481000D02*
X102235000Y-43497500D01*
X103505000Y-44767500D02*
X103505000Y-44831000D01*
X103505000Y-44831000D02*
X102235000Y-46101000D01*
X102235000Y-46101000D02*
X102235000Y-52197000D01*
X102235000Y-52197000D02*
X104013000Y-53975000D01*
X104013000Y-53975000D02*
X104013000Y-55626000D01*
X104013000Y-55626000D02*
X102235000Y-57404000D01*
X102235000Y-62547500D02*
X103505000Y-63817500D01*
X102235000Y-57404000D02*
X102235000Y-62547500D01*
X103505000Y-63817500D02*
X103505000Y-64262000D01*
X103505000Y-64262000D02*
X104775000Y-65532000D01*
X104775000Y-65532000D02*
X105791000Y-65532000D01*
X105791000Y-65532000D02*
X107442000Y-67183000D01*
X107442000Y-67183000D02*
X107442000Y-67818000D01*
X109156500Y-69532500D02*
X109855000Y-69532500D01*
X107442000Y-67818000D02*
X109156500Y-69532500D01*
X103505000Y-82867500D02*
X103505000Y-82931000D01*
X103505000Y-82931000D02*
X102235000Y-84201000D01*
X102235000Y-84201000D02*
X102235000Y-90297000D01*
X102235000Y-90297000D02*
X104013000Y-92075000D01*
X104013000Y-92075000D02*
X104013000Y-93853000D01*
X104013000Y-93853000D02*
X102235000Y-95631000D01*
X102235000Y-100647500D02*
X103505000Y-101917500D01*
X102235000Y-95631000D02*
X102235000Y-100647500D01*
X103505000Y-101917500D02*
X103505000Y-102616000D01*
X103505000Y-102616000D02*
X104648000Y-103759000D01*
X104648000Y-103759000D02*
X105918000Y-103759000D01*
X105918000Y-103759000D02*
X107442000Y-105283000D01*
X107442000Y-105283000D02*
X107442000Y-106172000D01*
X108902500Y-107632500D02*
X109855000Y-107632500D01*
X107442000Y-106172000D02*
X108902500Y-107632500D01*
X46355000Y-104267000D02*
X46355000Y-101917500D01*
X48387000Y-106299000D02*
X46355000Y-104267000D01*
X48387000Y-109093000D02*
X48387000Y-106299000D01*
X46355000Y-120904000D02*
X45085000Y-119634000D01*
X46355000Y-120967500D02*
X46355000Y-120904000D01*
X45085000Y-119634000D02*
X45085000Y-114554000D01*
X45085000Y-114554000D02*
X46863000Y-112776000D01*
X46863000Y-112776000D02*
X46863000Y-110617000D01*
X46863000Y-110617000D02*
X48387000Y-109093000D01*
X103505000Y-120523000D02*
X103505000Y-120967500D01*
X104648000Y-119380000D02*
X103505000Y-120523000D01*
X105156000Y-119380000D02*
X104648000Y-119380000D01*
X109855000Y-107696000D02*
X110744000Y-108585000D01*
X110744000Y-108585000D02*
X110744000Y-110490000D01*
X109855000Y-107632500D02*
X109855000Y-107696000D01*
X110744000Y-110490000D02*
X107442000Y-113792000D01*
X107442000Y-113792000D02*
X107442000Y-117094000D01*
X107442000Y-117094000D02*
X105156000Y-119380000D01*
X110744000Y-70421500D02*
X109855000Y-69532500D01*
X110744000Y-72390000D02*
X110744000Y-70421500D01*
X103505000Y-81534000D02*
X104648000Y-80391000D01*
X103505000Y-82867500D02*
X103505000Y-81534000D01*
X104648000Y-80391000D02*
X105918000Y-80391000D01*
X105918000Y-80391000D02*
X107442000Y-78867000D01*
X107442000Y-78867000D02*
X107442000Y-75692000D01*
X107442000Y-75692000D02*
X110744000Y-72390000D01*
X96520000Y-65405000D02*
X97155000Y-64770000D01*
X85471000Y-65405000D02*
X96520000Y-65405000D01*
X84455000Y-64389000D02*
X85471000Y-65405000D01*
X84455000Y-63817500D02*
X84455000Y-64389000D01*
X50419000Y-26543000D02*
X50419000Y-19431000D01*
X50419000Y-19431000D02*
X50419000Y-19177000D01*
X50419000Y-19177000D02*
X46736000Y-15494000D01*
X53975000Y-8763000D02*
X56642000Y-6096000D01*
X47498000Y-8763000D02*
X53975000Y-8763000D01*
X46355000Y-7620000D02*
X47498000Y-8763000D01*
X46355000Y-7061200D02*
X46355000Y-7620000D01*
X50927000Y-28702000D02*
X50673000Y-28956000D01*
X51308000Y-28702000D02*
X50927000Y-28702000D01*
X52959000Y-27051000D02*
X51308000Y-28702000D01*
X62357000Y-27051000D02*
X52959000Y-27051000D01*
X84455000Y-7112000D02*
X84455000Y-7061200D01*
X83185000Y-8382000D02*
X84455000Y-7112000D01*
X83185000Y-12446000D02*
X83185000Y-8382000D01*
X83185000Y-43497500D02*
X83185000Y-38354000D01*
X88011000Y-17272000D02*
X83185000Y-12446000D01*
X83185000Y-38354000D02*
X84963000Y-36576000D01*
X84963000Y-36576000D02*
X84963000Y-29972000D01*
X84455000Y-44767500D02*
X83185000Y-43497500D01*
X84963000Y-29972000D02*
X88011000Y-26924000D01*
X88519000Y-24257000D02*
X88011000Y-24257000D01*
X88011000Y-26924000D02*
X88011000Y-24257000D01*
X88011000Y-24257000D02*
X88011000Y-17272000D01*
X56642000Y-6096000D02*
X60452000Y-6096000D01*
X62484000Y-27178000D02*
X62357000Y-27051000D01*
X62484000Y-32766000D02*
X62484000Y-27178000D01*
D23*
X38608000Y-14859000D02*
X38608000Y-14986000D01*
X38608000Y-14986000D02*
X37973000Y-15621000D01*
X37973000Y-15621000D02*
X37084000Y-15621000D01*
X37084000Y-15621000D02*
X35560000Y-17145000D01*
X35560000Y-17145000D02*
X35560000Y-27178000D01*
X38608000Y-30226000D02*
X38862000Y-30226000D01*
X35560000Y-27178000D02*
X38608000Y-30226000D01*
X38862000Y-30226000D02*
X38989000Y-30226000D01*
X35052000Y-16891000D02*
X35052000Y-27432000D01*
X38735000Y-31115000D02*
X38989000Y-31115000D01*
X35052000Y-27432000D02*
X38735000Y-31115000D01*
X37465000Y-15113000D02*
X37719000Y-14859000D01*
X36830000Y-15113000D02*
X37465000Y-15113000D01*
X36830000Y-15113000D02*
X35052000Y-16891000D01*
X73787000Y-32512000D02*
X73787000Y-78359000D01*
X73787000Y-78359000D02*
X73152000Y-78994000D01*
X66548000Y-25273000D02*
X66548000Y-21844000D01*
X66548000Y-25273000D02*
X73787000Y-32512000D01*
X66167000Y-21463000D02*
X66167000Y-21209000D01*
X66548000Y-21844000D02*
X66167000Y-21463000D01*
X67056000Y-21209000D02*
X67056000Y-25019000D01*
X67056000Y-25019000D02*
X74295000Y-32258000D01*
X74295000Y-32258000D02*
X74295000Y-97790000D01*
X74295000Y-97790000D02*
X74549000Y-98044000D01*
X44450000Y-76200D02*
X43815000Y558800D01*
X45125000Y-35687500D02*
X44450000Y-35012500D01*
X44450000Y-37782500D02*
X43815000Y-37147500D01*
X43815000Y-94297500D02*
X44450000Y-93662500D01*
X44450000Y-93662500D02*
X44450000Y-37782500D01*
X45125000Y-111466000D02*
X45125000Y-111887500D01*
X43815000Y-94742000D02*
X44450000Y-95377000D01*
X44450000Y-95377000D02*
X44450000Y-103251000D01*
X44450000Y-103251000D02*
X47752000Y-106553000D01*
X43815000Y-94297500D02*
X43815000Y-94742000D01*
X47752000Y-106553000D02*
X47752000Y-108839000D01*
X47752000Y-108839000D02*
X45125000Y-111466000D01*
X59944000Y-28067000D02*
X59817000Y-27940000D01*
X59944000Y-30861000D02*
X59944000Y-28067000D01*
X57912000Y-32893000D02*
X59944000Y-30861000D01*
X43815000Y-37147500D02*
X43815000Y-36957000D01*
X43815000Y-36957000D02*
X34544000Y-27686000D01*
X34544000Y-16637000D02*
X44450000Y-6731000D01*
X34544000Y-27686000D02*
X34544000Y-16637000D01*
X44450000Y-6731000D02*
X44450000Y-76200D01*
X63500000Y-37782500D02*
X62865000Y-37147500D01*
X63500000Y-112712500D02*
X63500000Y-37782500D01*
X62865000Y-113347500D02*
X63500000Y-112712500D01*
X63500000Y-36512500D02*
X62865000Y-37147500D01*
X63119000Y-26162000D02*
X63500000Y-26162000D01*
X63500000Y-26162000D02*
X63500000Y-36512500D01*
X67894200Y558800D02*
X62865000Y558800D01*
X69469000Y-1016000D02*
X67894200Y558800D01*
X69469000Y-8509000D02*
X69469000Y-1016000D01*
X63500000Y-26162000D02*
X63500000Y-14478000D01*
X63500000Y-14478000D02*
X69469000Y-8509000D01*
X82550000Y-76200D02*
X81915000Y558800D01*
X82550000Y-10160000D02*
X81280000Y-11430000D01*
X82550000Y-9906000D02*
X82550000Y-10160000D01*
X82550000Y-9906000D02*
X82550000Y-76200D01*
X87376000Y-17526000D02*
X87376000Y-26670000D01*
X81280000Y-11430000D02*
X87376000Y-17526000D01*
X84328000Y-34734500D02*
X81915000Y-37147500D01*
X84328000Y-29718000D02*
X84328000Y-34734500D01*
X87376000Y-26670000D02*
X84328000Y-29718000D01*
X68199000Y-11430000D02*
X81280000Y-11430000D01*
X65151000Y-14732000D02*
X65151000Y-14351000D01*
X68072000Y-11430000D02*
X68199000Y-11430000D01*
X65151000Y-14351000D02*
X68072000Y-11430000D01*
X82550000Y-37782500D02*
X81915000Y-37147500D01*
X81915000Y-113347500D02*
X82550000Y-112712500D01*
X82550000Y-112712500D02*
X82550000Y-37782500D01*
X101600000Y-76200D02*
X100965000Y558800D01*
X100965000Y-56197500D02*
X101600000Y-55562500D01*
X102235000Y-73977500D02*
X100965000Y-75247500D01*
X102235000Y-72072500D02*
X102235000Y-73977500D01*
X102235000Y-112077500D02*
X100965000Y-113347500D01*
X102235000Y-110172500D02*
X102235000Y-112077500D01*
X101600000Y-75882500D02*
X100965000Y-75247500D01*
X101600000Y-108037500D02*
X101600000Y-105156000D01*
X100775000Y-108862500D02*
X101600000Y-108037500D01*
X101981000Y-104775000D02*
X101981000Y-103124000D01*
X101981000Y-103124000D02*
X101600000Y-102743000D01*
X101600000Y-105156000D02*
X101981000Y-104775000D01*
X101600000Y-102743000D02*
X101600000Y-75882500D01*
X102235000Y-72072500D02*
X101600000Y-71437500D01*
X101600000Y-56832500D02*
X100965000Y-56197500D01*
X101600000Y-71437500D02*
X101600000Y-67056000D01*
X101600000Y-67056000D02*
X101981000Y-66675000D01*
X101981000Y-66675000D02*
X101981000Y-64897000D01*
X101981000Y-64897000D02*
X101600000Y-64516000D01*
X101600000Y-64516000D02*
X101600000Y-56832500D01*
X101600000Y-55562500D02*
X101600000Y-25146000D01*
X80772000Y-10922000D02*
X81026000Y-10668000D01*
X101473000Y-10668000D02*
X101600000Y-10541000D01*
X101219000Y-10668000D02*
X101473000Y-10668000D01*
X101600000Y-25146000D02*
X101600000Y-10541000D01*
X101600000Y-10541000D02*
X101600000Y-76200D01*
X64262000Y-14478000D02*
X67818000Y-10922000D01*
X64262000Y-14732000D02*
X64262000Y-14478000D01*
X80645000Y-10922000D02*
X80518000Y-10922000D01*
X81153000Y-10414000D02*
X80645000Y-10922000D01*
X67818000Y-10922000D02*
X80518000Y-10922000D01*
X80518000Y-10922000D02*
X80772000Y-10922000D01*
X73152000Y-51054000D02*
X73279000Y-50927000D01*
X73279000Y-50927000D02*
X73279000Y-32766000D01*
X73279000Y-32766000D02*
X66040000Y-25527000D01*
X66040000Y-25527000D02*
X66040000Y-24003000D01*
X66040000Y-24003000D02*
X65786000Y-23749000D01*
X72517000Y-99314000D02*
X72517000Y-104902000D01*
X72517000Y-104902000D02*
X72390000Y-105029000D01*
X80137000Y-102489000D02*
X77724000Y-104902000D01*
X77724000Y-104902000D02*
X77724000Y-117221000D01*
X67945000Y-21463000D02*
X67945000Y-21209000D01*
X67564000Y-21844000D02*
X67945000Y-21463000D01*
X67564000Y-24765000D02*
X67564000Y-21844000D01*
X74803000Y-32004000D02*
X67564000Y-24765000D01*
X74549000Y-117221000D02*
X74803000Y-116967000D01*
X74803000Y-116967000D02*
X74803000Y-32004000D01*
D22*
X76200000Y-99822000D02*
X76200000Y-92710000D01*
X76200000Y-80391000D02*
X76200000Y-61341000D01*
X76200000Y-61341000D02*
X76200000Y-42291000D01*
X76200000Y-99822000D02*
X76200000Y-118491000D01*
X76581000Y-92710000D02*
X76200000Y-92710000D01*
X76200000Y-92710000D02*
X76200000Y-80391000D01*
X61214000Y-11684000D02*
X61976000Y-12446000D01*
X61214000Y-5207000D02*
X61214000Y-11684000D01*
X61214000Y-5207000D02*
X60833000Y-4826000D01*
X96774000Y-41656000D02*
X96774000Y-40767000D01*
X96774000Y-40767000D02*
X96774000Y-5080000D01*
D23*
X106045000Y-81153000D02*
X106045000Y-82867500D01*
X108077000Y-79121000D02*
X106045000Y-81153000D01*
X108077000Y-75946000D02*
X108077000Y-79121000D01*
X111379000Y-72644000D02*
X108077000Y-75946000D01*
X109855000Y-66992500D02*
X111379000Y-68516500D01*
X111379000Y-68516500D02*
X111379000Y-72644000D01*
X109855000Y-105092500D02*
X109855000Y-105156000D01*
X109855000Y-105156000D02*
X111379000Y-106680000D01*
X111379000Y-106680000D02*
X111379000Y-110744000D01*
X111379000Y-110744000D02*
X108077000Y-114046000D01*
X108077000Y-114046000D02*
X108077000Y-117348000D01*
X106045000Y-119380000D02*
X106045000Y-120967500D01*
X108077000Y-117348000D02*
X106045000Y-119380000D01*
X61722000Y-19685000D02*
X62738000Y-18669000D01*
X62738000Y-18669000D02*
X62992000Y-18415000D01*
X62992000Y-18415000D02*
X62992000Y-12573000D01*
X62992000Y-12573000D02*
X62865000Y-12446000D01*
X52959000Y-5969000D02*
X52959000Y-4191000D01*
X66471800Y-5588000D02*
X67945000Y-7061200D01*
X64643000Y-5588000D02*
X66471800Y-5588000D01*
X63688000Y-5588000D02*
X61976000Y-7300000D01*
X64643000Y-5588000D02*
X63688000Y-5588000D01*
X54102000Y-51943000D02*
X53975000Y-52070000D01*
X54102000Y-36068000D02*
X54102000Y-51943000D01*
X53848000Y-13081000D02*
X53848000Y-24257000D01*
X50800000Y-27305000D02*
X49657000Y-27305000D01*
X49657000Y-27305000D02*
X48514000Y-28448000D01*
X53848000Y-24257000D02*
X50800000Y-27305000D01*
X48514000Y-28448000D02*
X48514000Y-30480000D01*
X48514000Y-30480000D02*
X54102000Y-36068000D01*
M02*
